%TF.GenerationSoftware,KiCad,Pcbnew,10.0.5*%
%TF.CreationDate,2026-08-24T12:30:52-07:00*%
%TF.ProjectId,VideoULA_Programmer,56696465-6f55-44c4-915f-50726f677261,01*%
%TF.SameCoordinates,Original*%
%TF.FileFunction,Soldermask,Top*%
%TF.FilePolarity,Negative*%
%FSLAX46Y46*%
G04 Gerber Fmt 4.6, Leading zero omitted, Abs format (unit mm)*
G04 Created by KiCad (PCBNEW 10.0.5) date 2026-08-24 12:30:52*
%MOMM*%
%LPD*%
G01*
G04 APERTURE LIST*
G04 Aperture macros list*
%AMRoundRect*
0 Rectangle with rounded corners*
0 $1 Rounding radius*
0 $2 $3 $4 $5 $6 $7 $8 $9 X,Y pos of 4 corners*
0 Add a 4 corners polygon primitive as box body*
4,1,4,$2,$3,$4,$5,$6,$7,$8,$9,$2,$3,0*
0 Add four circle primitives for the rounded corners*
1,1,$1+$1,$2,$3*
1,1,$1+$1,$4,$5*
1,1,$1+$1,$6,$7*
1,1,$1+$1,$8,$9*
0 Add four rect primitives between the rounded corners*
20,1,$1+$1,$2,$3,$4,$5,0*
20,1,$1+$1,$4,$5,$6,$7,0*
20,1,$1+$1,$6,$7,$8,$9,0*
20,1,$1+$1,$8,$9,$2,$3,0*%
G04 Aperture macros list end*
%ADD10O,1.504000X1.304000*%
%ADD11C,2.540000*%
%ADD12C,4.000000*%
%ADD13C,2.600000*%
%ADD14R,1.700000X1.700000*%
%ADD15C,1.700000*%
%ADD16C,2.700000*%
%ADD17C,1.600000*%
%ADD18RoundRect,0.250000X-0.550000X-0.550000X0.550000X-0.550000X0.550000X0.550000X-0.550000X0.550000X0*%
G04 APERTURE END LIST*
D10*
%TO.C,SW1*%
X97668000Y-58151000D03*
X100208000Y-58151000D03*
X102708000Y-58151000D03*
%TD*%
D11*
%TO.C,J1*%
X110622000Y-47763000D03*
D12*
X105542000Y-40143000D03*
X95382000Y-40143000D03*
D11*
X90302000Y-47763000D03*
D13*
X108082000Y-50303000D03*
X103002000Y-50303000D03*
X97922000Y-50303000D03*
X92842000Y-50303000D03*
%TD*%
D14*
%TO.C,J2*%
X95382000Y-68319000D03*
D15*
X95382000Y-65779000D03*
X97922000Y-68319000D03*
X97922000Y-65779000D03*
X100462000Y-68319000D03*
X100462000Y-65779000D03*
X103002000Y-68319000D03*
X103002000Y-65779000D03*
X105542000Y-68319000D03*
X105542000Y-65779000D03*
%TD*%
D16*
%TO.C,H4*%
X65782000Y-72383000D03*
%TD*%
%TO.C,H1*%
X65782000Y-40383000D03*
%TD*%
%TO.C,H3*%
X115782000Y-72383000D03*
%TD*%
D17*
%TO.C,R1*%
X90810000Y-65273000D03*
X90810000Y-55113000D03*
%TD*%
D18*
%TO.C,IC1*%
X70363000Y-39873000D03*
D17*
X70363000Y-42413000D03*
X70363000Y-44953000D03*
X70363000Y-47493000D03*
X70363000Y-50033000D03*
X70363000Y-52573000D03*
X70363000Y-55113000D03*
X70363000Y-57653000D03*
X70363000Y-60193000D03*
X70363000Y-62733000D03*
X70363000Y-65273000D03*
X70363000Y-67813000D03*
X70363000Y-70353000D03*
X70363000Y-72893000D03*
X85603000Y-72893000D03*
X85603000Y-70353000D03*
X85603000Y-67813000D03*
X85603000Y-65273000D03*
X85603000Y-62733000D03*
X85603000Y-60193000D03*
X85603000Y-57653000D03*
X85603000Y-55113000D03*
X85603000Y-52573000D03*
X85603000Y-50033000D03*
X85603000Y-47493000D03*
X85603000Y-44953000D03*
X85603000Y-42413000D03*
X85603000Y-39873000D03*
%TD*%
D16*
%TO.C,H2*%
X115782000Y-40383000D03*
%TD*%
M02*
