%TF.GenerationSoftware,KiCad,Pcbnew,10.0.5*%
%TF.CreationDate,2026-08-24T12:30:52-07:00*%
%TF.ProjectId,VideoULA_Programmer,56696465-6f55-44c4-915f-50726f677261,01*%
%TF.SameCoordinates,Original*%
%TF.FileFunction,Copper,L2,Bot*%
%TF.FilePolarity,Positive*%
%FSLAX46Y46*%
G04 Gerber Fmt 4.6, Leading zero omitted, Abs format (unit mm)*
G04 Created by KiCad (PCBNEW 10.0.5) date 2026-08-24 12:30:52*
%MOMM*%
%LPD*%
G01*
G04 APERTURE LIST*
G04 Aperture macros list*
%AMRoundRect*
0 Rectangle with rounded corners*
0 $1 Rounding radius*
0 $2 $3 $4 $5 $6 $7 $8 $9 X,Y pos of 4 corners*
0 Add a 4 corners polygon primitive as box body*
4,1,4,$2,$3,$4,$5,$6,$7,$8,$9,$2,$3,0*
0 Add four circle primitives for the rounded corners*
1,1,$1+$1,$2,$3*
1,1,$1+$1,$4,$5*
1,1,$1+$1,$6,$7*
1,1,$1+$1,$8,$9*
0 Add four rect primitives between the rounded corners*
20,1,$1+$1,$2,$3,$4,$5,0*
20,1,$1+$1,$4,$5,$6,$7,0*
20,1,$1+$1,$6,$7,$8,$9,0*
20,1,$1+$1,$8,$9,$2,$3,0*%
G04 Aperture macros list end*
%TA.AperFunction,ComponentPad*%
%ADD10O,1.300000X1.100000*%
%TD*%
%TA.AperFunction,ComponentPad*%
%ADD11C,2.600000*%
%TD*%
%TA.AperFunction,ComponentPad*%
%ADD12R,1.700000X1.700000*%
%TD*%
%TA.AperFunction,ComponentPad*%
%ADD13C,1.700000*%
%TD*%
%TA.AperFunction,ComponentPad*%
%ADD14C,1.600000*%
%TD*%
%TA.AperFunction,ComponentPad*%
%ADD15RoundRect,0.250000X-0.550000X-0.550000X0.550000X-0.550000X0.550000X0.550000X-0.550000X0.550000X0*%
%TD*%
%TA.AperFunction,Conductor*%
%ADD16C,0.250000*%
%TD*%
G04 APERTURE END LIST*
D10*
%TO.P,SW1,1,A_1*%
%TO.N,unconnected-(SW1-A-Pad1)*%
X97668000Y-58151000D03*
%TO.P,SW1,2,B_2*%
%TO.N,Net-(SW1-B)*%
X100208000Y-58151000D03*
%TO.P,SW1,3,C_3*%
%TO.N,+12V*%
X102708000Y-58151000D03*
%TD*%
D11*
%TO.P,J1,1,Pin_1_1*%
%TO.N,+12V*%
X108082000Y-50303000D03*
%TO.P,J1,2,Pin_2_2*%
%TO.N,GND*%
X103002000Y-50303000D03*
%TO.P,J1,3,Pin_3_3*%
X97922000Y-50303000D03*
%TO.P,J1,4,Pin_4_4*%
%TO.N,+5V*%
X92842000Y-50303000D03*
%TD*%
D12*
%TO.P,J2,1,Pin_1_1*%
%TO.N,/TCK*%
X95382000Y-68319000D03*
D13*
%TO.P,J2,2,Pin_2_2*%
%TO.N,GND*%
X95382000Y-65779000D03*
%TO.P,J2,3,Pin_3_3*%
%TO.N,/TDO*%
X97922000Y-68319000D03*
%TO.P,J2,4,Pin_4_4*%
%TO.N,+5V*%
X97922000Y-65779000D03*
%TO.P,J2,5,Pin_5_5*%
%TO.N,/TMS*%
X100462000Y-68319000D03*
%TO.P,J2,6,Pin_6_6*%
%TO.N,unconnected-(J2-Pin_6-Pad6)*%
X100462000Y-65779000D03*
%TO.P,J2,7,Pin_7_7*%
%TO.N,unconnected-(J2-Pin_7-Pad7)*%
X103002000Y-68319000D03*
%TO.P,J2,8,Pin_8_8*%
%TO.N,unconnected-(J2-Pin_8-Pad8)*%
X103002000Y-65779000D03*
%TO.P,J2,9,Pin_9_9*%
%TO.N,/TDI*%
X105542000Y-68319000D03*
%TO.P,J2,10,Pin_10_10*%
%TO.N,GND*%
X105542000Y-65779000D03*
%TD*%
D14*
%TO.P,R1,1*%
%TO.N,Net-(SW1-B)*%
X90810000Y-65273000D03*
%TO.P,R1,2*%
%TO.N,/Vpp*%
X90810000Y-55113000D03*
%TD*%
D15*
%TO.P,IC1,1,GND_1*%
%TO.N,GND*%
X70363000Y-39873000D03*
D14*
%TO.P,IC1,2,A0_2*%
%TO.N,unconnected-(IC1-A0-Pad2)*%
X70363000Y-42413000D03*
%TO.P,IC1,3,CS_3*%
%TO.N,/TDI*%
X70363000Y-44953000D03*
%TO.P,IC1,4,1MHz_CLK_4*%
%TO.N,unconnected-(IC1-1MHz_CLK-Pad4)*%
X70363000Y-47493000D03*
%TO.P,IC1,5,2MHz_CLK_5*%
%TO.N,unconnected-(IC1-2MHz_CLK-Pad5)*%
X70363000Y-50033000D03*
%TO.P,IC1,6,4MHz_CLK_6*%
%TO.N,unconnected-(IC1-4MHz_CLK-Pad6)*%
X70363000Y-52573000D03*
%TO.P,IC1,7,8MHz_CLK_7*%
%TO.N,/TMS*%
X70363000Y-55113000D03*
%TO.P,IC1,8,16MHz_CLK_8*%
%TO.N,unconnected-(IC1-16MHz_CLK-Pad8)*%
X70363000Y-57653000D03*
%TO.P,IC1,9,B_IN_9*%
%TO.N,unconnected-(IC1-B_IN-Pad9)*%
X70363000Y-60193000D03*
%TO.P,IC1,10,B_10*%
%TO.N,unconnected-(IC1-B-Pad10)*%
X70363000Y-62733000D03*
%TO.P,IC1,11,G_IN_11*%
%TO.N,unconnected-(IC1-G_IN-Pad11)*%
X70363000Y-65273000D03*
%TO.P,IC1,12,G_12*%
%TO.N,unconnected-(IC1-G-Pad12)*%
X70363000Y-67813000D03*
%TO.P,IC1,13,R_IN_13*%
%TO.N,unconnected-(IC1-R_IN-Pad13)*%
X70363000Y-70353000D03*
%TO.P,IC1,14,R_14*%
%TO.N,unconnected-(IC1-R-Pad14)*%
X70363000Y-72893000D03*
%TO.P,IC1,15*%
%TO.N,unconnected-(IC1-Pad15)*%
X85603000Y-72893000D03*
%TO.P,IC1,16,VCC_16*%
%TO.N,+5V*%
X85603000Y-70353000D03*
%TO.P,IC1,17,D0_17*%
%TO.N,unconnected-(IC1-D0-Pad17)*%
X85603000Y-67813000D03*
%TO.P,IC1,18,D1_18*%
%TO.N,unconnected-(IC1-D1-Pad18)*%
X85603000Y-65273000D03*
%TO.P,IC1,19,D2_19*%
%TO.N,unconnected-(IC1-D2-Pad19)*%
X85603000Y-62733000D03*
%TO.P,IC1,20,D3_20*%
%TO.N,unconnected-(IC1-D3-Pad20)*%
X85603000Y-60193000D03*
%TO.P,IC1,21,D4_21*%
%TO.N,unconnected-(IC1-D4-Pad21)*%
X85603000Y-57653000D03*
%TO.P,IC1,22,D5_22*%
%TO.N,unconnected-(IC1-D5-Pad22)*%
X85603000Y-55113000D03*
%TO.P,IC1,23,D6_23*%
%TO.N,/TDO*%
X85603000Y-52573000D03*
%TO.P,IC1,24,D7_24*%
%TO.N,unconnected-(IC1-D7-Pad24)*%
X85603000Y-50033000D03*
%TO.P,IC1,25,CURSOR_25*%
%TO.N,unconnected-(IC1-CURSOR-Pad25)*%
X85603000Y-47493000D03*
%TO.P,IC1,26,DISEN_26*%
%TO.N,/Vpp*%
X85603000Y-44953000D03*
%TO.P,IC1,27*%
%TO.N,unconnected-(IC1-Pad27)*%
X85603000Y-42413000D03*
%TO.P,IC1,28,CRTC_CLK_28*%
%TO.N,/TCK*%
X85603000Y-39873000D03*
%TD*%
%TO.N,/TDI*%
D16*
X70363000Y-44953000D02*
X71633000Y-46223000D01*
X71633000Y-46223000D02*
X71633000Y-53335000D01*
%TO.N,/TCK*%
X91834000Y-68329000D02*
X91844000Y-68319000D01*
X85603000Y-39873000D02*
X86873000Y-39873000D01*
X86873000Y-39873000D02*
X88143000Y-41143000D01*
X88143000Y-41143000D02*
X88143000Y-67178000D01*
X89294000Y-68329000D02*
X91834000Y-68329000D01*
X88143000Y-67178000D02*
X89294000Y-68329000D01*
X91844000Y-68319000D02*
X95382000Y-68319000D01*
%TO.N,/TDO*%
X96820000Y-69421000D02*
X97922000Y-68319000D01*
X87762000Y-67330159D02*
X89137842Y-68706000D01*
X87762000Y-53589000D02*
X87762000Y-67330159D01*
X89137842Y-68706000D02*
X93515000Y-68706000D01*
X85603000Y-52573000D02*
X86746000Y-52573000D01*
X94230000Y-69421000D02*
X96820000Y-69421000D01*
X86746000Y-52573000D02*
X87762000Y-53589000D01*
X93515000Y-68706000D02*
X94230000Y-69421000D01*
%TO.N,/TMS*%
X105139964Y-70279500D02*
X106644000Y-68775464D01*
X93202684Y-69460000D02*
X94022184Y-70279500D01*
X83114000Y-54438000D02*
X84841000Y-56165000D01*
X105998464Y-67217000D02*
X101564000Y-67217000D01*
X87008000Y-56772000D02*
X87008000Y-67642477D01*
X84841000Y-56165000D02*
X86401000Y-56165000D01*
X71720000Y-55113000D02*
X72395000Y-54438000D01*
X87008000Y-67642477D02*
X88825524Y-69460000D01*
X70363000Y-55113000D02*
X71720000Y-55113000D01*
X106644000Y-68775464D02*
X106644000Y-67862536D01*
X101564000Y-67217000D02*
X100462000Y-68319000D01*
X72395000Y-54438000D02*
X83114000Y-54438000D01*
X86401000Y-56165000D02*
X87008000Y-56772000D01*
X94022184Y-70279500D02*
X105139964Y-70279500D01*
X106644000Y-67862536D02*
X105998464Y-67217000D01*
X88825524Y-69460000D02*
X93202684Y-69460000D01*
%TO.N,/TDI*%
X94178342Y-69902500D02*
X104983806Y-69902500D01*
X105542000Y-69344306D02*
X105542000Y-68319000D01*
X87385000Y-67486318D02*
X88981682Y-69083000D01*
X87385000Y-55117000D02*
X87385000Y-67486318D01*
X71633000Y-53335000D02*
X72359000Y-54061000D01*
X93358842Y-69083000D02*
X94178342Y-69902500D01*
X88981682Y-69083000D02*
X93358842Y-69083000D01*
X72359000Y-54061000D02*
X86329000Y-54061000D01*
X104983806Y-69902500D02*
X105542000Y-69344306D01*
X86329000Y-54061000D02*
X87385000Y-55117000D01*
%TD*%
%TA.AperFunction,Conductor*%
%TO.N,GND*%
G36*
X115785472Y-37683695D02*
G01*
X116077306Y-37700084D01*
X116091103Y-37701638D01*
X116375827Y-37750015D01*
X116389384Y-37753109D01*
X116666899Y-37833060D01*
X116680025Y-37837653D01*
X116946841Y-37948172D01*
X116959355Y-37954198D01*
X117125443Y-38045992D01*
X117212124Y-38093899D01*
X117223898Y-38101297D01*
X117292123Y-38149705D01*
X117459439Y-38268422D01*
X117470307Y-38277090D01*
X117685641Y-38469526D01*
X117695473Y-38479358D01*
X117887909Y-38694692D01*
X117896580Y-38705564D01*
X118063702Y-38941101D01*
X118071100Y-38952875D01*
X118210797Y-39205637D01*
X118216830Y-39218165D01*
X118327346Y-39484975D01*
X118331939Y-39498100D01*
X118411890Y-39775615D01*
X118414984Y-39789172D01*
X118463359Y-40073885D01*
X118464916Y-40087703D01*
X118481305Y-40379527D01*
X118481500Y-40386480D01*
X118481500Y-72379519D01*
X118481305Y-72386472D01*
X118464916Y-72678296D01*
X118463359Y-72692114D01*
X118414984Y-72976827D01*
X118411890Y-72990384D01*
X118331939Y-73267899D01*
X118327346Y-73281024D01*
X118216830Y-73547834D01*
X118210797Y-73560362D01*
X118071100Y-73813124D01*
X118063702Y-73824898D01*
X117896580Y-74060435D01*
X117887909Y-74071307D01*
X117695473Y-74286641D01*
X117685641Y-74296473D01*
X117470307Y-74488909D01*
X117459435Y-74497580D01*
X117223898Y-74664702D01*
X117212124Y-74672100D01*
X116959362Y-74811797D01*
X116946834Y-74817830D01*
X116680024Y-74928346D01*
X116666899Y-74932939D01*
X116389384Y-75012890D01*
X116375827Y-75015984D01*
X116091114Y-75064359D01*
X116077296Y-75065916D01*
X115785472Y-75082305D01*
X115778519Y-75082500D01*
X65785481Y-75082500D01*
X65778528Y-75082305D01*
X65486703Y-75065916D01*
X65472885Y-75064359D01*
X65188172Y-75015984D01*
X65174615Y-75012890D01*
X64897100Y-74932939D01*
X64883975Y-74928346D01*
X64617165Y-74817830D01*
X64604637Y-74811797D01*
X64351875Y-74672100D01*
X64340101Y-74664702D01*
X64104564Y-74497580D01*
X64093692Y-74488909D01*
X63878358Y-74296473D01*
X63868526Y-74286641D01*
X63676090Y-74071307D01*
X63667419Y-74060435D01*
X63579209Y-73936115D01*
X63541843Y-73883452D01*
X63500297Y-73824898D01*
X63492899Y-73813124D01*
X63462139Y-73757468D01*
X63353198Y-73560355D01*
X63347172Y-73547841D01*
X63236653Y-73281024D01*
X63232060Y-73267899D01*
X63152109Y-72990384D01*
X63149015Y-72976827D01*
X63135965Y-72900020D01*
X63100638Y-72692103D01*
X63099084Y-72678306D01*
X63082695Y-72386472D01*
X63082500Y-72379519D01*
X63082500Y-72228946D01*
X63431500Y-72228946D01*
X63431500Y-72537053D01*
X63431501Y-72537069D01*
X63471717Y-72842542D01*
X63551464Y-73140162D01*
X63669376Y-73424826D01*
X63669381Y-73424837D01*
X63751700Y-73567416D01*
X63823438Y-73691670D01*
X63823440Y-73691673D01*
X63823441Y-73691674D01*
X64011007Y-73936115D01*
X64011013Y-73936122D01*
X64228877Y-74153986D01*
X64228883Y-74153991D01*
X64473330Y-74341562D01*
X64644830Y-74440578D01*
X64740162Y-74495618D01*
X64740167Y-74495620D01*
X64740170Y-74495622D01*
X65024836Y-74613535D01*
X65322456Y-74693282D01*
X65627940Y-74733500D01*
X65627947Y-74733500D01*
X65936053Y-74733500D01*
X65936060Y-74733500D01*
X66241544Y-74693282D01*
X66539164Y-74613535D01*
X66823830Y-74495622D01*
X67090670Y-74341562D01*
X67335117Y-74153991D01*
X67552991Y-73936117D01*
X67740562Y-73691670D01*
X67894622Y-73424830D01*
X68012535Y-73140164D01*
X68092282Y-72842544D01*
X68099313Y-72789136D01*
X69308500Y-72789136D01*
X69308500Y-72996863D01*
X69349022Y-73200578D01*
X69349025Y-73200590D01*
X69428511Y-73392488D01*
X69428512Y-73392490D01*
X69543916Y-73565203D01*
X69543919Y-73565207D01*
X69690792Y-73712080D01*
X69690796Y-73712083D01*
X69863507Y-73827486D01*
X69863508Y-73827486D01*
X69863509Y-73827487D01*
X69863511Y-73827488D01*
X70055409Y-73906974D01*
X70055414Y-73906976D01*
X70259136Y-73947499D01*
X70259139Y-73947500D01*
X70259141Y-73947500D01*
X70466861Y-73947500D01*
X70466862Y-73947499D01*
X70670586Y-73906976D01*
X70862493Y-73827486D01*
X71035204Y-73712083D01*
X71182083Y-73565204D01*
X71297486Y-73392493D01*
X71376976Y-73200586D01*
X71417500Y-72996859D01*
X71417500Y-72789141D01*
X71417500Y-72789138D01*
X71417499Y-72789136D01*
X84548500Y-72789136D01*
X84548500Y-72996863D01*
X84589022Y-73200578D01*
X84589025Y-73200590D01*
X84668511Y-73392488D01*
X84668512Y-73392490D01*
X84783916Y-73565203D01*
X84783919Y-73565207D01*
X84930792Y-73712080D01*
X84930796Y-73712083D01*
X85103507Y-73827486D01*
X85103508Y-73827486D01*
X85103509Y-73827487D01*
X85103511Y-73827488D01*
X85295409Y-73906974D01*
X85295414Y-73906976D01*
X85499136Y-73947499D01*
X85499139Y-73947500D01*
X85499141Y-73947500D01*
X85706861Y-73947500D01*
X85706862Y-73947499D01*
X85910586Y-73906976D01*
X86102493Y-73827486D01*
X86275204Y-73712083D01*
X86422083Y-73565204D01*
X86537486Y-73392493D01*
X86616976Y-73200586D01*
X86657500Y-72996859D01*
X86657500Y-72789141D01*
X86657500Y-72789138D01*
X86657499Y-72789136D01*
X86616977Y-72585421D01*
X86616976Y-72585414D01*
X86604781Y-72555972D01*
X86537488Y-72393511D01*
X86537487Y-72393509D01*
X86470845Y-72293772D01*
X86427529Y-72228946D01*
X113431500Y-72228946D01*
X113431500Y-72537053D01*
X113431501Y-72537069D01*
X113471717Y-72842542D01*
X113551464Y-73140162D01*
X113669376Y-73424826D01*
X113669381Y-73424837D01*
X113751700Y-73567416D01*
X113823438Y-73691670D01*
X113823440Y-73691673D01*
X113823441Y-73691674D01*
X114011007Y-73936115D01*
X114011013Y-73936122D01*
X114228877Y-74153986D01*
X114228883Y-74153991D01*
X114473330Y-74341562D01*
X114644830Y-74440578D01*
X114740162Y-74495618D01*
X114740167Y-74495620D01*
X114740170Y-74495622D01*
X115024836Y-74613535D01*
X115322456Y-74693282D01*
X115627940Y-74733500D01*
X115627947Y-74733500D01*
X115936053Y-74733500D01*
X115936060Y-74733500D01*
X116241544Y-74693282D01*
X116539164Y-74613535D01*
X116823830Y-74495622D01*
X117090670Y-74341562D01*
X117335117Y-74153991D01*
X117552991Y-73936117D01*
X117740562Y-73691670D01*
X117894622Y-73424830D01*
X118012535Y-73140164D01*
X118092282Y-72842544D01*
X118132500Y-72537060D01*
X118132500Y-72228940D01*
X118092282Y-71923456D01*
X118012535Y-71625836D01*
X117894622Y-71341170D01*
X117894620Y-71341167D01*
X117894618Y-71341162D01*
X117839578Y-71245830D01*
X117740562Y-71074330D01*
X117570338Y-70852490D01*
X117552992Y-70829884D01*
X117552986Y-70829877D01*
X117335122Y-70612013D01*
X117335115Y-70612007D01*
X117090674Y-70424441D01*
X117090673Y-70424440D01*
X117090670Y-70424438D01*
X116962495Y-70350436D01*
X116823837Y-70270381D01*
X116823826Y-70270376D01*
X116539162Y-70152464D01*
X116241542Y-70072717D01*
X115936069Y-70032501D01*
X115936066Y-70032500D01*
X115936060Y-70032500D01*
X115627940Y-70032500D01*
X115627934Y-70032500D01*
X115627930Y-70032501D01*
X115322457Y-70072717D01*
X115024837Y-70152464D01*
X114740173Y-70270376D01*
X114740162Y-70270381D01*
X114473325Y-70424441D01*
X114228884Y-70612007D01*
X114228877Y-70612013D01*
X114011013Y-70829877D01*
X114011007Y-70829884D01*
X113823441Y-71074325D01*
X113669381Y-71341162D01*
X113669376Y-71341173D01*
X113551464Y-71625837D01*
X113471717Y-71923457D01*
X113431501Y-72228930D01*
X113431500Y-72228946D01*
X86427529Y-72228946D01*
X86422083Y-72220796D01*
X86422080Y-72220792D01*
X86275207Y-72073919D01*
X86275203Y-72073916D01*
X86102490Y-71958512D01*
X86102488Y-71958511D01*
X85910590Y-71879025D01*
X85910578Y-71879022D01*
X85706862Y-71838500D01*
X85706859Y-71838500D01*
X85499141Y-71838500D01*
X85499138Y-71838500D01*
X85295421Y-71879022D01*
X85295409Y-71879025D01*
X85103511Y-71958511D01*
X85103509Y-71958512D01*
X84930796Y-72073916D01*
X84930792Y-72073919D01*
X84783919Y-72220792D01*
X84783916Y-72220796D01*
X84668512Y-72393509D01*
X84668511Y-72393511D01*
X84589025Y-72585409D01*
X84589022Y-72585421D01*
X84548500Y-72789136D01*
X71417499Y-72789136D01*
X71376977Y-72585421D01*
X71376976Y-72585414D01*
X71364781Y-72555972D01*
X71297488Y-72393511D01*
X71297487Y-72393509D01*
X71230844Y-72293772D01*
X71182083Y-72220796D01*
X71182080Y-72220792D01*
X71035207Y-72073919D01*
X71035203Y-72073916D01*
X70862490Y-71958512D01*
X70862488Y-71958511D01*
X70670590Y-71879025D01*
X70670578Y-71879022D01*
X70466862Y-71838500D01*
X70466859Y-71838500D01*
X70259141Y-71838500D01*
X70259138Y-71838500D01*
X70055421Y-71879022D01*
X70055409Y-71879025D01*
X69863511Y-71958511D01*
X69863509Y-71958512D01*
X69690796Y-72073916D01*
X69690792Y-72073919D01*
X69543919Y-72220792D01*
X69543916Y-72220796D01*
X69428512Y-72393509D01*
X69428511Y-72393511D01*
X69349025Y-72585409D01*
X69349022Y-72585421D01*
X69308500Y-72789136D01*
X68099313Y-72789136D01*
X68132500Y-72537060D01*
X68132500Y-72228940D01*
X68092282Y-71923456D01*
X68012535Y-71625836D01*
X67894622Y-71341170D01*
X67894620Y-71341167D01*
X67894618Y-71341162D01*
X67839578Y-71245830D01*
X67740562Y-71074330D01*
X67570338Y-70852490D01*
X67552992Y-70829884D01*
X67552986Y-70829877D01*
X67335122Y-70612013D01*
X67335115Y-70612007D01*
X67090674Y-70424441D01*
X67090673Y-70424440D01*
X67090670Y-70424438D01*
X66962495Y-70350436D01*
X66823837Y-70270381D01*
X66823826Y-70270376D01*
X66772548Y-70249136D01*
X69308500Y-70249136D01*
X69308500Y-70456863D01*
X69349022Y-70660578D01*
X69349025Y-70660590D01*
X69428511Y-70852488D01*
X69428512Y-70852490D01*
X69543916Y-71025203D01*
X69543919Y-71025207D01*
X69690792Y-71172080D01*
X69690796Y-71172083D01*
X69863507Y-71287486D01*
X69863508Y-71287486D01*
X69863509Y-71287487D01*
X69863511Y-71287488D01*
X70055409Y-71366974D01*
X70055414Y-71366976D01*
X70259136Y-71407499D01*
X70259139Y-71407500D01*
X70259141Y-71407500D01*
X70466861Y-71407500D01*
X70466862Y-71407499D01*
X70670586Y-71366976D01*
X70862493Y-71287486D01*
X71035204Y-71172083D01*
X71182083Y-71025204D01*
X71297486Y-70852493D01*
X71376976Y-70660586D01*
X71417500Y-70456859D01*
X71417500Y-70249141D01*
X71417500Y-70249138D01*
X71417499Y-70249136D01*
X84548500Y-70249136D01*
X84548500Y-70456863D01*
X84589022Y-70660578D01*
X84589025Y-70660590D01*
X84668511Y-70852488D01*
X84668512Y-70852490D01*
X84783916Y-71025203D01*
X84783919Y-71025207D01*
X84930792Y-71172080D01*
X84930796Y-71172083D01*
X85103507Y-71287486D01*
X85103508Y-71287486D01*
X85103509Y-71287487D01*
X85103511Y-71287488D01*
X85295409Y-71366974D01*
X85295414Y-71366976D01*
X85499136Y-71407499D01*
X85499139Y-71407500D01*
X85499141Y-71407500D01*
X85706861Y-71407500D01*
X85706862Y-71407499D01*
X85910586Y-71366976D01*
X86102493Y-71287486D01*
X86275204Y-71172083D01*
X86422083Y-71025204D01*
X86537486Y-70852493D01*
X86616976Y-70660586D01*
X86657500Y-70456859D01*
X86657500Y-70249141D01*
X86657500Y-70249138D01*
X86657499Y-70249136D01*
X86638270Y-70152465D01*
X86616976Y-70045414D01*
X86537486Y-69853507D01*
X86422083Y-69680796D01*
X86422080Y-69680792D01*
X86275207Y-69533919D01*
X86275203Y-69533916D01*
X86102490Y-69418512D01*
X86102488Y-69418511D01*
X85910590Y-69339025D01*
X85910578Y-69339022D01*
X85706862Y-69298500D01*
X85706859Y-69298500D01*
X85499141Y-69298500D01*
X85499138Y-69298500D01*
X85295421Y-69339022D01*
X85295409Y-69339025D01*
X85103511Y-69418511D01*
X85103509Y-69418512D01*
X84930796Y-69533916D01*
X84930792Y-69533919D01*
X84783919Y-69680792D01*
X84783916Y-69680796D01*
X84668512Y-69853509D01*
X84668511Y-69853511D01*
X84589025Y-70045409D01*
X84589022Y-70045421D01*
X84548500Y-70249136D01*
X71417499Y-70249136D01*
X71398270Y-70152465D01*
X71376976Y-70045414D01*
X71297486Y-69853507D01*
X71182083Y-69680796D01*
X71182080Y-69680792D01*
X71035207Y-69533919D01*
X71035203Y-69533916D01*
X70862490Y-69418512D01*
X70862488Y-69418511D01*
X70670590Y-69339025D01*
X70670578Y-69339022D01*
X70466862Y-69298500D01*
X70466859Y-69298500D01*
X70259141Y-69298500D01*
X70259138Y-69298500D01*
X70055421Y-69339022D01*
X70055409Y-69339025D01*
X69863511Y-69418511D01*
X69863509Y-69418512D01*
X69690796Y-69533916D01*
X69690792Y-69533919D01*
X69543919Y-69680792D01*
X69543916Y-69680796D01*
X69428512Y-69853509D01*
X69428511Y-69853511D01*
X69349025Y-70045409D01*
X69349022Y-70045421D01*
X69308500Y-70249136D01*
X66772548Y-70249136D01*
X66539162Y-70152464D01*
X66241542Y-70072717D01*
X65936069Y-70032501D01*
X65936066Y-70032500D01*
X65936060Y-70032500D01*
X65627940Y-70032500D01*
X65627934Y-70032500D01*
X65627930Y-70032501D01*
X65322457Y-70072717D01*
X65024837Y-70152464D01*
X64740173Y-70270376D01*
X64740162Y-70270381D01*
X64473325Y-70424441D01*
X64228884Y-70612007D01*
X64228877Y-70612013D01*
X64011013Y-70829877D01*
X64011007Y-70829884D01*
X63823441Y-71074325D01*
X63669381Y-71341162D01*
X63669376Y-71341173D01*
X63551464Y-71625837D01*
X63471717Y-71923457D01*
X63431501Y-72228930D01*
X63431500Y-72228946D01*
X63082500Y-72228946D01*
X63082500Y-67709136D01*
X69308500Y-67709136D01*
X69308500Y-67916863D01*
X69349022Y-68120578D01*
X69349025Y-68120590D01*
X69428511Y-68312488D01*
X69428512Y-68312490D01*
X69543916Y-68485203D01*
X69543919Y-68485207D01*
X69690792Y-68632080D01*
X69690796Y-68632083D01*
X69863507Y-68747486D01*
X69863508Y-68747486D01*
X69863509Y-68747487D01*
X69863511Y-68747488D01*
X70051672Y-68825426D01*
X70055414Y-68826976D01*
X70259136Y-68867499D01*
X70259139Y-68867500D01*
X70259141Y-68867500D01*
X70466861Y-68867500D01*
X70466862Y-68867499D01*
X70670586Y-68826976D01*
X70862493Y-68747486D01*
X71035204Y-68632083D01*
X71182083Y-68485204D01*
X71297486Y-68312493D01*
X71376976Y-68120586D01*
X71417500Y-67916859D01*
X71417500Y-67709141D01*
X71417500Y-67709138D01*
X71417499Y-67709136D01*
X71399010Y-67616185D01*
X71376976Y-67505414D01*
X71320763Y-67369703D01*
X71297488Y-67313511D01*
X71297487Y-67313509D01*
X71285400Y-67295420D01*
X71182083Y-67140796D01*
X71182080Y-67140792D01*
X71035207Y-66993919D01*
X71035203Y-66993916D01*
X70862490Y-66878512D01*
X70862488Y-66878511D01*
X70670590Y-66799025D01*
X70670578Y-66799022D01*
X70466862Y-66758500D01*
X70466859Y-66758500D01*
X70259141Y-66758500D01*
X70259138Y-66758500D01*
X70055421Y-66799022D01*
X70055409Y-66799025D01*
X69863511Y-66878511D01*
X69863509Y-66878512D01*
X69690796Y-66993916D01*
X69690792Y-66993919D01*
X69543919Y-67140792D01*
X69543916Y-67140796D01*
X69428512Y-67313509D01*
X69428511Y-67313511D01*
X69349025Y-67505409D01*
X69349022Y-67505421D01*
X69308500Y-67709136D01*
X63082500Y-67709136D01*
X63082500Y-65169136D01*
X69308500Y-65169136D01*
X69308500Y-65376863D01*
X69349022Y-65580578D01*
X69349025Y-65580590D01*
X69428511Y-65772488D01*
X69428512Y-65772490D01*
X69543916Y-65945203D01*
X69543919Y-65945207D01*
X69690792Y-66092080D01*
X69690796Y-66092083D01*
X69863507Y-66207486D01*
X69863508Y-66207486D01*
X69863509Y-66207487D01*
X69863511Y-66207488D01*
X69953893Y-66244925D01*
X70055414Y-66286976D01*
X70259136Y-66327499D01*
X70259139Y-66327500D01*
X70259141Y-66327500D01*
X70466861Y-66327500D01*
X70466862Y-66327499D01*
X70670586Y-66286976D01*
X70862493Y-66207486D01*
X71035204Y-66092083D01*
X71182083Y-65945204D01*
X71297486Y-65772493D01*
X71376976Y-65580586D01*
X71417500Y-65376859D01*
X71417500Y-65169141D01*
X71417500Y-65169138D01*
X71417499Y-65169136D01*
X71376977Y-64965421D01*
X71376976Y-64965414D01*
X71297486Y-64773507D01*
X71182083Y-64600796D01*
X71182080Y-64600792D01*
X71035207Y-64453919D01*
X71035203Y-64453916D01*
X70862490Y-64338512D01*
X70862488Y-64338511D01*
X70670590Y-64259025D01*
X70670578Y-64259022D01*
X70466862Y-64218500D01*
X70466859Y-64218500D01*
X70259141Y-64218500D01*
X70259138Y-64218500D01*
X70055421Y-64259022D01*
X70055409Y-64259025D01*
X69863511Y-64338511D01*
X69863509Y-64338512D01*
X69690796Y-64453916D01*
X69690792Y-64453919D01*
X69543919Y-64600792D01*
X69543916Y-64600796D01*
X69428512Y-64773509D01*
X69428511Y-64773511D01*
X69349025Y-64965409D01*
X69349022Y-64965421D01*
X69308500Y-65169136D01*
X63082500Y-65169136D01*
X63082500Y-62629136D01*
X69308500Y-62629136D01*
X69308500Y-62836863D01*
X69349022Y-63040578D01*
X69349025Y-63040590D01*
X69428511Y-63232488D01*
X69428512Y-63232490D01*
X69543916Y-63405203D01*
X69543919Y-63405207D01*
X69690792Y-63552080D01*
X69690796Y-63552083D01*
X69863507Y-63667486D01*
X69863508Y-63667486D01*
X69863509Y-63667487D01*
X69863511Y-63667488D01*
X70055409Y-63746974D01*
X70055414Y-63746976D01*
X70259136Y-63787499D01*
X70259139Y-63787500D01*
X70259141Y-63787500D01*
X70466861Y-63787500D01*
X70466862Y-63787499D01*
X70670586Y-63746976D01*
X70862493Y-63667486D01*
X71035204Y-63552083D01*
X71182083Y-63405204D01*
X71297486Y-63232493D01*
X71376976Y-63040586D01*
X71417500Y-62836859D01*
X71417500Y-62629141D01*
X71417500Y-62629138D01*
X71417499Y-62629136D01*
X71376977Y-62425421D01*
X71376976Y-62425414D01*
X71297486Y-62233507D01*
X71182083Y-62060796D01*
X71182080Y-62060792D01*
X71035207Y-61913919D01*
X71035203Y-61913916D01*
X70862490Y-61798512D01*
X70862488Y-61798511D01*
X70670590Y-61719025D01*
X70670578Y-61719022D01*
X70466862Y-61678500D01*
X70466859Y-61678500D01*
X70259141Y-61678500D01*
X70259138Y-61678500D01*
X70055421Y-61719022D01*
X70055409Y-61719025D01*
X69863511Y-61798511D01*
X69863509Y-61798512D01*
X69690796Y-61913916D01*
X69690792Y-61913919D01*
X69543919Y-62060792D01*
X69543916Y-62060796D01*
X69428512Y-62233509D01*
X69428511Y-62233511D01*
X69349025Y-62425409D01*
X69349022Y-62425421D01*
X69308500Y-62629136D01*
X63082500Y-62629136D01*
X63082500Y-60089136D01*
X69308500Y-60089136D01*
X69308500Y-60296863D01*
X69349022Y-60500578D01*
X69349025Y-60500590D01*
X69428511Y-60692488D01*
X69428512Y-60692490D01*
X69543916Y-60865203D01*
X69543919Y-60865207D01*
X69690792Y-61012080D01*
X69690796Y-61012083D01*
X69863507Y-61127486D01*
X69863508Y-61127486D01*
X69863509Y-61127487D01*
X69863511Y-61127488D01*
X70055409Y-61206974D01*
X70055414Y-61206976D01*
X70259136Y-61247499D01*
X70259139Y-61247500D01*
X70259141Y-61247500D01*
X70466861Y-61247500D01*
X70466862Y-61247499D01*
X70670586Y-61206976D01*
X70862493Y-61127486D01*
X71035204Y-61012083D01*
X71182083Y-60865204D01*
X71297486Y-60692493D01*
X71376976Y-60500586D01*
X71417500Y-60296859D01*
X71417500Y-60089141D01*
X71417500Y-60089138D01*
X71417499Y-60089136D01*
X71376977Y-59885421D01*
X71376976Y-59885414D01*
X71297486Y-59693507D01*
X71182083Y-59520796D01*
X71182080Y-59520792D01*
X71035207Y-59373919D01*
X71035203Y-59373916D01*
X70862490Y-59258512D01*
X70862488Y-59258511D01*
X70670590Y-59179025D01*
X70670578Y-59179022D01*
X70466862Y-59138500D01*
X70466859Y-59138500D01*
X70259141Y-59138500D01*
X70259138Y-59138500D01*
X70055421Y-59179022D01*
X70055409Y-59179025D01*
X69863511Y-59258511D01*
X69863509Y-59258512D01*
X69690796Y-59373916D01*
X69690792Y-59373919D01*
X69543919Y-59520792D01*
X69543916Y-59520796D01*
X69428512Y-59693509D01*
X69428511Y-59693511D01*
X69349025Y-59885409D01*
X69349022Y-59885421D01*
X69308500Y-60089136D01*
X63082500Y-60089136D01*
X63082500Y-57549136D01*
X69308500Y-57549136D01*
X69308500Y-57756863D01*
X69349022Y-57960578D01*
X69349025Y-57960590D01*
X69428511Y-58152488D01*
X69428512Y-58152490D01*
X69543916Y-58325203D01*
X69543919Y-58325207D01*
X69690792Y-58472080D01*
X69690796Y-58472083D01*
X69863507Y-58587486D01*
X69863508Y-58587486D01*
X69863509Y-58587487D01*
X69863511Y-58587488D01*
X70047848Y-58663842D01*
X70055414Y-58666976D01*
X70259136Y-58707499D01*
X70259139Y-58707500D01*
X70259141Y-58707500D01*
X70466861Y-58707500D01*
X70466862Y-58707499D01*
X70670586Y-58666976D01*
X70862493Y-58587486D01*
X71035204Y-58472083D01*
X71182083Y-58325204D01*
X71297486Y-58152493D01*
X71376976Y-57960586D01*
X71417500Y-57756859D01*
X71417500Y-57549141D01*
X71417500Y-57549138D01*
X71417499Y-57549136D01*
X71395405Y-57438064D01*
X71376976Y-57345414D01*
X71297486Y-57153507D01*
X71182083Y-56980796D01*
X71182080Y-56980792D01*
X71035207Y-56833919D01*
X71035203Y-56833916D01*
X70862490Y-56718512D01*
X70862488Y-56718511D01*
X70670590Y-56639025D01*
X70670578Y-56639022D01*
X70466862Y-56598500D01*
X70466859Y-56598500D01*
X70259141Y-56598500D01*
X70259138Y-56598500D01*
X70055421Y-56639022D01*
X70055409Y-56639025D01*
X69863511Y-56718511D01*
X69863509Y-56718512D01*
X69690796Y-56833916D01*
X69690792Y-56833919D01*
X69543919Y-56980792D01*
X69543916Y-56980796D01*
X69428512Y-57153509D01*
X69428511Y-57153511D01*
X69349025Y-57345409D01*
X69349022Y-57345421D01*
X69308500Y-57549136D01*
X63082500Y-57549136D01*
X63082500Y-44849136D01*
X69308500Y-44849136D01*
X69308500Y-45056863D01*
X69349022Y-45260578D01*
X69349025Y-45260590D01*
X69428511Y-45452488D01*
X69428512Y-45452490D01*
X69543916Y-45625203D01*
X69543919Y-45625207D01*
X69690792Y-45772080D01*
X69690796Y-45772083D01*
X69863507Y-45887486D01*
X69863508Y-45887486D01*
X69863509Y-45887487D01*
X69863511Y-45887488D01*
X70055409Y-45966974D01*
X70055414Y-45966976D01*
X70171083Y-45989984D01*
X70259136Y-46007499D01*
X70259139Y-46007500D01*
X70259141Y-46007500D01*
X70466861Y-46007500D01*
X70466862Y-46007499D01*
X70670586Y-45966976D01*
X70714032Y-45948979D01*
X70783498Y-45941510D01*
X70845978Y-45972783D01*
X70849165Y-45975859D01*
X71217181Y-46343875D01*
X71250666Y-46405198D01*
X71253500Y-46431556D01*
X71253500Y-46592850D01*
X71233815Y-46659889D01*
X71181011Y-46705644D01*
X71111853Y-46715588D01*
X71048297Y-46686563D01*
X71041819Y-46680531D01*
X71035207Y-46673919D01*
X71035203Y-46673916D01*
X70862490Y-46558512D01*
X70862488Y-46558511D01*
X70670590Y-46479025D01*
X70670578Y-46479022D01*
X70466862Y-46438500D01*
X70466859Y-46438500D01*
X70259141Y-46438500D01*
X70259138Y-46438500D01*
X70055421Y-46479022D01*
X70055409Y-46479025D01*
X69863511Y-46558511D01*
X69863509Y-46558512D01*
X69690796Y-46673916D01*
X69690792Y-46673919D01*
X69543919Y-46820792D01*
X69543916Y-46820796D01*
X69428512Y-46993509D01*
X69428511Y-46993511D01*
X69349025Y-47185409D01*
X69349022Y-47185421D01*
X69308500Y-47389136D01*
X69308500Y-47596863D01*
X69349022Y-47800578D01*
X69349025Y-47800590D01*
X69428511Y-47992488D01*
X69428512Y-47992490D01*
X69543916Y-48165203D01*
X69543919Y-48165207D01*
X69690792Y-48312080D01*
X69690796Y-48312083D01*
X69863507Y-48427486D01*
X69863508Y-48427486D01*
X69863509Y-48427487D01*
X69863511Y-48427488D01*
X70045815Y-48503000D01*
X70055414Y-48506976D01*
X70190262Y-48533799D01*
X70259136Y-48547499D01*
X70259139Y-48547500D01*
X70259141Y-48547500D01*
X70466861Y-48547500D01*
X70466862Y-48547499D01*
X70670586Y-48506976D01*
X70862493Y-48427486D01*
X71035204Y-48312083D01*
X71035207Y-48312080D01*
X71041819Y-48305469D01*
X71103142Y-48271984D01*
X71172834Y-48276968D01*
X71228767Y-48318840D01*
X71253184Y-48384304D01*
X71253500Y-48393150D01*
X71253500Y-49132850D01*
X71233815Y-49199889D01*
X71181011Y-49245644D01*
X71111853Y-49255588D01*
X71048297Y-49226563D01*
X71041819Y-49220531D01*
X71035207Y-49213919D01*
X71035203Y-49213916D01*
X70862490Y-49098512D01*
X70862488Y-49098511D01*
X70670590Y-49019025D01*
X70670578Y-49019022D01*
X70466862Y-48978500D01*
X70466859Y-48978500D01*
X70259141Y-48978500D01*
X70259138Y-48978500D01*
X70055421Y-49019022D01*
X70055409Y-49019025D01*
X69863511Y-49098511D01*
X69863509Y-49098512D01*
X69690796Y-49213916D01*
X69690792Y-49213919D01*
X69543919Y-49360792D01*
X69543916Y-49360796D01*
X69428512Y-49533509D01*
X69428511Y-49533511D01*
X69349025Y-49725409D01*
X69349022Y-49725421D01*
X69308500Y-49929136D01*
X69308500Y-50136863D01*
X69349022Y-50340578D01*
X69349025Y-50340590D01*
X69428511Y-50532488D01*
X69428512Y-50532490D01*
X69543916Y-50705203D01*
X69543919Y-50705207D01*
X69690792Y-50852080D01*
X69690796Y-50852083D01*
X69863507Y-50967486D01*
X69863508Y-50967486D01*
X69863509Y-50967487D01*
X69863511Y-50967488D01*
X70023587Y-51033793D01*
X70055414Y-51046976D01*
X70259136Y-51087499D01*
X70259139Y-51087500D01*
X70259141Y-51087500D01*
X70466861Y-51087500D01*
X70466862Y-51087499D01*
X70670586Y-51046976D01*
X70862493Y-50967486D01*
X71035204Y-50852083D01*
X71035207Y-50852080D01*
X71041819Y-50845469D01*
X71103142Y-50811984D01*
X71172834Y-50816968D01*
X71228767Y-50858840D01*
X71253184Y-50924304D01*
X71253500Y-50933150D01*
X71253500Y-51672850D01*
X71233815Y-51739889D01*
X71181011Y-51785644D01*
X71111853Y-51795588D01*
X71048297Y-51766563D01*
X71041819Y-51760531D01*
X71035207Y-51753919D01*
X71035203Y-51753916D01*
X70862490Y-51638512D01*
X70862488Y-51638511D01*
X70670590Y-51559025D01*
X70670578Y-51559022D01*
X70466862Y-51518500D01*
X70466859Y-51518500D01*
X70259141Y-51518500D01*
X70259138Y-51518500D01*
X70055421Y-51559022D01*
X70055409Y-51559025D01*
X69863511Y-51638511D01*
X69863509Y-51638512D01*
X69690796Y-51753916D01*
X69690792Y-51753919D01*
X69543919Y-51900792D01*
X69543916Y-51900796D01*
X69428512Y-52073509D01*
X69428511Y-52073511D01*
X69349025Y-52265409D01*
X69349022Y-52265421D01*
X69308500Y-52469136D01*
X69308500Y-52676863D01*
X69349022Y-52880578D01*
X69349025Y-52880590D01*
X69428511Y-53072488D01*
X69428512Y-53072490D01*
X69543916Y-53245203D01*
X69543919Y-53245207D01*
X69690792Y-53392080D01*
X69690796Y-53392083D01*
X69863507Y-53507486D01*
X69863508Y-53507486D01*
X69863509Y-53507487D01*
X69863511Y-53507488D01*
X70009647Y-53568019D01*
X70055414Y-53586976D01*
X70259136Y-53627499D01*
X70259139Y-53627500D01*
X70259141Y-53627500D01*
X70466861Y-53627500D01*
X70466862Y-53627499D01*
X70670586Y-53586976D01*
X70862493Y-53507486D01*
X71035204Y-53392083D01*
X71057005Y-53370281D01*
X71118326Y-53336797D01*
X71188017Y-53341780D01*
X71243952Y-53383651D01*
X71264459Y-53425863D01*
X71268921Y-53442517D01*
X71268922Y-53442519D01*
X71279360Y-53481478D01*
X71279361Y-53481480D01*
X71329321Y-53568015D01*
X71329325Y-53568020D01*
X71407046Y-53645741D01*
X71407052Y-53645746D01*
X71941125Y-54179819D01*
X71974610Y-54241142D01*
X71969626Y-54310834D01*
X71941125Y-54355181D01*
X71599125Y-54697181D01*
X71537802Y-54730666D01*
X71511444Y-54733500D01*
X71430042Y-54733500D01*
X71363003Y-54713815D01*
X71317248Y-54661011D01*
X71315497Y-54656990D01*
X71297486Y-54613507D01*
X71182083Y-54440796D01*
X71182080Y-54440792D01*
X71035207Y-54293919D01*
X71035203Y-54293916D01*
X70862490Y-54178512D01*
X70862488Y-54178511D01*
X70670590Y-54099025D01*
X70670578Y-54099022D01*
X70466862Y-54058500D01*
X70466859Y-54058500D01*
X70259141Y-54058500D01*
X70259138Y-54058500D01*
X70055421Y-54099022D01*
X70055409Y-54099025D01*
X69863511Y-54178511D01*
X69863509Y-54178512D01*
X69690796Y-54293916D01*
X69690792Y-54293919D01*
X69543919Y-54440792D01*
X69543916Y-54440796D01*
X69428512Y-54613509D01*
X69428511Y-54613511D01*
X69349025Y-54805409D01*
X69349022Y-54805421D01*
X69308500Y-55009136D01*
X69308500Y-55216863D01*
X69349022Y-55420578D01*
X69349025Y-55420590D01*
X69428511Y-55612488D01*
X69428512Y-55612490D01*
X69543916Y-55785203D01*
X69543919Y-55785207D01*
X69690792Y-55932080D01*
X69690796Y-55932083D01*
X69863507Y-56047486D01*
X69863508Y-56047486D01*
X69863509Y-56047487D01*
X69863511Y-56047488D01*
X70055409Y-56126974D01*
X70055414Y-56126976D01*
X70259136Y-56167499D01*
X70259139Y-56167500D01*
X70259141Y-56167500D01*
X70466861Y-56167500D01*
X70466862Y-56167499D01*
X70670586Y-56126976D01*
X70862493Y-56047486D01*
X71035204Y-55932083D01*
X71182083Y-55785204D01*
X71297486Y-55612493D01*
X71315481Y-55569046D01*
X71359321Y-55514645D01*
X71425615Y-55492579D01*
X71430042Y-55492500D01*
X71662426Y-55492500D01*
X71662442Y-55492501D01*
X71670038Y-55492501D01*
X71769960Y-55492501D01*
X71769962Y-55492501D01*
X71851550Y-55470639D01*
X71866482Y-55466638D01*
X71953019Y-55416676D01*
X72023676Y-55346019D01*
X72023676Y-55346017D01*
X72033880Y-55335814D01*
X72033883Y-55335809D01*
X72515875Y-54853819D01*
X72577198Y-54820334D01*
X72603556Y-54817500D01*
X82905444Y-54817500D01*
X82972483Y-54837185D01*
X82993125Y-54853819D01*
X84532983Y-56393677D01*
X84532993Y-56393688D01*
X84537323Y-56398018D01*
X84537324Y-56398019D01*
X84607981Y-56468676D01*
X84694518Y-56518638D01*
X84694517Y-56518638D01*
X84703797Y-56521124D01*
X84714915Y-56524103D01*
X84791038Y-56544501D01*
X84791039Y-56544501D01*
X84898558Y-56544501D01*
X84898574Y-56544500D01*
X84955165Y-56544500D01*
X85022204Y-56564185D01*
X85067959Y-56616989D01*
X85077903Y-56686147D01*
X85048878Y-56749703D01*
X85024056Y-56771602D01*
X84930796Y-56833916D01*
X84930792Y-56833919D01*
X84783919Y-56980792D01*
X84783916Y-56980796D01*
X84668512Y-57153509D01*
X84668511Y-57153511D01*
X84589025Y-57345409D01*
X84589022Y-57345421D01*
X84548500Y-57549136D01*
X84548500Y-57756863D01*
X84589022Y-57960578D01*
X84589025Y-57960590D01*
X84668511Y-58152488D01*
X84668512Y-58152490D01*
X84783916Y-58325203D01*
X84783919Y-58325207D01*
X84930792Y-58472080D01*
X84930796Y-58472083D01*
X85103507Y-58587486D01*
X85103508Y-58587486D01*
X85103509Y-58587487D01*
X85103511Y-58587488D01*
X85287848Y-58663842D01*
X85295414Y-58666976D01*
X85499136Y-58707499D01*
X85499139Y-58707500D01*
X85499141Y-58707500D01*
X85706861Y-58707500D01*
X85706862Y-58707499D01*
X85910586Y-58666976D01*
X86102493Y-58587486D01*
X86275204Y-58472083D01*
X86337983Y-58409304D01*
X86416819Y-58330469D01*
X86478142Y-58296984D01*
X86547834Y-58301968D01*
X86603767Y-58343840D01*
X86628184Y-58409304D01*
X86628500Y-58418150D01*
X86628500Y-59427850D01*
X86608815Y-59494889D01*
X86556011Y-59540644D01*
X86486853Y-59550588D01*
X86423297Y-59521563D01*
X86416819Y-59515531D01*
X86275207Y-59373919D01*
X86275203Y-59373916D01*
X86102490Y-59258512D01*
X86102488Y-59258511D01*
X85910590Y-59179025D01*
X85910578Y-59179022D01*
X85706862Y-59138500D01*
X85706859Y-59138500D01*
X85499141Y-59138500D01*
X85499138Y-59138500D01*
X85295421Y-59179022D01*
X85295409Y-59179025D01*
X85103511Y-59258511D01*
X85103509Y-59258512D01*
X84930796Y-59373916D01*
X84930792Y-59373919D01*
X84783919Y-59520792D01*
X84783916Y-59520796D01*
X84668512Y-59693509D01*
X84668511Y-59693511D01*
X84589025Y-59885409D01*
X84589022Y-59885421D01*
X84548500Y-60089136D01*
X84548500Y-60296863D01*
X84589022Y-60500578D01*
X84589025Y-60500590D01*
X84668511Y-60692488D01*
X84668512Y-60692490D01*
X84783916Y-60865203D01*
X84783919Y-60865207D01*
X84930792Y-61012080D01*
X84930796Y-61012083D01*
X85103507Y-61127486D01*
X85103508Y-61127486D01*
X85103509Y-61127487D01*
X85103511Y-61127488D01*
X85295409Y-61206974D01*
X85295414Y-61206976D01*
X85499136Y-61247499D01*
X85499139Y-61247500D01*
X85499141Y-61247500D01*
X85706861Y-61247500D01*
X85706862Y-61247499D01*
X85910586Y-61206976D01*
X86102493Y-61127486D01*
X86275204Y-61012083D01*
X86337983Y-60949304D01*
X86416819Y-60870469D01*
X86478142Y-60836984D01*
X86547834Y-60841968D01*
X86603767Y-60883840D01*
X86628184Y-60949304D01*
X86628500Y-60958150D01*
X86628500Y-61967850D01*
X86608815Y-62034889D01*
X86556011Y-62080644D01*
X86486853Y-62090588D01*
X86423297Y-62061563D01*
X86416819Y-62055531D01*
X86275207Y-61913919D01*
X86275203Y-61913916D01*
X86102490Y-61798512D01*
X86102488Y-61798511D01*
X85910590Y-61719025D01*
X85910578Y-61719022D01*
X85706862Y-61678500D01*
X85706859Y-61678500D01*
X85499141Y-61678500D01*
X85499138Y-61678500D01*
X85295421Y-61719022D01*
X85295409Y-61719025D01*
X85103511Y-61798511D01*
X85103509Y-61798512D01*
X84930796Y-61913916D01*
X84930792Y-61913919D01*
X84783919Y-62060792D01*
X84783916Y-62060796D01*
X84668512Y-62233509D01*
X84668511Y-62233511D01*
X84589025Y-62425409D01*
X84589022Y-62425421D01*
X84548500Y-62629136D01*
X84548500Y-62836863D01*
X84589022Y-63040578D01*
X84589025Y-63040590D01*
X84668511Y-63232488D01*
X84668512Y-63232490D01*
X84783916Y-63405203D01*
X84783919Y-63405207D01*
X84930792Y-63552080D01*
X84930796Y-63552083D01*
X85103507Y-63667486D01*
X85103508Y-63667486D01*
X85103509Y-63667487D01*
X85103511Y-63667488D01*
X85295409Y-63746974D01*
X85295414Y-63746976D01*
X85499136Y-63787499D01*
X85499139Y-63787500D01*
X85499141Y-63787500D01*
X85706861Y-63787500D01*
X85706862Y-63787499D01*
X85910586Y-63746976D01*
X86102493Y-63667486D01*
X86275204Y-63552083D01*
X86337983Y-63489304D01*
X86416819Y-63410469D01*
X86478142Y-63376984D01*
X86547834Y-63381968D01*
X86603767Y-63423840D01*
X86628184Y-63489304D01*
X86628500Y-63498150D01*
X86628500Y-64507850D01*
X86608815Y-64574889D01*
X86556011Y-64620644D01*
X86486853Y-64630588D01*
X86423297Y-64601563D01*
X86416819Y-64595531D01*
X86275207Y-64453919D01*
X86275203Y-64453916D01*
X86102490Y-64338512D01*
X86102488Y-64338511D01*
X85910590Y-64259025D01*
X85910578Y-64259022D01*
X85706862Y-64218500D01*
X85706859Y-64218500D01*
X85499141Y-64218500D01*
X85499138Y-64218500D01*
X85295421Y-64259022D01*
X85295409Y-64259025D01*
X85103511Y-64338511D01*
X85103509Y-64338512D01*
X84930796Y-64453916D01*
X84930792Y-64453919D01*
X84783919Y-64600792D01*
X84783916Y-64600796D01*
X84668512Y-64773509D01*
X84668511Y-64773511D01*
X84589025Y-64965409D01*
X84589022Y-64965421D01*
X84548500Y-65169136D01*
X84548500Y-65376863D01*
X84589022Y-65580578D01*
X84589025Y-65580590D01*
X84668511Y-65772488D01*
X84668512Y-65772490D01*
X84783916Y-65945203D01*
X84783919Y-65945207D01*
X84930792Y-66092080D01*
X84930796Y-66092083D01*
X85103507Y-66207486D01*
X85103508Y-66207486D01*
X85103509Y-66207487D01*
X85103511Y-66207488D01*
X85193893Y-66244925D01*
X85295414Y-66286976D01*
X85499136Y-66327499D01*
X85499139Y-66327500D01*
X85499141Y-66327500D01*
X85706861Y-66327500D01*
X85706862Y-66327499D01*
X85910586Y-66286976D01*
X86102493Y-66207486D01*
X86275204Y-66092083D01*
X86337983Y-66029304D01*
X86416819Y-65950469D01*
X86478142Y-65916984D01*
X86547834Y-65921968D01*
X86603767Y-65963840D01*
X86628184Y-66029304D01*
X86628500Y-66038150D01*
X86628500Y-67047850D01*
X86608815Y-67114889D01*
X86556011Y-67160644D01*
X86486853Y-67170588D01*
X86423297Y-67141563D01*
X86416819Y-67135531D01*
X86275207Y-66993919D01*
X86275203Y-66993916D01*
X86102490Y-66878512D01*
X86102488Y-66878511D01*
X85910590Y-66799025D01*
X85910578Y-66799022D01*
X85706862Y-66758500D01*
X85706859Y-66758500D01*
X85499141Y-66758500D01*
X85499138Y-66758500D01*
X85295421Y-66799022D01*
X85295409Y-66799025D01*
X85103511Y-66878511D01*
X85103509Y-66878512D01*
X84930796Y-66993916D01*
X84930792Y-66993919D01*
X84783919Y-67140792D01*
X84783916Y-67140796D01*
X84668512Y-67313509D01*
X84668511Y-67313511D01*
X84589025Y-67505409D01*
X84589022Y-67505421D01*
X84548500Y-67709136D01*
X84548500Y-67916863D01*
X84589022Y-68120578D01*
X84589025Y-68120590D01*
X84668511Y-68312488D01*
X84668512Y-68312490D01*
X84783916Y-68485203D01*
X84783919Y-68485207D01*
X84930792Y-68632080D01*
X84930796Y-68632083D01*
X85103507Y-68747486D01*
X85103508Y-68747486D01*
X85103509Y-68747487D01*
X85103511Y-68747488D01*
X85291672Y-68825426D01*
X85295414Y-68826976D01*
X85499136Y-68867499D01*
X85499139Y-68867500D01*
X85499141Y-68867500D01*
X85706861Y-68867500D01*
X85706862Y-68867499D01*
X85910586Y-68826976D01*
X86102493Y-68747486D01*
X86275204Y-68632083D01*
X86422083Y-68485204D01*
X86537486Y-68312493D01*
X86616976Y-68120586D01*
X86626873Y-68070832D01*
X86659257Y-68008921D01*
X86719973Y-67974347D01*
X86789743Y-67978086D01*
X86836171Y-68007342D01*
X88517507Y-69688677D01*
X88517517Y-69688688D01*
X88521847Y-69693018D01*
X88521848Y-69693019D01*
X88592505Y-69763676D01*
X88679042Y-69813638D01*
X88775562Y-69839500D01*
X92994128Y-69839500D01*
X93061167Y-69859185D01*
X93081809Y-69875819D01*
X93714167Y-70508177D01*
X93714177Y-70508188D01*
X93718507Y-70512518D01*
X93718508Y-70512519D01*
X93789165Y-70583176D01*
X93875702Y-70633138D01*
X93875701Y-70633138D01*
X93884981Y-70635624D01*
X93896099Y-70638603D01*
X93972222Y-70659001D01*
X93972223Y-70659001D01*
X94079742Y-70659001D01*
X94079758Y-70659000D01*
X105082390Y-70659000D01*
X105082406Y-70659001D01*
X105090002Y-70659001D01*
X105189925Y-70659001D01*
X105189926Y-70659001D01*
X105266044Y-70638604D01*
X105266046Y-70638604D01*
X105278979Y-70635138D01*
X105286446Y-70633138D01*
X105372983Y-70583176D01*
X105443640Y-70512519D01*
X105443640Y-70512517D01*
X105453844Y-70502314D01*
X105453848Y-70502309D01*
X106866809Y-69089348D01*
X106866814Y-69089344D01*
X106877017Y-69079140D01*
X106877019Y-69079140D01*
X106947676Y-69008483D01*
X106997638Y-68921946D01*
X107012227Y-68867500D01*
X107012228Y-68867499D01*
X107018473Y-68844190D01*
X107023501Y-68825426D01*
X107023501Y-68725502D01*
X107023501Y-68717907D01*
X107023500Y-68717889D01*
X107023500Y-67922500D01*
X107023501Y-67922487D01*
X107023501Y-67812575D01*
X107018629Y-67794394D01*
X107002163Y-67732941D01*
X106997638Y-67716054D01*
X106947676Y-67629517D01*
X106877019Y-67558860D01*
X106877018Y-67558859D01*
X106872688Y-67554529D01*
X106872677Y-67554519D01*
X106337478Y-67019320D01*
X106303993Y-66957997D01*
X106301541Y-66921909D01*
X106303716Y-66894270D01*
X105671408Y-66261962D01*
X105734993Y-66244925D01*
X105849007Y-66179099D01*
X105942099Y-66086007D01*
X106007925Y-65971993D01*
X106024962Y-65908408D01*
X106657270Y-66540717D01*
X106657270Y-66540716D01*
X106696622Y-66486554D01*
X106793095Y-66297217D01*
X106858757Y-66095130D01*
X106858757Y-66095127D01*
X106892000Y-65885246D01*
X106892000Y-65672753D01*
X106858757Y-65462872D01*
X106858757Y-65462869D01*
X106793095Y-65260782D01*
X106696624Y-65071449D01*
X106657270Y-65017282D01*
X106657269Y-65017282D01*
X106024962Y-65649590D01*
X106007925Y-65586007D01*
X105942099Y-65471993D01*
X105849007Y-65378901D01*
X105734993Y-65313075D01*
X105671409Y-65296037D01*
X106303716Y-64663728D01*
X106249550Y-64624375D01*
X106060217Y-64527904D01*
X105858129Y-64462242D01*
X105648246Y-64429000D01*
X105435754Y-64429000D01*
X105225872Y-64462242D01*
X105225869Y-64462242D01*
X105023782Y-64527904D01*
X104834439Y-64624380D01*
X104780282Y-64663727D01*
X104780282Y-64663728D01*
X105412591Y-65296037D01*
X105349007Y-65313075D01*
X105234993Y-65378901D01*
X105141901Y-65471993D01*
X105076075Y-65586007D01*
X105059037Y-65649591D01*
X104426728Y-65017282D01*
X104426727Y-65017282D01*
X104387380Y-65071439D01*
X104290904Y-65260782D01*
X104260864Y-65353238D01*
X104221427Y-65410913D01*
X104157068Y-65438112D01*
X104088222Y-65426197D01*
X104036746Y-65378953D01*
X104027804Y-65359373D01*
X104027446Y-65359522D01*
X104025582Y-65355024D01*
X104025580Y-65355021D01*
X104025580Y-65355019D01*
X103946653Y-65200116D01*
X103844465Y-65059467D01*
X103721533Y-64936535D01*
X103580884Y-64834347D01*
X103517654Y-64802129D01*
X103425978Y-64755418D01*
X103260641Y-64701697D01*
X103131854Y-64681299D01*
X103088926Y-64674500D01*
X102915074Y-64674500D01*
X102857836Y-64683565D01*
X102743360Y-64701697D01*
X102743357Y-64701697D01*
X102578021Y-64755418D01*
X102423115Y-64834347D01*
X102342869Y-64892649D01*
X102282467Y-64936535D01*
X102282465Y-64936537D01*
X102282464Y-64936537D01*
X102159537Y-65059464D01*
X102159537Y-65059465D01*
X102159535Y-65059467D01*
X102150837Y-65071439D01*
X102057347Y-65200115D01*
X101978418Y-65355021D01*
X101924697Y-65520357D01*
X101924697Y-65520360D01*
X101897500Y-65692074D01*
X101897500Y-65865925D01*
X101924697Y-66037639D01*
X101924697Y-66037642D01*
X101978418Y-66202978D01*
X102057347Y-66357884D01*
X102159535Y-66498533D01*
X102159537Y-66498535D01*
X102285912Y-66624910D01*
X102284484Y-66626337D01*
X102318025Y-66677733D01*
X102318514Y-66747601D01*
X102281152Y-66806642D01*
X102217801Y-66836111D01*
X102199295Y-66837500D01*
X101514038Y-66837500D01*
X101417518Y-66863362D01*
X101417515Y-66863363D01*
X101330984Y-66913321D01*
X101330979Y-66913325D01*
X101260322Y-66983983D01*
X100987190Y-67257114D01*
X100925867Y-67290599D01*
X100861191Y-67287364D01*
X100720641Y-67241697D01*
X100591854Y-67221299D01*
X100548926Y-67214500D01*
X100375074Y-67214500D01*
X100317836Y-67223565D01*
X100203360Y-67241697D01*
X100203357Y-67241697D01*
X100038021Y-67295418D01*
X99883115Y-67374347D01*
X99802869Y-67432649D01*
X99742467Y-67476535D01*
X99742465Y-67476537D01*
X99742464Y-67476537D01*
X99619537Y-67599464D01*
X99619537Y-67599465D01*
X99619535Y-67599467D01*
X99597701Y-67629519D01*
X99517347Y-67740115D01*
X99438418Y-67895021D01*
X99384697Y-68060357D01*
X99384697Y-68060360D01*
X99357500Y-68232074D01*
X99357500Y-68405925D01*
X99384697Y-68577639D01*
X99384697Y-68577642D01*
X99438418Y-68742978D01*
X99501866Y-68867501D01*
X99517347Y-68897884D01*
X99619535Y-69038533D01*
X99742467Y-69161465D01*
X99883116Y-69263653D01*
X99931911Y-69288515D01*
X99982707Y-69336489D01*
X99999502Y-69404310D01*
X99976965Y-69470445D01*
X99922250Y-69513897D01*
X99875616Y-69523000D01*
X98508384Y-69523000D01*
X98441345Y-69503315D01*
X98395590Y-69450511D01*
X98385646Y-69381353D01*
X98414671Y-69317797D01*
X98452087Y-69288515D01*
X98500884Y-69263653D01*
X98641533Y-69161465D01*
X98764465Y-69038533D01*
X98866653Y-68897884D01*
X98945580Y-68742981D01*
X98999303Y-68577638D01*
X99026500Y-68405926D01*
X99026500Y-68232074D01*
X98999303Y-68060362D01*
X98999302Y-68060358D01*
X98999302Y-68060357D01*
X98945581Y-67895021D01*
X98939221Y-67882539D01*
X98866653Y-67740116D01*
X98764465Y-67599467D01*
X98641533Y-67476535D01*
X98500884Y-67374347D01*
X98491760Y-67369698D01*
X98345978Y-67295418D01*
X98180641Y-67241697D01*
X98051854Y-67221299D01*
X98008926Y-67214500D01*
X97835074Y-67214500D01*
X97777836Y-67223565D01*
X97663360Y-67241697D01*
X97663357Y-67241697D01*
X97498021Y-67295418D01*
X97343115Y-67374347D01*
X97262869Y-67432649D01*
X97202467Y-67476535D01*
X97202465Y-67476537D01*
X97202464Y-67476537D01*
X97079537Y-67599464D01*
X97079537Y-67599465D01*
X97079535Y-67599467D01*
X97057701Y-67629519D01*
X96977347Y-67740115D01*
X96898418Y-67895021D01*
X96844697Y-68060357D01*
X96844697Y-68060360D01*
X96817500Y-68232074D01*
X96817500Y-68405925D01*
X96844697Y-68577639D01*
X96844697Y-68577642D01*
X96890364Y-68718191D01*
X96892359Y-68788033D01*
X96860114Y-68844190D01*
X96699123Y-69005182D01*
X96637803Y-69038666D01*
X96611444Y-69041500D01*
X96610500Y-69041500D01*
X96543461Y-69021815D01*
X96497706Y-68969011D01*
X96486500Y-68917500D01*
X96486499Y-67443936D01*
X96486499Y-67443934D01*
X96471734Y-67369699D01*
X96434189Y-67313509D01*
X96415484Y-67285515D01*
X96349905Y-67241697D01*
X96331301Y-67229266D01*
X96331299Y-67229265D01*
X96331296Y-67229264D01*
X96257071Y-67214500D01*
X96054799Y-67214500D01*
X95987760Y-67194815D01*
X95942005Y-67142011D01*
X95932061Y-67072853D01*
X95961086Y-67009297D01*
X95998504Y-66980015D01*
X96089554Y-66933622D01*
X96143716Y-66894270D01*
X96143717Y-66894270D01*
X95511408Y-66261962D01*
X95574993Y-66244925D01*
X95689007Y-66179099D01*
X95782099Y-66086007D01*
X95847925Y-65971993D01*
X95864962Y-65908409D01*
X96497270Y-66540717D01*
X96497270Y-66540716D01*
X96536622Y-66486554D01*
X96633093Y-66297221D01*
X96663134Y-66204762D01*
X96702571Y-66147086D01*
X96766929Y-66119887D01*
X96835776Y-66131801D01*
X96887252Y-66179044D01*
X96896197Y-66198625D01*
X96896554Y-66198478D01*
X96898417Y-66202975D01*
X96898419Y-66202978D01*
X96898420Y-66202981D01*
X96977347Y-66357884D01*
X97079535Y-66498533D01*
X97202467Y-66621465D01*
X97343116Y-66723653D01*
X97424286Y-66765011D01*
X97498021Y-66802581D01*
X97663358Y-66856302D01*
X97663359Y-66856302D01*
X97663362Y-66856303D01*
X97835074Y-66883500D01*
X97835075Y-66883500D01*
X98008925Y-66883500D01*
X98008926Y-66883500D01*
X98180638Y-66856303D01*
X98180641Y-66856302D01*
X98180642Y-66856302D01*
X98345978Y-66802581D01*
X98345978Y-66802580D01*
X98345981Y-66802580D01*
X98500884Y-66723653D01*
X98641533Y-66621465D01*
X98764465Y-66498533D01*
X98866653Y-66357884D01*
X98945580Y-66202981D01*
X98953358Y-66179044D01*
X98999302Y-66037642D01*
X98999302Y-66037641D01*
X98999303Y-66037638D01*
X99026500Y-65865926D01*
X99026500Y-65692074D01*
X99357500Y-65692074D01*
X99357500Y-65865925D01*
X99384697Y-66037639D01*
X99384697Y-66037642D01*
X99438418Y-66202978D01*
X99517347Y-66357884D01*
X99619535Y-66498533D01*
X99742467Y-66621465D01*
X99883116Y-66723653D01*
X99964286Y-66765011D01*
X100038021Y-66802581D01*
X100203358Y-66856302D01*
X100203359Y-66856302D01*
X100203362Y-66856303D01*
X100375074Y-66883500D01*
X100375075Y-66883500D01*
X100548925Y-66883500D01*
X100548926Y-66883500D01*
X100720638Y-66856303D01*
X100720641Y-66856302D01*
X100720642Y-66856302D01*
X100885978Y-66802581D01*
X100885978Y-66802580D01*
X100885981Y-66802580D01*
X101040884Y-66723653D01*
X101181533Y-66621465D01*
X101304465Y-66498533D01*
X101406653Y-66357884D01*
X101485580Y-66202981D01*
X101493358Y-66179044D01*
X101539302Y-66037642D01*
X101539302Y-66037641D01*
X101539303Y-66037638D01*
X101566500Y-65865926D01*
X101566500Y-65692074D01*
X101539303Y-65520362D01*
X101539302Y-65520358D01*
X101539302Y-65520357D01*
X101485581Y-65355021D01*
X101406652Y-65200115D01*
X101384148Y-65169141D01*
X101304465Y-65059467D01*
X101181533Y-64936535D01*
X101040884Y-64834347D01*
X100885978Y-64755418D01*
X100720641Y-64701697D01*
X100591854Y-64681299D01*
X100548926Y-64674500D01*
X100375074Y-64674500D01*
X100317836Y-64683565D01*
X100203360Y-64701697D01*
X100203357Y-64701697D01*
X100038021Y-64755418D01*
X99883115Y-64834347D01*
X99802869Y-64892649D01*
X99742467Y-64936535D01*
X99742465Y-64936537D01*
X99742464Y-64936537D01*
X99619537Y-65059464D01*
X99619537Y-65059465D01*
X99619535Y-65059467D01*
X99610837Y-65071439D01*
X99517347Y-65200115D01*
X99438418Y-65355021D01*
X99384697Y-65520357D01*
X99384697Y-65520360D01*
X99357500Y-65692074D01*
X99026500Y-65692074D01*
X98999303Y-65520362D01*
X98999302Y-65520358D01*
X98999302Y-65520357D01*
X98945581Y-65355021D01*
X98866652Y-65200115D01*
X98844148Y-65169141D01*
X98764465Y-65059467D01*
X98641533Y-64936535D01*
X98500884Y-64834347D01*
X98345978Y-64755418D01*
X98180641Y-64701697D01*
X98051854Y-64681299D01*
X98008926Y-64674500D01*
X97835074Y-64674500D01*
X97777836Y-64683565D01*
X97663360Y-64701697D01*
X97663357Y-64701697D01*
X97498021Y-64755418D01*
X97343115Y-64834347D01*
X97262869Y-64892649D01*
X97202467Y-64936535D01*
X97202465Y-64936537D01*
X97202464Y-64936537D01*
X97079537Y-65059464D01*
X97079537Y-65059465D01*
X97079535Y-65059467D01*
X97070837Y-65071439D01*
X96977347Y-65200115D01*
X96898417Y-65355024D01*
X96896554Y-65359522D01*
X96895118Y-65358927D01*
X96859529Y-65410939D01*
X96795162Y-65438116D01*
X96726319Y-65426180D01*
X96674858Y-65378919D01*
X96663135Y-65353237D01*
X96633096Y-65260784D01*
X96536624Y-65071449D01*
X96497270Y-65017282D01*
X96497269Y-65017282D01*
X95864962Y-65649590D01*
X95847925Y-65586007D01*
X95782099Y-65471993D01*
X95689007Y-65378901D01*
X95574993Y-65313075D01*
X95511409Y-65296037D01*
X96143716Y-64663728D01*
X96089550Y-64624375D01*
X95900217Y-64527904D01*
X95698129Y-64462242D01*
X95488246Y-64429000D01*
X95275754Y-64429000D01*
X95065872Y-64462242D01*
X95065869Y-64462242D01*
X94863782Y-64527904D01*
X94674439Y-64624380D01*
X94620282Y-64663727D01*
X94620282Y-64663728D01*
X95252591Y-65296037D01*
X95189007Y-65313075D01*
X95074993Y-65378901D01*
X94981901Y-65471993D01*
X94916075Y-65586007D01*
X94899037Y-65649591D01*
X94266728Y-65017282D01*
X94266727Y-65017282D01*
X94227380Y-65071439D01*
X94130904Y-65260782D01*
X94065242Y-65462869D01*
X94065242Y-65462872D01*
X94032000Y-65672753D01*
X94032000Y-65885246D01*
X94065242Y-66095127D01*
X94065242Y-66095130D01*
X94130904Y-66297217D01*
X94227375Y-66486550D01*
X94266728Y-66540716D01*
X94899037Y-65908408D01*
X94916075Y-65971993D01*
X94981901Y-66086007D01*
X95074993Y-66179099D01*
X95189007Y-66244925D01*
X95252590Y-66261962D01*
X94620282Y-66894269D01*
X94620282Y-66894270D01*
X94674449Y-66933624D01*
X94765496Y-66980015D01*
X94816292Y-67027989D01*
X94833087Y-67095810D01*
X94810550Y-67161945D01*
X94755835Y-67205397D01*
X94709202Y-67214500D01*
X94506936Y-67214500D01*
X94432698Y-67229266D01*
X94348515Y-67285515D01*
X94292266Y-67369699D01*
X94292264Y-67369703D01*
X94277500Y-67443928D01*
X94277500Y-67815500D01*
X94257815Y-67882539D01*
X94205011Y-67928294D01*
X94153500Y-67939500D01*
X91901574Y-67939500D01*
X91901558Y-67939499D01*
X91893962Y-67939499D01*
X91794038Y-67939499D01*
X91794035Y-67939499D01*
X91772480Y-67945275D01*
X91740388Y-67949500D01*
X89502556Y-67949500D01*
X89435517Y-67929815D01*
X89414875Y-67913181D01*
X88558819Y-67057125D01*
X88525334Y-66995802D01*
X88522500Y-66969444D01*
X88522500Y-65169136D01*
X89755500Y-65169136D01*
X89755500Y-65376863D01*
X89796022Y-65580578D01*
X89796025Y-65580590D01*
X89875511Y-65772488D01*
X89875512Y-65772490D01*
X89990916Y-65945203D01*
X89990919Y-65945207D01*
X90137792Y-66092080D01*
X90137796Y-66092083D01*
X90310507Y-66207486D01*
X90310508Y-66207486D01*
X90310509Y-66207487D01*
X90310511Y-66207488D01*
X90400893Y-66244925D01*
X90502414Y-66286976D01*
X90706136Y-66327499D01*
X90706139Y-66327500D01*
X90706141Y-66327500D01*
X90913861Y-66327500D01*
X90913862Y-66327499D01*
X91117586Y-66286976D01*
X91309493Y-66207486D01*
X91482204Y-66092083D01*
X91629083Y-65945204D01*
X91744486Y-65772493D01*
X91769057Y-65713174D01*
X91807473Y-65620429D01*
X91816464Y-65598720D01*
X91823976Y-65580586D01*
X91864500Y-65376859D01*
X91864500Y-65169141D01*
X91864500Y-65169138D01*
X91864499Y-65169136D01*
X91823977Y-64965421D01*
X91823976Y-64965414D01*
X91744486Y-64773507D01*
X91629083Y-64600796D01*
X91629080Y-64600792D01*
X91482207Y-64453919D01*
X91482203Y-64453916D01*
X91309490Y-64338512D01*
X91309488Y-64338511D01*
X91117590Y-64259025D01*
X91117578Y-64259022D01*
X90913862Y-64218500D01*
X90913859Y-64218500D01*
X90706141Y-64218500D01*
X90706138Y-64218500D01*
X90502421Y-64259022D01*
X90502409Y-64259025D01*
X90310511Y-64338511D01*
X90310509Y-64338512D01*
X90137796Y-64453916D01*
X90137792Y-64453919D01*
X89990919Y-64600792D01*
X89990916Y-64600796D01*
X89875512Y-64773509D01*
X89875511Y-64773511D01*
X89796025Y-64965409D01*
X89796022Y-64965421D01*
X89755500Y-65169136D01*
X88522500Y-65169136D01*
X88522500Y-58071759D01*
X96763500Y-58071759D01*
X96763500Y-58230240D01*
X96794414Y-58385656D01*
X96794416Y-58385664D01*
X96855059Y-58532071D01*
X96855064Y-58532080D01*
X96943103Y-58663838D01*
X96943106Y-58663842D01*
X97055157Y-58775893D01*
X97055161Y-58775896D01*
X97186919Y-58863935D01*
X97186925Y-58863938D01*
X97186926Y-58863939D01*
X97333336Y-58924584D01*
X97488759Y-58955499D01*
X97488763Y-58955500D01*
X97488764Y-58955500D01*
X97847237Y-58955500D01*
X97847238Y-58955499D01*
X98002664Y-58924584D01*
X98149074Y-58863939D01*
X98280839Y-58775896D01*
X98392896Y-58663839D01*
X98480939Y-58532074D01*
X98541584Y-58385664D01*
X98572500Y-58230236D01*
X98572500Y-58071764D01*
X98572499Y-58071759D01*
X99303500Y-58071759D01*
X99303500Y-58230240D01*
X99334414Y-58385656D01*
X99334416Y-58385664D01*
X99395059Y-58532071D01*
X99395064Y-58532080D01*
X99483103Y-58663838D01*
X99483106Y-58663842D01*
X99595157Y-58775893D01*
X99595161Y-58775896D01*
X99726919Y-58863935D01*
X99726925Y-58863938D01*
X99726926Y-58863939D01*
X99873336Y-58924584D01*
X100028759Y-58955499D01*
X100028763Y-58955500D01*
X100028764Y-58955500D01*
X100387237Y-58955500D01*
X100387238Y-58955499D01*
X100542664Y-58924584D01*
X100689074Y-58863939D01*
X100820839Y-58775896D01*
X100932896Y-58663839D01*
X101020939Y-58532074D01*
X101081584Y-58385664D01*
X101112500Y-58230236D01*
X101112500Y-58071764D01*
X101112499Y-58071759D01*
X101803500Y-58071759D01*
X101803500Y-58230240D01*
X101834414Y-58385656D01*
X101834416Y-58385664D01*
X101895059Y-58532071D01*
X101895064Y-58532080D01*
X101983103Y-58663838D01*
X101983106Y-58663842D01*
X102095157Y-58775893D01*
X102095161Y-58775896D01*
X102226919Y-58863935D01*
X102226925Y-58863938D01*
X102226926Y-58863939D01*
X102373336Y-58924584D01*
X102528759Y-58955499D01*
X102528763Y-58955500D01*
X102528764Y-58955500D01*
X102887237Y-58955500D01*
X102887238Y-58955499D01*
X103042664Y-58924584D01*
X103189074Y-58863939D01*
X103320839Y-58775896D01*
X103432896Y-58663839D01*
X103520939Y-58532074D01*
X103581584Y-58385664D01*
X103612500Y-58230236D01*
X103612500Y-58071764D01*
X103581584Y-57916336D01*
X103520939Y-57769926D01*
X103520938Y-57769925D01*
X103520935Y-57769919D01*
X103432896Y-57638161D01*
X103432893Y-57638157D01*
X103320842Y-57526106D01*
X103320838Y-57526103D01*
X103189080Y-57438064D01*
X103189071Y-57438059D01*
X103042664Y-57377416D01*
X103042656Y-57377414D01*
X102887240Y-57346500D01*
X102887236Y-57346500D01*
X102528764Y-57346500D01*
X102528759Y-57346500D01*
X102373343Y-57377414D01*
X102373335Y-57377416D01*
X102226928Y-57438059D01*
X102226919Y-57438064D01*
X102095161Y-57526103D01*
X102095157Y-57526106D01*
X101983106Y-57638157D01*
X101983103Y-57638161D01*
X101895064Y-57769919D01*
X101895059Y-57769928D01*
X101834416Y-57916335D01*
X101834414Y-57916343D01*
X101803500Y-58071759D01*
X101112499Y-58071759D01*
X101081584Y-57916336D01*
X101020939Y-57769926D01*
X101020938Y-57769925D01*
X101020935Y-57769919D01*
X100932896Y-57638161D01*
X100932893Y-57638157D01*
X100820842Y-57526106D01*
X100820838Y-57526103D01*
X100689080Y-57438064D01*
X100689071Y-57438059D01*
X100542664Y-57377416D01*
X100542656Y-57377414D01*
X100387240Y-57346500D01*
X100387236Y-57346500D01*
X100028764Y-57346500D01*
X100028759Y-57346500D01*
X99873343Y-57377414D01*
X99873335Y-57377416D01*
X99726928Y-57438059D01*
X99726919Y-57438064D01*
X99595161Y-57526103D01*
X99595157Y-57526106D01*
X99483106Y-57638157D01*
X99483103Y-57638161D01*
X99395064Y-57769919D01*
X99395059Y-57769928D01*
X99334416Y-57916335D01*
X99334414Y-57916343D01*
X99303500Y-58071759D01*
X98572499Y-58071759D01*
X98541584Y-57916336D01*
X98480939Y-57769926D01*
X98480938Y-57769925D01*
X98480935Y-57769919D01*
X98392896Y-57638161D01*
X98392893Y-57638157D01*
X98280842Y-57526106D01*
X98280838Y-57526103D01*
X98149080Y-57438064D01*
X98149071Y-57438059D01*
X98002664Y-57377416D01*
X98002656Y-57377414D01*
X97847240Y-57346500D01*
X97847236Y-57346500D01*
X97488764Y-57346500D01*
X97488759Y-57346500D01*
X97333343Y-57377414D01*
X97333335Y-57377416D01*
X97186928Y-57438059D01*
X97186919Y-57438064D01*
X97055161Y-57526103D01*
X97055157Y-57526106D01*
X96943106Y-57638157D01*
X96943103Y-57638161D01*
X96855064Y-57769919D01*
X96855059Y-57769928D01*
X96794416Y-57916335D01*
X96794414Y-57916343D01*
X96763500Y-58071759D01*
X88522500Y-58071759D01*
X88522500Y-55009136D01*
X89755500Y-55009136D01*
X89755500Y-55216863D01*
X89796022Y-55420578D01*
X89796025Y-55420590D01*
X89875511Y-55612488D01*
X89875512Y-55612490D01*
X89990916Y-55785203D01*
X89990919Y-55785207D01*
X90137792Y-55932080D01*
X90137796Y-55932083D01*
X90310507Y-56047486D01*
X90310508Y-56047486D01*
X90310509Y-56047487D01*
X90310511Y-56047488D01*
X90502409Y-56126974D01*
X90502414Y-56126976D01*
X90706136Y-56167499D01*
X90706139Y-56167500D01*
X90706141Y-56167500D01*
X90913861Y-56167500D01*
X90913862Y-56167499D01*
X91117586Y-56126976D01*
X91309493Y-56047486D01*
X91482204Y-55932083D01*
X91629083Y-55785204D01*
X91744486Y-55612493D01*
X91823976Y-55420586D01*
X91864500Y-55216859D01*
X91864500Y-55009141D01*
X91864500Y-55009138D01*
X91864499Y-55009136D01*
X91833604Y-54853819D01*
X91823976Y-54805414D01*
X91823974Y-54805409D01*
X91744488Y-54613511D01*
X91744487Y-54613509D01*
X91744484Y-54613505D01*
X91629083Y-54440796D01*
X91629080Y-54440792D01*
X91482207Y-54293919D01*
X91482203Y-54293916D01*
X91309490Y-54178512D01*
X91309488Y-54178511D01*
X91117590Y-54099025D01*
X91117578Y-54099022D01*
X90913862Y-54058500D01*
X90913859Y-54058500D01*
X90706141Y-54058500D01*
X90706138Y-54058500D01*
X90502421Y-54099022D01*
X90502409Y-54099025D01*
X90310511Y-54178511D01*
X90310509Y-54178512D01*
X90137796Y-54293916D01*
X90137792Y-54293919D01*
X89990919Y-54440792D01*
X89990916Y-54440796D01*
X89875512Y-54613509D01*
X89875511Y-54613511D01*
X89796025Y-54805409D01*
X89796022Y-54805421D01*
X89755500Y-55009136D01*
X88522500Y-55009136D01*
X88522500Y-50180658D01*
X91287500Y-50180658D01*
X91287500Y-50425341D01*
X91325777Y-50667014D01*
X91401386Y-50899718D01*
X91401387Y-50899721D01*
X91497066Y-51087500D01*
X91512472Y-51117736D01*
X91656294Y-51315689D01*
X91829311Y-51488706D01*
X92027264Y-51632528D01*
X92106401Y-51672850D01*
X92245278Y-51743612D01*
X92245281Y-51743613D01*
X92315915Y-51766563D01*
X92477987Y-51819223D01*
X92719658Y-51857500D01*
X92719659Y-51857500D01*
X92964341Y-51857500D01*
X92964342Y-51857500D01*
X93206013Y-51819223D01*
X93438721Y-51743612D01*
X93656736Y-51632528D01*
X93854689Y-51488706D01*
X94027706Y-51315689D01*
X94171528Y-51117736D01*
X94282612Y-50899721D01*
X94358223Y-50667013D01*
X94396500Y-50425342D01*
X94396500Y-50185014D01*
X96122000Y-50185014D01*
X96122000Y-50420985D01*
X96152799Y-50654914D01*
X96213870Y-50882837D01*
X96304160Y-51100819D01*
X96304165Y-51100828D01*
X96422144Y-51305171D01*
X96422145Y-51305172D01*
X96484721Y-51386723D01*
X97236767Y-50634677D01*
X97248497Y-50662995D01*
X97331670Y-50787472D01*
X97437528Y-50893330D01*
X97562005Y-50976503D01*
X97590321Y-50988231D01*
X96838275Y-51740277D01*
X96919827Y-51802854D01*
X96919828Y-51802855D01*
X97124171Y-51920834D01*
X97124180Y-51920839D01*
X97342163Y-52011129D01*
X97342161Y-52011129D01*
X97570085Y-52072200D01*
X97804014Y-52102999D01*
X97804029Y-52103000D01*
X98039971Y-52103000D01*
X98039985Y-52102999D01*
X98273914Y-52072200D01*
X98501837Y-52011129D01*
X98719819Y-51920839D01*
X98719828Y-51920834D01*
X98924181Y-51802850D01*
X99005723Y-51740279D01*
X99005723Y-51740276D01*
X98253678Y-50988232D01*
X98281995Y-50976503D01*
X98406472Y-50893330D01*
X98512330Y-50787472D01*
X98595503Y-50662995D01*
X98607232Y-50634678D01*
X99359276Y-51386723D01*
X99359279Y-51386723D01*
X99421850Y-51305181D01*
X99539834Y-51100828D01*
X99539839Y-51100819D01*
X99630129Y-50882837D01*
X99691200Y-50654914D01*
X99721999Y-50420985D01*
X99722000Y-50420971D01*
X99722000Y-50185028D01*
X99721999Y-50185014D01*
X101202000Y-50185014D01*
X101202000Y-50420985D01*
X101232799Y-50654914D01*
X101293870Y-50882837D01*
X101384160Y-51100819D01*
X101384165Y-51100828D01*
X101502144Y-51305171D01*
X101502145Y-51305172D01*
X101564721Y-51386723D01*
X102316767Y-50634677D01*
X102328497Y-50662995D01*
X102411670Y-50787472D01*
X102517528Y-50893330D01*
X102642005Y-50976503D01*
X102670321Y-50988231D01*
X101918275Y-51740277D01*
X101999827Y-51802854D01*
X101999828Y-51802855D01*
X102204171Y-51920834D01*
X102204180Y-51920839D01*
X102422163Y-52011129D01*
X102422161Y-52011129D01*
X102650085Y-52072200D01*
X102884014Y-52102999D01*
X102884029Y-52103000D01*
X103119971Y-52103000D01*
X103119985Y-52102999D01*
X103353914Y-52072200D01*
X103581837Y-52011129D01*
X103799819Y-51920839D01*
X103799828Y-51920834D01*
X104004181Y-51802850D01*
X104085723Y-51740279D01*
X104085723Y-51740276D01*
X103333678Y-50988232D01*
X103361995Y-50976503D01*
X103486472Y-50893330D01*
X103592330Y-50787472D01*
X103675503Y-50662995D01*
X103687232Y-50634678D01*
X104439276Y-51386723D01*
X104439279Y-51386723D01*
X104501850Y-51305181D01*
X104619834Y-51100828D01*
X104619839Y-51100819D01*
X104710129Y-50882837D01*
X104771200Y-50654914D01*
X104801999Y-50420985D01*
X104802000Y-50420971D01*
X104802000Y-50185021D01*
X104801426Y-50180658D01*
X106527500Y-50180658D01*
X106527500Y-50425341D01*
X106565777Y-50667014D01*
X106641386Y-50899718D01*
X106641387Y-50899721D01*
X106737066Y-51087500D01*
X106752472Y-51117736D01*
X106896294Y-51315689D01*
X107069311Y-51488706D01*
X107267264Y-51632528D01*
X107346401Y-51672850D01*
X107485278Y-51743612D01*
X107485281Y-51743613D01*
X107555915Y-51766563D01*
X107717987Y-51819223D01*
X107959658Y-51857500D01*
X107959659Y-51857500D01*
X108204341Y-51857500D01*
X108204342Y-51857500D01*
X108446013Y-51819223D01*
X108678721Y-51743612D01*
X108896736Y-51632528D01*
X109094689Y-51488706D01*
X109267706Y-51315689D01*
X109411528Y-51117736D01*
X109522612Y-50899721D01*
X109598223Y-50667013D01*
X109636500Y-50425342D01*
X109636500Y-50180658D01*
X109598223Y-49938987D01*
X109528832Y-49725421D01*
X109522613Y-49706281D01*
X109522612Y-49706278D01*
X109420147Y-49505180D01*
X109411528Y-49488264D01*
X109267706Y-49290311D01*
X109094689Y-49117294D01*
X108896736Y-48973472D01*
X108678721Y-48862387D01*
X108678718Y-48862386D01*
X108446014Y-48786777D01*
X108325177Y-48767638D01*
X108204342Y-48748500D01*
X107959658Y-48748500D01*
X107879101Y-48761259D01*
X107717985Y-48786777D01*
X107485281Y-48862386D01*
X107485278Y-48862387D01*
X107267263Y-48973472D01*
X107154323Y-49055528D01*
X107069311Y-49117294D01*
X107069309Y-49117296D01*
X107069308Y-49117296D01*
X106896296Y-49290308D01*
X106896296Y-49290309D01*
X106896294Y-49290311D01*
X106888654Y-49300827D01*
X106752472Y-49488263D01*
X106641387Y-49706278D01*
X106641386Y-49706281D01*
X106565777Y-49938985D01*
X106527500Y-50180658D01*
X104801426Y-50180658D01*
X104771200Y-49951085D01*
X104710129Y-49723162D01*
X104619839Y-49505180D01*
X104619834Y-49505171D01*
X104501855Y-49300828D01*
X104501854Y-49300827D01*
X104439277Y-49219275D01*
X103687231Y-49971320D01*
X103675503Y-49943005D01*
X103592330Y-49818528D01*
X103486472Y-49712670D01*
X103361995Y-49629497D01*
X103333678Y-49617767D01*
X104085723Y-48865721D01*
X104004172Y-48803145D01*
X104004171Y-48803144D01*
X103799828Y-48685165D01*
X103799819Y-48685160D01*
X103581836Y-48594870D01*
X103581838Y-48594870D01*
X103353914Y-48533799D01*
X103119985Y-48503000D01*
X102884014Y-48503000D01*
X102650085Y-48533799D01*
X102422162Y-48594870D01*
X102204180Y-48685160D01*
X102204171Y-48685165D01*
X101999828Y-48803144D01*
X101999818Y-48803150D01*
X101918275Y-48865720D01*
X101918275Y-48865721D01*
X102670321Y-49617767D01*
X102642005Y-49629497D01*
X102517528Y-49712670D01*
X102411670Y-49818528D01*
X102328497Y-49943005D01*
X102316768Y-49971321D01*
X101564721Y-49219275D01*
X101564720Y-49219275D01*
X101502150Y-49300818D01*
X101502144Y-49300828D01*
X101384165Y-49505171D01*
X101384160Y-49505180D01*
X101293870Y-49723162D01*
X101232799Y-49951085D01*
X101202000Y-50185014D01*
X99721999Y-50185014D01*
X99691200Y-49951085D01*
X99630129Y-49723162D01*
X99539839Y-49505180D01*
X99539834Y-49505171D01*
X99421855Y-49300828D01*
X99421854Y-49300827D01*
X99359277Y-49219275D01*
X98607231Y-49971320D01*
X98595503Y-49943005D01*
X98512330Y-49818528D01*
X98406472Y-49712670D01*
X98281995Y-49629497D01*
X98253678Y-49617767D01*
X99005723Y-48865721D01*
X98924172Y-48803145D01*
X98924171Y-48803144D01*
X98719828Y-48685165D01*
X98719819Y-48685160D01*
X98501836Y-48594870D01*
X98501838Y-48594870D01*
X98273914Y-48533799D01*
X98039985Y-48503000D01*
X97804014Y-48503000D01*
X97570085Y-48533799D01*
X97342162Y-48594870D01*
X97124180Y-48685160D01*
X97124171Y-48685165D01*
X96919828Y-48803144D01*
X96919818Y-48803150D01*
X96838275Y-48865720D01*
X96838275Y-48865721D01*
X97590321Y-49617767D01*
X97562005Y-49629497D01*
X97437528Y-49712670D01*
X97331670Y-49818528D01*
X97248497Y-49943005D01*
X97236768Y-49971321D01*
X96484721Y-49219275D01*
X96484720Y-49219275D01*
X96422150Y-49300818D01*
X96422144Y-49300828D01*
X96304165Y-49505171D01*
X96304160Y-49505180D01*
X96213870Y-49723162D01*
X96152799Y-49951085D01*
X96122000Y-50185014D01*
X94396500Y-50185014D01*
X94396500Y-50180658D01*
X94358223Y-49938987D01*
X94288832Y-49725421D01*
X94282613Y-49706281D01*
X94282612Y-49706278D01*
X94180147Y-49505180D01*
X94171528Y-49488264D01*
X94027706Y-49290311D01*
X93854689Y-49117294D01*
X93656736Y-48973472D01*
X93438721Y-48862387D01*
X93438718Y-48862386D01*
X93206014Y-48786777D01*
X93085177Y-48767638D01*
X92964342Y-48748500D01*
X92719658Y-48748500D01*
X92639101Y-48761259D01*
X92477985Y-48786777D01*
X92245281Y-48862386D01*
X92245278Y-48862387D01*
X92027263Y-48973472D01*
X91914323Y-49055528D01*
X91829311Y-49117294D01*
X91829309Y-49117296D01*
X91829308Y-49117296D01*
X91656296Y-49290308D01*
X91656296Y-49290309D01*
X91656294Y-49290311D01*
X91648654Y-49300827D01*
X91512472Y-49488263D01*
X91401387Y-49706278D01*
X91401386Y-49706281D01*
X91325777Y-49938985D01*
X91287500Y-50180658D01*
X88522500Y-50180658D01*
X88522500Y-47655133D01*
X88931500Y-47655133D01*
X88931500Y-47870866D01*
X88965245Y-48083922D01*
X88965246Y-48083926D01*
X89031908Y-48289089D01*
X89129843Y-48481299D01*
X89256641Y-48655821D01*
X89409179Y-48808359D01*
X89583701Y-48935157D01*
X89775911Y-49033092D01*
X89981074Y-49099754D01*
X90060973Y-49112408D01*
X90194134Y-49133500D01*
X90194139Y-49133500D01*
X90409866Y-49133500D01*
X90528230Y-49114752D01*
X90622926Y-49099754D01*
X90828089Y-49033092D01*
X91020299Y-48935157D01*
X91194821Y-48808359D01*
X91347359Y-48655821D01*
X91474157Y-48481299D01*
X91572092Y-48289089D01*
X91638754Y-48083926D01*
X91653752Y-47989230D01*
X91672500Y-47870866D01*
X91672500Y-47655133D01*
X109251500Y-47655133D01*
X109251500Y-47870866D01*
X109285245Y-48083922D01*
X109285246Y-48083926D01*
X109351908Y-48289089D01*
X109449843Y-48481299D01*
X109576641Y-48655821D01*
X109729179Y-48808359D01*
X109903701Y-48935157D01*
X110095911Y-49033092D01*
X110301074Y-49099754D01*
X110380973Y-49112408D01*
X110514134Y-49133500D01*
X110514139Y-49133500D01*
X110729866Y-49133500D01*
X110848230Y-49114752D01*
X110942926Y-49099754D01*
X111148089Y-49033092D01*
X111340299Y-48935157D01*
X111514821Y-48808359D01*
X111667359Y-48655821D01*
X111794157Y-48481299D01*
X111892092Y-48289089D01*
X111958754Y-48083926D01*
X111973752Y-47989230D01*
X111992500Y-47870866D01*
X111992500Y-47655133D01*
X111958754Y-47442077D01*
X111958754Y-47442074D01*
X111892092Y-47236911D01*
X111794157Y-47044701D01*
X111667359Y-46870179D01*
X111514821Y-46717641D01*
X111340299Y-46590843D01*
X111148089Y-46492908D01*
X110942926Y-46426246D01*
X110942924Y-46426245D01*
X110942922Y-46426245D01*
X110729866Y-46392500D01*
X110729861Y-46392500D01*
X110514139Y-46392500D01*
X110514134Y-46392500D01*
X110301077Y-46426245D01*
X110095908Y-46492909D01*
X109903700Y-46590843D01*
X109808668Y-46659889D01*
X109729179Y-46717641D01*
X109729177Y-46717643D01*
X109729176Y-46717643D01*
X109576643Y-46870176D01*
X109576643Y-46870177D01*
X109576641Y-46870179D01*
X109534866Y-46927677D01*
X109449843Y-47044700D01*
X109351909Y-47236908D01*
X109285245Y-47442077D01*
X109251500Y-47655133D01*
X91672500Y-47655133D01*
X91638754Y-47442077D01*
X91638754Y-47442074D01*
X91572092Y-47236911D01*
X91474157Y-47044701D01*
X91347359Y-46870179D01*
X91194821Y-46717641D01*
X91020299Y-46590843D01*
X90828089Y-46492908D01*
X90622926Y-46426246D01*
X90622924Y-46426245D01*
X90622922Y-46426245D01*
X90409866Y-46392500D01*
X90409861Y-46392500D01*
X90194139Y-46392500D01*
X90194134Y-46392500D01*
X89981077Y-46426245D01*
X89775908Y-46492909D01*
X89583700Y-46590843D01*
X89488668Y-46659889D01*
X89409179Y-46717641D01*
X89409177Y-46717643D01*
X89409176Y-46717643D01*
X89256643Y-46870176D01*
X89256643Y-46870177D01*
X89256641Y-46870179D01*
X89214866Y-46927677D01*
X89129843Y-47044700D01*
X89031909Y-47236908D01*
X88965245Y-47442077D01*
X88931500Y-47655133D01*
X88522500Y-47655133D01*
X88522500Y-41202964D01*
X88522501Y-41202951D01*
X88522501Y-41093039D01*
X88517404Y-41074017D01*
X88496638Y-40996518D01*
X88446676Y-40909981D01*
X88376019Y-40839324D01*
X88376018Y-40839323D01*
X88371688Y-40834993D01*
X88371677Y-40834983D01*
X87542026Y-40005332D01*
X93281500Y-40005332D01*
X93281500Y-40280667D01*
X93281501Y-40280684D01*
X93317438Y-40553655D01*
X93317439Y-40553660D01*
X93317440Y-40553666D01*
X93353072Y-40686649D01*
X93388704Y-40819630D01*
X93494075Y-41074017D01*
X93494080Y-41074028D01*
X93562748Y-41192962D01*
X93631751Y-41312479D01*
X93631753Y-41312482D01*
X93631754Y-41312483D01*
X93799370Y-41530926D01*
X93799376Y-41530933D01*
X93994066Y-41725623D01*
X93994072Y-41725628D01*
X94212521Y-41893249D01*
X94365778Y-41981732D01*
X94450971Y-42030919D01*
X94450976Y-42030921D01*
X94450979Y-42030923D01*
X94705368Y-42136295D01*
X94971334Y-42207560D01*
X95244326Y-42243500D01*
X95244333Y-42243500D01*
X95519667Y-42243500D01*
X95519674Y-42243500D01*
X95792666Y-42207560D01*
X96058632Y-42136295D01*
X96313021Y-42030923D01*
X96551479Y-41893249D01*
X96769928Y-41725628D01*
X96964628Y-41530928D01*
X97132249Y-41312479D01*
X97269923Y-41074021D01*
X97375295Y-40819632D01*
X97446560Y-40553666D01*
X97482500Y-40280674D01*
X97482500Y-40005332D01*
X103441500Y-40005332D01*
X103441500Y-40280667D01*
X103441501Y-40280684D01*
X103477438Y-40553655D01*
X103477439Y-40553660D01*
X103477440Y-40553666D01*
X103513072Y-40686649D01*
X103548704Y-40819630D01*
X103654075Y-41074017D01*
X103654080Y-41074028D01*
X103722748Y-41192962D01*
X103791751Y-41312479D01*
X103791753Y-41312482D01*
X103791754Y-41312483D01*
X103959370Y-41530926D01*
X103959376Y-41530933D01*
X104154066Y-41725623D01*
X104154072Y-41725628D01*
X104372521Y-41893249D01*
X104525778Y-41981732D01*
X104610971Y-42030919D01*
X104610976Y-42030921D01*
X104610979Y-42030923D01*
X104865368Y-42136295D01*
X105131334Y-42207560D01*
X105404326Y-42243500D01*
X105404333Y-42243500D01*
X105679667Y-42243500D01*
X105679674Y-42243500D01*
X105952666Y-42207560D01*
X106218632Y-42136295D01*
X106473021Y-42030923D01*
X106711479Y-41893249D01*
X106929928Y-41725628D01*
X107124628Y-41530928D01*
X107292249Y-41312479D01*
X107429923Y-41074021D01*
X107535295Y-40819632D01*
X107606560Y-40553666D01*
X107642500Y-40280674D01*
X107642500Y-40228946D01*
X113431500Y-40228946D01*
X113431500Y-40537053D01*
X113431501Y-40537069D01*
X113471717Y-40842542D01*
X113551464Y-41140162D01*
X113669376Y-41424826D01*
X113669381Y-41424837D01*
X113762014Y-41585280D01*
X113823438Y-41691670D01*
X113823440Y-41691673D01*
X113823441Y-41691674D01*
X114011007Y-41936115D01*
X114011013Y-41936122D01*
X114228877Y-42153986D01*
X114228883Y-42153991D01*
X114473330Y-42341562D01*
X114644830Y-42440578D01*
X114740162Y-42495618D01*
X114740167Y-42495620D01*
X114740170Y-42495622D01*
X115024836Y-42613535D01*
X115322456Y-42693282D01*
X115627940Y-42733500D01*
X115627947Y-42733500D01*
X115936053Y-42733500D01*
X115936060Y-42733500D01*
X116241544Y-42693282D01*
X116539164Y-42613535D01*
X116823830Y-42495622D01*
X117090670Y-42341562D01*
X117335117Y-42153991D01*
X117552991Y-41936117D01*
X117740562Y-41691670D01*
X117894622Y-41424830D01*
X118012535Y-41140164D01*
X118092282Y-40842544D01*
X118132500Y-40537060D01*
X118132500Y-40228940D01*
X118092282Y-39923456D01*
X118012535Y-39625836D01*
X117894622Y-39341170D01*
X117894620Y-39341166D01*
X117894618Y-39341162D01*
X117820035Y-39211982D01*
X117740562Y-39074330D01*
X117593402Y-38882548D01*
X117552992Y-38829884D01*
X117552986Y-38829877D01*
X117335122Y-38612013D01*
X117335115Y-38612007D01*
X117090674Y-38424441D01*
X117090673Y-38424440D01*
X117090670Y-38424438D01*
X116984280Y-38363014D01*
X116823837Y-38270381D01*
X116823826Y-38270376D01*
X116539162Y-38152464D01*
X116241542Y-38072717D01*
X115936069Y-38032501D01*
X115936066Y-38032500D01*
X115936060Y-38032500D01*
X115627940Y-38032500D01*
X115627934Y-38032500D01*
X115627930Y-38032501D01*
X115322457Y-38072717D01*
X115024837Y-38152464D01*
X114740173Y-38270376D01*
X114740162Y-38270381D01*
X114473325Y-38424441D01*
X114228884Y-38612007D01*
X114228877Y-38612013D01*
X114011013Y-38829877D01*
X114011007Y-38829884D01*
X113823441Y-39074325D01*
X113669381Y-39341162D01*
X113669376Y-39341173D01*
X113551464Y-39625837D01*
X113471717Y-39923457D01*
X113431501Y-40228930D01*
X113431500Y-40228946D01*
X107642500Y-40228946D01*
X107642500Y-40005326D01*
X107606560Y-39732334D01*
X107535295Y-39466368D01*
X107429923Y-39211979D01*
X107429921Y-39211976D01*
X107429919Y-39211971D01*
X107350448Y-39074325D01*
X107292249Y-38973521D01*
X107124628Y-38755072D01*
X107124623Y-38755066D01*
X106929933Y-38560376D01*
X106929926Y-38560370D01*
X106711483Y-38392754D01*
X106711482Y-38392753D01*
X106711479Y-38392751D01*
X106616407Y-38337861D01*
X106473028Y-38255080D01*
X106473017Y-38255075D01*
X106218630Y-38149704D01*
X106085649Y-38114072D01*
X105952666Y-38078440D01*
X105952660Y-38078439D01*
X105952655Y-38078438D01*
X105679684Y-38042501D01*
X105679679Y-38042500D01*
X105679674Y-38042500D01*
X105404326Y-38042500D01*
X105404320Y-38042500D01*
X105404315Y-38042501D01*
X105131344Y-38078438D01*
X105131337Y-38078439D01*
X105131334Y-38078440D01*
X105075125Y-38093500D01*
X104865369Y-38149704D01*
X104610982Y-38255075D01*
X104610971Y-38255080D01*
X104372516Y-38392754D01*
X104154073Y-38560370D01*
X104154066Y-38560376D01*
X103959376Y-38755066D01*
X103959370Y-38755073D01*
X103791754Y-38973516D01*
X103654080Y-39211971D01*
X103654075Y-39211982D01*
X103548704Y-39466369D01*
X103505558Y-39627394D01*
X103481119Y-39718606D01*
X103477441Y-39732331D01*
X103477438Y-39732344D01*
X103441501Y-40005315D01*
X103441500Y-40005332D01*
X97482500Y-40005332D01*
X97482500Y-40005326D01*
X97446560Y-39732334D01*
X97375295Y-39466368D01*
X97269923Y-39211979D01*
X97269921Y-39211976D01*
X97269919Y-39211971D01*
X97190448Y-39074325D01*
X97132249Y-38973521D01*
X96964628Y-38755072D01*
X96964623Y-38755066D01*
X96769933Y-38560376D01*
X96769926Y-38560370D01*
X96551483Y-38392754D01*
X96551482Y-38392753D01*
X96551479Y-38392751D01*
X96456407Y-38337861D01*
X96313028Y-38255080D01*
X96313017Y-38255075D01*
X96058630Y-38149704D01*
X95925649Y-38114072D01*
X95792666Y-38078440D01*
X95792660Y-38078439D01*
X95792655Y-38078438D01*
X95519684Y-38042501D01*
X95519679Y-38042500D01*
X95519674Y-38042500D01*
X95244326Y-38042500D01*
X95244320Y-38042500D01*
X95244315Y-38042501D01*
X94971344Y-38078438D01*
X94971337Y-38078439D01*
X94971334Y-38078440D01*
X94915125Y-38093500D01*
X94705369Y-38149704D01*
X94450982Y-38255075D01*
X94450971Y-38255080D01*
X94212516Y-38392754D01*
X93994073Y-38560370D01*
X93994066Y-38560376D01*
X93799376Y-38755066D01*
X93799370Y-38755073D01*
X93631754Y-38973516D01*
X93494080Y-39211971D01*
X93494075Y-39211982D01*
X93388704Y-39466369D01*
X93345558Y-39627394D01*
X93321119Y-39718606D01*
X93317441Y-39732331D01*
X93317438Y-39732344D01*
X93281501Y-40005315D01*
X93281500Y-40005332D01*
X87542026Y-40005332D01*
X87183746Y-39647052D01*
X87183744Y-39647049D01*
X87106020Y-39569325D01*
X87106015Y-39569321D01*
X87019485Y-39519363D01*
X87019482Y-39519362D01*
X86999084Y-39513896D01*
X86922962Y-39493499D01*
X86823038Y-39493499D01*
X86815442Y-39493499D01*
X86815426Y-39493500D01*
X86670042Y-39493500D01*
X86603003Y-39473815D01*
X86557248Y-39421011D01*
X86555497Y-39416990D01*
X86537486Y-39373507D01*
X86422083Y-39200796D01*
X86422080Y-39200792D01*
X86275207Y-39053919D01*
X86275203Y-39053916D01*
X86102490Y-38938512D01*
X86102488Y-38938511D01*
X85910590Y-38859025D01*
X85910578Y-38859022D01*
X85706862Y-38818500D01*
X85706859Y-38818500D01*
X85499141Y-38818500D01*
X85499138Y-38818500D01*
X85295421Y-38859022D01*
X85295409Y-38859025D01*
X85103511Y-38938511D01*
X85103509Y-38938512D01*
X84930796Y-39053916D01*
X84930792Y-39053919D01*
X84783919Y-39200792D01*
X84783916Y-39200796D01*
X84668512Y-39373509D01*
X84668511Y-39373511D01*
X84589025Y-39565409D01*
X84589022Y-39565421D01*
X84548500Y-39769136D01*
X84548500Y-39976863D01*
X84589022Y-40180578D01*
X84589025Y-40180590D01*
X84668511Y-40372488D01*
X84668512Y-40372490D01*
X84783916Y-40545203D01*
X84783919Y-40545207D01*
X84930792Y-40692080D01*
X84930796Y-40692083D01*
X85103507Y-40807486D01*
X85103508Y-40807486D01*
X85103509Y-40807487D01*
X85103511Y-40807488D01*
X85295409Y-40886974D01*
X85295414Y-40886976D01*
X85411083Y-40909984D01*
X85499136Y-40927499D01*
X85499139Y-40927500D01*
X85499141Y-40927500D01*
X85706861Y-40927500D01*
X85706862Y-40927499D01*
X85910586Y-40886976D01*
X86102493Y-40807486D01*
X86275204Y-40692083D01*
X86422083Y-40545204D01*
X86537486Y-40372493D01*
X86553842Y-40333005D01*
X86597680Y-40278603D01*
X86663973Y-40256537D01*
X86731673Y-40273815D01*
X86756083Y-40292777D01*
X87727181Y-41263875D01*
X87760666Y-41325198D01*
X87763500Y-41351556D01*
X87763500Y-52754443D01*
X87743815Y-52821482D01*
X87691011Y-52867237D01*
X87621853Y-52877181D01*
X87558297Y-52848156D01*
X87551819Y-52842124D01*
X87056746Y-52347052D01*
X87056744Y-52347049D01*
X86979020Y-52269325D01*
X86979015Y-52269321D01*
X86892485Y-52219363D01*
X86892482Y-52219362D01*
X86872084Y-52213896D01*
X86795962Y-52193499D01*
X86696038Y-52193499D01*
X86688442Y-52193499D01*
X86688426Y-52193500D01*
X86670042Y-52193500D01*
X86603003Y-52173815D01*
X86557248Y-52121011D01*
X86555497Y-52116990D01*
X86537486Y-52073507D01*
X86422083Y-51900796D01*
X86422080Y-51900792D01*
X86275207Y-51753919D01*
X86275203Y-51753916D01*
X86102490Y-51638512D01*
X86102488Y-51638511D01*
X85910590Y-51559025D01*
X85910578Y-51559022D01*
X85706862Y-51518500D01*
X85706859Y-51518500D01*
X85499141Y-51518500D01*
X85499138Y-51518500D01*
X85295421Y-51559022D01*
X85295409Y-51559025D01*
X85103511Y-51638511D01*
X85103509Y-51638512D01*
X84930796Y-51753916D01*
X84930792Y-51753919D01*
X84783919Y-51900792D01*
X84783916Y-51900796D01*
X84668512Y-52073509D01*
X84668511Y-52073511D01*
X84589025Y-52265409D01*
X84589022Y-52265421D01*
X84548500Y-52469136D01*
X84548500Y-52676863D01*
X84589022Y-52880578D01*
X84589025Y-52880590D01*
X84668511Y-53072488D01*
X84668512Y-53072490D01*
X84783916Y-53245203D01*
X84783919Y-53245207D01*
X84930792Y-53392080D01*
X84930796Y-53392083D01*
X85024056Y-53454398D01*
X85068861Y-53508010D01*
X85077568Y-53577335D01*
X85047413Y-53640363D01*
X84987970Y-53677082D01*
X84955165Y-53681500D01*
X72567556Y-53681500D01*
X72500517Y-53661815D01*
X72479875Y-53645181D01*
X72048819Y-53214125D01*
X72015334Y-53152802D01*
X72012500Y-53126444D01*
X72012500Y-49929136D01*
X84548500Y-49929136D01*
X84548500Y-50136863D01*
X84589022Y-50340578D01*
X84589025Y-50340590D01*
X84668511Y-50532488D01*
X84668512Y-50532490D01*
X84783916Y-50705203D01*
X84783919Y-50705207D01*
X84930792Y-50852080D01*
X84930796Y-50852083D01*
X85103507Y-50967486D01*
X85103508Y-50967486D01*
X85103509Y-50967487D01*
X85103511Y-50967488D01*
X85263587Y-51033793D01*
X85295414Y-51046976D01*
X85499136Y-51087499D01*
X85499139Y-51087500D01*
X85499141Y-51087500D01*
X85706861Y-51087500D01*
X85706862Y-51087499D01*
X85910586Y-51046976D01*
X86102493Y-50967486D01*
X86275204Y-50852083D01*
X86422083Y-50705204D01*
X86537486Y-50532493D01*
X86616976Y-50340586D01*
X86657500Y-50136859D01*
X86657500Y-49929141D01*
X86657500Y-49929138D01*
X86657499Y-49929136D01*
X86616976Y-49725414D01*
X86537486Y-49533507D01*
X86422083Y-49360796D01*
X86422080Y-49360792D01*
X86275207Y-49213919D01*
X86275203Y-49213916D01*
X86102490Y-49098512D01*
X86102488Y-49098511D01*
X85910590Y-49019025D01*
X85910578Y-49019022D01*
X85706862Y-48978500D01*
X85706859Y-48978500D01*
X85499141Y-48978500D01*
X85499138Y-48978500D01*
X85295421Y-49019022D01*
X85295409Y-49019025D01*
X85103511Y-49098511D01*
X85103509Y-49098512D01*
X84930796Y-49213916D01*
X84930792Y-49213919D01*
X84783919Y-49360792D01*
X84783916Y-49360796D01*
X84668512Y-49533509D01*
X84668511Y-49533511D01*
X84589025Y-49725409D01*
X84589022Y-49725421D01*
X84548500Y-49929136D01*
X72012500Y-49929136D01*
X72012500Y-47389136D01*
X84548500Y-47389136D01*
X84548500Y-47596863D01*
X84589022Y-47800578D01*
X84589025Y-47800590D01*
X84668511Y-47992488D01*
X84668512Y-47992490D01*
X84783916Y-48165203D01*
X84783919Y-48165207D01*
X84930792Y-48312080D01*
X84930796Y-48312083D01*
X85103507Y-48427486D01*
X85103508Y-48427486D01*
X85103509Y-48427487D01*
X85103511Y-48427488D01*
X85285815Y-48503000D01*
X85295414Y-48506976D01*
X85430262Y-48533799D01*
X85499136Y-48547499D01*
X85499139Y-48547500D01*
X85499141Y-48547500D01*
X85706861Y-48547500D01*
X85706862Y-48547499D01*
X85910586Y-48506976D01*
X86102493Y-48427486D01*
X86275204Y-48312083D01*
X86422083Y-48165204D01*
X86537486Y-47992493D01*
X86616976Y-47800586D01*
X86657500Y-47596859D01*
X86657500Y-47389141D01*
X86657500Y-47389138D01*
X86657499Y-47389136D01*
X86616977Y-47185421D01*
X86616976Y-47185414D01*
X86537486Y-46993507D01*
X86422083Y-46820796D01*
X86422080Y-46820792D01*
X86275207Y-46673919D01*
X86275203Y-46673916D01*
X86102490Y-46558512D01*
X86102488Y-46558511D01*
X85910590Y-46479025D01*
X85910578Y-46479022D01*
X85706862Y-46438500D01*
X85706859Y-46438500D01*
X85499141Y-46438500D01*
X85499138Y-46438500D01*
X85295421Y-46479022D01*
X85295409Y-46479025D01*
X85103511Y-46558511D01*
X85103509Y-46558512D01*
X84930796Y-46673916D01*
X84930792Y-46673919D01*
X84783919Y-46820792D01*
X84783916Y-46820796D01*
X84668512Y-46993509D01*
X84668511Y-46993511D01*
X84589025Y-47185409D01*
X84589022Y-47185421D01*
X84548500Y-47389136D01*
X72012500Y-47389136D01*
X72012500Y-46282964D01*
X72012501Y-46282951D01*
X72012501Y-46173039D01*
X71986637Y-46076516D01*
X71986636Y-46076515D01*
X71936678Y-45989984D01*
X71936677Y-45989983D01*
X71936676Y-45989981D01*
X71866019Y-45919324D01*
X71866018Y-45919323D01*
X71861688Y-45914993D01*
X71861677Y-45914983D01*
X71385859Y-45439165D01*
X71352374Y-45377842D01*
X71357358Y-45308150D01*
X71358956Y-45304088D01*
X71376976Y-45260586D01*
X71417500Y-45056859D01*
X71417500Y-44849141D01*
X71417500Y-44849138D01*
X71417499Y-44849136D01*
X84548500Y-44849136D01*
X84548500Y-45056863D01*
X84589022Y-45260578D01*
X84589025Y-45260590D01*
X84668511Y-45452488D01*
X84668512Y-45452490D01*
X84783916Y-45625203D01*
X84783919Y-45625207D01*
X84930792Y-45772080D01*
X84930796Y-45772083D01*
X85103507Y-45887486D01*
X85103508Y-45887486D01*
X85103509Y-45887487D01*
X85103511Y-45887488D01*
X85295409Y-45966974D01*
X85295414Y-45966976D01*
X85411083Y-45989984D01*
X85499136Y-46007499D01*
X85499139Y-46007500D01*
X85499141Y-46007500D01*
X85706861Y-46007500D01*
X85706862Y-46007499D01*
X85910586Y-45966976D01*
X86102493Y-45887486D01*
X86275204Y-45772083D01*
X86422083Y-45625204D01*
X86537486Y-45452493D01*
X86616976Y-45260586D01*
X86657500Y-45056859D01*
X86657500Y-44849141D01*
X86657500Y-44849138D01*
X86657499Y-44849136D01*
X86616977Y-44645421D01*
X86616976Y-44645414D01*
X86537486Y-44453507D01*
X86422083Y-44280796D01*
X86422080Y-44280792D01*
X86275207Y-44133919D01*
X86275203Y-44133916D01*
X86102490Y-44018512D01*
X86102488Y-44018511D01*
X85910590Y-43939025D01*
X85910578Y-43939022D01*
X85706862Y-43898500D01*
X85706859Y-43898500D01*
X85499141Y-43898500D01*
X85499138Y-43898500D01*
X85295421Y-43939022D01*
X85295409Y-43939025D01*
X85103511Y-44018511D01*
X85103509Y-44018512D01*
X84930796Y-44133916D01*
X84930792Y-44133919D01*
X84783919Y-44280792D01*
X84783916Y-44280796D01*
X84668512Y-44453509D01*
X84668511Y-44453511D01*
X84589025Y-44645409D01*
X84589022Y-44645421D01*
X84548500Y-44849136D01*
X71417499Y-44849136D01*
X71376977Y-44645421D01*
X71376976Y-44645414D01*
X71297486Y-44453507D01*
X71182083Y-44280796D01*
X71182080Y-44280792D01*
X71035207Y-44133919D01*
X71035203Y-44133916D01*
X70862490Y-44018512D01*
X70862488Y-44018511D01*
X70670590Y-43939025D01*
X70670578Y-43939022D01*
X70466862Y-43898500D01*
X70466859Y-43898500D01*
X70259141Y-43898500D01*
X70259138Y-43898500D01*
X70055421Y-43939022D01*
X70055409Y-43939025D01*
X69863511Y-44018511D01*
X69863509Y-44018512D01*
X69690796Y-44133916D01*
X69690792Y-44133919D01*
X69543919Y-44280792D01*
X69543916Y-44280796D01*
X69428512Y-44453509D01*
X69428511Y-44453511D01*
X69349025Y-44645409D01*
X69349022Y-44645421D01*
X69308500Y-44849136D01*
X63082500Y-44849136D01*
X63082500Y-40386480D01*
X63082695Y-40379527D01*
X63084722Y-40343438D01*
X63091152Y-40228946D01*
X63431500Y-40228946D01*
X63431500Y-40537053D01*
X63431501Y-40537069D01*
X63471717Y-40842542D01*
X63551464Y-41140162D01*
X63669376Y-41424826D01*
X63669381Y-41424837D01*
X63762014Y-41585280D01*
X63823438Y-41691670D01*
X63823440Y-41691673D01*
X63823441Y-41691674D01*
X64011007Y-41936115D01*
X64011013Y-41936122D01*
X64228877Y-42153986D01*
X64228883Y-42153991D01*
X64473330Y-42341562D01*
X64644830Y-42440578D01*
X64740162Y-42495618D01*
X64740167Y-42495620D01*
X64740170Y-42495622D01*
X65024836Y-42613535D01*
X65322456Y-42693282D01*
X65627940Y-42733500D01*
X65627947Y-42733500D01*
X65936053Y-42733500D01*
X65936060Y-42733500D01*
X66241544Y-42693282D01*
X66539164Y-42613535D01*
X66823830Y-42495622D01*
X67090670Y-42341562D01*
X67335117Y-42153991D01*
X67552991Y-41936117D01*
X67740562Y-41691670D01*
X67894622Y-41424830D01*
X68012535Y-41140164D01*
X68092282Y-40842544D01*
X68132500Y-40537060D01*
X68132500Y-40228940D01*
X68117974Y-40118606D01*
X68113922Y-40087823D01*
X68099313Y-39976863D01*
X68092282Y-39923456D01*
X68012535Y-39625836D01*
X67894622Y-39341170D01*
X67894620Y-39341166D01*
X67889249Y-39331863D01*
X67889248Y-39331861D01*
X67855272Y-39273013D01*
X69063000Y-39273013D01*
X69063000Y-39623000D01*
X70047314Y-39623000D01*
X70042920Y-39627394D01*
X69990259Y-39718606D01*
X69963000Y-39820339D01*
X69963000Y-39925661D01*
X69990259Y-40027394D01*
X70042920Y-40118606D01*
X70047314Y-40123000D01*
X69063001Y-40123000D01*
X69063001Y-40472986D01*
X69073494Y-40575697D01*
X69128641Y-40742119D01*
X69128643Y-40742124D01*
X69220684Y-40891345D01*
X69344654Y-41015315D01*
X69493875Y-41107356D01*
X69493880Y-41107358D01*
X69660302Y-41162505D01*
X69660309Y-41162506D01*
X69763019Y-41172999D01*
X69977693Y-41172999D01*
X70044733Y-41192683D01*
X70090488Y-41245487D01*
X70100432Y-41314645D01*
X70071407Y-41378201D01*
X70025147Y-41411560D01*
X69863509Y-41478512D01*
X69690796Y-41593916D01*
X69690792Y-41593919D01*
X69543919Y-41740792D01*
X69543916Y-41740796D01*
X69428512Y-41913509D01*
X69428511Y-41913511D01*
X69349025Y-42105409D01*
X69349022Y-42105421D01*
X69308500Y-42309136D01*
X69308500Y-42516863D01*
X69349022Y-42720578D01*
X69349025Y-42720590D01*
X69428511Y-42912488D01*
X69428512Y-42912490D01*
X69543916Y-43085203D01*
X69543919Y-43085207D01*
X69690792Y-43232080D01*
X69690796Y-43232083D01*
X69863507Y-43347486D01*
X69863508Y-43347486D01*
X69863509Y-43347487D01*
X69863511Y-43347488D01*
X70055409Y-43426974D01*
X70055414Y-43426976D01*
X70259136Y-43467499D01*
X70259139Y-43467500D01*
X70259141Y-43467500D01*
X70466861Y-43467500D01*
X70466862Y-43467499D01*
X70670586Y-43426976D01*
X70862493Y-43347486D01*
X71035204Y-43232083D01*
X71182083Y-43085204D01*
X71297486Y-42912493D01*
X71376976Y-42720586D01*
X71417500Y-42516859D01*
X71417500Y-42309141D01*
X71417500Y-42309138D01*
X71417499Y-42309136D01*
X84548500Y-42309136D01*
X84548500Y-42516863D01*
X84589022Y-42720578D01*
X84589025Y-42720590D01*
X84668511Y-42912488D01*
X84668512Y-42912490D01*
X84783916Y-43085203D01*
X84783919Y-43085207D01*
X84930792Y-43232080D01*
X84930796Y-43232083D01*
X85103507Y-43347486D01*
X85103508Y-43347486D01*
X85103509Y-43347487D01*
X85103511Y-43347488D01*
X85295409Y-43426974D01*
X85295414Y-43426976D01*
X85499136Y-43467499D01*
X85499139Y-43467500D01*
X85499141Y-43467500D01*
X85706861Y-43467500D01*
X85706862Y-43467499D01*
X85910586Y-43426976D01*
X86102493Y-43347486D01*
X86275204Y-43232083D01*
X86422083Y-43085204D01*
X86537486Y-42912493D01*
X86616976Y-42720586D01*
X86657500Y-42516859D01*
X86657500Y-42309141D01*
X86657500Y-42309138D01*
X86657499Y-42309136D01*
X86626639Y-42153992D01*
X86616976Y-42105414D01*
X86616974Y-42105409D01*
X86537488Y-41913511D01*
X86537487Y-41913509D01*
X86422083Y-41740796D01*
X86422080Y-41740792D01*
X86275207Y-41593919D01*
X86275203Y-41593916D01*
X86102490Y-41478512D01*
X86102488Y-41478511D01*
X85910590Y-41399025D01*
X85910578Y-41399022D01*
X85706862Y-41358500D01*
X85706859Y-41358500D01*
X85499141Y-41358500D01*
X85499138Y-41358500D01*
X85295421Y-41399022D01*
X85295409Y-41399025D01*
X85103511Y-41478511D01*
X85103509Y-41478512D01*
X84930796Y-41593916D01*
X84930792Y-41593919D01*
X84783919Y-41740792D01*
X84783916Y-41740796D01*
X84668512Y-41913509D01*
X84668511Y-41913511D01*
X84589025Y-42105409D01*
X84589022Y-42105421D01*
X84548500Y-42309136D01*
X71417499Y-42309136D01*
X71386639Y-42153992D01*
X71376976Y-42105414D01*
X71376974Y-42105409D01*
X71297488Y-41913511D01*
X71297487Y-41913509D01*
X71182083Y-41740796D01*
X71182080Y-41740792D01*
X71035207Y-41593919D01*
X71035203Y-41593916D01*
X70862490Y-41478512D01*
X70862488Y-41478511D01*
X70700851Y-41411560D01*
X70646447Y-41367719D01*
X70624382Y-41301425D01*
X70641661Y-41233726D01*
X70692798Y-41186115D01*
X70748303Y-41172999D01*
X70962971Y-41172999D01*
X70962987Y-41172998D01*
X71065697Y-41162505D01*
X71232119Y-41107358D01*
X71232124Y-41107356D01*
X71381345Y-41015315D01*
X71505315Y-40891345D01*
X71597356Y-40742124D01*
X71597358Y-40742119D01*
X71652505Y-40575697D01*
X71652506Y-40575690D01*
X71662999Y-40472986D01*
X71663000Y-40472973D01*
X71663000Y-40123000D01*
X70678686Y-40123000D01*
X70683080Y-40118606D01*
X70735741Y-40027394D01*
X70763000Y-39925661D01*
X70763000Y-39820339D01*
X70735741Y-39718606D01*
X70683080Y-39627394D01*
X70678686Y-39623000D01*
X71662999Y-39623000D01*
X71662999Y-39273028D01*
X71662998Y-39273013D01*
X71652505Y-39170302D01*
X71597358Y-39003880D01*
X71597356Y-39003875D01*
X71505315Y-38854654D01*
X71381345Y-38730684D01*
X71232124Y-38638643D01*
X71232119Y-38638641D01*
X71065697Y-38583494D01*
X71065690Y-38583493D01*
X70962986Y-38573000D01*
X70613000Y-38573000D01*
X70613000Y-39557314D01*
X70608606Y-39552920D01*
X70517394Y-39500259D01*
X70415661Y-39473000D01*
X70310339Y-39473000D01*
X70208606Y-39500259D01*
X70117394Y-39552920D01*
X70113000Y-39557314D01*
X70113000Y-38573000D01*
X69763028Y-38573000D01*
X69763012Y-38573001D01*
X69660302Y-38583494D01*
X69493880Y-38638641D01*
X69493875Y-38638643D01*
X69344654Y-38730684D01*
X69220684Y-38854654D01*
X69128643Y-39003875D01*
X69128641Y-39003880D01*
X69073494Y-39170302D01*
X69073493Y-39170309D01*
X69063000Y-39273013D01*
X67855272Y-39273013D01*
X67820035Y-39211982D01*
X67740562Y-39074330D01*
X67593402Y-38882548D01*
X67552992Y-38829884D01*
X67552986Y-38829877D01*
X67335122Y-38612013D01*
X67335115Y-38612007D01*
X67090674Y-38424441D01*
X67090673Y-38424440D01*
X67090670Y-38424438D01*
X66984280Y-38363014D01*
X66823837Y-38270381D01*
X66823826Y-38270376D01*
X66539162Y-38152464D01*
X66241542Y-38072717D01*
X65936069Y-38032501D01*
X65936066Y-38032500D01*
X65936060Y-38032500D01*
X65627940Y-38032500D01*
X65627934Y-38032500D01*
X65627930Y-38032501D01*
X65322457Y-38072717D01*
X65024837Y-38152464D01*
X64740173Y-38270376D01*
X64740162Y-38270381D01*
X64473325Y-38424441D01*
X64228884Y-38612007D01*
X64228877Y-38612013D01*
X64011013Y-38829877D01*
X64011007Y-38829884D01*
X63823441Y-39074325D01*
X63669381Y-39341162D01*
X63669376Y-39341173D01*
X63551464Y-39625837D01*
X63471717Y-39923457D01*
X63431501Y-40228930D01*
X63431500Y-40228946D01*
X63091152Y-40228946D01*
X63099084Y-40087693D01*
X63100638Y-40073898D01*
X63149015Y-39789167D01*
X63152109Y-39775615D01*
X63164576Y-39732344D01*
X63232061Y-39498096D01*
X63236653Y-39484975D01*
X63241276Y-39473815D01*
X63347175Y-39218151D01*
X63353195Y-39205651D01*
X63492902Y-38952869D01*
X63500297Y-38941101D01*
X63502135Y-38938511D01*
X63667428Y-38705551D01*
X63676079Y-38694704D01*
X63868527Y-38479356D01*
X63878358Y-38469526D01*
X63928811Y-38424438D01*
X64093704Y-38277079D01*
X64104551Y-38268428D01*
X64340106Y-38101293D01*
X64351869Y-38093902D01*
X64604651Y-37954195D01*
X64617151Y-37948175D01*
X64883979Y-37837651D01*
X64897096Y-37833061D01*
X65174621Y-37753107D01*
X65188167Y-37750015D01*
X65472898Y-37701638D01*
X65486691Y-37700084D01*
X65778528Y-37683695D01*
X65785481Y-37683500D01*
X65829595Y-37683500D01*
X115734405Y-37683500D01*
X115778519Y-37683500D01*
X115785472Y-37683695D01*
G37*
%TD.AperFunction*%
%TD*%
M02*
