M48
; DRILL file KiCad 10.0.5 date 2026-08-24T12:30:49
; FORMAT={-:-/ absolute / metric / decimal}
; #@! TF.CreationDate,2026-08-24T12:30:49-07:00
; #@! TF.GenerationSoftware,Kicad,Pcbnew,10.0.5
; #@! TF.FileFunction,Plated,1,2,PTH
FMAT,2
METRIC
; #@! TA.AperFunction,Plated,PTH,ComponentDrill
T1C0.500
; #@! TA.AperFunction,Plated,PTH,ComponentDrill
T2C0.800
; #@! TA.AperFunction,Plated,PTH,ComponentDrill
T3C1.000
; #@! TA.AperFunction,Plated,PTH,ComponentDrill
T4C1.520
%
G90
G05
T2
X70.363Y-39.873
X70.363Y-42.413
X70.363Y-44.953
X70.363Y-47.493
X70.363Y-50.033
X70.363Y-52.573
X70.363Y-55.113
X70.363Y-57.653
X70.363Y-60.193
X70.363Y-62.733
X70.363Y-65.273
X70.363Y-67.813
X70.363Y-70.353
X70.363Y-72.893
X85.603Y-39.873
X85.603Y-42.413
X85.603Y-44.953
X85.603Y-47.493
X85.603Y-50.033
X85.603Y-52.573
X85.603Y-55.113
X85.603Y-57.653
X85.603Y-60.193
X85.603Y-62.733
X85.603Y-65.273
X85.603Y-67.813
X85.603Y-70.353
X85.603Y-72.893
X90.81Y-55.113
X90.81Y-65.273
T3
X95.382Y-65.779
X95.382Y-68.319
X97.922Y-65.779
X97.922Y-68.319
X100.462Y-65.779
X100.462Y-68.319
X103.002Y-65.779
X103.002Y-68.319
X105.542Y-65.779
X105.542Y-68.319
T4
X92.842Y-50.303
X97.922Y-50.303
X103.002Y-50.303
X108.082Y-50.303
T1
G00X97.568Y-58.151
M15
G01X97.768Y-58.151
M16
G05
G00X100.108Y-58.151
M15
G01X100.308Y-58.151
M16
G05
G00X102.608Y-58.151
M15
G01X102.808Y-58.151
M16
G05
M30
