%TF.GenerationSoftware,KiCad,Pcbnew,10.0.5*%
%TF.CreationDate,2026-08-24T13:01:00-07:00*%
%TF.ProjectId,VideoULA,56696465-6f55-44c4-912e-6b696361645f,01*%
%TF.SameCoordinates,Original*%
%TF.FileFunction,Legend,Top*%
%TF.FilePolarity,Positive*%
%FSLAX46Y46*%
G04 Gerber Fmt 4.6, Leading zero omitted, Abs format (unit mm)*
G04 Created by KiCad (PCBNEW 10.0.5) date 2026-08-24 13:01:00*
%MOMM*%
%LPD*%
G01*
G04 APERTURE LIST*
%ADD10C,0.100000*%
%ADD11C,0.200000*%
%ADD12C,0.120000*%
G04 APERTURE END LIST*
D10*
X79512455Y-72991133D02*
X79745789Y-73691133D01*
X79745789Y-73691133D02*
X79979122Y-72991133D01*
X80479122Y-73657800D02*
X80412455Y-73691133D01*
X80412455Y-73691133D02*
X80279122Y-73691133D01*
X80279122Y-73691133D02*
X80212455Y-73657800D01*
X80212455Y-73657800D02*
X80179122Y-73591133D01*
X80179122Y-73591133D02*
X80179122Y-73324466D01*
X80179122Y-73324466D02*
X80212455Y-73257800D01*
X80212455Y-73257800D02*
X80279122Y-73224466D01*
X80279122Y-73224466D02*
X80412455Y-73224466D01*
X80412455Y-73224466D02*
X80479122Y-73257800D01*
X80479122Y-73257800D02*
X80512455Y-73324466D01*
X80512455Y-73324466D02*
X80512455Y-73391133D01*
X80512455Y-73391133D02*
X80179122Y-73457800D01*
X80812455Y-73691133D02*
X80812455Y-73224466D01*
X80812455Y-73357800D02*
X80845789Y-73291133D01*
X80845789Y-73291133D02*
X80879122Y-73257800D01*
X80879122Y-73257800D02*
X80945789Y-73224466D01*
X80945789Y-73224466D02*
X81012455Y-73224466D01*
X81212455Y-73657800D02*
X81279122Y-73691133D01*
X81279122Y-73691133D02*
X81412455Y-73691133D01*
X81412455Y-73691133D02*
X81479122Y-73657800D01*
X81479122Y-73657800D02*
X81512455Y-73591133D01*
X81512455Y-73591133D02*
X81512455Y-73557800D01*
X81512455Y-73557800D02*
X81479122Y-73491133D01*
X81479122Y-73491133D02*
X81412455Y-73457800D01*
X81412455Y-73457800D02*
X81312455Y-73457800D01*
X81312455Y-73457800D02*
X81245788Y-73424466D01*
X81245788Y-73424466D02*
X81212455Y-73357800D01*
X81212455Y-73357800D02*
X81212455Y-73324466D01*
X81212455Y-73324466D02*
X81245788Y-73257800D01*
X81245788Y-73257800D02*
X81312455Y-73224466D01*
X81312455Y-73224466D02*
X81412455Y-73224466D01*
X81412455Y-73224466D02*
X81479122Y-73257800D01*
X81812455Y-73691133D02*
X81812455Y-73224466D01*
X81812455Y-72991133D02*
X81779122Y-73024466D01*
X81779122Y-73024466D02*
X81812455Y-73057800D01*
X81812455Y-73057800D02*
X81845789Y-73024466D01*
X81845789Y-73024466D02*
X81812455Y-72991133D01*
X81812455Y-72991133D02*
X81812455Y-73057800D01*
X82245788Y-73691133D02*
X82179122Y-73657800D01*
X82179122Y-73657800D02*
X82145788Y-73624466D01*
X82145788Y-73624466D02*
X82112455Y-73557800D01*
X82112455Y-73557800D02*
X82112455Y-73357800D01*
X82112455Y-73357800D02*
X82145788Y-73291133D01*
X82145788Y-73291133D02*
X82179122Y-73257800D01*
X82179122Y-73257800D02*
X82245788Y-73224466D01*
X82245788Y-73224466D02*
X82345788Y-73224466D01*
X82345788Y-73224466D02*
X82412455Y-73257800D01*
X82412455Y-73257800D02*
X82445788Y-73291133D01*
X82445788Y-73291133D02*
X82479122Y-73357800D01*
X82479122Y-73357800D02*
X82479122Y-73557800D01*
X82479122Y-73557800D02*
X82445788Y-73624466D01*
X82445788Y-73624466D02*
X82412455Y-73657800D01*
X82412455Y-73657800D02*
X82345788Y-73691133D01*
X82345788Y-73691133D02*
X82245788Y-73691133D01*
X82779121Y-73224466D02*
X82779121Y-73691133D01*
X82779121Y-73291133D02*
X82812455Y-73257800D01*
X82812455Y-73257800D02*
X82879121Y-73224466D01*
X82879121Y-73224466D02*
X82979121Y-73224466D01*
X82979121Y-73224466D02*
X83045788Y-73257800D01*
X83045788Y-73257800D02*
X83079121Y-73324466D01*
X83079121Y-73324466D02*
X83079121Y-73691133D01*
X84079121Y-72991133D02*
X84145787Y-72991133D01*
X84145787Y-72991133D02*
X84212454Y-73024466D01*
X84212454Y-73024466D02*
X84245787Y-73057800D01*
X84245787Y-73057800D02*
X84279121Y-73124466D01*
X84279121Y-73124466D02*
X84312454Y-73257800D01*
X84312454Y-73257800D02*
X84312454Y-73424466D01*
X84312454Y-73424466D02*
X84279121Y-73557800D01*
X84279121Y-73557800D02*
X84245787Y-73624466D01*
X84245787Y-73624466D02*
X84212454Y-73657800D01*
X84212454Y-73657800D02*
X84145787Y-73691133D01*
X84145787Y-73691133D02*
X84079121Y-73691133D01*
X84079121Y-73691133D02*
X84012454Y-73657800D01*
X84012454Y-73657800D02*
X83979121Y-73624466D01*
X83979121Y-73624466D02*
X83945787Y-73557800D01*
X83945787Y-73557800D02*
X83912454Y-73424466D01*
X83912454Y-73424466D02*
X83912454Y-73257800D01*
X83912454Y-73257800D02*
X83945787Y-73124466D01*
X83945787Y-73124466D02*
X83979121Y-73057800D01*
X83979121Y-73057800D02*
X84012454Y-73024466D01*
X84012454Y-73024466D02*
X84079121Y-72991133D01*
X84545788Y-72991133D02*
X84979121Y-72991133D01*
X84979121Y-72991133D02*
X84745788Y-73257800D01*
X84745788Y-73257800D02*
X84845788Y-73257800D01*
X84845788Y-73257800D02*
X84912454Y-73291133D01*
X84912454Y-73291133D02*
X84945788Y-73324466D01*
X84945788Y-73324466D02*
X84979121Y-73391133D01*
X84979121Y-73391133D02*
X84979121Y-73557800D01*
X84979121Y-73557800D02*
X84945788Y-73624466D01*
X84945788Y-73624466D02*
X84912454Y-73657800D01*
X84912454Y-73657800D02*
X84845788Y-73691133D01*
X84845788Y-73691133D02*
X84645788Y-73691133D01*
X84645788Y-73691133D02*
X84579121Y-73657800D01*
X84579121Y-73657800D02*
X84545788Y-73624466D01*
D11*
X80714914Y-66473882D02*
X80929200Y-66545310D01*
X80929200Y-66545310D02*
X81000629Y-66616739D01*
X81000629Y-66616739D02*
X81072057Y-66759596D01*
X81072057Y-66759596D02*
X81072057Y-66973882D01*
X81072057Y-66973882D02*
X81000629Y-67116739D01*
X81000629Y-67116739D02*
X80929200Y-67188168D01*
X80929200Y-67188168D02*
X80786343Y-67259596D01*
X80786343Y-67259596D02*
X80214914Y-67259596D01*
X80214914Y-67259596D02*
X80214914Y-65759596D01*
X80214914Y-65759596D02*
X80714914Y-65759596D01*
X80714914Y-65759596D02*
X80857772Y-65831025D01*
X80857772Y-65831025D02*
X80929200Y-65902453D01*
X80929200Y-65902453D02*
X81000629Y-66045310D01*
X81000629Y-66045310D02*
X81000629Y-66188168D01*
X81000629Y-66188168D02*
X80929200Y-66331025D01*
X80929200Y-66331025D02*
X80857772Y-66402453D01*
X80857772Y-66402453D02*
X80714914Y-66473882D01*
X80714914Y-66473882D02*
X80214914Y-66473882D01*
X82214914Y-66473882D02*
X82429200Y-66545310D01*
X82429200Y-66545310D02*
X82500629Y-66616739D01*
X82500629Y-66616739D02*
X82572057Y-66759596D01*
X82572057Y-66759596D02*
X82572057Y-66973882D01*
X82572057Y-66973882D02*
X82500629Y-67116739D01*
X82500629Y-67116739D02*
X82429200Y-67188168D01*
X82429200Y-67188168D02*
X82286343Y-67259596D01*
X82286343Y-67259596D02*
X81714914Y-67259596D01*
X81714914Y-67259596D02*
X81714914Y-65759596D01*
X81714914Y-65759596D02*
X82214914Y-65759596D01*
X82214914Y-65759596D02*
X82357772Y-65831025D01*
X82357772Y-65831025D02*
X82429200Y-65902453D01*
X82429200Y-65902453D02*
X82500629Y-66045310D01*
X82500629Y-66045310D02*
X82500629Y-66188168D01*
X82500629Y-66188168D02*
X82429200Y-66331025D01*
X82429200Y-66331025D02*
X82357772Y-66402453D01*
X82357772Y-66402453D02*
X82214914Y-66473882D01*
X82214914Y-66473882D02*
X81714914Y-66473882D01*
X84072057Y-67116739D02*
X84000629Y-67188168D01*
X84000629Y-67188168D02*
X83786343Y-67259596D01*
X83786343Y-67259596D02*
X83643486Y-67259596D01*
X83643486Y-67259596D02*
X83429200Y-67188168D01*
X83429200Y-67188168D02*
X83286343Y-67045310D01*
X83286343Y-67045310D02*
X83214914Y-66902453D01*
X83214914Y-66902453D02*
X83143486Y-66616739D01*
X83143486Y-66616739D02*
X83143486Y-66402453D01*
X83143486Y-66402453D02*
X83214914Y-66116739D01*
X83214914Y-66116739D02*
X83286343Y-65973882D01*
X83286343Y-65973882D02*
X83429200Y-65831025D01*
X83429200Y-65831025D02*
X83643486Y-65759596D01*
X83643486Y-65759596D02*
X83786343Y-65759596D01*
X83786343Y-65759596D02*
X84000629Y-65831025D01*
X84000629Y-65831025D02*
X84072057Y-65902453D01*
X85857771Y-67259596D02*
X85857771Y-65759596D01*
X85857771Y-65759596D02*
X86357771Y-66831025D01*
X86357771Y-66831025D02*
X86857771Y-65759596D01*
X86857771Y-65759596D02*
X86857771Y-67259596D01*
X87572057Y-67259596D02*
X87572057Y-66259596D01*
X87572057Y-65759596D02*
X87500629Y-65831025D01*
X87500629Y-65831025D02*
X87572057Y-65902453D01*
X87572057Y-65902453D02*
X87643486Y-65831025D01*
X87643486Y-65831025D02*
X87572057Y-65759596D01*
X87572057Y-65759596D02*
X87572057Y-65902453D01*
X88929201Y-67188168D02*
X88786343Y-67259596D01*
X88786343Y-67259596D02*
X88500629Y-67259596D01*
X88500629Y-67259596D02*
X88357772Y-67188168D01*
X88357772Y-67188168D02*
X88286343Y-67116739D01*
X88286343Y-67116739D02*
X88214915Y-66973882D01*
X88214915Y-66973882D02*
X88214915Y-66545310D01*
X88214915Y-66545310D02*
X88286343Y-66402453D01*
X88286343Y-66402453D02*
X88357772Y-66331025D01*
X88357772Y-66331025D02*
X88500629Y-66259596D01*
X88500629Y-66259596D02*
X88786343Y-66259596D01*
X88786343Y-66259596D02*
X88929201Y-66331025D01*
X89572057Y-67259596D02*
X89572057Y-66259596D01*
X89572057Y-66545310D02*
X89643486Y-66402453D01*
X89643486Y-66402453D02*
X89714915Y-66331025D01*
X89714915Y-66331025D02*
X89857772Y-66259596D01*
X89857772Y-66259596D02*
X90000629Y-66259596D01*
X90714914Y-67259596D02*
X90572057Y-67188168D01*
X90572057Y-67188168D02*
X90500628Y-67116739D01*
X90500628Y-67116739D02*
X90429200Y-66973882D01*
X90429200Y-66973882D02*
X90429200Y-66545310D01*
X90429200Y-66545310D02*
X90500628Y-66402453D01*
X90500628Y-66402453D02*
X90572057Y-66331025D01*
X90572057Y-66331025D02*
X90714914Y-66259596D01*
X90714914Y-66259596D02*
X90929200Y-66259596D01*
X90929200Y-66259596D02*
X91072057Y-66331025D01*
X91072057Y-66331025D02*
X91143486Y-66402453D01*
X91143486Y-66402453D02*
X91214914Y-66545310D01*
X91214914Y-66545310D02*
X91214914Y-66973882D01*
X91214914Y-66973882D02*
X91143486Y-67116739D01*
X91143486Y-67116739D02*
X91072057Y-67188168D01*
X91072057Y-67188168D02*
X90929200Y-67259596D01*
X90929200Y-67259596D02*
X90714914Y-67259596D01*
X80786343Y-68174512D02*
X81286343Y-69674512D01*
X81286343Y-69674512D02*
X81786343Y-68174512D01*
X82286342Y-69674512D02*
X82286342Y-68674512D01*
X82286342Y-68174512D02*
X82214914Y-68245941D01*
X82214914Y-68245941D02*
X82286342Y-68317369D01*
X82286342Y-68317369D02*
X82357771Y-68245941D01*
X82357771Y-68245941D02*
X82286342Y-68174512D01*
X82286342Y-68174512D02*
X82286342Y-68317369D01*
X83643486Y-69674512D02*
X83643486Y-68174512D01*
X83643486Y-69603084D02*
X83500628Y-69674512D01*
X83500628Y-69674512D02*
X83214914Y-69674512D01*
X83214914Y-69674512D02*
X83072057Y-69603084D01*
X83072057Y-69603084D02*
X83000628Y-69531655D01*
X83000628Y-69531655D02*
X82929200Y-69388798D01*
X82929200Y-69388798D02*
X82929200Y-68960226D01*
X82929200Y-68960226D02*
X83000628Y-68817369D01*
X83000628Y-68817369D02*
X83072057Y-68745941D01*
X83072057Y-68745941D02*
X83214914Y-68674512D01*
X83214914Y-68674512D02*
X83500628Y-68674512D01*
X83500628Y-68674512D02*
X83643486Y-68745941D01*
X84929200Y-69603084D02*
X84786343Y-69674512D01*
X84786343Y-69674512D02*
X84500629Y-69674512D01*
X84500629Y-69674512D02*
X84357771Y-69603084D01*
X84357771Y-69603084D02*
X84286343Y-69460226D01*
X84286343Y-69460226D02*
X84286343Y-68888798D01*
X84286343Y-68888798D02*
X84357771Y-68745941D01*
X84357771Y-68745941D02*
X84500629Y-68674512D01*
X84500629Y-68674512D02*
X84786343Y-68674512D01*
X84786343Y-68674512D02*
X84929200Y-68745941D01*
X84929200Y-68745941D02*
X85000629Y-68888798D01*
X85000629Y-68888798D02*
X85000629Y-69031655D01*
X85000629Y-69031655D02*
X84286343Y-69174512D01*
X85857771Y-69674512D02*
X85714914Y-69603084D01*
X85714914Y-69603084D02*
X85643485Y-69531655D01*
X85643485Y-69531655D02*
X85572057Y-69388798D01*
X85572057Y-69388798D02*
X85572057Y-68960226D01*
X85572057Y-68960226D02*
X85643485Y-68817369D01*
X85643485Y-68817369D02*
X85714914Y-68745941D01*
X85714914Y-68745941D02*
X85857771Y-68674512D01*
X85857771Y-68674512D02*
X86072057Y-68674512D01*
X86072057Y-68674512D02*
X86214914Y-68745941D01*
X86214914Y-68745941D02*
X86286343Y-68817369D01*
X86286343Y-68817369D02*
X86357771Y-68960226D01*
X86357771Y-68960226D02*
X86357771Y-69388798D01*
X86357771Y-69388798D02*
X86286343Y-69531655D01*
X86286343Y-69531655D02*
X86214914Y-69603084D01*
X86214914Y-69603084D02*
X86072057Y-69674512D01*
X86072057Y-69674512D02*
X85857771Y-69674512D01*
X87000628Y-68174512D02*
X87000628Y-69388798D01*
X87000628Y-69388798D02*
X87072057Y-69531655D01*
X87072057Y-69531655D02*
X87143486Y-69603084D01*
X87143486Y-69603084D02*
X87286343Y-69674512D01*
X87286343Y-69674512D02*
X87572057Y-69674512D01*
X87572057Y-69674512D02*
X87714914Y-69603084D01*
X87714914Y-69603084D02*
X87786343Y-69531655D01*
X87786343Y-69531655D02*
X87857771Y-69388798D01*
X87857771Y-69388798D02*
X87857771Y-68174512D01*
X89286343Y-69674512D02*
X88572057Y-69674512D01*
X88572057Y-69674512D02*
X88572057Y-68174512D01*
X89714915Y-69245941D02*
X90429201Y-69245941D01*
X89572058Y-69674512D02*
X90072058Y-68174512D01*
X90072058Y-68174512D02*
X90572058Y-69674512D01*
X82107771Y-72089428D02*
X82107771Y-70589428D01*
X82107771Y-70589428D02*
X82607771Y-71660857D01*
X82607771Y-71660857D02*
X83107771Y-70589428D01*
X83107771Y-70589428D02*
X83107771Y-72089428D01*
X84036343Y-72089428D02*
X83893486Y-72018000D01*
X83893486Y-72018000D02*
X83822057Y-71946571D01*
X83822057Y-71946571D02*
X83750629Y-71803714D01*
X83750629Y-71803714D02*
X83750629Y-71375142D01*
X83750629Y-71375142D02*
X83822057Y-71232285D01*
X83822057Y-71232285D02*
X83893486Y-71160857D01*
X83893486Y-71160857D02*
X84036343Y-71089428D01*
X84036343Y-71089428D02*
X84250629Y-71089428D01*
X84250629Y-71089428D02*
X84393486Y-71160857D01*
X84393486Y-71160857D02*
X84464915Y-71232285D01*
X84464915Y-71232285D02*
X84536343Y-71375142D01*
X84536343Y-71375142D02*
X84536343Y-71803714D01*
X84536343Y-71803714D02*
X84464915Y-71946571D01*
X84464915Y-71946571D02*
X84393486Y-72018000D01*
X84393486Y-72018000D02*
X84250629Y-72089428D01*
X84250629Y-72089428D02*
X84036343Y-72089428D01*
X85822058Y-72089428D02*
X85822058Y-70589428D01*
X85822058Y-72018000D02*
X85679200Y-72089428D01*
X85679200Y-72089428D02*
X85393486Y-72089428D01*
X85393486Y-72089428D02*
X85250629Y-72018000D01*
X85250629Y-72018000D02*
X85179200Y-71946571D01*
X85179200Y-71946571D02*
X85107772Y-71803714D01*
X85107772Y-71803714D02*
X85107772Y-71375142D01*
X85107772Y-71375142D02*
X85179200Y-71232285D01*
X85179200Y-71232285D02*
X85250629Y-71160857D01*
X85250629Y-71160857D02*
X85393486Y-71089428D01*
X85393486Y-71089428D02*
X85679200Y-71089428D01*
X85679200Y-71089428D02*
X85822058Y-71160857D01*
X87179201Y-71089428D02*
X87179201Y-72089428D01*
X86536343Y-71089428D02*
X86536343Y-71875142D01*
X86536343Y-71875142D02*
X86607772Y-72018000D01*
X86607772Y-72018000D02*
X86750629Y-72089428D01*
X86750629Y-72089428D02*
X86964915Y-72089428D01*
X86964915Y-72089428D02*
X87107772Y-72018000D01*
X87107772Y-72018000D02*
X87179201Y-71946571D01*
X88107772Y-72089428D02*
X87964915Y-72018000D01*
X87964915Y-72018000D02*
X87893486Y-71875142D01*
X87893486Y-71875142D02*
X87893486Y-70589428D01*
X89250629Y-72018000D02*
X89107772Y-72089428D01*
X89107772Y-72089428D02*
X88822058Y-72089428D01*
X88822058Y-72089428D02*
X88679200Y-72018000D01*
X88679200Y-72018000D02*
X88607772Y-71875142D01*
X88607772Y-71875142D02*
X88607772Y-71303714D01*
X88607772Y-71303714D02*
X88679200Y-71160857D01*
X88679200Y-71160857D02*
X88822058Y-71089428D01*
X88822058Y-71089428D02*
X89107772Y-71089428D01*
X89107772Y-71089428D02*
X89250629Y-71160857D01*
X89250629Y-71160857D02*
X89322058Y-71303714D01*
X89322058Y-71303714D02*
X89322058Y-71446571D01*
X89322058Y-71446571D02*
X88607772Y-71589428D01*
D10*
X84495733Y-43091766D02*
X84462400Y-43125100D01*
X84462400Y-43125100D02*
X84362400Y-43158433D01*
X84362400Y-43158433D02*
X84295733Y-43158433D01*
X84295733Y-43158433D02*
X84195733Y-43125100D01*
X84195733Y-43125100D02*
X84129067Y-43058433D01*
X84129067Y-43058433D02*
X84095733Y-42991766D01*
X84095733Y-42991766D02*
X84062400Y-42858433D01*
X84062400Y-42858433D02*
X84062400Y-42758433D01*
X84062400Y-42758433D02*
X84095733Y-42625100D01*
X84095733Y-42625100D02*
X84129067Y-42558433D01*
X84129067Y-42558433D02*
X84195733Y-42491766D01*
X84195733Y-42491766D02*
X84295733Y-42458433D01*
X84295733Y-42458433D02*
X84362400Y-42458433D01*
X84362400Y-42458433D02*
X84462400Y-42491766D01*
X84462400Y-42491766D02*
X84495733Y-42525100D01*
X85095733Y-42691766D02*
X85095733Y-43158433D01*
X84929067Y-42425100D02*
X84762400Y-42925100D01*
X84762400Y-42925100D02*
X85195733Y-42925100D01*
X86145733Y-43091766D02*
X86112400Y-43125100D01*
X86112400Y-43125100D02*
X86012400Y-43158433D01*
X86012400Y-43158433D02*
X85945733Y-43158433D01*
X85945733Y-43158433D02*
X85845733Y-43125100D01*
X85845733Y-43125100D02*
X85779067Y-43058433D01*
X85779067Y-43058433D02*
X85745733Y-42991766D01*
X85745733Y-42991766D02*
X85712400Y-42858433D01*
X85712400Y-42858433D02*
X85712400Y-42758433D01*
X85712400Y-42758433D02*
X85745733Y-42625100D01*
X85745733Y-42625100D02*
X85779067Y-42558433D01*
X85779067Y-42558433D02*
X85845733Y-42491766D01*
X85845733Y-42491766D02*
X85945733Y-42458433D01*
X85945733Y-42458433D02*
X86012400Y-42458433D01*
X86012400Y-42458433D02*
X86112400Y-42491766D01*
X86112400Y-42491766D02*
X86145733Y-42525100D01*
X86379067Y-42458433D02*
X86812400Y-42458433D01*
X86812400Y-42458433D02*
X86579067Y-42725100D01*
X86579067Y-42725100D02*
X86679067Y-42725100D01*
X86679067Y-42725100D02*
X86745733Y-42758433D01*
X86745733Y-42758433D02*
X86779067Y-42791766D01*
X86779067Y-42791766D02*
X86812400Y-42858433D01*
X86812400Y-42858433D02*
X86812400Y-43025100D01*
X86812400Y-43025100D02*
X86779067Y-43091766D01*
X86779067Y-43091766D02*
X86745733Y-43125100D01*
X86745733Y-43125100D02*
X86679067Y-43158433D01*
X86679067Y-43158433D02*
X86479067Y-43158433D01*
X86479067Y-43158433D02*
X86412400Y-43125100D01*
X86412400Y-43125100D02*
X86379067Y-43091766D01*
X81485655Y-64280366D02*
X81452322Y-64313700D01*
X81452322Y-64313700D02*
X81352322Y-64347033D01*
X81352322Y-64347033D02*
X81285655Y-64347033D01*
X81285655Y-64347033D02*
X81185655Y-64313700D01*
X81185655Y-64313700D02*
X81118989Y-64247033D01*
X81118989Y-64247033D02*
X81085655Y-64180366D01*
X81085655Y-64180366D02*
X81052322Y-64047033D01*
X81052322Y-64047033D02*
X81052322Y-63947033D01*
X81052322Y-63947033D02*
X81085655Y-63813700D01*
X81085655Y-63813700D02*
X81118989Y-63747033D01*
X81118989Y-63747033D02*
X81185655Y-63680366D01*
X81185655Y-63680366D02*
X81285655Y-63647033D01*
X81285655Y-63647033D02*
X81352322Y-63647033D01*
X81352322Y-63647033D02*
X81452322Y-63680366D01*
X81452322Y-63680366D02*
X81485655Y-63713700D01*
X82152322Y-64347033D02*
X81752322Y-64347033D01*
X81952322Y-64347033D02*
X81952322Y-63647033D01*
X81952322Y-63647033D02*
X81885655Y-63747033D01*
X81885655Y-63747033D02*
X81818989Y-63813700D01*
X81818989Y-63813700D02*
X81752322Y-63847033D01*
X82452322Y-64280366D02*
X82485656Y-64313700D01*
X82485656Y-64313700D02*
X82452322Y-64347033D01*
X82452322Y-64347033D02*
X82418989Y-64313700D01*
X82418989Y-64313700D02*
X82452322Y-64280366D01*
X82452322Y-64280366D02*
X82452322Y-64347033D01*
X83152322Y-64347033D02*
X82752322Y-64347033D01*
X82952322Y-64347033D02*
X82952322Y-63647033D01*
X82952322Y-63647033D02*
X82885655Y-63747033D01*
X82885655Y-63747033D02*
X82818989Y-63813700D01*
X82818989Y-63813700D02*
X82752322Y-63847033D01*
X87795733Y-43158433D02*
X87562400Y-42825100D01*
X87395733Y-43158433D02*
X87395733Y-42458433D01*
X87395733Y-42458433D02*
X87662400Y-42458433D01*
X87662400Y-42458433D02*
X87729067Y-42491766D01*
X87729067Y-42491766D02*
X87762400Y-42525100D01*
X87762400Y-42525100D02*
X87795733Y-42591766D01*
X87795733Y-42591766D02*
X87795733Y-42691766D01*
X87795733Y-42691766D02*
X87762400Y-42758433D01*
X87762400Y-42758433D02*
X87729067Y-42791766D01*
X87729067Y-42791766D02*
X87662400Y-42825100D01*
X87662400Y-42825100D02*
X87395733Y-42825100D01*
X88062400Y-42525100D02*
X88095733Y-42491766D01*
X88095733Y-42491766D02*
X88162400Y-42458433D01*
X88162400Y-42458433D02*
X88329067Y-42458433D01*
X88329067Y-42458433D02*
X88395733Y-42491766D01*
X88395733Y-42491766D02*
X88429067Y-42525100D01*
X88429067Y-42525100D02*
X88462400Y-42591766D01*
X88462400Y-42591766D02*
X88462400Y-42658433D01*
X88462400Y-42658433D02*
X88429067Y-42758433D01*
X88429067Y-42758433D02*
X88029067Y-43158433D01*
X88029067Y-43158433D02*
X88462400Y-43158433D01*
X79422933Y-42844433D02*
X79889599Y-43544433D01*
X79889599Y-42844433D02*
X79422933Y-43544433D01*
X80522933Y-43544433D02*
X80122933Y-43544433D01*
X80322933Y-43544433D02*
X80322933Y-42844433D01*
X80322933Y-42844433D02*
X80256266Y-42944433D01*
X80256266Y-42944433D02*
X80189600Y-43011100D01*
X80189600Y-43011100D02*
X80122933Y-43044433D01*
X79684866Y-50058033D02*
X79684866Y-50624700D01*
X79684866Y-50624700D02*
X79718200Y-50691366D01*
X79718200Y-50691366D02*
X79751533Y-50724700D01*
X79751533Y-50724700D02*
X79818200Y-50758033D01*
X79818200Y-50758033D02*
X79951533Y-50758033D01*
X79951533Y-50758033D02*
X80018200Y-50724700D01*
X80018200Y-50724700D02*
X80051533Y-50691366D01*
X80051533Y-50691366D02*
X80084866Y-50624700D01*
X80084866Y-50624700D02*
X80084866Y-50058033D01*
X80784866Y-50758033D02*
X80384866Y-50758033D01*
X80584866Y-50758033D02*
X80584866Y-50058033D01*
X80584866Y-50058033D02*
X80518199Y-50158033D01*
X80518199Y-50158033D02*
X80451533Y-50224700D01*
X80451533Y-50224700D02*
X80384866Y-50258033D01*
X89872398Y-43881981D02*
X89639065Y-43548648D01*
X89472398Y-43881981D02*
X89472398Y-43181981D01*
X89472398Y-43181981D02*
X89739065Y-43181981D01*
X89739065Y-43181981D02*
X89805732Y-43215314D01*
X89805732Y-43215314D02*
X89839065Y-43248648D01*
X89839065Y-43248648D02*
X89872398Y-43315314D01*
X89872398Y-43315314D02*
X89872398Y-43415314D01*
X89872398Y-43415314D02*
X89839065Y-43481981D01*
X89839065Y-43481981D02*
X89805732Y-43515314D01*
X89805732Y-43515314D02*
X89739065Y-43548648D01*
X89739065Y-43548648D02*
X89472398Y-43548648D01*
X90172398Y-43881981D02*
X90172398Y-43181981D01*
X90172398Y-43181981D02*
X90572398Y-43881981D01*
X90572398Y-43881981D02*
X90572398Y-43181981D01*
X91272398Y-43881981D02*
X90872398Y-43881981D01*
X91072398Y-43881981D02*
X91072398Y-43181981D01*
X91072398Y-43181981D02*
X91005731Y-43281981D01*
X91005731Y-43281981D02*
X90939065Y-43348648D01*
X90939065Y-43348648D02*
X90872398Y-43381981D01*
X87357655Y-64280366D02*
X87324322Y-64313700D01*
X87324322Y-64313700D02*
X87224322Y-64347033D01*
X87224322Y-64347033D02*
X87157655Y-64347033D01*
X87157655Y-64347033D02*
X87057655Y-64313700D01*
X87057655Y-64313700D02*
X86990989Y-64247033D01*
X86990989Y-64247033D02*
X86957655Y-64180366D01*
X86957655Y-64180366D02*
X86924322Y-64047033D01*
X86924322Y-64047033D02*
X86924322Y-63947033D01*
X86924322Y-63947033D02*
X86957655Y-63813700D01*
X86957655Y-63813700D02*
X86990989Y-63747033D01*
X86990989Y-63747033D02*
X87057655Y-63680366D01*
X87057655Y-63680366D02*
X87157655Y-63647033D01*
X87157655Y-63647033D02*
X87224322Y-63647033D01*
X87224322Y-63647033D02*
X87324322Y-63680366D01*
X87324322Y-63680366D02*
X87357655Y-63713700D01*
X88024322Y-64347033D02*
X87624322Y-64347033D01*
X87824322Y-64347033D02*
X87824322Y-63647033D01*
X87824322Y-63647033D02*
X87757655Y-63747033D01*
X87757655Y-63747033D02*
X87690989Y-63813700D01*
X87690989Y-63813700D02*
X87624322Y-63847033D01*
X88324322Y-64280366D02*
X88357656Y-64313700D01*
X88357656Y-64313700D02*
X88324322Y-64347033D01*
X88324322Y-64347033D02*
X88290989Y-64313700D01*
X88290989Y-64313700D02*
X88324322Y-64280366D01*
X88324322Y-64280366D02*
X88324322Y-64347033D01*
X88624322Y-63713700D02*
X88657655Y-63680366D01*
X88657655Y-63680366D02*
X88724322Y-63647033D01*
X88724322Y-63647033D02*
X88890989Y-63647033D01*
X88890989Y-63647033D02*
X88957655Y-63680366D01*
X88957655Y-63680366D02*
X88990989Y-63713700D01*
X88990989Y-63713700D02*
X89024322Y-63780366D01*
X89024322Y-63780366D02*
X89024322Y-63847033D01*
X89024322Y-63847033D02*
X88990989Y-63947033D01*
X88990989Y-63947033D02*
X88590989Y-64347033D01*
X88590989Y-64347033D02*
X89024322Y-64347033D01*
X80863533Y-47324033D02*
X80630200Y-46990700D01*
X80463533Y-47324033D02*
X80463533Y-46624033D01*
X80463533Y-46624033D02*
X80730200Y-46624033D01*
X80730200Y-46624033D02*
X80796867Y-46657366D01*
X80796867Y-46657366D02*
X80830200Y-46690700D01*
X80830200Y-46690700D02*
X80863533Y-46757366D01*
X80863533Y-46757366D02*
X80863533Y-46857366D01*
X80863533Y-46857366D02*
X80830200Y-46924033D01*
X80830200Y-46924033D02*
X80796867Y-46957366D01*
X80796867Y-46957366D02*
X80730200Y-46990700D01*
X80730200Y-46990700D02*
X80463533Y-46990700D01*
X81530200Y-47324033D02*
X81130200Y-47324033D01*
X81330200Y-47324033D02*
X81330200Y-46624033D01*
X81330200Y-46624033D02*
X81263533Y-46724033D01*
X81263533Y-46724033D02*
X81196867Y-46790700D01*
X81196867Y-46790700D02*
X81130200Y-46824033D01*
X89965065Y-65418314D02*
X89931732Y-65451648D01*
X89931732Y-65451648D02*
X89831732Y-65484981D01*
X89831732Y-65484981D02*
X89765065Y-65484981D01*
X89765065Y-65484981D02*
X89665065Y-65451648D01*
X89665065Y-65451648D02*
X89598399Y-65384981D01*
X89598399Y-65384981D02*
X89565065Y-65318314D01*
X89565065Y-65318314D02*
X89531732Y-65184981D01*
X89531732Y-65184981D02*
X89531732Y-65084981D01*
X89531732Y-65084981D02*
X89565065Y-64951648D01*
X89565065Y-64951648D02*
X89598399Y-64884981D01*
X89598399Y-64884981D02*
X89665065Y-64818314D01*
X89665065Y-64818314D02*
X89765065Y-64784981D01*
X89765065Y-64784981D02*
X89831732Y-64784981D01*
X89831732Y-64784981D02*
X89931732Y-64818314D01*
X89931732Y-64818314D02*
X89965065Y-64851648D01*
X90631732Y-65484981D02*
X90231732Y-65484981D01*
X90431732Y-65484981D02*
X90431732Y-64784981D01*
X90431732Y-64784981D02*
X90365065Y-64884981D01*
X90365065Y-64884981D02*
X90298399Y-64951648D01*
X90298399Y-64951648D02*
X90231732Y-64984981D01*
X90931732Y-65418314D02*
X90965066Y-65451648D01*
X90965066Y-65451648D02*
X90931732Y-65484981D01*
X90931732Y-65484981D02*
X90898399Y-65451648D01*
X90898399Y-65451648D02*
X90931732Y-65418314D01*
X90931732Y-65418314D02*
X90931732Y-65484981D01*
X91198399Y-64784981D02*
X91631732Y-64784981D01*
X91631732Y-64784981D02*
X91398399Y-65051648D01*
X91398399Y-65051648D02*
X91498399Y-65051648D01*
X91498399Y-65051648D02*
X91565065Y-65084981D01*
X91565065Y-65084981D02*
X91598399Y-65118314D01*
X91598399Y-65118314D02*
X91631732Y-65184981D01*
X91631732Y-65184981D02*
X91631732Y-65351648D01*
X91631732Y-65351648D02*
X91598399Y-65418314D01*
X91598399Y-65418314D02*
X91565065Y-65451648D01*
X91565065Y-65451648D02*
X91498399Y-65484981D01*
X91498399Y-65484981D02*
X91298399Y-65484981D01*
X91298399Y-65484981D02*
X91231732Y-65451648D01*
X91231732Y-65451648D02*
X91198399Y-65418314D01*
X85579655Y-49040366D02*
X85546322Y-49073700D01*
X85546322Y-49073700D02*
X85446322Y-49107033D01*
X85446322Y-49107033D02*
X85379655Y-49107033D01*
X85379655Y-49107033D02*
X85279655Y-49073700D01*
X85279655Y-49073700D02*
X85212989Y-49007033D01*
X85212989Y-49007033D02*
X85179655Y-48940366D01*
X85179655Y-48940366D02*
X85146322Y-48807033D01*
X85146322Y-48807033D02*
X85146322Y-48707033D01*
X85146322Y-48707033D02*
X85179655Y-48573700D01*
X85179655Y-48573700D02*
X85212989Y-48507033D01*
X85212989Y-48507033D02*
X85279655Y-48440366D01*
X85279655Y-48440366D02*
X85379655Y-48407033D01*
X85379655Y-48407033D02*
X85446322Y-48407033D01*
X85446322Y-48407033D02*
X85546322Y-48440366D01*
X85546322Y-48440366D02*
X85579655Y-48473700D01*
X86246322Y-49107033D02*
X85846322Y-49107033D01*
X86046322Y-49107033D02*
X86046322Y-48407033D01*
X86046322Y-48407033D02*
X85979655Y-48507033D01*
X85979655Y-48507033D02*
X85912989Y-48573700D01*
X85912989Y-48573700D02*
X85846322Y-48607033D01*
X86546322Y-49040366D02*
X86579656Y-49073700D01*
X86579656Y-49073700D02*
X86546322Y-49107033D01*
X86546322Y-49107033D02*
X86512989Y-49073700D01*
X86512989Y-49073700D02*
X86546322Y-49040366D01*
X86546322Y-49040366D02*
X86546322Y-49107033D01*
X87179655Y-48640366D02*
X87179655Y-49107033D01*
X87012989Y-48373700D02*
X86846322Y-48873700D01*
X86846322Y-48873700D02*
X87279655Y-48873700D01*
X90642533Y-73546366D02*
X90609200Y-73579700D01*
X90609200Y-73579700D02*
X90509200Y-73613033D01*
X90509200Y-73613033D02*
X90442533Y-73613033D01*
X90442533Y-73613033D02*
X90342533Y-73579700D01*
X90342533Y-73579700D02*
X90275867Y-73513033D01*
X90275867Y-73513033D02*
X90242533Y-73446366D01*
X90242533Y-73446366D02*
X90209200Y-73313033D01*
X90209200Y-73313033D02*
X90209200Y-73213033D01*
X90209200Y-73213033D02*
X90242533Y-73079700D01*
X90242533Y-73079700D02*
X90275867Y-73013033D01*
X90275867Y-73013033D02*
X90342533Y-72946366D01*
X90342533Y-72946366D02*
X90442533Y-72913033D01*
X90442533Y-72913033D02*
X90509200Y-72913033D01*
X90509200Y-72913033D02*
X90609200Y-72946366D01*
X90609200Y-72946366D02*
X90642533Y-72979700D01*
X91275867Y-72913033D02*
X90942533Y-72913033D01*
X90942533Y-72913033D02*
X90909200Y-73246366D01*
X90909200Y-73246366D02*
X90942533Y-73213033D01*
X90942533Y-73213033D02*
X91009200Y-73179700D01*
X91009200Y-73179700D02*
X91175867Y-73179700D01*
X91175867Y-73179700D02*
X91242533Y-73213033D01*
X91242533Y-73213033D02*
X91275867Y-73246366D01*
X91275867Y-73246366D02*
X91309200Y-73313033D01*
X91309200Y-73313033D02*
X91309200Y-73479700D01*
X91309200Y-73479700D02*
X91275867Y-73546366D01*
X91275867Y-73546366D02*
X91242533Y-73579700D01*
X91242533Y-73579700D02*
X91175867Y-73613033D01*
X91175867Y-73613033D02*
X91009200Y-73613033D01*
X91009200Y-73613033D02*
X90942533Y-73579700D01*
X90942533Y-73579700D02*
X90909200Y-73546366D01*
X86034866Y-45232033D02*
X86034866Y-45798700D01*
X86034866Y-45798700D02*
X86068200Y-45865366D01*
X86068200Y-45865366D02*
X86101533Y-45898700D01*
X86101533Y-45898700D02*
X86168200Y-45932033D01*
X86168200Y-45932033D02*
X86301533Y-45932033D01*
X86301533Y-45932033D02*
X86368200Y-45898700D01*
X86368200Y-45898700D02*
X86401533Y-45865366D01*
X86401533Y-45865366D02*
X86434866Y-45798700D01*
X86434866Y-45798700D02*
X86434866Y-45232033D01*
X86701533Y-45232033D02*
X87134866Y-45232033D01*
X87134866Y-45232033D02*
X86901533Y-45498700D01*
X86901533Y-45498700D02*
X87001533Y-45498700D01*
X87001533Y-45498700D02*
X87068199Y-45532033D01*
X87068199Y-45532033D02*
X87101533Y-45565366D01*
X87101533Y-45565366D02*
X87134866Y-45632033D01*
X87134866Y-45632033D02*
X87134866Y-45798700D01*
X87134866Y-45798700D02*
X87101533Y-45865366D01*
X87101533Y-45865366D02*
X87068199Y-45898700D01*
X87068199Y-45898700D02*
X87001533Y-45932033D01*
X87001533Y-45932033D02*
X86801533Y-45932033D01*
X86801533Y-45932033D02*
X86734866Y-45898700D01*
X86734866Y-45898700D02*
X86701533Y-45865366D01*
%TO.C,C4*%
D12*
X84102400Y-41080380D02*
X84102400Y-40799220D01*
X85122400Y-41080380D02*
X85122400Y-40799220D01*
%TO.C,C3*%
X85752400Y-41080380D02*
X85752400Y-40799220D01*
X86772400Y-41080380D02*
X86772400Y-40799220D01*
%TO.C,C1.1*%
X79708200Y-63252820D02*
X79708200Y-63533980D01*
X80728200Y-63252820D02*
X80728200Y-63533980D01*
%TO.C,R2*%
X87389900Y-41177058D02*
X87389900Y-40702542D01*
X88434900Y-41177058D02*
X88434900Y-40702542D01*
%TO.C,X1*%
X83752732Y-39199348D02*
X79432732Y-39199348D01*
X83752732Y-42819348D02*
X83752732Y-39199348D01*
%TO.C,U1*%
X80493000Y-51273000D02*
X81068000Y-51273000D01*
X80493000Y-51848000D02*
X80493000Y-51273000D01*
X80493000Y-61493000D02*
X80493000Y-60918000D01*
X81068000Y-61493000D02*
X80493000Y-61493000D01*
X90138000Y-51273000D02*
X90713000Y-51273000D01*
X90713000Y-51273000D02*
X90713000Y-51848000D01*
X90713000Y-60918000D02*
X90713000Y-61493000D01*
X90713000Y-61493000D02*
X90138000Y-61493000D01*
X79853000Y-51843000D02*
X79513000Y-51373000D01*
X80193000Y-51373000D01*
X79853000Y-51843000D01*
G36*
X79853000Y-51843000D02*
G01*
X79513000Y-51373000D01*
X80193000Y-51373000D01*
X79853000Y-51843000D01*
G37*
%TO.C,RN1*%
X89855732Y-39583348D02*
X90855732Y-39583348D01*
X89855732Y-42943348D02*
X90855732Y-42943348D01*
%TO.C,C1.2*%
X85565780Y-63518400D02*
X85284620Y-63518400D01*
X85565780Y-64538400D02*
X85284620Y-64538400D01*
%TO.C,R1*%
X80457700Y-45342658D02*
X80457700Y-44868142D01*
X81502700Y-45342658D02*
X81502700Y-44868142D01*
%TO.C,C1.3*%
X90579732Y-63125768D02*
X90579732Y-63406928D01*
X91599732Y-63125768D02*
X91599732Y-63406928D01*
%TO.C,IC6*%
X79143000Y-38543000D02*
X79143000Y-74223000D01*
X79143000Y-74223000D02*
X92063000Y-74223000D01*
X84603000Y-38543000D02*
X79143000Y-38543000D01*
X92063000Y-38543000D02*
X86603000Y-38543000D01*
X92063000Y-74223000D02*
X92063000Y-38543000D01*
X86603000Y-38543000D02*
G75*
G02*
X84603000Y-38543000I-1000000J0D01*
G01*
%TO.C,C1.4*%
X83787780Y-48278400D02*
X83506620Y-48278400D01*
X83787780Y-49298400D02*
X83506620Y-49298400D01*
%TO.C,C5*%
X90249200Y-71253820D02*
X90249200Y-71534980D01*
X91269200Y-71253820D02*
X91269200Y-71534980D01*
%TO.C,U3*%
X83677000Y-44002600D02*
X85497000Y-44002600D01*
X83677000Y-44052600D02*
X83677000Y-44002600D01*
X83677000Y-47122600D02*
X83677000Y-47072600D01*
X85497000Y-44002600D02*
X85497000Y-44052600D01*
X85497000Y-45172600D02*
X85497000Y-45952600D01*
X85497000Y-47072600D02*
X85497000Y-47122600D01*
X85497000Y-47122600D02*
X83677000Y-47122600D01*
X83137000Y-44052600D02*
X82897000Y-43722600D01*
X83377000Y-43722600D01*
X83137000Y-44052600D01*
G36*
X83137000Y-44052600D02*
G01*
X82897000Y-43722600D01*
X83377000Y-43722600D01*
X83137000Y-44052600D01*
G37*
%TD*%
M02*
