%TF.GenerationSoftware,KiCad,Pcbnew,10.0.5*%
%TF.CreationDate,2026-08-24T13:00:59-07:00*%
%TF.ProjectId,VideoULA,56696465-6f55-44c4-912e-6b696361645f,01*%
%TF.SameCoordinates,Original*%
%TF.FileFunction,Copper,L1,Top*%
%TF.FilePolarity,Positive*%
%FSLAX46Y46*%
G04 Gerber Fmt 4.6, Leading zero omitted, Abs format (unit mm)*
G04 Created by KiCad (PCBNEW 10.0.5) date 2026-08-24 13:00:59*
%MOMM*%
%LPD*%
G01*
G04 APERTURE LIST*
G04 Aperture macros list*
%AMRoundRect*
0 Rectangle with rounded corners*
0 $1 Rounding radius*
0 $2 $3 $4 $5 $6 $7 $8 $9 X,Y pos of 4 corners*
0 Add a 4 corners polygon primitive as box body*
4,1,4,$2,$3,$4,$5,$6,$7,$8,$9,$2,$3,0*
0 Add four circle primitives for the rounded corners*
1,1,$1+$1,$2,$3*
1,1,$1+$1,$4,$5*
1,1,$1+$1,$6,$7*
1,1,$1+$1,$8,$9*
0 Add four rect primitives between the rounded corners*
20,1,$1+$1,$2,$3,$4,$5,0*
20,1,$1+$1,$4,$5,$6,$7,0*
20,1,$1+$1,$6,$7,$8,$9,0*
20,1,$1+$1,$8,$9,$2,$3,0*%
G04 Aperture macros list end*
%TA.AperFunction,SMDPad,CuDef*%
%ADD10RoundRect,0.225000X0.250000X-0.225000X0.250000X0.225000X-0.250000X0.225000X-0.250000X-0.225000X0*%
%TD*%
%TA.AperFunction,SMDPad,CuDef*%
%ADD11RoundRect,0.225000X-0.250000X0.225000X-0.250000X-0.225000X0.250000X-0.225000X0.250000X0.225000X0*%
%TD*%
%TA.AperFunction,SMDPad,CuDef*%
%ADD12RoundRect,0.200000X0.275000X-0.200000X0.275000X0.200000X-0.275000X0.200000X-0.275000X-0.200000X0*%
%TD*%
%TA.AperFunction,SMDPad,CuDef*%
%ADD13RoundRect,0.250000X0.400000X0.350000X-0.400000X0.350000X-0.400000X-0.350000X0.400000X-0.350000X0*%
%TD*%
%TA.AperFunction,SMDPad,CuDef*%
%ADD14RoundRect,0.137500X-0.600000X-0.137500X0.600000X-0.137500X0.600000X0.137500X-0.600000X0.137500X0*%
%TD*%
%TA.AperFunction,SMDPad,CuDef*%
%ADD15RoundRect,0.137500X-0.137500X-0.600000X0.137500X-0.600000X0.137500X0.600000X-0.137500X0.600000X0*%
%TD*%
%TA.AperFunction,SMDPad,CuDef*%
%ADD16R,0.800000X0.500000*%
%TD*%
%TA.AperFunction,SMDPad,CuDef*%
%ADD17R,0.800000X0.400000*%
%TD*%
%TA.AperFunction,SMDPad,CuDef*%
%ADD18RoundRect,0.225000X0.225000X0.250000X-0.225000X0.250000X-0.225000X-0.250000X0.225000X-0.250000X0*%
%TD*%
%TA.AperFunction,ComponentPad*%
%ADD19RoundRect,0.250000X-0.550000X-0.550000X0.550000X-0.550000X0.550000X0.550000X-0.550000X0.550000X0*%
%TD*%
%TA.AperFunction,ComponentPad*%
%ADD20C,1.600000*%
%TD*%
%TA.AperFunction,SMDPad,CuDef*%
%ADD21RoundRect,0.150000X-0.512500X-0.150000X0.512500X-0.150000X0.512500X0.150000X-0.512500X0.150000X0*%
%TD*%
%TA.AperFunction,ComponentPad*%
%ADD22R,1.700000X1.700000*%
%TD*%
%TA.AperFunction,ViaPad*%
%ADD23C,0.800000*%
%TD*%
%TA.AperFunction,ViaPad*%
%ADD24C,0.600000*%
%TD*%
%TA.AperFunction,Conductor*%
%ADD25C,0.500000*%
%TD*%
%TA.AperFunction,Conductor*%
%ADD26C,0.400000*%
%TD*%
%TA.AperFunction,Conductor*%
%ADD27C,0.380000*%
%TD*%
%TA.AperFunction,Conductor*%
%ADD28C,0.250000*%
%TD*%
G04 APERTURE END LIST*
D10*
%TO.P,C4,1*%
%TO.N,+5V*%
X84612400Y-41714800D03*
%TO.P,C4,2*%
%TO.N,GND*%
X84612400Y-40164800D03*
%TD*%
%TO.P,C3,1*%
%TO.N,+5V*%
X86262400Y-41714800D03*
%TO.P,C3,2*%
%TO.N,GND*%
X86262400Y-40164800D03*
%TD*%
D11*
%TO.P,C1.1,1*%
%TO.N,+5V*%
X80218200Y-62618400D03*
%TO.P,C1.1,2*%
%TO.N,GND*%
X80218200Y-64168400D03*
%TD*%
D12*
%TO.P,R2,1*%
%TO.N,+5V*%
X87912400Y-41764800D03*
%TO.P,R2,2*%
%TO.N,/CLK_SEL*%
X87912400Y-40114800D03*
%TD*%
D13*
%TO.P,X1,1,E/B_1*%
%TO.N,unconnected-(X1-E{slash}B-Pad1)*%
X82642732Y-40059348D03*
%TO.P,X1,2,GND_2*%
%TO.N,GND*%
X80542732Y-40059348D03*
%TO.P,X1,3,OUT_3*%
%TO.N,/CLK_48M*%
X80542732Y-41959348D03*
%TO.P,X1,4,V+_4*%
%TO.N,+5V*%
X82642732Y-41959348D03*
%TD*%
D14*
%TO.P,U1,1,I/O/TDI_1*%
%TO.N,/~{CS}*%
X79940500Y-52383000D03*
%TO.P,U1,2,I/O_2*%
%TO.N,/A*%
X79940500Y-53183000D03*
%TO.P,U1,3,I/O_3*%
%TO.N,/SRAM_A3*%
X79940500Y-53983000D03*
%TO.P,U1,4,GND_4*%
%TO.N,GND*%
X79940500Y-54783000D03*
%TO.P,U1,5,I/O/PD1_5*%
%TO.N,/SRAM_A2*%
X79940500Y-55583000D03*
%TO.P,U1,6,I/O_6*%
%TO.N,/SRAM_A1*%
X79940500Y-56383000D03*
%TO.P,U1,7,I/O/TMS_7*%
%TO.N,/CLK_8M*%
X79940500Y-57183000D03*
%TO.P,U1,8,I/O_8*%
%TO.N,/SRAM_A0*%
X79940500Y-57983000D03*
%TO.P,U1,9,VCC_9*%
%TO.N,+5V*%
X79940500Y-58783000D03*
%TO.P,U1,10,I/O_10*%
%TO.N,/B_IN*%
X79940500Y-59583000D03*
%TO.P,U1,11,I/O_11*%
%TO.N,/B*%
X79940500Y-60383000D03*
D15*
%TO.P,U1,12,I/O_12*%
%TO.N,/G_IN*%
X81603000Y-62045500D03*
%TO.P,U1,13,I/O_13*%
%TO.N,/G*%
X82403000Y-62045500D03*
%TO.P,U1,14,I/O_14*%
%TO.N,/R_IN*%
X83203000Y-62045500D03*
%TO.P,U1,15,I/O_15*%
%TO.N,/R*%
X84003000Y-62045500D03*
%TO.P,U1,16,GND_16*%
%TO.N,GND*%
X84803000Y-62045500D03*
%TO.P,U1,17,VCC_17*%
%TO.N,+5V*%
X85603000Y-62045500D03*
%TO.P,U1,18,I/O_18*%
%TO.N,/SRAM_~{WE}*%
X86403000Y-62045500D03*
%TO.P,U1,19,I/O/PD2_19*%
%TO.N,/D0*%
X87203000Y-62045500D03*
%TO.P,U1,20,I/O_20*%
%TO.N,/D1*%
X88003000Y-62045500D03*
%TO.P,U1,21,I/O_21*%
%TO.N,/D2*%
X88803000Y-62045500D03*
%TO.P,U1,22,I/O_22*%
%TO.N,/D3*%
X89603000Y-62045500D03*
D14*
%TO.P,U1,23,I/O_23*%
%TO.N,/SRAM_D3*%
X91265500Y-60383000D03*
%TO.P,U1,24,GND_24*%
%TO.N,GND*%
X91265500Y-59583000D03*
%TO.P,U1,25,I/O_25*%
%TO.N,/SRAM_D2*%
X91265500Y-58783000D03*
%TO.P,U1,26,I/O/TCK_26*%
%TO.N,/CLK_CRTC*%
X91265500Y-57983000D03*
%TO.P,U1,27,I/O_27*%
%TO.N,/D4*%
X91265500Y-57183000D03*
%TO.P,U1,28,I/O_28*%
%TO.N,/CLK_4M*%
X91265500Y-56383000D03*
%TO.P,U1,29,VCC_29*%
%TO.N,+5V*%
X91265500Y-55583000D03*
%TO.P,U1,30,I/O_30*%
%TO.N,/CURSOR*%
X91265500Y-54783000D03*
%TO.P,U1,31,I/O_31*%
%TO.N,/D5*%
X91265500Y-53983000D03*
%TO.P,U1,32,I/O/TDO_32*%
%TO.N,/D6*%
X91265500Y-53183000D03*
%TO.P,U1,33,I/O_33*%
%TO.N,/D7*%
X91265500Y-52383000D03*
D15*
%TO.P,U1,34,I/O_34*%
%TO.N,/SRAM_D0*%
X89603000Y-50720500D03*
%TO.P,U1,35,I/O/GCLK3_35*%
%TO.N,/SRAM_D1*%
X88803000Y-50720500D03*
%TO.P,U1,36,GND_36*%
%TO.N,GND*%
X88003000Y-50720500D03*
%TO.P,U1,37,I/GCLK1_37*%
%TO.N,/CLK_16M_BUF*%
X87203000Y-50720500D03*
%TO.P,U1,38,I/OE1/Vpp_38*%
%TO.N,/DISEN*%
X86403000Y-50720500D03*
%TO.P,U1,39,I/GCLR_39*%
%TO.N,/CLK_SEL*%
X85603000Y-50720500D03*
%TO.P,U1,40,I/OE2/GCLK2_40*%
%TO.N,/CLK_48M*%
X84803000Y-50720500D03*
%TO.P,U1,41,VCC_41*%
%TO.N,+5V*%
X84003000Y-50720500D03*
%TO.P,U1,42,I/O_42*%
%TO.N,/CLK_2M*%
X83203000Y-50720500D03*
%TO.P,U1,43,I/O_43*%
%TO.N,/CLK_1M*%
X82403000Y-50720500D03*
%TO.P,U1,44,I/O_44*%
%TO.N,/CLK_6M*%
X81603000Y-50720500D03*
%TD*%
D16*
%TO.P,RN1,1,R1.1_1*%
%TO.N,GND*%
X91255732Y-42463348D03*
D17*
%TO.P,RN1,2,R2.1_2*%
X91255732Y-41663348D03*
%TO.P,RN1,3,R3.1_3*%
X91255732Y-40863348D03*
D16*
%TO.P,RN1,4,R4.1_4*%
X91255732Y-40063348D03*
%TO.P,RN1,5,R4.2_5*%
%TO.N,/SRAM_Q0*%
X89455732Y-40063348D03*
D17*
%TO.P,RN1,6,R3.2_6*%
%TO.N,/SRAM_Q1*%
X89455732Y-40863348D03*
%TO.P,RN1,7,R2.2_7*%
%TO.N,/SRAM_Q2*%
X89455732Y-41663348D03*
D16*
%TO.P,RN1,8,R1.2_8*%
%TO.N,/SRAM_Q3*%
X89455732Y-42463348D03*
%TD*%
D18*
%TO.P,C1.2,1*%
%TO.N,+5V*%
X86200200Y-64028400D03*
%TO.P,C1.2,2*%
%TO.N,GND*%
X84650200Y-64028400D03*
%TD*%
D12*
%TO.P,R1,1*%
%TO.N,/CLK_16M*%
X80980200Y-45930400D03*
%TO.P,R1,2*%
%TO.N,/CLK_16M_R*%
X80980200Y-44280400D03*
%TD*%
D11*
%TO.P,C1.3,1*%
%TO.N,+5V*%
X91089732Y-62491348D03*
%TO.P,C1.3,2*%
%TO.N,GND*%
X91089732Y-64041348D03*
%TD*%
D19*
%TO.P,IC6,1,GND_1*%
%TO.N,GND*%
X77983000Y-39873000D03*
D20*
%TO.P,IC6,2,A0_2*%
%TO.N,/A*%
X77983000Y-42413000D03*
%TO.P,IC6,3,CS_3*%
%TO.N,/~{CS}*%
X77983000Y-44953000D03*
%TO.P,IC6,4,1MHz_CLK_4*%
%TO.N,/CLK_1M*%
X77983000Y-47493000D03*
%TO.P,IC6,5,2MHz_CLK_5*%
%TO.N,/CLK_2M*%
X77983000Y-50033000D03*
%TO.P,IC6,6,4MHz_CLK_6*%
%TO.N,/CLK_4M*%
X77983000Y-52573000D03*
%TO.P,IC6,7,8MHz_CLK_7*%
%TO.N,/CLK_8M*%
X77983000Y-55113000D03*
%TO.P,IC6,8,16MHz_CLK_8*%
%TO.N,/CLK_16M*%
X77983000Y-57653000D03*
%TO.P,IC6,9,B_IN_9*%
%TO.N,/B_IN*%
X77983000Y-60193000D03*
%TO.P,IC6,10,B_10*%
%TO.N,/B*%
X77983000Y-62733000D03*
%TO.P,IC6,11,G_IN_11*%
%TO.N,/G_IN*%
X77983000Y-65273000D03*
%TO.P,IC6,12,G_12*%
%TO.N,/G*%
X77983000Y-67813000D03*
%TO.P,IC6,13,R_IN_13*%
%TO.N,/R_IN*%
X77983000Y-70353000D03*
%TO.P,IC6,14,R_14*%
%TO.N,/R*%
X77983000Y-72893000D03*
%TO.P,IC6,15*%
%TO.N,unconnected-(IC6-Pad15)*%
X93223000Y-72893000D03*
%TO.P,IC6,16,VCC_16*%
%TO.N,+5V*%
X93223000Y-70353000D03*
%TO.P,IC6,17,D0_17*%
%TO.N,/D0*%
X93223000Y-67813000D03*
%TO.P,IC6,18,D1_18*%
%TO.N,/D1*%
X93223000Y-65273000D03*
%TO.P,IC6,19,D2_19*%
%TO.N,/D2*%
X93223000Y-62733000D03*
%TO.P,IC6,20,D3_20*%
%TO.N,/D3*%
X93223000Y-60193000D03*
%TO.P,IC6,21,D4_21*%
%TO.N,/D4*%
X93223000Y-57653000D03*
%TO.P,IC6,22,D5_22*%
%TO.N,/D5*%
X93223000Y-55113000D03*
%TO.P,IC6,23,D6_23*%
%TO.N,/D6*%
X93223000Y-52573000D03*
%TO.P,IC6,24,D7_24*%
%TO.N,/D7*%
X93223000Y-50033000D03*
%TO.P,IC6,25,CURSOR_25*%
%TO.N,/CURSOR*%
X93223000Y-47493000D03*
%TO.P,IC6,26,DISEN_26*%
%TO.N,/DISEN*%
X93223000Y-44953000D03*
%TO.P,IC6,27*%
%TO.N,unconnected-(IC6-Pad27)*%
X93223000Y-42413000D03*
%TO.P,IC6,28,CRTC_CLK_28*%
%TO.N,/CLK_CRTC*%
X93223000Y-39873000D03*
%TD*%
D18*
%TO.P,C1.4,1*%
%TO.N,+5V*%
X84422200Y-48788400D03*
%TO.P,C1.4,2*%
%TO.N,GND*%
X82872200Y-48788400D03*
%TD*%
D11*
%TO.P,C5,1*%
%TO.N,+5V*%
X90759200Y-70619400D03*
%TO.P,C5,2*%
%TO.N,GND*%
X90759200Y-72169400D03*
%TD*%
D21*
%TO.P,U3,1,NC_1*%
%TO.N,unconnected-(U3-NC-Pad1)*%
X83449500Y-44612600D03*
%TO.P,U3,2*%
%TO.N,/CLK_16M_R*%
X83449500Y-45562600D03*
%TO.P,U3,3,GND_3*%
%TO.N,GND*%
X83449500Y-46512600D03*
%TO.P,U3,4*%
%TO.N,/CLK_16M_BUF*%
X85724500Y-46512600D03*
%TO.P,U3,5,VCC_5*%
%TO.N,+5V*%
X85724500Y-44612600D03*
%TD*%
D22*
%TO.P,J2,1,Pin_1_1*%
%TO.N,/CLK_6M*%
X80523000Y-48763000D03*
%TD*%
D23*
%TO.N,+5V*%
X80446800Y-61640800D03*
X92530000Y-56446079D03*
X86746000Y-64567566D03*
X85603000Y-57602200D03*
X90251200Y-45471400D03*
X91140200Y-61488400D03*
%TO.N,GND*%
X87786400Y-56306800D03*
X78745000Y-64003000D03*
X85119400Y-53131800D03*
X89935106Y-58935915D03*
X82377200Y-43661900D03*
X89743200Y-64028400D03*
X89870200Y-44470400D03*
X88219200Y-46248400D03*
X81944400Y-59735800D03*
X83468400Y-55036800D03*
X81234200Y-54884400D03*
X85148732Y-42660348D03*
X80928400Y-47035800D03*
X88030260Y-43489551D03*
D24*
%TO.N,/CLK_SEL*%
X88737629Y-43061109D03*
X87913400Y-40937800D03*
X86978294Y-45289599D03*
%TO.N,/SRAM_A3*%
X81996200Y-54376400D03*
%TO.N,/SRAM_A2*%
X81172494Y-55939019D03*
%TO.N,/SRAM_A1*%
X81213401Y-56751910D03*
%TO.N,/SRAM_A0*%
X81085271Y-57473638D03*
%TO.N,/SRAM_~{WE}*%
X86623305Y-57841858D03*
%TO.N,/SRAM_D3*%
X88092200Y-57678400D03*
%TO.N,/SRAM_D2*%
X89656601Y-57892247D03*
%TO.N,/CLK_CRTC*%
X90046698Y-56769943D03*
X90305000Y-50566400D03*
%TO.N,/CLK_4M*%
X85669877Y-51954077D03*
%TO.N,/SRAM_D0*%
X89182075Y-51860475D03*
%TO.N,/SRAM_D1*%
X88412077Y-51871123D03*
%TO.N,/CLK_2M*%
X83104203Y-51963400D03*
%TO.N,/CLK_1M*%
X82377200Y-51963400D03*
%TO.N,/SRAM_Q0*%
X90328730Y-39938800D03*
%TO.N,/SRAM_Q1*%
X90328730Y-40865803D03*
%TO.N,/SRAM_Q2*%
X90328730Y-41792806D03*
%TO.N,/SRAM_Q3*%
X90328730Y-42719809D03*
%TO.N,/CLK_16M*%
X82400175Y-59005000D03*
X79964200Y-45994400D03*
X81629795Y-51885000D03*
%TD*%
%TO.N,+5V*%
D25*
X81055000Y-59228578D02*
X81055000Y-61032600D01*
X84612400Y-41714800D02*
X82887280Y-41714800D01*
X84003000Y-50720500D02*
X84003000Y-53614600D01*
X79940500Y-58783000D02*
X80609422Y-58783000D01*
X90236200Y-45471400D02*
X88166532Y-45471400D01*
X90852064Y-66152000D02*
X89168480Y-66152000D01*
X84003000Y-49207600D02*
X84422200Y-48788400D01*
X91089732Y-61538868D02*
X91140200Y-61488400D01*
X92029832Y-67329768D02*
X90852064Y-66152000D01*
X87307732Y-44612600D02*
X85724500Y-44612600D01*
X83071248Y-41959348D02*
X85724500Y-44612600D01*
X87584045Y-64567566D02*
X86746000Y-64567566D01*
X89168480Y-66152000D02*
X87584045Y-64567566D01*
X85603000Y-55214600D02*
X85603000Y-57602200D01*
X84003000Y-53614600D02*
X85603000Y-55214600D01*
X91089732Y-62491348D02*
X91089732Y-61538868D01*
X80609422Y-58783000D02*
X81055000Y-59228578D01*
X88166532Y-45471400D02*
X87307732Y-44612600D01*
X80446800Y-61640800D02*
X80218200Y-61869400D01*
X91025600Y-70353000D02*
X90759200Y-70619400D01*
X92530000Y-56147200D02*
X91965800Y-55583000D01*
X92530000Y-56446079D02*
X92530000Y-56147200D01*
X81055000Y-61032600D02*
X80446800Y-61640800D01*
X85603000Y-62045500D02*
X85603000Y-57602200D01*
X93223000Y-70353000D02*
X92029832Y-69159832D01*
X92029832Y-69159832D02*
X92029832Y-67329768D01*
X82642732Y-41959348D02*
X83071248Y-41959348D01*
X86262400Y-41714800D02*
X84612400Y-41714800D01*
X93223000Y-70353000D02*
X91025600Y-70353000D01*
X85603000Y-63431200D02*
X86200200Y-64028400D01*
X86262400Y-41714800D02*
X87862400Y-41714800D01*
X85603000Y-62045500D02*
X85603000Y-63431200D01*
X84003000Y-50720500D02*
X84003000Y-49207600D01*
X86206834Y-64028400D02*
X86746000Y-64567566D01*
X80218200Y-61869400D02*
X80218200Y-62618400D01*
X91965800Y-55583000D02*
X91265500Y-55583000D01*
%TO.N,GND*%
D26*
X88003000Y-46464600D02*
X88219200Y-46248400D01*
X84803000Y-58453200D02*
X83468400Y-57118600D01*
X81840401Y-58678062D02*
X81632000Y-58886463D01*
X80795748Y-41009348D02*
X80542732Y-40756332D01*
D27*
X91255732Y-43919348D02*
X91255732Y-42463348D01*
D26*
X91265500Y-59583000D02*
X90582191Y-59583000D01*
X81479032Y-45203400D02*
X81869200Y-45593568D01*
X80024028Y-44010740D02*
X80024028Y-44550060D01*
X79372732Y-40059348D02*
X79186384Y-39873000D01*
X88003000Y-50720500D02*
X88003000Y-46464600D01*
X83520400Y-59735800D02*
X84803000Y-58453200D01*
X79202200Y-42692400D02*
X79202200Y-42038381D01*
D27*
X88030260Y-44144876D02*
X88355784Y-44470400D01*
D26*
X83449500Y-46512600D02*
X81869200Y-46512600D01*
X77983000Y-40819181D02*
X79202200Y-42038381D01*
X81234200Y-54884400D02*
X81840401Y-55490601D01*
X81944400Y-59735800D02*
X83520400Y-59735800D01*
X77983000Y-39873000D02*
X79186384Y-39873000D01*
X89743200Y-64028400D02*
X91076784Y-64028400D01*
X90759200Y-72169400D02*
X85184200Y-72169400D01*
X83468400Y-57118600D02*
X83468400Y-55036800D01*
D27*
X88030260Y-43489551D02*
X88030260Y-44144876D01*
D26*
X83767852Y-41009348D02*
X80795748Y-41009348D01*
X77983000Y-39873000D02*
X77983000Y-40819181D01*
X81632000Y-59423400D02*
X81944400Y-59735800D01*
X81840401Y-55490601D02*
X81840401Y-58678062D01*
X80481368Y-43553400D02*
X82268700Y-43553400D01*
X85148732Y-42660348D02*
X87201057Y-42660348D01*
X78910400Y-64168400D02*
X78745000Y-64003000D01*
X84650200Y-64028400D02*
X84650200Y-71635400D01*
X81219000Y-47162800D02*
X80928400Y-47162800D01*
X82268700Y-43553400D02*
X82377200Y-43661900D01*
X84612400Y-40234348D02*
X84612400Y-39132348D01*
X85184200Y-72169400D02*
X84650200Y-71635400D01*
X79186384Y-39873000D02*
X79927036Y-39132348D01*
X91255732Y-40863348D02*
X91255732Y-41663348D01*
X80542732Y-40756332D02*
X80542732Y-40059348D01*
D27*
X89870200Y-44470400D02*
X90704680Y-44470400D01*
D26*
X79927036Y-39132348D02*
X84612400Y-39132348D01*
X81869200Y-45593568D02*
X81869200Y-46512600D01*
X84803000Y-58453200D02*
X84803000Y-62045500D01*
X80677368Y-45203400D02*
X81479032Y-45203400D01*
X81869200Y-46512600D02*
X81346000Y-47035800D01*
X80024028Y-44550060D02*
X80677368Y-45203400D01*
X91255732Y-40063348D02*
X91255732Y-40863348D01*
X79940500Y-54783000D02*
X81132800Y-54783000D01*
D27*
X90704680Y-44470400D02*
X91255732Y-43919348D01*
D26*
X79202200Y-42692400D02*
X80024028Y-43514228D01*
X80024028Y-44010740D02*
X80481368Y-43553400D01*
X86262400Y-40164800D02*
X84612400Y-40164800D01*
X80542732Y-40059348D02*
X79372732Y-40059348D01*
X80024028Y-43514228D02*
X80024028Y-44010740D01*
X84612400Y-39132348D02*
X91255732Y-39132348D01*
X81132800Y-54783000D02*
X81234200Y-54884400D01*
X90582191Y-59583000D02*
X89935106Y-58935915D01*
X84612400Y-40164800D02*
X83767852Y-41009348D01*
X84803000Y-62045500D02*
X84803000Y-63875600D01*
X87201057Y-42660348D02*
X88030260Y-43489551D01*
X91255732Y-39132348D02*
X91255732Y-40063348D01*
X81632000Y-58886463D02*
X81632000Y-59423400D01*
X91255732Y-41663348D02*
X91255732Y-42463348D01*
X81346000Y-47035800D02*
X80928400Y-47035800D01*
D27*
X88355784Y-44470400D02*
X89870200Y-44470400D01*
D26*
X80218200Y-64168400D02*
X78910400Y-64168400D01*
%TO.N,/CLK_SEL*%
D28*
X87912400Y-40936800D02*
X87913400Y-40937800D01*
X88737629Y-41470263D02*
X88205166Y-40937800D01*
X85184480Y-45164600D02*
X84810000Y-45539080D01*
X88205166Y-40937800D02*
X87913400Y-40937800D01*
X87912400Y-40114800D02*
X87912400Y-40936800D01*
X84810000Y-45539080D02*
X84810000Y-47306041D01*
X85603000Y-48099041D02*
X85603000Y-50720500D01*
X86978294Y-45289599D02*
X86853295Y-45164600D01*
X84810000Y-47306041D02*
X85603000Y-48099041D01*
X88737629Y-43061109D02*
X88737629Y-41470263D01*
X86853295Y-45164600D02*
X85184480Y-45164600D01*
%TO.N,/CLK_48M*%
X80542732Y-41959348D02*
X81136148Y-41959348D01*
X81136148Y-41959348D02*
X82186700Y-43009900D01*
X82186700Y-43009900D02*
X83157864Y-43009900D01*
X85124200Y-48153400D02*
X84433000Y-47462199D01*
X85124200Y-48153400D02*
X85124200Y-49242214D01*
X84803000Y-49563414D02*
X84803000Y-50720500D01*
X84433000Y-44285036D02*
X83157864Y-43009900D01*
X84433000Y-47462199D02*
X84433000Y-44285036D01*
X85124200Y-49242214D02*
X84803000Y-49563414D01*
%TO.N,/~{CS}*%
X77983000Y-44953000D02*
X79035000Y-46005000D01*
X79035000Y-50718512D02*
X79869550Y-51553062D01*
X79869550Y-51553062D02*
X79869550Y-52312050D01*
X79035000Y-46005000D02*
X79035000Y-50718512D01*
%TO.N,/A*%
X80930000Y-52080354D02*
X80930000Y-52930999D01*
X79412000Y-50562354D02*
X80930000Y-52080354D01*
X79412000Y-43842000D02*
X79412000Y-50562354D01*
X77983000Y-42413000D02*
X79412000Y-43842000D01*
X80930000Y-52930999D02*
X80677999Y-53183000D01*
X80677999Y-53183000D02*
X79940500Y-53183000D01*
%TO.N,/SRAM_A3*%
X79940500Y-53983000D02*
X81602800Y-53983000D01*
X81602800Y-53983000D02*
X81996200Y-54376400D01*
%TO.N,/SRAM_A2*%
X79940500Y-55583000D02*
X80816475Y-55583000D01*
X80816475Y-55583000D02*
X81172494Y-55939019D01*
%TO.N,/SRAM_A1*%
X79940500Y-56383000D02*
X80844491Y-56383000D01*
X80844491Y-56383000D02*
X81213401Y-56751910D01*
%TO.N,/CLK_8M*%
X77983000Y-55771500D02*
X79394500Y-57183000D01*
%TO.N,/SRAM_A0*%
X80575909Y-57983000D02*
X81085271Y-57473638D01*
X79940500Y-57983000D02*
X80575909Y-57983000D01*
%TO.N,/B_IN*%
X78593000Y-59583000D02*
X77983000Y-60193000D01*
X79940500Y-59583000D02*
X78593000Y-59583000D01*
%TO.N,/B*%
X77983000Y-62733000D02*
X79940500Y-60775500D01*
X79940500Y-60775500D02*
X79940500Y-60383000D01*
%TO.N,/G_IN*%
X77983000Y-65273000D02*
X80269414Y-65273000D01*
X80269414Y-65273000D02*
X81603000Y-63939414D01*
X81603000Y-63939414D02*
X81603000Y-62045500D01*
%TO.N,/G*%
X82403000Y-63672572D02*
X82403000Y-62045500D01*
X78262573Y-67813000D02*
X82403000Y-63672572D01*
%TO.N,/R_IN*%
X79035000Y-67573731D02*
X83203000Y-63405730D01*
X77983000Y-70353000D02*
X79035000Y-69301000D01*
X79035000Y-69301000D02*
X79035000Y-67573731D01*
X83203000Y-63405730D02*
X83203000Y-62045500D01*
%TO.N,/R*%
X79412000Y-67729889D02*
X79412000Y-71464000D01*
X84003000Y-63138889D02*
X79412000Y-67729889D01*
X84003000Y-62045500D02*
X84003000Y-63138889D01*
X79412000Y-71464000D02*
X77983000Y-72893000D01*
%TO.N,/SRAM_~{WE}*%
X86105000Y-60777348D02*
X86403000Y-61075348D01*
X86403000Y-61075348D02*
X86403000Y-62045500D01*
X86623305Y-57841858D02*
X86350222Y-57841858D01*
X86105000Y-58087080D02*
X86105000Y-60777348D01*
X86350222Y-57841858D02*
X86105000Y-58087080D01*
%TO.N,/D0*%
X87203000Y-62547400D02*
X88049000Y-63393400D01*
X88049000Y-64322585D02*
X89376415Y-65650000D01*
X89376415Y-65650000D02*
X91060000Y-65650000D01*
X88049000Y-63393400D02*
X88049000Y-64322585D01*
X91060000Y-65650000D02*
X93223000Y-67813000D01*
%TO.N,/D1*%
X89532574Y-65273000D02*
X93223000Y-65273000D01*
X88003000Y-62045500D02*
X88003000Y-62716400D01*
X88003000Y-62716400D02*
X88426000Y-63139400D01*
X88426000Y-63139400D02*
X88426000Y-64166427D01*
X88426000Y-64166427D02*
X89532574Y-65273000D01*
%TO.N,/D2*%
X88803000Y-64010268D02*
X88803000Y-62045500D01*
X89599666Y-64806934D02*
X88803000Y-64010268D01*
X93223000Y-63103400D02*
X91519466Y-64806934D01*
X91519466Y-64806934D02*
X89599666Y-64806934D01*
%TO.N,/D3*%
X92171000Y-62743600D02*
X92171000Y-61245000D01*
X92171000Y-61245000D02*
X93223000Y-60193000D01*
X89603000Y-62045500D02*
X89603000Y-62782999D01*
X89603000Y-62782999D02*
X90086401Y-63266400D01*
X91648200Y-63266400D02*
X92171000Y-62743600D01*
X90086401Y-63266400D02*
X91648200Y-63266400D01*
%TO.N,/SRAM_D3*%
X91265500Y-60383000D02*
X89653800Y-60383000D01*
X88092200Y-58821400D02*
X89653800Y-60383000D01*
X88092200Y-58821400D02*
X88092200Y-57678400D01*
%TO.N,/SRAM_D2*%
X89813506Y-57892247D02*
X90704259Y-58783000D01*
X89656601Y-57892247D02*
X89813506Y-57892247D01*
%TO.N,/CLK_CRTC*%
X92171000Y-45471842D02*
X92171000Y-40925000D01*
X90723638Y-50566400D02*
X91417000Y-49873038D01*
X90528001Y-57983000D02*
X90046698Y-57501697D01*
X91417000Y-49873038D02*
X91417000Y-46225842D01*
X91417000Y-46225842D02*
X92171000Y-45471842D01*
X91265500Y-57983000D02*
X90528001Y-57983000D01*
X90046698Y-57501697D02*
X90046698Y-56769943D01*
X92171000Y-40925000D02*
X93223000Y-39873000D01*
X90305000Y-50566400D02*
X90723638Y-50566400D01*
%TO.N,/D4*%
X91265500Y-57183000D02*
X92753000Y-57183000D01*
%TO.N,/CLK_4M*%
X86365920Y-51954077D02*
X87211965Y-52800123D01*
X89440323Y-52800123D02*
X89899000Y-53258800D01*
X89899000Y-55753999D02*
X90528001Y-56383000D01*
X87211965Y-52800123D02*
X89440323Y-52800123D01*
X85669877Y-51954077D02*
X86365920Y-51954077D01*
X90528001Y-56383000D02*
X91265500Y-56383000D01*
X89899000Y-53258800D02*
X89899000Y-55753999D01*
%TO.N,/CURSOR*%
X90276000Y-54285646D02*
X90276000Y-52080354D01*
X92171000Y-48545000D02*
X93223000Y-47493000D01*
X92171000Y-50185354D02*
X92171000Y-48545000D01*
X90773354Y-54783000D02*
X90276000Y-54285646D01*
X90276000Y-52080354D02*
X92171000Y-50185354D01*
%TO.N,/D5*%
X92093000Y-53983000D02*
X91265500Y-53983000D01*
X93223000Y-55113000D02*
X92093000Y-53983000D01*
%TO.N,/D6*%
X93223000Y-52573000D02*
X92613000Y-53183000D01*
X92613000Y-53183000D02*
X91265500Y-53183000D01*
%TO.N,/D7*%
X91265500Y-52383000D02*
X91265500Y-51624012D01*
X91265500Y-51624012D02*
X92856512Y-50033000D01*
%TO.N,/SRAM_D0*%
X89603000Y-50720500D02*
X89603000Y-51439550D01*
X89603000Y-51439550D02*
X89182075Y-51860475D01*
%TO.N,/SRAM_D1*%
X88412077Y-51848922D02*
X88412077Y-51871123D01*
X88803000Y-50720500D02*
X88803000Y-51457999D01*
X88803000Y-51457999D02*
X88412077Y-51848922D01*
%TO.N,/CLK_16M_BUF*%
X85363359Y-47326241D02*
X85363359Y-46873741D01*
X85980000Y-48962200D02*
X87203000Y-50185200D01*
X85980000Y-47942882D02*
X85980000Y-48962200D01*
X85363359Y-47326241D02*
X85980000Y-47942882D01*
X85363359Y-46873741D02*
X85724500Y-46512600D01*
%TO.N,/DISEN*%
X93223000Y-44953000D02*
X91794000Y-46382000D01*
X87368124Y-52423123D02*
X86403000Y-51457999D01*
X91794000Y-50029196D02*
X89400073Y-52423123D01*
X86403000Y-51457999D02*
X86403000Y-50720500D01*
X91794000Y-46382000D02*
X91794000Y-50029196D01*
X89400073Y-52423123D02*
X87368124Y-52423123D01*
%TO.N,/CLK_2M*%
X83203000Y-51864603D02*
X83104203Y-51963400D01*
X83203000Y-50720500D02*
X83203000Y-51864603D01*
%TO.N,/CLK_1M*%
X82403000Y-50720500D02*
X82403000Y-51937600D01*
X82403000Y-51937600D02*
X82377200Y-51963400D01*
%TO.N,/CLK_6M*%
X81603000Y-50720500D02*
X81603000Y-49843000D01*
X81603000Y-49843000D02*
X80523000Y-48763000D01*
%TO.N,/SRAM_Q0*%
X90204182Y-40063348D02*
X90328730Y-39938800D01*
X89455732Y-40063348D02*
X90204182Y-40063348D01*
%TO.N,/SRAM_Q1*%
X90328730Y-40865803D02*
X89458187Y-40865803D01*
%TO.N,/SRAM_Q2*%
X90199272Y-41663348D02*
X90328730Y-41792806D01*
X89455732Y-41663348D02*
X90199272Y-41663348D01*
%TO.N,/SRAM_Q3*%
X90072269Y-42463348D02*
X90328730Y-42719809D01*
X89455732Y-42463348D02*
X90072269Y-42463348D01*
%TO.N,/CLK_16M*%
X79964200Y-45994400D02*
X80916200Y-45994400D01*
X81629795Y-51885000D02*
X81629795Y-53229395D01*
X82400175Y-59005000D02*
X82548200Y-58856975D01*
X81629795Y-53229395D02*
X82548200Y-54147800D01*
X82548200Y-58856975D02*
X82548200Y-54147800D01*
%TO.N,/CLK_16M_R*%
X81298200Y-44280400D02*
X82580400Y-45562600D01*
X82580400Y-45562600D02*
X83449500Y-45562600D01*
%TD*%
%TA.AperFunction,Conductor*%
%TO.N,GND*%
G36*
X82802700Y-52424989D02*
G01*
X82891718Y-52476384D01*
X83031728Y-52513900D01*
X83031731Y-52513900D01*
X83176675Y-52513900D01*
X83176678Y-52513900D01*
X83316688Y-52476384D01*
X83316690Y-52476382D01*
X83316692Y-52476382D01*
X83324202Y-52473272D01*
X83324711Y-52474501D01*
X83384398Y-52460020D01*
X83450425Y-52482871D01*
X83493617Y-52537792D01*
X83502500Y-52583880D01*
X83502500Y-53548708D01*
X83502500Y-53680492D01*
X83514187Y-53724109D01*
X83536608Y-53807787D01*
X83569554Y-53864850D01*
X83602500Y-53921914D01*
X83602502Y-53921916D01*
X85066181Y-55385595D01*
X85099666Y-55446918D01*
X85102500Y-55473276D01*
X85102500Y-57142767D01*
X85082815Y-57209806D01*
X85081602Y-57211657D01*
X85026541Y-57294061D01*
X85026533Y-57294075D01*
X84977499Y-57412455D01*
X84977497Y-57412461D01*
X84952500Y-57538128D01*
X84952500Y-57538131D01*
X84952500Y-57666269D01*
X84952500Y-57666271D01*
X84952499Y-57666271D01*
X84977497Y-57791938D01*
X84977499Y-57791944D01*
X85026533Y-57910324D01*
X85026538Y-57910333D01*
X85081602Y-57992741D01*
X85102480Y-58059418D01*
X85102500Y-58061632D01*
X85102500Y-60715199D01*
X85082815Y-60782238D01*
X85053000Y-60814309D01*
X85053000Y-63289000D01*
X85033315Y-63356039D01*
X84980511Y-63401794D01*
X84929000Y-63413000D01*
X84900200Y-63413000D01*
X84900200Y-65003399D01*
X84923508Y-65003399D01*
X84923522Y-65003398D01*
X85022807Y-64993255D01*
X85183681Y-64939947D01*
X85183692Y-64939942D01*
X85327928Y-64850975D01*
X85327932Y-64850972D01*
X85447773Y-64731131D01*
X85483548Y-64673131D01*
X85535496Y-64626406D01*
X85604458Y-64615183D01*
X85663394Y-64638958D01*
X85744974Y-64700028D01*
X85873086Y-64747812D01*
X85929715Y-64753900D01*
X86036231Y-64753899D01*
X86103270Y-64773583D01*
X86149025Y-64826387D01*
X86150791Y-64830445D01*
X86169530Y-64875684D01*
X86169538Y-64875699D01*
X86240723Y-64982234D01*
X86240726Y-64982238D01*
X86331327Y-65072839D01*
X86331331Y-65072842D01*
X86437866Y-65144027D01*
X86437872Y-65144030D01*
X86437873Y-65144031D01*
X86556256Y-65193067D01*
X86556260Y-65193067D01*
X86556261Y-65193068D01*
X86681928Y-65218066D01*
X86681931Y-65218066D01*
X86810071Y-65218066D01*
X86894615Y-65201248D01*
X86935744Y-65193067D01*
X87054127Y-65144031D01*
X87136541Y-65088964D01*
X87203218Y-65068086D01*
X87205432Y-65068066D01*
X87325369Y-65068066D01*
X87392408Y-65087751D01*
X87413050Y-65104385D01*
X88098813Y-65790147D01*
X88767980Y-66459314D01*
X88861166Y-66552500D01*
X88975294Y-66618392D01*
X89102588Y-66652500D01*
X89234373Y-66652500D01*
X90593388Y-66652500D01*
X90660427Y-66672185D01*
X90681069Y-66688819D01*
X91493013Y-67500763D01*
X91526498Y-67562086D01*
X91529332Y-67588444D01*
X91529332Y-69225723D01*
X91563440Y-69353019D01*
X91572287Y-69368342D01*
X91629332Y-69467146D01*
X91629334Y-69467148D01*
X91803005Y-69640819D01*
X91836490Y-69702142D01*
X91831506Y-69771834D01*
X91789634Y-69827767D01*
X91724170Y-69852184D01*
X91715324Y-69852500D01*
X90959706Y-69852500D01*
X90948877Y-69855401D01*
X90948877Y-69855402D01*
X90832414Y-69886608D01*
X90832412Y-69886608D01*
X90832412Y-69886609D01*
X90805253Y-69902289D01*
X90743256Y-69918900D01*
X90463719Y-69918900D01*
X90463709Y-69918901D01*
X90407085Y-69924987D01*
X90278973Y-69972772D01*
X90169513Y-70054713D01*
X90087573Y-70164171D01*
X90039787Y-70292289D01*
X90033700Y-70348898D01*
X90033700Y-70889881D01*
X90033701Y-70889890D01*
X90039787Y-70946514D01*
X90087573Y-71074628D01*
X90148638Y-71156202D01*
X90173055Y-71221666D01*
X90158203Y-71289939D01*
X90114470Y-71336049D01*
X90056470Y-71371824D01*
X89936627Y-71491667D01*
X89936624Y-71491671D01*
X89847657Y-71635907D01*
X89847652Y-71635918D01*
X89794344Y-71796793D01*
X89784200Y-71896077D01*
X89784200Y-71919400D01*
X91734199Y-71919400D01*
X91734199Y-71896092D01*
X91734198Y-71896077D01*
X91724055Y-71796792D01*
X91670747Y-71635918D01*
X91670742Y-71635907D01*
X91581775Y-71491671D01*
X91581772Y-71491667D01*
X91461932Y-71371827D01*
X91461928Y-71371824D01*
X91403930Y-71336050D01*
X91357205Y-71284102D01*
X91345984Y-71215139D01*
X91369758Y-71156205D01*
X91430828Y-71074626D01*
X91478612Y-70946514D01*
X91478612Y-70946510D01*
X91481322Y-70939246D01*
X91483179Y-70939938D01*
X91512595Y-70888275D01*
X91574503Y-70855885D01*
X91598704Y-70853500D01*
X92227719Y-70853500D01*
X92294758Y-70873185D01*
X92330819Y-70908607D01*
X92380995Y-70983701D01*
X92407024Y-71022657D01*
X92553342Y-71168975D01*
X92553345Y-71168977D01*
X92725402Y-71283941D01*
X92916580Y-71363130D01*
X93119530Y-71403499D01*
X93119534Y-71403500D01*
X93119535Y-71403500D01*
X93326466Y-71403500D01*
X93326467Y-71403499D01*
X93529420Y-71363130D01*
X93720598Y-71283941D01*
X93892655Y-71168977D01*
X93905432Y-71156200D01*
X93980819Y-71080814D01*
X94042142Y-71047329D01*
X94111834Y-71052313D01*
X94167767Y-71094185D01*
X94192184Y-71159649D01*
X94192500Y-71168495D01*
X94192500Y-72077505D01*
X94172815Y-72144544D01*
X94120011Y-72190299D01*
X94050853Y-72200243D01*
X93987297Y-72171218D01*
X93980819Y-72165186D01*
X93892657Y-72077024D01*
X93806626Y-72019541D01*
X93720598Y-71962059D01*
X93590914Y-71908342D01*
X93529420Y-71882870D01*
X93529412Y-71882868D01*
X93326469Y-71842500D01*
X93326465Y-71842500D01*
X93119535Y-71842500D01*
X93119530Y-71842500D01*
X92916587Y-71882868D01*
X92916579Y-71882870D01*
X92725403Y-71962058D01*
X92553342Y-72077024D01*
X92407024Y-72223342D01*
X92292058Y-72395403D01*
X92212870Y-72586579D01*
X92212868Y-72586587D01*
X92172500Y-72789530D01*
X92172500Y-72996469D01*
X92212868Y-73199412D01*
X92212870Y-73199420D01*
X92292058Y-73390596D01*
X92407024Y-73562657D01*
X92495186Y-73650819D01*
X92528671Y-73712142D01*
X92523687Y-73781834D01*
X92481815Y-73837767D01*
X92416351Y-73862184D01*
X92407505Y-73862500D01*
X78798495Y-73862500D01*
X78731456Y-73842815D01*
X78685701Y-73790011D01*
X78675757Y-73720853D01*
X78704782Y-73657297D01*
X78710814Y-73650819D01*
X78798974Y-73562658D01*
X78798975Y-73562657D01*
X78798977Y-73562655D01*
X78913941Y-73390598D01*
X78993130Y-73199420D01*
X79033500Y-72996465D01*
X79033500Y-72789535D01*
X78993130Y-72586580D01*
X78974260Y-72541025D01*
X78972123Y-72521150D01*
X78965138Y-72502421D01*
X78968465Y-72487124D01*
X78966792Y-72471560D01*
X78975740Y-72453682D01*
X78978125Y-72442722D01*
X89784201Y-72442722D01*
X89794344Y-72542007D01*
X89847652Y-72702881D01*
X89847657Y-72702892D01*
X89936624Y-72847128D01*
X89936627Y-72847132D01*
X90056467Y-72966972D01*
X90056471Y-72966975D01*
X90200707Y-73055942D01*
X90200718Y-73055947D01*
X90361593Y-73109255D01*
X90460883Y-73119399D01*
X91009200Y-73119399D01*
X91057508Y-73119399D01*
X91057522Y-73119398D01*
X91156807Y-73109255D01*
X91317681Y-73055947D01*
X91317692Y-73055942D01*
X91461928Y-72966975D01*
X91461932Y-72966972D01*
X91581772Y-72847132D01*
X91581775Y-72847128D01*
X91670742Y-72702892D01*
X91670747Y-72702881D01*
X91724055Y-72542006D01*
X91734199Y-72442722D01*
X91734200Y-72442709D01*
X91734200Y-72419400D01*
X91009200Y-72419400D01*
X91009200Y-73119399D01*
X90460883Y-73119399D01*
X90509199Y-73119398D01*
X90509200Y-73119398D01*
X90509200Y-72419400D01*
X89784201Y-72419400D01*
X89784201Y-72442722D01*
X78978125Y-72442722D01*
X78979990Y-72434148D01*
X78996673Y-72411861D01*
X78998066Y-72409080D01*
X79001111Y-72405924D01*
X79712474Y-71694563D01*
X79712475Y-71694562D01*
X79761910Y-71608938D01*
X79787500Y-71513435D01*
X79787500Y-67936787D01*
X79807185Y-67869748D01*
X79823814Y-67849111D01*
X83488523Y-64184402D01*
X83549842Y-64150920D01*
X83619534Y-64155904D01*
X83675467Y-64197776D01*
X83699884Y-64263240D01*
X83700200Y-64272084D01*
X83700200Y-64326706D01*
X83700201Y-64326723D01*
X83710344Y-64426007D01*
X83763652Y-64586881D01*
X83763657Y-64586892D01*
X83852624Y-64731128D01*
X83852627Y-64731132D01*
X83972467Y-64850972D01*
X83972471Y-64850975D01*
X84116707Y-64939942D01*
X84116718Y-64939947D01*
X84277593Y-64993255D01*
X84376883Y-65003399D01*
X84400200Y-65003398D01*
X84400200Y-63047400D01*
X84419885Y-62980361D01*
X84472689Y-62934606D01*
X84524200Y-62923400D01*
X84553000Y-62923400D01*
X84553000Y-60814324D01*
X84552998Y-60814323D01*
X84410310Y-60855778D01*
X84410307Y-60855780D01*
X84271668Y-60937770D01*
X84271660Y-60937776D01*
X84188256Y-61021181D01*
X84126933Y-61054666D01*
X84100575Y-61057500D01*
X83834962Y-61057500D01*
X83834962Y-61057501D01*
X83744111Y-61071889D01*
X83744107Y-61071890D01*
X83659294Y-61115105D01*
X83590625Y-61128001D01*
X83546706Y-61115105D01*
X83461889Y-61071889D01*
X83461890Y-61071889D01*
X83371033Y-61057500D01*
X83034962Y-61057500D01*
X83034962Y-61057501D01*
X82944111Y-61071889D01*
X82944107Y-61071890D01*
X82859294Y-61115105D01*
X82790625Y-61128001D01*
X82746706Y-61115105D01*
X82661889Y-61071889D01*
X82661890Y-61071889D01*
X82571033Y-61057500D01*
X82234962Y-61057500D01*
X82234962Y-61057501D01*
X82144111Y-61071889D01*
X82144107Y-61071890D01*
X82059294Y-61115105D01*
X81990625Y-61128001D01*
X81946706Y-61115105D01*
X81861889Y-61071889D01*
X81861890Y-61071889D01*
X81771033Y-61057500D01*
X81679500Y-61057500D01*
X81612461Y-61037815D01*
X81566706Y-60985011D01*
X81555500Y-60933500D01*
X81555500Y-59162689D01*
X81555499Y-59162682D01*
X81554379Y-59158504D01*
X81554375Y-59158490D01*
X81550091Y-59142500D01*
X81521392Y-59035392D01*
X81487209Y-58976186D01*
X81455500Y-58921264D01*
X81362314Y-58828078D01*
X80931239Y-58397003D01*
X80897754Y-58335680D01*
X80902738Y-58265988D01*
X80908437Y-58253024D01*
X80914108Y-58241894D01*
X80914109Y-58241893D01*
X80920237Y-58203199D01*
X80950164Y-58140066D01*
X80955030Y-58134915D01*
X81029491Y-58060456D01*
X81090815Y-58026971D01*
X81117171Y-58024138D01*
X81157743Y-58024138D01*
X81157746Y-58024138D01*
X81297756Y-57986622D01*
X81423286Y-57914147D01*
X81525780Y-57811653D01*
X81537163Y-57791938D01*
X81598253Y-57686126D01*
X81598252Y-57686126D01*
X81598255Y-57686123D01*
X81635771Y-57546113D01*
X81635771Y-57401163D01*
X81598255Y-57261153D01*
X81598253Y-57261150D01*
X81598253Y-57261148D01*
X81596110Y-57255974D01*
X81588643Y-57186505D01*
X81619919Y-57124026D01*
X81622946Y-57120887D01*
X81653910Y-57089925D01*
X81726385Y-56964395D01*
X81763901Y-56824385D01*
X81763901Y-56679435D01*
X81726385Y-56539425D01*
X81664321Y-56431928D01*
X81653912Y-56413898D01*
X81653907Y-56413892D01*
X81645161Y-56405146D01*
X81611676Y-56343823D01*
X81616660Y-56274131D01*
X81625456Y-56255464D01*
X81651332Y-56210647D01*
X81685478Y-56151504D01*
X81722994Y-56011494D01*
X81722994Y-55866544D01*
X81685478Y-55726534D01*
X81613267Y-55601462D01*
X81613005Y-55601007D01*
X81613000Y-55601001D01*
X81510511Y-55498512D01*
X81510505Y-55498507D01*
X81384982Y-55426036D01*
X81384983Y-55426036D01*
X81369599Y-55421914D01*
X81244969Y-55388519D01*
X81244966Y-55388519D01*
X81221750Y-55388519D01*
X81154711Y-55368834D01*
X81108956Y-55316030D01*
X81099012Y-55246872D01*
X81115017Y-55201399D01*
X81130218Y-55175693D01*
X81171674Y-55033000D01*
X80064500Y-55033000D01*
X79997461Y-55013315D01*
X79951706Y-54960511D01*
X79940500Y-54909000D01*
X79940500Y-54657000D01*
X79960185Y-54589961D01*
X80012989Y-54544206D01*
X80064500Y-54533000D01*
X81171675Y-54533000D01*
X81171674Y-54532999D01*
X81167054Y-54517095D01*
X81167253Y-54447226D01*
X81205195Y-54388556D01*
X81268833Y-54359712D01*
X81286130Y-54358500D01*
X81326336Y-54358500D01*
X81393375Y-54378185D01*
X81439130Y-54430989D01*
X81446107Y-54450397D01*
X81483216Y-54588885D01*
X81483217Y-54588888D01*
X81555688Y-54714411D01*
X81555690Y-54714413D01*
X81555691Y-54714415D01*
X81658185Y-54816909D01*
X81658186Y-54816910D01*
X81658188Y-54816911D01*
X81783711Y-54889382D01*
X81783712Y-54889382D01*
X81783715Y-54889384D01*
X81923725Y-54926900D01*
X81923728Y-54926900D01*
X82048700Y-54926900D01*
X82115739Y-54946585D01*
X82161494Y-54999389D01*
X82172700Y-55050900D01*
X82172700Y-58429078D01*
X82153015Y-58496117D01*
X82110702Y-58536464D01*
X82062163Y-58564489D01*
X82062157Y-58564493D01*
X81959668Y-58666982D01*
X81959663Y-58666988D01*
X81887192Y-58792511D01*
X81887191Y-58792515D01*
X81849675Y-58932525D01*
X81849675Y-59077475D01*
X81887191Y-59217485D01*
X81887192Y-59217488D01*
X81959663Y-59343011D01*
X81959665Y-59343013D01*
X81959666Y-59343015D01*
X82062160Y-59445509D01*
X82062161Y-59445510D01*
X82062163Y-59445511D01*
X82187686Y-59517982D01*
X82187687Y-59517982D01*
X82187690Y-59517984D01*
X82327700Y-59555500D01*
X82327703Y-59555500D01*
X82472647Y-59555500D01*
X82472650Y-59555500D01*
X82612660Y-59517984D01*
X82738190Y-59445509D01*
X82840684Y-59343015D01*
X82913159Y-59217485D01*
X82950675Y-59077475D01*
X82950675Y-58932525D01*
X82927925Y-58847621D01*
X82923700Y-58815528D01*
X82923700Y-54098368D01*
X82923699Y-54098361D01*
X82912103Y-54055083D01*
X82898111Y-54002863D01*
X82873393Y-53960050D01*
X82848677Y-53917240D01*
X82848673Y-53917235D01*
X82041614Y-53110176D01*
X82008129Y-53048853D01*
X82005295Y-53022495D01*
X82005295Y-52595267D01*
X82024980Y-52528228D01*
X82077784Y-52482473D01*
X82146942Y-52472529D01*
X82161389Y-52475492D01*
X82164712Y-52476382D01*
X82164715Y-52476384D01*
X82304725Y-52513900D01*
X82304728Y-52513900D01*
X82449672Y-52513900D01*
X82449675Y-52513900D01*
X82589685Y-52476384D01*
X82678703Y-52424989D01*
X82746600Y-52408517D01*
X82802700Y-52424989D01*
G37*
%TD.AperFunction*%
%TA.AperFunction,Conductor*%
G36*
X79637034Y-61712516D02*
G01*
X79692967Y-61754388D01*
X79717384Y-61819852D01*
X79717700Y-61828698D01*
X79717700Y-61924878D01*
X79698015Y-61991917D01*
X79668012Y-62024144D01*
X79628513Y-62053712D01*
X79628507Y-62053718D01*
X79546574Y-62163169D01*
X79498787Y-62291289D01*
X79492700Y-62347898D01*
X79492700Y-62888881D01*
X79492701Y-62888890D01*
X79498787Y-62945514D01*
X79546573Y-63073628D01*
X79607638Y-63155202D01*
X79632055Y-63220666D01*
X79617203Y-63288939D01*
X79573470Y-63335049D01*
X79515470Y-63370824D01*
X79395627Y-63490667D01*
X79395624Y-63490671D01*
X79306657Y-63634907D01*
X79306652Y-63634918D01*
X79253344Y-63795793D01*
X79243200Y-63895077D01*
X79243200Y-63918400D01*
X80094200Y-63918400D01*
X80161239Y-63938085D01*
X80206994Y-63990889D01*
X80218200Y-64042400D01*
X80218200Y-64294400D01*
X80198515Y-64361439D01*
X80145711Y-64407194D01*
X80094200Y-64418400D01*
X79243201Y-64418400D01*
X79243201Y-64441722D01*
X79253344Y-64541007D01*
X79306652Y-64701881D01*
X79306654Y-64701885D01*
X79310673Y-64708400D01*
X79329115Y-64775792D01*
X79308195Y-64842456D01*
X79254554Y-64887227D01*
X79205136Y-64897500D01*
X79047370Y-64897500D01*
X78980331Y-64877815D01*
X78934576Y-64825011D01*
X78932809Y-64820953D01*
X78931673Y-64818211D01*
X78913941Y-64775402D01*
X78798977Y-64603345D01*
X78798975Y-64603342D01*
X78652657Y-64457024D01*
X78509602Y-64361439D01*
X78480598Y-64342059D01*
X78397006Y-64307434D01*
X78289420Y-64262870D01*
X78289412Y-64262868D01*
X78086469Y-64222500D01*
X78086465Y-64222500D01*
X77879535Y-64222500D01*
X77879530Y-64222500D01*
X77676587Y-64262868D01*
X77676579Y-64262870D01*
X77485403Y-64342058D01*
X77313342Y-64457024D01*
X77313341Y-64457025D01*
X77225181Y-64545186D01*
X77163858Y-64578671D01*
X77094166Y-64573687D01*
X77038233Y-64531815D01*
X77013816Y-64466351D01*
X77013500Y-64457505D01*
X77013500Y-63548495D01*
X77033185Y-63481456D01*
X77085989Y-63435701D01*
X77155147Y-63425757D01*
X77218703Y-63454782D01*
X77225181Y-63460814D01*
X77313342Y-63548975D01*
X77313345Y-63548977D01*
X77485402Y-63663941D01*
X77676580Y-63743130D01*
X77841498Y-63775934D01*
X77879530Y-63783499D01*
X77879534Y-63783500D01*
X77879535Y-63783500D01*
X78086466Y-63783500D01*
X78086467Y-63783499D01*
X78289420Y-63743130D01*
X78480598Y-63663941D01*
X78652655Y-63548977D01*
X78798977Y-63402655D01*
X78913941Y-63230598D01*
X78993130Y-63039420D01*
X79033500Y-62836465D01*
X79033500Y-62629535D01*
X78993130Y-62426580D01*
X78974260Y-62381025D01*
X78966792Y-62311560D01*
X78998066Y-62249080D01*
X79001113Y-62245922D01*
X79506019Y-61741017D01*
X79567342Y-61707532D01*
X79637034Y-61712516D01*
G37*
%TD.AperFunction*%
%TA.AperFunction,Conductor*%
G36*
X89383703Y-63095185D02*
G01*
X89390181Y-63101217D01*
X89785926Y-63496962D01*
X89855839Y-63566875D01*
X89941463Y-63616310D01*
X89941467Y-63616311D01*
X89971602Y-63624386D01*
X89971603Y-63624386D01*
X90023206Y-63638213D01*
X90082866Y-63674578D01*
X90113395Y-63737425D01*
X90114296Y-63764845D01*
X90114893Y-63764876D01*
X90114732Y-63768038D01*
X90114732Y-63791348D01*
X90965732Y-63791348D01*
X91032771Y-63811033D01*
X91078526Y-63863837D01*
X91089732Y-63915348D01*
X91089732Y-64167348D01*
X91070047Y-64234387D01*
X91017243Y-64280142D01*
X90965732Y-64291348D01*
X90114733Y-64291348D01*
X90114733Y-64307434D01*
X90095048Y-64374473D01*
X90042244Y-64420228D01*
X89990733Y-64431434D01*
X89806566Y-64431434D01*
X89739527Y-64411749D01*
X89718885Y-64395115D01*
X89214819Y-63891049D01*
X89181334Y-63829726D01*
X89178500Y-63803368D01*
X89178500Y-63188898D01*
X89198185Y-63121859D01*
X89250989Y-63076104D01*
X89320147Y-63066160D01*
X89383703Y-63095185D01*
G37*
%TD.AperFunction*%
%TA.AperFunction,Conductor*%
G36*
X85055090Y-51715115D02*
G01*
X85108542Y-51760111D01*
X85129182Y-51826862D01*
X85124971Y-51860724D01*
X85121979Y-51871891D01*
X85119377Y-51881602D01*
X85119377Y-52026552D01*
X85145517Y-52124107D01*
X85156894Y-52166565D01*
X85229365Y-52292088D01*
X85229367Y-52292090D01*
X85229368Y-52292092D01*
X85331862Y-52394586D01*
X85331863Y-52394587D01*
X85331865Y-52394588D01*
X85457388Y-52467059D01*
X85457389Y-52467059D01*
X85457392Y-52467061D01*
X85597402Y-52504577D01*
X85597405Y-52504577D01*
X85742349Y-52504577D01*
X85742352Y-52504577D01*
X85882362Y-52467061D01*
X86007892Y-52394586D01*
X86036582Y-52365896D01*
X86097905Y-52332411D01*
X86124263Y-52329577D01*
X86159020Y-52329577D01*
X86226059Y-52349262D01*
X86246701Y-52365896D01*
X86911490Y-53030685D01*
X86981403Y-53100598D01*
X87067027Y-53150033D01*
X87067031Y-53150034D01*
X87110048Y-53161561D01*
X87110049Y-53161561D01*
X87124111Y-53165328D01*
X87162529Y-53175623D01*
X87162530Y-53175623D01*
X89233424Y-53175623D01*
X89300463Y-53195308D01*
X89321105Y-53211942D01*
X89487181Y-53378018D01*
X89520666Y-53439341D01*
X89523500Y-53465699D01*
X89523500Y-55803436D01*
X89533266Y-55839885D01*
X89549089Y-55898935D01*
X89549089Y-55898936D01*
X89549090Y-55898937D01*
X89598525Y-55984561D01*
X89598526Y-55984562D01*
X89743218Y-56129255D01*
X89776702Y-56190577D01*
X89771718Y-56260269D01*
X89729846Y-56316202D01*
X89717540Y-56324320D01*
X89708686Y-56329432D01*
X89708680Y-56329436D01*
X89606191Y-56431925D01*
X89606186Y-56431931D01*
X89533715Y-56557454D01*
X89533714Y-56557458D01*
X89496198Y-56697468D01*
X89496198Y-56842418D01*
X89528882Y-56964395D01*
X89533715Y-56982431D01*
X89606186Y-57107954D01*
X89606191Y-57107960D01*
X89634042Y-57135811D01*
X89667527Y-57197134D01*
X89662543Y-57266826D01*
X89620671Y-57322759D01*
X89578457Y-57343266D01*
X89462866Y-57374238D01*
X89444112Y-57379264D01*
X89318589Y-57451735D01*
X89318583Y-57451740D01*
X89216094Y-57554229D01*
X89216089Y-57554235D01*
X89143618Y-57679758D01*
X89143617Y-57679762D01*
X89106101Y-57819772D01*
X89106101Y-57964722D01*
X89133171Y-58065747D01*
X89143618Y-58104735D01*
X89216089Y-58230258D01*
X89216091Y-58230260D01*
X89216092Y-58230262D01*
X89318586Y-58332756D01*
X89318587Y-58332757D01*
X89318589Y-58332758D01*
X89444112Y-58405229D01*
X89444113Y-58405229D01*
X89444116Y-58405231D01*
X89584126Y-58442747D01*
X89584129Y-58442747D01*
X89729073Y-58442747D01*
X89729076Y-58442747D01*
X89741861Y-58439321D01*
X89811707Y-58440981D01*
X89861636Y-58471414D01*
X90212148Y-58821926D01*
X90245633Y-58883249D01*
X90240649Y-58952941D01*
X90212149Y-58997288D01*
X90157773Y-59051664D01*
X90157770Y-59051668D01*
X90075781Y-59190304D01*
X90075781Y-59190305D01*
X90034326Y-59333000D01*
X91141500Y-59333000D01*
X91208539Y-59352685D01*
X91254294Y-59405489D01*
X91265500Y-59457000D01*
X91265500Y-59709000D01*
X91245815Y-59776039D01*
X91193011Y-59821794D01*
X91141500Y-59833000D01*
X90034325Y-59833000D01*
X90038946Y-59848905D01*
X90038747Y-59918774D01*
X90000805Y-59977444D01*
X89937167Y-60006288D01*
X89919870Y-60007500D01*
X89860699Y-60007500D01*
X89793660Y-59987815D01*
X89773018Y-59971181D01*
X88504019Y-58702182D01*
X88470534Y-58640859D01*
X88467700Y-58614501D01*
X88467700Y-58132786D01*
X88487385Y-58065747D01*
X88504019Y-58045105D01*
X88532709Y-58016415D01*
X88605184Y-57890885D01*
X88642700Y-57750875D01*
X88642700Y-57605925D01*
X88605184Y-57465915D01*
X88574322Y-57412461D01*
X88532711Y-57340388D01*
X88532706Y-57340382D01*
X88430217Y-57237893D01*
X88430211Y-57237888D01*
X88304688Y-57165417D01*
X88304689Y-57165417D01*
X88293206Y-57162340D01*
X88164675Y-57127900D01*
X88019725Y-57127900D01*
X87891193Y-57162340D01*
X87879711Y-57165417D01*
X87754188Y-57237888D01*
X87754182Y-57237893D01*
X87651693Y-57340382D01*
X87651688Y-57340388D01*
X87579217Y-57465911D01*
X87579216Y-57465915D01*
X87541700Y-57605925D01*
X87541700Y-57750875D01*
X87560162Y-57819774D01*
X87579217Y-57890888D01*
X87651688Y-58016411D01*
X87651693Y-58016417D01*
X87680381Y-58045105D01*
X87713866Y-58106428D01*
X87716700Y-58132786D01*
X87716700Y-58870835D01*
X87742290Y-58966338D01*
X87785912Y-59041893D01*
X87791726Y-59051963D01*
X89353325Y-60613562D01*
X89423238Y-60683475D01*
X89478186Y-60715199D01*
X89508862Y-60732910D01*
X89556611Y-60745705D01*
X89556612Y-60745705D01*
X89566703Y-60748408D01*
X89604364Y-60758500D01*
X89604365Y-60758500D01*
X90303424Y-60758500D01*
X90370463Y-60778185D01*
X90391106Y-60794820D01*
X90434592Y-60838307D01*
X90434595Y-60838309D01*
X90434597Y-60838311D01*
X90544107Y-60894109D01*
X90544110Y-60894109D01*
X90544113Y-60894111D01*
X90553393Y-60897127D01*
X90552943Y-60898509D01*
X90606573Y-60923929D01*
X90643507Y-60983238D01*
X90642513Y-61053101D01*
X90627148Y-61085367D01*
X90563737Y-61180268D01*
X90563733Y-61180275D01*
X90514699Y-61298655D01*
X90514697Y-61298661D01*
X90489700Y-61424328D01*
X90489700Y-61424331D01*
X90489700Y-61552469D01*
X90489700Y-61552471D01*
X90489699Y-61552471D01*
X90514697Y-61678138D01*
X90514699Y-61678144D01*
X90552943Y-61770473D01*
X90560412Y-61839943D01*
X90529137Y-61902422D01*
X90512694Y-61917192D01*
X90500045Y-61926660D01*
X90500039Y-61926666D01*
X90418105Y-62036118D01*
X90418105Y-62036119D01*
X90368680Y-62168630D01*
X90326809Y-62224563D01*
X90261344Y-62248979D01*
X90193071Y-62234127D01*
X90143666Y-62184721D01*
X90128499Y-62125297D01*
X90128499Y-61414968D01*
X90128499Y-61414967D01*
X90128499Y-61414962D01*
X90114110Y-61324111D01*
X90114110Y-61324110D01*
X90114109Y-61324108D01*
X90114109Y-61324107D01*
X90058311Y-61214597D01*
X90058309Y-61214595D01*
X90058306Y-61214591D01*
X89971408Y-61127693D01*
X89971404Y-61127690D01*
X89971403Y-61127689D01*
X89861893Y-61071891D01*
X89861891Y-61071890D01*
X89861888Y-61071889D01*
X89771033Y-61057500D01*
X89434962Y-61057500D01*
X89434962Y-61057501D01*
X89344111Y-61071889D01*
X89344107Y-61071890D01*
X89259294Y-61115105D01*
X89190625Y-61128001D01*
X89146706Y-61115105D01*
X89061889Y-61071889D01*
X89061890Y-61071889D01*
X88971033Y-61057500D01*
X88634962Y-61057500D01*
X88634962Y-61057501D01*
X88544111Y-61071889D01*
X88544107Y-61071890D01*
X88459294Y-61115105D01*
X88390625Y-61128001D01*
X88346706Y-61115105D01*
X88261889Y-61071889D01*
X88261890Y-61071889D01*
X88171033Y-61057500D01*
X87834962Y-61057500D01*
X87834962Y-61057501D01*
X87744111Y-61071889D01*
X87744107Y-61071890D01*
X87659294Y-61115105D01*
X87590625Y-61128001D01*
X87546706Y-61115105D01*
X87461889Y-61071889D01*
X87461890Y-61071889D01*
X87371033Y-61057500D01*
X87034962Y-61057500D01*
X87034962Y-61057501D01*
X86944111Y-61071889D01*
X86934829Y-61074906D01*
X86934285Y-61073234D01*
X86876989Y-61083989D01*
X86812251Y-61057706D01*
X86772000Y-61000595D01*
X86769601Y-60992701D01*
X86767541Y-60985011D01*
X86752911Y-60930411D01*
X86703475Y-60844785D01*
X86516819Y-60658129D01*
X86483334Y-60596806D01*
X86480500Y-60570448D01*
X86480500Y-58516358D01*
X86500185Y-58449319D01*
X86552989Y-58403564D01*
X86604500Y-58392358D01*
X86695777Y-58392358D01*
X86695780Y-58392358D01*
X86835790Y-58354842D01*
X86961320Y-58282367D01*
X87063814Y-58179873D01*
X87136289Y-58054343D01*
X87173805Y-57914333D01*
X87173805Y-57769383D01*
X87136289Y-57629373D01*
X87122752Y-57605927D01*
X87063816Y-57503846D01*
X87063811Y-57503840D01*
X86961322Y-57401351D01*
X86961316Y-57401346D01*
X86835793Y-57328875D01*
X86835794Y-57328875D01*
X86812969Y-57322759D01*
X86695780Y-57291358D01*
X86550830Y-57291358D01*
X86433641Y-57322759D01*
X86410816Y-57328875D01*
X86358199Y-57359254D01*
X86290299Y-57375727D01*
X86224272Y-57352874D01*
X86181636Y-57299315D01*
X86179465Y-57294073D01*
X86179462Y-57294068D01*
X86179458Y-57294061D01*
X86124398Y-57211657D01*
X86103520Y-57144980D01*
X86103500Y-57142767D01*
X86103500Y-55148710D01*
X86103500Y-55148708D01*
X86069392Y-55021414D01*
X86003500Y-54907286D01*
X85910314Y-54814100D01*
X84539819Y-53443605D01*
X84506334Y-53382282D01*
X84503500Y-53355924D01*
X84503500Y-51832295D01*
X84523185Y-51765256D01*
X84575989Y-51719501D01*
X84630095Y-51709946D01*
X84630095Y-51708500D01*
X84634966Y-51708499D01*
X84634967Y-51708500D01*
X84970825Y-51708499D01*
X84971035Y-51708499D01*
X84985796Y-51706161D01*
X85055090Y-51715115D01*
G37*
%TD.AperFunction*%
%TA.AperFunction,Conductor*%
G36*
X92474544Y-38923185D02*
G01*
X92520299Y-38975989D01*
X92530243Y-39045147D01*
X92501218Y-39108703D01*
X92495186Y-39115181D01*
X92407025Y-39203341D01*
X92407024Y-39203342D01*
X92292057Y-39375404D01*
X92254421Y-39466266D01*
X92210579Y-39520670D01*
X92144285Y-39542734D01*
X92076586Y-39525454D01*
X92040594Y-39493125D01*
X92012919Y-39456157D01*
X91897825Y-39369997D01*
X91897818Y-39369993D01*
X91763111Y-39319751D01*
X91763104Y-39319749D01*
X91703576Y-39313348D01*
X91505732Y-39313348D01*
X91505732Y-40841986D01*
X91486047Y-40909025D01*
X91469413Y-40929667D01*
X91455732Y-40943348D01*
X91455732Y-41583348D01*
X91469413Y-41597029D01*
X91502898Y-41658352D01*
X91505732Y-41684710D01*
X91505732Y-43213348D01*
X91671500Y-43213348D01*
X91738539Y-43233033D01*
X91784294Y-43285837D01*
X91795500Y-43337348D01*
X91795500Y-45264943D01*
X91775815Y-45331982D01*
X91759181Y-45352624D01*
X91116526Y-45995278D01*
X91067091Y-46080901D01*
X91067091Y-46080902D01*
X91067090Y-46080904D01*
X91041500Y-46176407D01*
X91041500Y-46176409D01*
X91041500Y-49666138D01*
X91021815Y-49733177D01*
X91005181Y-49753819D01*
X90704015Y-50054984D01*
X90642692Y-50088469D01*
X90573000Y-50083485D01*
X90554334Y-50074690D01*
X90517488Y-50053417D01*
X90517489Y-50053417D01*
X90488517Y-50045654D01*
X90377475Y-50015900D01*
X90232525Y-50015900D01*
X90232523Y-50015900D01*
X90224469Y-50016961D01*
X90224291Y-50015609D01*
X90162996Y-50014147D01*
X90105136Y-49974980D01*
X90090275Y-49952331D01*
X90058311Y-49889597D01*
X90058308Y-49889594D01*
X90058306Y-49889591D01*
X89971408Y-49802693D01*
X89971404Y-49802690D01*
X89971403Y-49802689D01*
X89861893Y-49746891D01*
X89861891Y-49746890D01*
X89861888Y-49746889D01*
X89771033Y-49732500D01*
X89434962Y-49732500D01*
X89434962Y-49732501D01*
X89344111Y-49746889D01*
X89344107Y-49746890D01*
X89259294Y-49790105D01*
X89190625Y-49803001D01*
X89146706Y-49790105D01*
X89061889Y-49746889D01*
X89061890Y-49746889D01*
X88971033Y-49732500D01*
X88705424Y-49732500D01*
X88638385Y-49712815D01*
X88617742Y-49696181D01*
X88534335Y-49612773D01*
X88534331Y-49612770D01*
X88395692Y-49530780D01*
X88395689Y-49530778D01*
X88253001Y-49489323D01*
X88253000Y-49489324D01*
X88253000Y-50596500D01*
X88233315Y-50663539D01*
X88180511Y-50709294D01*
X88129000Y-50720500D01*
X87877000Y-50720500D01*
X87809961Y-50700815D01*
X87764206Y-50648011D01*
X87753000Y-50596500D01*
X87753000Y-49489324D01*
X87752998Y-49489323D01*
X87610310Y-49530778D01*
X87610307Y-49530780D01*
X87471668Y-49612770D01*
X87471660Y-49612776D01*
X87404318Y-49680119D01*
X87342995Y-49713604D01*
X87273303Y-49708620D01*
X87228956Y-49680119D01*
X86391819Y-48842982D01*
X86358334Y-48781659D01*
X86355500Y-48755301D01*
X86355500Y-47893449D01*
X86355500Y-47893447D01*
X86329910Y-47797944D01*
X86280475Y-47712320D01*
X86210562Y-47642407D01*
X85842935Y-47274780D01*
X85809450Y-47213457D01*
X85814434Y-47143765D01*
X85856306Y-47087832D01*
X85921770Y-47063415D01*
X85930616Y-47063099D01*
X86268517Y-47063099D01*
X86268518Y-47063099D01*
X86362304Y-47048246D01*
X86475342Y-46990650D01*
X86565050Y-46900942D01*
X86622646Y-46787904D01*
X86622646Y-46787902D01*
X86622647Y-46787901D01*
X86637499Y-46694124D01*
X86637500Y-46694119D01*
X86637499Y-46331082D01*
X86622646Y-46237296D01*
X86565050Y-46124258D01*
X86565046Y-46124254D01*
X86565045Y-46124252D01*
X86475347Y-46034554D01*
X86475344Y-46034552D01*
X86475342Y-46034550D01*
X86398267Y-45995278D01*
X86362301Y-45976952D01*
X86268524Y-45962100D01*
X86268519Y-45962100D01*
X85309500Y-45962100D01*
X85242461Y-45942415D01*
X85196706Y-45889611D01*
X85185500Y-45838100D01*
X85185500Y-45745980D01*
X85205185Y-45678941D01*
X85221819Y-45658298D01*
X85303700Y-45576418D01*
X85365024Y-45542934D01*
X85391381Y-45540100D01*
X86415667Y-45540100D01*
X86482706Y-45559785D01*
X86523054Y-45602100D01*
X86537782Y-45627610D01*
X86537784Y-45627613D01*
X86537785Y-45627614D01*
X86640279Y-45730108D01*
X86640280Y-45730109D01*
X86640282Y-45730110D01*
X86765805Y-45802581D01*
X86765806Y-45802581D01*
X86765809Y-45802583D01*
X86905819Y-45840099D01*
X86905822Y-45840099D01*
X87050766Y-45840099D01*
X87050769Y-45840099D01*
X87190779Y-45802583D01*
X87316309Y-45730108D01*
X87418803Y-45627614D01*
X87418803Y-45627613D01*
X87424550Y-45621867D01*
X87425751Y-45623068D01*
X87474307Y-45587613D01*
X87544053Y-45583456D01*
X87603938Y-45616620D01*
X87859218Y-45871900D01*
X87942282Y-45919857D01*
X87971615Y-45936793D01*
X87973346Y-45937792D01*
X88100640Y-45971900D01*
X88232425Y-45971900D01*
X89791768Y-45971900D01*
X89858807Y-45991585D01*
X89860659Y-45992798D01*
X89943066Y-46047861D01*
X89943072Y-46047864D01*
X89943073Y-46047865D01*
X90061456Y-46096901D01*
X90061460Y-46096901D01*
X90061461Y-46096902D01*
X90187128Y-46121900D01*
X90187131Y-46121900D01*
X90315271Y-46121900D01*
X90434182Y-46098246D01*
X90440944Y-46096901D01*
X90559327Y-46047865D01*
X90665869Y-45976676D01*
X90756476Y-45886069D01*
X90827665Y-45779527D01*
X90876701Y-45661144D01*
X90896863Y-45559785D01*
X90901700Y-45535471D01*
X90901700Y-45407328D01*
X90876702Y-45281661D01*
X90876701Y-45281660D01*
X90876701Y-45281656D01*
X90827665Y-45163273D01*
X90827664Y-45163272D01*
X90827661Y-45163266D01*
X90756476Y-45056731D01*
X90756473Y-45056727D01*
X90665872Y-44966126D01*
X90665868Y-44966123D01*
X90559333Y-44894938D01*
X90559324Y-44894933D01*
X90440944Y-44845899D01*
X90440938Y-44845897D01*
X90315271Y-44820900D01*
X90315269Y-44820900D01*
X90187131Y-44820900D01*
X90187129Y-44820900D01*
X90061461Y-44845897D01*
X90061455Y-44845899D01*
X89943075Y-44894933D01*
X89943066Y-44894938D01*
X89860659Y-44950002D01*
X89793982Y-44970880D01*
X89791768Y-44970900D01*
X88425208Y-44970900D01*
X88358169Y-44951215D01*
X88337527Y-44934581D01*
X87615048Y-44212102D01*
X87615046Y-44212100D01*
X87557982Y-44179154D01*
X87500919Y-44146208D01*
X87437271Y-44129154D01*
X87373624Y-44112100D01*
X87373623Y-44112100D01*
X86461052Y-44112100D01*
X86404758Y-44098585D01*
X86362301Y-44076952D01*
X86268524Y-44062100D01*
X86268519Y-44062100D01*
X85933176Y-44062100D01*
X85866137Y-44042415D01*
X85845495Y-44025781D01*
X84446694Y-42626980D01*
X84413209Y-42565657D01*
X84418193Y-42495965D01*
X84460065Y-42440032D01*
X84525529Y-42415615D01*
X84534357Y-42415299D01*
X84907884Y-42415299D01*
X84964514Y-42409212D01*
X85092626Y-42361428D01*
X85092629Y-42361426D01*
X85202081Y-42279492D01*
X85202083Y-42279489D01*
X85202087Y-42279487D01*
X85212941Y-42264988D01*
X85268876Y-42223117D01*
X85312207Y-42215300D01*
X85562593Y-42215300D01*
X85629632Y-42234985D01*
X85661859Y-42264988D01*
X85672712Y-42279486D01*
X85672718Y-42279492D01*
X85782169Y-42361425D01*
X85782170Y-42361425D01*
X85782174Y-42361428D01*
X85910286Y-42409212D01*
X85966915Y-42415300D01*
X86557884Y-42415299D01*
X86614514Y-42409212D01*
X86742626Y-42361428D01*
X86742629Y-42361426D01*
X86852081Y-42279492D01*
X86852083Y-42279489D01*
X86852087Y-42279487D01*
X86862941Y-42264988D01*
X86918876Y-42223117D01*
X86962207Y-42215300D01*
X87199772Y-42215300D01*
X87266811Y-42234985D01*
X87299541Y-42265665D01*
X87315250Y-42286950D01*
X87424518Y-42367593D01*
X87462670Y-42380943D01*
X87552699Y-42412446D01*
X87583130Y-42415300D01*
X88238129Y-42415300D01*
X88305168Y-42434985D01*
X88350923Y-42487789D01*
X88362129Y-42539300D01*
X88362129Y-42606723D01*
X88342444Y-42673762D01*
X88325810Y-42694404D01*
X88297122Y-42723091D01*
X88297117Y-42723097D01*
X88224646Y-42848620D01*
X88224645Y-42848624D01*
X88187129Y-42988634D01*
X88187129Y-43133584D01*
X88213777Y-43233033D01*
X88224646Y-43273597D01*
X88297117Y-43399120D01*
X88297119Y-43399122D01*
X88297120Y-43399124D01*
X88399614Y-43501618D01*
X88399615Y-43501619D01*
X88399617Y-43501620D01*
X88525140Y-43574091D01*
X88525141Y-43574091D01*
X88525144Y-43574093D01*
X88665154Y-43611609D01*
X88665157Y-43611609D01*
X88810101Y-43611609D01*
X88810104Y-43611609D01*
X88950114Y-43574093D01*
X89075644Y-43501618D01*
X89178138Y-43399124D01*
X89250613Y-43273594D01*
X89288129Y-43133584D01*
X89288129Y-43087848D01*
X89307814Y-43020809D01*
X89360618Y-42975054D01*
X89412129Y-42963848D01*
X89762373Y-42963848D01*
X89829412Y-42983533D01*
X89869757Y-43025844D01*
X89888221Y-43057824D01*
X89990715Y-43160318D01*
X89990716Y-43160319D01*
X89990718Y-43160320D01*
X90116241Y-43232791D01*
X90116242Y-43232791D01*
X90116245Y-43232793D01*
X90256255Y-43270309D01*
X90256258Y-43270309D01*
X90401202Y-43270309D01*
X90401205Y-43270309D01*
X90541215Y-43232793D01*
X90541217Y-43232791D01*
X90541219Y-43232791D01*
X90541220Y-43232790D01*
X90599114Y-43199365D01*
X90667014Y-43182891D01*
X90704449Y-43190569D01*
X90748355Y-43206945D01*
X90748359Y-43206946D01*
X90807887Y-43213347D01*
X90807904Y-43213348D01*
X91005732Y-43213348D01*
X91005732Y-41684710D01*
X91025417Y-41617671D01*
X91042051Y-41597029D01*
X91055732Y-41583348D01*
X91055732Y-40943348D01*
X91042051Y-40929667D01*
X91008566Y-40868344D01*
X91005732Y-40841986D01*
X91005732Y-39313348D01*
X90807887Y-39313348D01*
X90748359Y-39319749D01*
X90748352Y-39319751D01*
X90613645Y-39369993D01*
X90587856Y-39389298D01*
X90522391Y-39413712D01*
X90481456Y-39409803D01*
X90419357Y-39393164D01*
X90401205Y-39388300D01*
X90256255Y-39388300D01*
X90116245Y-39425816D01*
X90116243Y-39425816D01*
X90116243Y-39425817D01*
X90099820Y-39435299D01*
X89990715Y-39498291D01*
X89990713Y-39498292D01*
X89990709Y-39498295D01*
X89962476Y-39526529D01*
X89901153Y-39560014D01*
X89874795Y-39562848D01*
X89031055Y-39562848D01*
X88957996Y-39577380D01*
X88957992Y-39577381D01*
X88875131Y-39632747D01*
X88812981Y-39725763D01*
X88810558Y-39724144D01*
X88778372Y-39764073D01*
X88712074Y-39786128D01*
X88644377Y-39768838D01*
X88596775Y-39717693D01*
X88590630Y-39703168D01*
X88590193Y-39701918D01*
X88509550Y-39592650D01*
X88400282Y-39512007D01*
X88400280Y-39512006D01*
X88272100Y-39467153D01*
X88241670Y-39464300D01*
X88241666Y-39464300D01*
X87583134Y-39464300D01*
X87583130Y-39464300D01*
X87552700Y-39467153D01*
X87552698Y-39467153D01*
X87424519Y-39512006D01*
X87424518Y-39512007D01*
X87310186Y-39596387D01*
X87244557Y-39620357D01*
X87176387Y-39605041D01*
X87131014Y-39561713D01*
X87084971Y-39487066D01*
X86965132Y-39367227D01*
X86965128Y-39367224D01*
X86820892Y-39278257D01*
X86820881Y-39278252D01*
X86660006Y-39224944D01*
X86560722Y-39214800D01*
X86512400Y-39214800D01*
X86512400Y-40040800D01*
X86492715Y-40107839D01*
X86439911Y-40153594D01*
X86388400Y-40164800D01*
X86262400Y-40164800D01*
X86262400Y-40290800D01*
X86242715Y-40357839D01*
X86189911Y-40403594D01*
X86138400Y-40414800D01*
X84736400Y-40414800D01*
X84669361Y-40395115D01*
X84623606Y-40342311D01*
X84612400Y-40290800D01*
X84612400Y-40164800D01*
X84486400Y-40164800D01*
X84419361Y-40145115D01*
X84373606Y-40092311D01*
X84362400Y-40040800D01*
X84362400Y-39214800D01*
X84862400Y-39214800D01*
X84862400Y-39914800D01*
X86012400Y-39914800D01*
X86012400Y-39214800D01*
X86012399Y-39214799D01*
X85964093Y-39214800D01*
X85964075Y-39214801D01*
X85864792Y-39224944D01*
X85703918Y-39278252D01*
X85703907Y-39278257D01*
X85559671Y-39367224D01*
X85559667Y-39367227D01*
X85525081Y-39401814D01*
X85463758Y-39435299D01*
X85394066Y-39430315D01*
X85349719Y-39401814D01*
X85315132Y-39367227D01*
X85315128Y-39367224D01*
X85170892Y-39278257D01*
X85170881Y-39278252D01*
X85010006Y-39224944D01*
X84910722Y-39214800D01*
X84862400Y-39214800D01*
X84362400Y-39214800D01*
X84362399Y-39214799D01*
X84314093Y-39214800D01*
X84314075Y-39214801D01*
X84214792Y-39224944D01*
X84053918Y-39278252D01*
X84053907Y-39278257D01*
X83909671Y-39367224D01*
X83909667Y-39367227D01*
X83789826Y-39487068D01*
X83738590Y-39570134D01*
X83686641Y-39616858D01*
X83617679Y-39628079D01*
X83553597Y-39600235D01*
X83516870Y-39548368D01*
X83486530Y-39467021D01*
X83486525Y-39467012D01*
X83400279Y-39351803D01*
X83400276Y-39351800D01*
X83285067Y-39265554D01*
X83285060Y-39265550D01*
X83150214Y-39215256D01*
X83150215Y-39215256D01*
X83090615Y-39208849D01*
X83090613Y-39208848D01*
X83090605Y-39208848D01*
X83090596Y-39208848D01*
X82194861Y-39208848D01*
X82194855Y-39208849D01*
X82135248Y-39215256D01*
X82000403Y-39265550D01*
X82000396Y-39265554D01*
X81885187Y-39351800D01*
X81839230Y-39413190D01*
X81783295Y-39455061D01*
X81713604Y-39460044D01*
X81652281Y-39426558D01*
X81631067Y-39396257D01*
X81630881Y-39396373D01*
X81628902Y-39393164D01*
X81627577Y-39391272D01*
X81627088Y-39390225D01*
X81535047Y-39241002D01*
X81409226Y-39115181D01*
X81375741Y-39053858D01*
X81380725Y-38984166D01*
X81422597Y-38928233D01*
X81488061Y-38903816D01*
X81496907Y-38903500D01*
X92407505Y-38903500D01*
X92474544Y-38923185D01*
G37*
%TD.AperFunction*%
%TA.AperFunction,Conductor*%
G36*
X81851542Y-45364780D02*
G01*
X82103382Y-45616620D01*
X82349837Y-45863075D01*
X82350297Y-45863428D01*
X82350586Y-45863824D01*
X82355584Y-45868822D01*
X82354804Y-45869601D01*
X82391498Y-45919857D01*
X82395650Y-45989603D01*
X82381539Y-46024921D01*
X82335719Y-46102399D01*
X82289899Y-46260113D01*
X82289704Y-46262598D01*
X82289705Y-46262600D01*
X83325500Y-46262600D01*
X83392539Y-46282285D01*
X83438294Y-46335089D01*
X83449500Y-46386600D01*
X83449500Y-46512600D01*
X83575500Y-46512600D01*
X83642539Y-46532285D01*
X83688294Y-46585089D01*
X83699500Y-46636600D01*
X83699500Y-47312600D01*
X83933500Y-47312600D01*
X84000539Y-47332285D01*
X84046294Y-47385089D01*
X84057500Y-47436600D01*
X84057500Y-47511634D01*
X84083090Y-47607137D01*
X84103453Y-47642407D01*
X84123443Y-47677032D01*
X84132524Y-47692760D01*
X84132526Y-47692763D01*
X84290982Y-47851219D01*
X84324467Y-47912542D01*
X84319483Y-47982234D01*
X84277611Y-48038167D01*
X84212147Y-48062584D01*
X84203303Y-48062900D01*
X84151719Y-48062900D01*
X84151709Y-48062901D01*
X84095085Y-48068987D01*
X83966971Y-48116773D01*
X83885395Y-48177839D01*
X83819930Y-48202255D01*
X83751658Y-48187402D01*
X83705547Y-48143668D01*
X83669771Y-48085666D01*
X83549932Y-47965827D01*
X83549928Y-47965824D01*
X83405692Y-47876857D01*
X83405681Y-47876852D01*
X83244806Y-47823544D01*
X83145522Y-47813400D01*
X83122200Y-47813400D01*
X83122200Y-48664400D01*
X83102515Y-48731439D01*
X83049711Y-48777194D01*
X82998200Y-48788400D01*
X82872200Y-48788400D01*
X82872200Y-48914400D01*
X82852515Y-48981439D01*
X82799711Y-49027194D01*
X82748200Y-49038400D01*
X81922201Y-49038400D01*
X81922201Y-49086722D01*
X81932344Y-49186007D01*
X81985652Y-49346881D01*
X81985657Y-49346892D01*
X81988443Y-49351408D01*
X82006884Y-49418800D01*
X81985962Y-49485464D01*
X81932320Y-49530233D01*
X81862989Y-49538895D01*
X81799982Y-49508699D01*
X81795224Y-49504186D01*
X81659819Y-49368781D01*
X81626334Y-49307458D01*
X81623500Y-49281100D01*
X81623500Y-48490077D01*
X81922200Y-48490077D01*
X81922200Y-48538400D01*
X82622200Y-48538400D01*
X82622200Y-47813399D01*
X82598893Y-47813400D01*
X82598874Y-47813401D01*
X82499592Y-47823544D01*
X82338718Y-47876852D01*
X82338707Y-47876857D01*
X82194471Y-47965824D01*
X82194467Y-47965827D01*
X82074627Y-48085667D01*
X82074624Y-48085671D01*
X81985657Y-48229907D01*
X81985652Y-48229918D01*
X81932344Y-48390793D01*
X81922200Y-48490077D01*
X81623500Y-48490077D01*
X81623500Y-47888323D01*
X81623499Y-47888321D01*
X81608967Y-47815264D01*
X81608966Y-47815260D01*
X81597396Y-47797944D01*
X81553601Y-47732399D01*
X81470740Y-47677034D01*
X81470739Y-47677033D01*
X81470735Y-47677032D01*
X81397677Y-47662500D01*
X81397674Y-47662500D01*
X79911500Y-47662500D01*
X79844461Y-47642815D01*
X79798706Y-47590011D01*
X79787500Y-47538500D01*
X79787500Y-46762601D01*
X82289704Y-46762601D01*
X82289899Y-46765086D01*
X82335718Y-46922798D01*
X82419314Y-47064152D01*
X82419321Y-47064161D01*
X82535438Y-47180278D01*
X82535447Y-47180285D01*
X82676803Y-47263882D01*
X82676806Y-47263883D01*
X82834504Y-47309699D01*
X82834510Y-47309700D01*
X82871350Y-47312599D01*
X82871366Y-47312600D01*
X83199500Y-47312600D01*
X83199500Y-46762600D01*
X82289705Y-46762600D01*
X82289704Y-46762601D01*
X79787500Y-46762601D01*
X79787500Y-46668900D01*
X79807185Y-46601861D01*
X79859989Y-46556106D01*
X79911500Y-46544900D01*
X80036672Y-46544900D01*
X80036675Y-46544900D01*
X80176685Y-46507384D01*
X80263849Y-46457059D01*
X80331747Y-46440587D01*
X80397774Y-46463439D01*
X80399481Y-46464677D01*
X80492313Y-46533190D01*
X80492315Y-46533191D01*
X80492318Y-46533193D01*
X80525775Y-46544900D01*
X80620499Y-46578046D01*
X80650930Y-46580900D01*
X80650934Y-46580900D01*
X81309470Y-46580900D01*
X81339899Y-46578046D01*
X81339901Y-46578046D01*
X81403990Y-46555619D01*
X81468082Y-46533193D01*
X81577350Y-46452550D01*
X81657993Y-46343282D01*
X81686225Y-46262600D01*
X81702846Y-46215101D01*
X81702846Y-46215099D01*
X81705700Y-46184669D01*
X81705700Y-45676130D01*
X81702846Y-45645700D01*
X81702846Y-45645698D01*
X81657993Y-45517518D01*
X81654231Y-45510400D01*
X81640311Y-45441930D01*
X81665618Y-45376805D01*
X81722117Y-45335700D01*
X81791871Y-45331666D01*
X81851542Y-45364780D01*
G37*
%TD.AperFunction*%
%TA.AperFunction,Conductor*%
G36*
X79395480Y-40654882D02*
G01*
X79446682Y-40702423D01*
X79457830Y-40726830D01*
X79458370Y-40728460D01*
X79458375Y-40728472D01*
X79550416Y-40877693D01*
X79674387Y-41001664D01*
X79674389Y-41001665D01*
X79764151Y-41057031D01*
X79810876Y-41108979D01*
X79822099Y-41177941D01*
X79794255Y-41242024D01*
X79786742Y-41250246D01*
X79785184Y-41251804D01*
X79698938Y-41367012D01*
X79698934Y-41367019D01*
X79648640Y-41501865D01*
X79642233Y-41561464D01*
X79642233Y-41561471D01*
X79642232Y-41561483D01*
X79642232Y-42357218D01*
X79642233Y-42357224D01*
X79648640Y-42416831D01*
X79698934Y-42551676D01*
X79698938Y-42551683D01*
X79785184Y-42666892D01*
X79785187Y-42666895D01*
X79900396Y-42753141D01*
X79900403Y-42753145D01*
X80035249Y-42803439D01*
X80035248Y-42803439D01*
X80042176Y-42804183D01*
X80094859Y-42809848D01*
X80990604Y-42809847D01*
X81050215Y-42803439D01*
X81185063Y-42753144D01*
X81221341Y-42725985D01*
X81286805Y-42701568D01*
X81355078Y-42716419D01*
X81383334Y-42737571D01*
X81956132Y-43310371D01*
X81956136Y-43310374D01*
X81956137Y-43310375D01*
X81998950Y-43335092D01*
X82041762Y-43359810D01*
X82089513Y-43372605D01*
X82137264Y-43385400D01*
X82137265Y-43385400D01*
X82950965Y-43385400D01*
X83018004Y-43405085D01*
X83038646Y-43421719D01*
X83467345Y-43850419D01*
X83500830Y-43911742D01*
X83495846Y-43981434D01*
X83453974Y-44037367D01*
X83388510Y-44061784D01*
X83379664Y-44062100D01*
X82905482Y-44062100D01*
X82824519Y-44074923D01*
X82811696Y-44076954D01*
X82698658Y-44134550D01*
X82698657Y-44134551D01*
X82698652Y-44134554D01*
X82608954Y-44224252D01*
X82608951Y-44224257D01*
X82608950Y-44224258D01*
X82593955Y-44253687D01*
X82551352Y-44337298D01*
X82536500Y-44431075D01*
X82536500Y-44688301D01*
X82516815Y-44755340D01*
X82464011Y-44801095D01*
X82394853Y-44811039D01*
X82331297Y-44782014D01*
X82324819Y-44775982D01*
X82113938Y-44565101D01*
X81742019Y-44193181D01*
X81708534Y-44131858D01*
X81705700Y-44105500D01*
X81705700Y-44026130D01*
X81702846Y-43995700D01*
X81702846Y-43995698D01*
X81657993Y-43867519D01*
X81657992Y-43867517D01*
X81645373Y-43850419D01*
X81577350Y-43758250D01*
X81468082Y-43677607D01*
X81468080Y-43677606D01*
X81339900Y-43632753D01*
X81309470Y-43629900D01*
X81309466Y-43629900D01*
X80650934Y-43629900D01*
X80650930Y-43629900D01*
X80620500Y-43632753D01*
X80620498Y-43632753D01*
X80492319Y-43677606D01*
X80492317Y-43677607D01*
X80383050Y-43758250D01*
X80302407Y-43867517D01*
X80302406Y-43867519D01*
X80257553Y-43995698D01*
X80257553Y-43995700D01*
X80254700Y-44026130D01*
X80254700Y-44534669D01*
X80257553Y-44565099D01*
X80257553Y-44565101D01*
X80286065Y-44646580D01*
X80302407Y-44693282D01*
X80383050Y-44802550D01*
X80492318Y-44883193D01*
X80535045Y-44898144D01*
X80620499Y-44928046D01*
X80650930Y-44930900D01*
X80650934Y-44930900D01*
X81309470Y-44930900D01*
X81347412Y-44927342D01*
X81347657Y-44929964D01*
X81404850Y-44934002D01*
X81449306Y-44962543D01*
X81620818Y-45134056D01*
X81654303Y-45195379D01*
X81649319Y-45265071D01*
X81607447Y-45321004D01*
X81541983Y-45345421D01*
X81475196Y-45331368D01*
X81468087Y-45327611D01*
X81468082Y-45327607D01*
X81435783Y-45316305D01*
X81339900Y-45282753D01*
X81309470Y-45279900D01*
X81309466Y-45279900D01*
X80650934Y-45279900D01*
X80650930Y-45279900D01*
X80620500Y-45282753D01*
X80620498Y-45282753D01*
X80492319Y-45327606D01*
X80492317Y-45327607D01*
X80383049Y-45408250D01*
X80349328Y-45453941D01*
X80293681Y-45496191D01*
X80224024Y-45501648D01*
X80187561Y-45487694D01*
X80176690Y-45481418D01*
X80176689Y-45481417D01*
X80165206Y-45478340D01*
X80036675Y-45443900D01*
X79911500Y-45443900D01*
X79844461Y-45424215D01*
X79798706Y-45371411D01*
X79787500Y-45319900D01*
X79787500Y-43792567D01*
X79787500Y-43792565D01*
X79761910Y-43697062D01*
X79712475Y-43611438D01*
X79642562Y-43541525D01*
X79001141Y-42900104D01*
X78967656Y-42838781D01*
X78972640Y-42769089D01*
X78974237Y-42765029D01*
X78993130Y-42719420D01*
X79033500Y-42516465D01*
X79033500Y-42309535D01*
X78993130Y-42106580D01*
X78913941Y-41915402D01*
X78798977Y-41743345D01*
X78798975Y-41743342D01*
X78652657Y-41597024D01*
X78499069Y-41494401D01*
X78480598Y-41482059D01*
X78480593Y-41482057D01*
X78310399Y-41411560D01*
X78255996Y-41367719D01*
X78233931Y-41301425D01*
X78251210Y-41233725D01*
X78302348Y-41186115D01*
X78357852Y-41172999D01*
X78582971Y-41172999D01*
X78582987Y-41172998D01*
X78685697Y-41162505D01*
X78852119Y-41107358D01*
X78852124Y-41107356D01*
X79001345Y-41015315D01*
X79125315Y-40891345D01*
X79217356Y-40742124D01*
X79217357Y-40742122D01*
X79222419Y-40726844D01*
X79262189Y-40669397D01*
X79326704Y-40642571D01*
X79395480Y-40654882D01*
G37*
%TD.AperFunction*%
%TA.AperFunction,Conductor*%
G36*
X81807814Y-40676027D02*
G01*
X81839230Y-40705505D01*
X81885187Y-40766895D01*
X82000396Y-40853141D01*
X82000403Y-40853145D01*
X82107704Y-40893166D01*
X82163638Y-40935037D01*
X82188055Y-41000502D01*
X82173203Y-41068775D01*
X82123798Y-41118180D01*
X82107704Y-41125530D01*
X82000403Y-41165550D01*
X82000396Y-41165554D01*
X81885187Y-41251800D01*
X81885184Y-41251803D01*
X81798938Y-41367012D01*
X81798934Y-41367019D01*
X81748640Y-41501865D01*
X81742233Y-41561464D01*
X81742233Y-41561471D01*
X81742232Y-41561483D01*
X81742232Y-41735033D01*
X81722547Y-41802072D01*
X81669743Y-41847827D01*
X81600585Y-41857771D01*
X81537029Y-41828746D01*
X81530551Y-41822714D01*
X81479550Y-41771713D01*
X81446065Y-41710390D01*
X81443231Y-41684032D01*
X81443231Y-41561477D01*
X81443230Y-41561471D01*
X81443229Y-41561464D01*
X81436823Y-41501865D01*
X81430305Y-41484390D01*
X81386529Y-41367019D01*
X81386525Y-41367012D01*
X81300279Y-41251803D01*
X81298727Y-41250251D01*
X81297674Y-41248324D01*
X81294964Y-41244703D01*
X81295484Y-41244313D01*
X81265242Y-41188928D01*
X81270226Y-41119236D01*
X81312098Y-41063303D01*
X81321312Y-41057031D01*
X81411075Y-41001665D01*
X81535047Y-40877693D01*
X81627086Y-40728474D01*
X81627574Y-40727429D01*
X81628100Y-40726830D01*
X81630881Y-40722323D01*
X81631650Y-40722797D01*
X81673739Y-40674983D01*
X81740930Y-40655821D01*
X81807814Y-40676027D01*
G37*
%TD.AperFunction*%
%TA.AperFunction,Conductor*%
G36*
X83669045Y-40644226D02*
G01*
X83699069Y-40692900D01*
X83700851Y-40698279D01*
X83700857Y-40698292D01*
X83789824Y-40842528D01*
X83789827Y-40842532D01*
X83909667Y-40962372D01*
X83909671Y-40962375D01*
X83945965Y-40984762D01*
X83992690Y-41036710D01*
X84003911Y-41105672D01*
X83976068Y-41169754D01*
X83917999Y-41208610D01*
X83880868Y-41214300D01*
X83391454Y-41214300D01*
X83324415Y-41194615D01*
X83317143Y-41189567D01*
X83285063Y-41165552D01*
X83285060Y-41165550D01*
X83177759Y-41125530D01*
X83121825Y-41083659D01*
X83097408Y-41018195D01*
X83112259Y-40949922D01*
X83161664Y-40900516D01*
X83177759Y-40893166D01*
X83259603Y-40862640D01*
X83285063Y-40853144D01*
X83400278Y-40766894D01*
X83482100Y-40657593D01*
X83538031Y-40615725D01*
X83607722Y-40610741D01*
X83669045Y-40644226D01*
G37*
%TD.AperFunction*%
%TA.AperFunction,Conductor*%
G36*
X79356039Y-39642685D02*
G01*
X79401794Y-39695489D01*
X79413000Y-39747000D01*
X79413000Y-39809348D01*
X80418732Y-39809348D01*
X80485771Y-39829033D01*
X80531526Y-39881837D01*
X80542732Y-39933348D01*
X80542732Y-40185348D01*
X80523047Y-40252387D01*
X80470243Y-40298142D01*
X80418732Y-40309348D01*
X79386732Y-40309348D01*
X79319693Y-40289663D01*
X79273938Y-40236859D01*
X79262732Y-40185348D01*
X79262732Y-40123000D01*
X78298686Y-40123000D01*
X78303080Y-40118606D01*
X78355741Y-40027394D01*
X78383000Y-39925661D01*
X78383000Y-39820339D01*
X78355741Y-39718606D01*
X78303080Y-39627394D01*
X78298686Y-39623000D01*
X79289000Y-39623000D01*
X79356039Y-39642685D01*
G37*
%TD.AperFunction*%
%TD*%
M02*
