%TF.GenerationSoftware,KiCad,Pcbnew,10.0.5*%
%TF.CreationDate,2026-08-24T13:00:59-07:00*%
%TF.ProjectId,VideoULA,56696465-6f55-44c4-912e-6b696361645f,01*%
%TF.SameCoordinates,Original*%
%TF.FileFunction,Copper,L2,Bot*%
%TF.FilePolarity,Positive*%
%FSLAX46Y46*%
G04 Gerber Fmt 4.6, Leading zero omitted, Abs format (unit mm)*
G04 Created by KiCad (PCBNEW 10.0.5) date 2026-08-24 13:00:59*
%MOMM*%
%LPD*%
G01*
G04 APERTURE LIST*
G04 Aperture macros list*
%AMRoundRect*
0 Rectangle with rounded corners*
0 $1 Rounding radius*
0 $2 $3 $4 $5 $6 $7 $8 $9 X,Y pos of 4 corners*
0 Add a 4 corners polygon primitive as box body*
4,1,4,$2,$3,$4,$5,$6,$7,$8,$9,$2,$3,0*
0 Add four circle primitives for the rounded corners*
1,1,$1+$1,$2,$3*
1,1,$1+$1,$4,$5*
1,1,$1+$1,$6,$7*
1,1,$1+$1,$8,$9*
0 Add four rect primitives between the rounded corners*
20,1,$1+$1,$2,$3,$4,$5,0*
20,1,$1+$1,$4,$5,$6,$7,0*
20,1,$1+$1,$6,$7,$8,$9,0*
20,1,$1+$1,$8,$9,$2,$3,0*%
%AMFreePoly0*
4,1,23,0.500000,-0.750000,0.000000,-0.750000,0.000000,-0.745722,-0.065263,-0.745722,-0.191342,-0.711940,-0.304381,-0.646677,-0.396677,-0.554381,-0.461940,-0.441342,-0.495722,-0.315263,-0.495722,-0.250000,-0.500000,-0.250000,-0.500000,0.250000,-0.495722,0.250000,-0.495722,0.315263,-0.461940,0.441342,-0.396677,0.554381,-0.304381,0.646677,-0.191342,0.711940,-0.065263,0.745722,0.000000,0.745722,
0.000000,0.750000,0.500000,0.750000,0.500000,-0.750000,0.500000,-0.750000,$1*%
%AMFreePoly1*
4,1,23,0.000000,0.745722,0.065263,0.745722,0.191342,0.711940,0.304381,0.646677,0.396677,0.554381,0.461940,0.441342,0.495722,0.315263,0.495722,0.250000,0.500000,0.250000,0.500000,-0.250000,0.495722,-0.250000,0.495722,-0.315263,0.461940,-0.441342,0.396677,-0.554381,0.304381,-0.646677,0.191342,-0.711940,0.065263,-0.745722,0.000000,-0.745722,0.000000,-0.750000,-0.500000,-0.750000,
-0.500000,0.750000,0.000000,0.750000,0.000000,0.745722,0.000000,0.745722,$1*%
G04 Aperture macros list end*
%TA.AperFunction,ComponentPad*%
%ADD10RoundRect,0.250000X-0.550000X-0.550000X0.550000X-0.550000X0.550000X0.550000X-0.550000X0.550000X0*%
%TD*%
%TA.AperFunction,ComponentPad*%
%ADD11C,1.600000*%
%TD*%
%TA.AperFunction,ComponentPad*%
%ADD12R,1.700000X1.700000*%
%TD*%
%TA.AperFunction,SMDPad,CuDef*%
%ADD13R,0.380000X1.870000*%
%TD*%
%TA.AperFunction,SMDPad,CuDef*%
%ADD14FreePoly0,0.000000*%
%TD*%
%TA.AperFunction,SMDPad,CuDef*%
%ADD15FreePoly1,0.000000*%
%TD*%
%TA.AperFunction,SMDPad,CuDef*%
%ADD16RoundRect,0.225000X-0.225000X-0.250000X0.225000X-0.250000X0.225000X0.250000X-0.225000X0.250000X0*%
%TD*%
%TA.AperFunction,ViaPad*%
%ADD17C,0.800000*%
%TD*%
%TA.AperFunction,ViaPad*%
%ADD18C,0.600000*%
%TD*%
%TA.AperFunction,Conductor*%
%ADD19C,0.500000*%
%TD*%
%TA.AperFunction,Conductor*%
%ADD20C,0.380000*%
%TD*%
%TA.AperFunction,Conductor*%
%ADD21C,0.400000*%
%TD*%
%TA.AperFunction,Conductor*%
%ADD22C,0.250000*%
%TD*%
G04 APERTURE END LIST*
D10*
%TO.P,IC6,1,GND_1*%
%TO.N,GND*%
X77983000Y-39873000D03*
D11*
%TO.P,IC6,2,A0_2*%
%TO.N,/A*%
X77983000Y-42413000D03*
%TO.P,IC6,3,CS_3*%
%TO.N,/~{CS}*%
X77983000Y-44953000D03*
%TO.P,IC6,4,1MHz_CLK_4*%
%TO.N,/CLK_1M*%
X77983000Y-47493000D03*
%TO.P,IC6,5,2MHz_CLK_5*%
%TO.N,/CLK_2M*%
X77983000Y-50033000D03*
%TO.P,IC6,6,4MHz_CLK_6*%
%TO.N,/CLK_4M*%
X77983000Y-52573000D03*
%TO.P,IC6,7,8MHz_CLK_7*%
%TO.N,/CLK_8M*%
X77983000Y-55113000D03*
%TO.P,IC6,8,16MHz_CLK_8*%
%TO.N,/CLK_16M*%
X77983000Y-57653000D03*
%TO.P,IC6,9,B_IN_9*%
%TO.N,/B_IN*%
X77983000Y-60193000D03*
%TO.P,IC6,10,B_10*%
%TO.N,/B*%
X77983000Y-62733000D03*
%TO.P,IC6,11,G_IN_11*%
%TO.N,/G_IN*%
X77983000Y-65273000D03*
%TO.P,IC6,12,G_12*%
%TO.N,/G*%
X77983000Y-67813000D03*
%TO.P,IC6,13,R_IN_13*%
%TO.N,/R_IN*%
X77983000Y-70353000D03*
%TO.P,IC6,14,R_14*%
%TO.N,/R*%
X77983000Y-72893000D03*
%TO.P,IC6,15*%
%TO.N,unconnected-(IC6-Pad15)*%
X93223000Y-72893000D03*
%TO.P,IC6,16,VCC_16*%
%TO.N,+5V*%
X93223000Y-70353000D03*
%TO.P,IC6,17,D0_17*%
%TO.N,/D0*%
X93223000Y-67813000D03*
%TO.P,IC6,18,D1_18*%
%TO.N,/D1*%
X93223000Y-65273000D03*
%TO.P,IC6,19,D2_19*%
%TO.N,/D2*%
X93223000Y-62733000D03*
%TO.P,IC6,20,D3_20*%
%TO.N,/D3*%
X93223000Y-60193000D03*
%TO.P,IC6,21,D4_21*%
%TO.N,/D4*%
X93223000Y-57653000D03*
%TO.P,IC6,22,D5_22*%
%TO.N,/D5*%
X93223000Y-55113000D03*
%TO.P,IC6,23,D6_23*%
%TO.N,/D6*%
X93223000Y-52573000D03*
%TO.P,IC6,24,D7_24*%
%TO.N,/D7*%
X93223000Y-50033000D03*
%TO.P,IC6,25,CURSOR_25*%
%TO.N,/CURSOR*%
X93223000Y-47493000D03*
%TO.P,IC6,26,DISEN_26*%
%TO.N,/DISEN*%
X93223000Y-44953000D03*
%TO.P,IC6,27*%
%TO.N,unconnected-(IC6-Pad27)*%
X93223000Y-42413000D03*
%TO.P,IC6,28,CRTC_CLK_28*%
%TO.N,/CLK_CRTC*%
X93223000Y-39873000D03*
%TD*%
D12*
%TO.P,J2,1,Pin_1_1*%
%TO.N,/CLK_6M*%
X80523000Y-48763000D03*
%TD*%
D13*
%TO.P,U2,1,A14_1*%
%TO.N,GND*%
X85836000Y-60367000D03*
%TO.P,U2,2,A12_2*%
X85286000Y-60367000D03*
%TO.P,U2,3,A7_3*%
%TO.N,/SRAM_A3*%
X84736000Y-60367000D03*
%TO.P,U2,4,A6_4*%
%TO.N,/SRAM_A2*%
X84186000Y-60367000D03*
%TO.P,U2,5,A5_5*%
%TO.N,/SRAM_A1*%
X83636000Y-60367000D03*
%TO.P,U2,6,A4_6*%
%TO.N,/SRAM_A0*%
X83086000Y-60367000D03*
%TO.P,U2,7,A3_7*%
%TO.N,GND*%
X82536000Y-60367000D03*
%TO.P,U2,8,A2_8*%
X82536000Y-47827000D03*
%TO.P,U2,9,A1_9*%
X83086000Y-47827000D03*
%TO.P,U2,10,A0_10*%
X83636000Y-47827000D03*
%TO.P,U2,11,Q0_11*%
%TO.N,/SRAM_Q0*%
X84186000Y-47827000D03*
%TO.P,U2,12,Q1_12*%
%TO.N,/SRAM_Q1*%
X84736000Y-47827000D03*
%TO.P,U2,13,Q2_13*%
%TO.N,/SRAM_Q2*%
X85286000Y-47827000D03*
%TO.P,U2,14,GND_14*%
%TO.N,GND*%
X85836000Y-47827000D03*
%TO.P,U2,15,Q3_15*%
%TO.N,/SRAM_Q3*%
X86386000Y-47827000D03*
%TO.P,U2,16,Q4_16*%
%TO.N,/SRAM_D3*%
X86936000Y-47827000D03*
%TO.P,U2,17,Q5_17*%
%TO.N,/SRAM_D2*%
X87486000Y-47827000D03*
%TO.P,U2,18,Q6_18*%
%TO.N,/SRAM_D1*%
X88036000Y-47827000D03*
%TO.P,U2,19,Q7_19*%
%TO.N,/SRAM_D0*%
X88586000Y-47827000D03*
%TO.P,U2,20,~{CS}_20*%
%TO.N,GND*%
X89136000Y-47827000D03*
%TO.P,U2,21,A10_21*%
X89686000Y-47827000D03*
%TO.P,U2,22,~{OE}_22*%
X89686000Y-60367000D03*
%TO.P,U2,23,A11_23*%
X89136000Y-60367000D03*
%TO.P,U2,24,A9_24*%
X88586000Y-60367000D03*
%TO.P,U2,25,A8_25*%
X88036000Y-60367000D03*
%TO.P,U2,26,A13_26*%
X87486000Y-60367000D03*
%TO.P,U2,27,~{WE}_27*%
%TO.N,/SRAM_~{WE}*%
X86936000Y-60367000D03*
%TO.P,U2,28,VCC_28*%
%TO.N,+5V*%
X86386000Y-60367000D03*
%TD*%
D14*
%TO.P,JP1,1,A_1*%
%TO.N,GND*%
X85597400Y-40304800D03*
D15*
%TO.P,JP1,2,B_2*%
%TO.N,/CLK_SEL*%
X86897400Y-40304800D03*
%TD*%
D16*
%TO.P,C2,1*%
%TO.N,+5V*%
X88107532Y-62929548D03*
%TO.P,C2,2*%
%TO.N,GND*%
X89657532Y-62929548D03*
%TD*%
D17*
%TO.N,+5V*%
X80446800Y-61640800D03*
X92530000Y-56446079D03*
X86746000Y-64567566D03*
X85603000Y-57602200D03*
X90251200Y-45471400D03*
X91140200Y-61488400D03*
%TO.N,GND*%
X87786400Y-56306800D03*
X78745000Y-64003000D03*
X85119400Y-53131800D03*
X89935106Y-58935915D03*
X82377200Y-43661900D03*
X89743200Y-64028400D03*
X89870200Y-44470400D03*
X88219200Y-46248400D03*
X81944400Y-59735800D03*
X83468400Y-55036800D03*
X81234200Y-54884400D03*
X85148732Y-42660348D03*
X80928400Y-47035800D03*
X88030260Y-43489551D03*
D18*
%TO.N,/CLK_SEL*%
X88737629Y-43061109D03*
X87913400Y-40937800D03*
X86978294Y-45289599D03*
%TO.N,/SRAM_A3*%
X81996200Y-54376400D03*
%TO.N,/SRAM_A2*%
X81172494Y-55939019D03*
%TO.N,/SRAM_A1*%
X81213401Y-56751910D03*
%TO.N,/SRAM_A0*%
X81085271Y-57473638D03*
%TO.N,/SRAM_~{WE}*%
X86623305Y-57841858D03*
%TO.N,/SRAM_D3*%
X88092200Y-57678400D03*
%TO.N,/SRAM_D2*%
X89656601Y-57892247D03*
%TO.N,/CLK_CRTC*%
X90046698Y-56769943D03*
X90305000Y-50566400D03*
%TO.N,/CLK_4M*%
X85669877Y-51954077D03*
%TO.N,/SRAM_D0*%
X89182075Y-51860475D03*
%TO.N,/SRAM_D1*%
X88412077Y-51871123D03*
%TO.N,/CLK_2M*%
X83104203Y-51963400D03*
%TO.N,/CLK_1M*%
X82377200Y-51963400D03*
%TO.N,/SRAM_Q0*%
X90328730Y-39938800D03*
%TO.N,/SRAM_Q1*%
X90328730Y-40865803D03*
%TO.N,/SRAM_Q2*%
X90328730Y-41792806D03*
%TO.N,/SRAM_Q3*%
X90328730Y-42719809D03*
%TO.N,/CLK_16M*%
X82400175Y-59005000D03*
X79964200Y-45994400D03*
X81629795Y-51885000D03*
%TD*%
%TO.N,+5V*%
D19*
X83373566Y-64567566D02*
X86746000Y-64567566D01*
X83373566Y-64567566D02*
X80446800Y-61640800D01*
D20*
X86386000Y-60367000D02*
X86386000Y-58477123D01*
X86386000Y-58477123D02*
X85603000Y-57694123D01*
D19*
X90251200Y-45471400D02*
X91048000Y-45471400D01*
X92046000Y-46469400D02*
X92046000Y-55962079D01*
X93223000Y-70353000D02*
X92029200Y-69159200D01*
D20*
X85603000Y-57694123D02*
X85603000Y-57602200D01*
D19*
X92029200Y-56946879D02*
X92530000Y-56446079D01*
X92029200Y-69159200D02*
X92029200Y-61488400D01*
X87578434Y-64567566D02*
X88107532Y-64038468D01*
X88107532Y-64038468D02*
X88107532Y-62929548D01*
X91048000Y-45471400D02*
X92046000Y-46469400D01*
X92029200Y-61488400D02*
X92029200Y-56946879D01*
X92046000Y-55962079D02*
X92530000Y-56446079D01*
X91140200Y-61488400D02*
X92029200Y-61488400D01*
X86746000Y-64567566D02*
X87578434Y-64567566D01*
%TO.N,GND*%
D21*
X81149800Y-47035800D02*
X81700000Y-47586000D01*
X89686000Y-60367000D02*
X89686000Y-62901080D01*
X82414944Y-50300344D02*
X84902856Y-50300344D01*
X81700000Y-47586000D02*
X81700000Y-47670800D01*
X89657532Y-62929548D02*
X89657532Y-63942732D01*
X89686000Y-59513600D02*
X89935106Y-59264494D01*
X88219200Y-46121400D02*
X89870200Y-44470400D01*
X80036566Y-65294566D02*
X78745000Y-64003000D01*
X81931268Y-41484468D02*
X80319800Y-39873000D01*
X81869200Y-44169900D02*
X81869200Y-46095000D01*
X80036566Y-65294566D02*
X88477034Y-65294566D01*
X81931268Y-43215968D02*
X82377200Y-43661900D01*
X84417732Y-41484468D02*
X85597400Y-40304800D01*
D20*
X87905771Y-43489551D02*
X88030260Y-43489551D01*
D21*
X81700000Y-49585400D02*
X82414944Y-50300344D01*
X81931268Y-41484468D02*
X84417732Y-41484468D01*
X82377200Y-43661900D02*
X81869200Y-44169900D01*
X80319800Y-39873000D02*
X77983000Y-39873000D01*
X81089800Y-39103000D02*
X90775600Y-39103000D01*
X91215400Y-39542800D02*
X91215400Y-43860800D01*
D20*
X85836000Y-47827000D02*
X85836000Y-49367200D01*
D21*
X90775600Y-39103000D02*
X91215400Y-39542800D01*
D20*
X85836000Y-49367200D02*
X84902856Y-50300344D01*
D21*
X89686000Y-60367000D02*
X89686000Y-59513600D01*
X83468400Y-55036800D02*
X83468400Y-54782800D01*
D20*
X85836000Y-45559322D02*
X87905771Y-43489551D01*
D21*
X89935106Y-59264494D02*
X89935106Y-58935915D01*
X90605800Y-44470400D02*
X89870200Y-44470400D01*
X81700000Y-47586000D02*
X81700000Y-49585400D01*
X91215400Y-43860800D02*
X90605800Y-44470400D01*
X80319800Y-39873000D02*
X81089800Y-39103000D01*
X81869200Y-46095000D02*
X80928400Y-47035800D01*
X80928400Y-47035800D02*
X81149800Y-47035800D01*
X86296877Y-52213789D02*
X85378866Y-53131800D01*
X89657532Y-63942732D02*
X89743200Y-64028400D01*
X85378866Y-53131800D02*
X85119400Y-53131800D01*
X81931268Y-41484468D02*
X81931268Y-43215968D01*
X88477034Y-65294566D02*
X89743200Y-64028400D01*
X84902856Y-50300344D02*
X86296877Y-51694365D01*
D20*
X85836000Y-47827000D02*
X85836000Y-45559322D01*
D21*
X86296877Y-51694365D02*
X86296877Y-52213789D01*
X88219200Y-46248400D02*
X88219200Y-46121400D01*
X83468400Y-54782800D02*
X85119400Y-53131800D01*
%TO.N,/CLK_SEL*%
D22*
X87530400Y-40937800D02*
X86897400Y-40304800D01*
X87913400Y-40937800D02*
X87530400Y-40937800D01*
X88737629Y-43704250D02*
X88737629Y-43061109D01*
X88737629Y-43704250D02*
X87152280Y-45289599D01*
X87152280Y-45289599D02*
X86978294Y-45289599D01*
%TO.N,/SRAM_A3*%
X84736000Y-58960705D02*
X84736000Y-60367000D01*
X81996200Y-54376400D02*
X81996200Y-56220904D01*
X81996200Y-56220904D02*
X84736000Y-58960705D01*
%TO.N,/SRAM_A2*%
X84186000Y-58943863D02*
X84186000Y-60367000D01*
X81181156Y-55939019D02*
X84186000Y-58943863D01*
X81172494Y-55939019D02*
X81181156Y-55939019D01*
%TO.N,/SRAM_A1*%
X83636000Y-58927021D02*
X83636000Y-60367000D01*
X81213401Y-56751910D02*
X81460889Y-56751910D01*
X81460889Y-56751910D02*
X83636000Y-58927021D01*
%TO.N,/SRAM_A0*%
X81649459Y-57473638D02*
X83086000Y-58910179D01*
X81085271Y-57473638D02*
X81649459Y-57473638D01*
X83086000Y-58910179D02*
X83086000Y-60367000D01*
%TO.N,/SRAM_~{WE}*%
X86936000Y-60367000D02*
X86936000Y-58154553D01*
X86936000Y-58154553D02*
X86623305Y-57841858D01*
%TO.N,/SRAM_D3*%
X86936000Y-47827000D02*
X86936000Y-51714260D01*
X89017698Y-53795958D02*
X89017698Y-56752902D01*
X86936000Y-51714260D02*
X89017698Y-53795958D01*
X89017698Y-56752902D02*
X88092200Y-57678400D01*
%TO.N,/SRAM_D2*%
X87486000Y-51731102D02*
X89394698Y-53639800D01*
X89394698Y-57630344D02*
X89656601Y-57892247D01*
X87486000Y-47827000D02*
X87486000Y-51731102D01*
X89394698Y-53639800D02*
X89394698Y-57630344D01*
%TO.N,/CLK_CRTC*%
X90305000Y-56511641D02*
X90046698Y-56769943D01*
X90305000Y-50566400D02*
X90305000Y-56511641D01*
%TO.N,/CLK_4M*%
X83894172Y-51954078D02*
X85669877Y-51954077D01*
X81088833Y-53191000D02*
X82657250Y-53191000D01*
X77983000Y-52573000D02*
X80470832Y-52573000D01*
X80470832Y-52573000D02*
X81088833Y-53191000D01*
X82657250Y-53191000D02*
X83894172Y-51954078D01*
%TO.N,/SRAM_D0*%
X88586000Y-51264400D02*
X88586000Y-47827000D01*
X89182075Y-51860475D02*
X88586000Y-51264400D01*
%TO.N,/SRAM_D1*%
X88036000Y-51495046D02*
X88036000Y-47827000D01*
X88412077Y-51871123D02*
X88036000Y-51495046D01*
%TO.N,/CLK_2M*%
X83104203Y-51963400D02*
X83104203Y-52017043D01*
X81244991Y-52814000D02*
X78463991Y-50033000D01*
X82307246Y-52814000D02*
X81244991Y-52814000D01*
X83104203Y-52017043D02*
X82307246Y-52814000D01*
%TO.N,/CLK_1M*%
X81903600Y-52437000D02*
X81401149Y-52437000D01*
X81401149Y-52437000D02*
X79035000Y-50070851D01*
X77983000Y-48427000D02*
X77983000Y-47493000D01*
X79035000Y-50070851D02*
X79035000Y-49479000D01*
X82377200Y-51963400D02*
X81903600Y-52437000D01*
X79035000Y-49479000D02*
X77983000Y-48427000D01*
%TO.N,/SRAM_Q0*%
X84186000Y-47827000D02*
X84186000Y-45303441D01*
X88532165Y-41735365D02*
X90328730Y-39938800D01*
X87754077Y-41735365D02*
X88532165Y-41735365D01*
X84186000Y-45303441D02*
X87754077Y-41735365D01*
%TO.N,/SRAM_Q1*%
X90270459Y-40924075D02*
X89876613Y-40924075D01*
X87910235Y-42112365D02*
X84736000Y-45286600D01*
X89876613Y-40924075D02*
X88688323Y-42112365D01*
X88688323Y-42112365D02*
X87910235Y-42112365D01*
X90328730Y-40865803D02*
X90270459Y-40924075D01*
X84736000Y-45286600D02*
X84736000Y-47827000D01*
%TO.N,/SRAM_Q2*%
X85286000Y-47827000D02*
X85286000Y-45311743D01*
X89541040Y-41792806D02*
X88844481Y-42489365D01*
X85286000Y-45311743D02*
X88108378Y-42489365D01*
X88108378Y-42489365D02*
X88844481Y-42489365D01*
X90328730Y-41792806D02*
X89541040Y-41792806D01*
%TO.N,/SRAM_Q3*%
X86386000Y-46662539D02*
X86386000Y-47827000D01*
X86386000Y-46662539D02*
X90328730Y-42719809D01*
%TO.N,/CLK_16M*%
X78355638Y-58025638D02*
X81420813Y-58025638D01*
X81382307Y-51885000D02*
X81629795Y-51885000D01*
X79964200Y-45994400D02*
X79421000Y-46537600D01*
X81420813Y-58025638D02*
X82400175Y-59005000D01*
X79421000Y-49923693D02*
X81382307Y-51885000D01*
X79421000Y-46537600D02*
X79421000Y-49923693D01*
%TD*%
%TA.AperFunction,Conductor*%
%TO.N,GND*%
G36*
X85194357Y-38923185D02*
G01*
X85240112Y-38975989D01*
X85250056Y-39045147D01*
X85221031Y-39108703D01*
X85174771Y-39142061D01*
X85151911Y-39151529D01*
X85151906Y-39151532D01*
X85037889Y-39217360D01*
X84939223Y-39293070D01*
X85597400Y-39951247D01*
X85597401Y-39951247D01*
X85930219Y-39618428D01*
X85991542Y-39584943D01*
X86061233Y-39589927D01*
X86117167Y-39631798D01*
X86141584Y-39697263D01*
X86141900Y-39706109D01*
X86141900Y-40062491D01*
X86122215Y-40129530D01*
X86105581Y-40150172D01*
X85950953Y-40304800D01*
X86105581Y-40459428D01*
X86139066Y-40520751D01*
X86141900Y-40547109D01*
X86141900Y-40903490D01*
X86122215Y-40970529D01*
X86069411Y-41016284D01*
X86000253Y-41026228D01*
X85936697Y-40997203D01*
X85930219Y-40991171D01*
X85597401Y-40658353D01*
X85597400Y-40658353D01*
X84939223Y-41316527D01*
X84939223Y-41316529D01*
X85037882Y-41392234D01*
X85037900Y-41392246D01*
X85151899Y-41458064D01*
X85151916Y-41458072D01*
X85273697Y-41508515D01*
X85400871Y-41542592D01*
X85531566Y-41559799D01*
X85531581Y-41559800D01*
X86097400Y-41559800D01*
X86097402Y-41559799D01*
X86169269Y-41554660D01*
X86307187Y-41514162D01*
X86396081Y-41457033D01*
X86399951Y-41421045D01*
X86426689Y-41356494D01*
X86484081Y-41316646D01*
X86523240Y-41310300D01*
X86963227Y-41310300D01*
X86976452Y-41308558D01*
X87029356Y-41301594D01*
X87156523Y-41267519D01*
X87212970Y-41244137D01*
X87282435Y-41236669D01*
X87322414Y-41251309D01*
X87385462Y-41287710D01*
X87396075Y-41290553D01*
X87402964Y-41292400D01*
X87462623Y-41328766D01*
X87493152Y-41391613D01*
X87484855Y-41460989D01*
X87458549Y-41499855D01*
X83937997Y-45020406D01*
X83885526Y-45072877D01*
X83836088Y-45158505D01*
X83833864Y-45166808D01*
X83815014Y-45237160D01*
X83815013Y-45237164D01*
X83810500Y-45254005D01*
X83810500Y-46681116D01*
X83790815Y-46748155D01*
X83789603Y-46750005D01*
X83760033Y-46794259D01*
X83745500Y-46867323D01*
X83745500Y-47394400D01*
X83725815Y-47461439D01*
X83673011Y-47507194D01*
X83621500Y-47518400D01*
X83570000Y-47518400D01*
X83502961Y-47498715D01*
X83457206Y-47445911D01*
X83446000Y-47394400D01*
X83446000Y-46392000D01*
X83398167Y-46392000D01*
X83374253Y-46394571D01*
X83347747Y-46394571D01*
X83323832Y-46392000D01*
X83276000Y-46392000D01*
X83276000Y-47394400D01*
X83256315Y-47461439D01*
X83203511Y-47507194D01*
X83152000Y-47518400D01*
X83020000Y-47518400D01*
X82952961Y-47498715D01*
X82907206Y-47445911D01*
X82896000Y-47394400D01*
X82896000Y-46392000D01*
X82848167Y-46392000D01*
X82824253Y-46394571D01*
X82797747Y-46394571D01*
X82773832Y-46392000D01*
X82726000Y-46392000D01*
X82726000Y-47394400D01*
X82706315Y-47461439D01*
X82653511Y-47507194D01*
X82602000Y-47518400D01*
X82579400Y-47518400D01*
X82557681Y-47540119D01*
X82496358Y-47573604D01*
X82426666Y-47568620D01*
X82370733Y-47526748D01*
X82346316Y-47461284D01*
X82346000Y-47452438D01*
X82346000Y-46392000D01*
X82298155Y-46392000D01*
X82238627Y-46398401D01*
X82238620Y-46398403D01*
X82103913Y-46448645D01*
X82103906Y-46448649D01*
X81988812Y-46534809D01*
X81988809Y-46534812D01*
X81902649Y-46649906D01*
X81902645Y-46649913D01*
X81852403Y-46784620D01*
X81852401Y-46784627D01*
X81846000Y-46844155D01*
X81846000Y-47637000D01*
X82346000Y-47637000D01*
X82367719Y-47615281D01*
X82429042Y-47581796D01*
X82498734Y-47586780D01*
X82554667Y-47628652D01*
X82579084Y-47694116D01*
X82579400Y-47702962D01*
X82579400Y-48102600D01*
X82602000Y-48102600D01*
X82669039Y-48122285D01*
X82714794Y-48175089D01*
X82726000Y-48226600D01*
X82726000Y-49262000D01*
X82773821Y-49262000D01*
X82773828Y-49261999D01*
X82797741Y-49259428D01*
X82824259Y-49259428D01*
X82848171Y-49261999D01*
X82848179Y-49262000D01*
X82896000Y-49262000D01*
X82896000Y-48226600D01*
X82915685Y-48159561D01*
X82968489Y-48113806D01*
X83020000Y-48102600D01*
X83152000Y-48102600D01*
X83219039Y-48122285D01*
X83264794Y-48175089D01*
X83276000Y-48226600D01*
X83276000Y-49262000D01*
X83323821Y-49262000D01*
X83323828Y-49261999D01*
X83347741Y-49259428D01*
X83374259Y-49259428D01*
X83398171Y-49261999D01*
X83398179Y-49262000D01*
X83446000Y-49262000D01*
X83446000Y-48226600D01*
X83465685Y-48159561D01*
X83518489Y-48113806D01*
X83570000Y-48102600D01*
X83621500Y-48102600D01*
X83688539Y-48122285D01*
X83734294Y-48175089D01*
X83745500Y-48226600D01*
X83745500Y-48786678D01*
X83760032Y-48859735D01*
X83760034Y-48859740D01*
X83805102Y-48927191D01*
X83825980Y-48993867D01*
X83826000Y-48996080D01*
X83826000Y-49262000D01*
X83873828Y-49262000D01*
X83873844Y-49261999D01*
X83933372Y-49255598D01*
X83933379Y-49255596D01*
X84068086Y-49205354D01*
X84068093Y-49205350D01*
X84183185Y-49119191D01*
X84183190Y-49119186D01*
X84225859Y-49062189D01*
X84281793Y-49020318D01*
X84325126Y-49012500D01*
X84400674Y-49012500D01*
X84436809Y-49005312D01*
X84485191Y-49005312D01*
X84521326Y-49012500D01*
X84950674Y-49012500D01*
X84986809Y-49005312D01*
X85035191Y-49005312D01*
X85071326Y-49012500D01*
X85146874Y-49012500D01*
X85213913Y-49032185D01*
X85246141Y-49062189D01*
X85288809Y-49119186D01*
X85288814Y-49119191D01*
X85403906Y-49205350D01*
X85403913Y-49205354D01*
X85538620Y-49255596D01*
X85538627Y-49255598D01*
X85598155Y-49261999D01*
X85598172Y-49262000D01*
X85646000Y-49262000D01*
X85646000Y-48996080D01*
X85648550Y-48987394D01*
X85647262Y-48978433D01*
X85664034Y-48934661D01*
X85665685Y-48929041D01*
X85666438Y-48928388D01*
X85666896Y-48927191D01*
X85711966Y-48859740D01*
X85714055Y-48849239D01*
X85714383Y-48847593D01*
X85746768Y-48785682D01*
X85807484Y-48751108D01*
X85877253Y-48754847D01*
X85933925Y-48795714D01*
X85957617Y-48847593D01*
X85960032Y-48859735D01*
X85960034Y-48859740D01*
X86005102Y-48927191D01*
X86008139Y-48936889D01*
X86014794Y-48944569D01*
X86018402Y-48969668D01*
X86025980Y-48993867D01*
X86026000Y-48996080D01*
X86026000Y-49262000D01*
X86073828Y-49262000D01*
X86073844Y-49261999D01*
X86133372Y-49255598D01*
X86133379Y-49255596D01*
X86268086Y-49205354D01*
X86268093Y-49205350D01*
X86362189Y-49134910D01*
X86427653Y-49110492D01*
X86495926Y-49125343D01*
X86545332Y-49174748D01*
X86560500Y-49234176D01*
X86560500Y-51763698D01*
X86569027Y-51795518D01*
X86569027Y-51795520D01*
X86569028Y-51795520D01*
X86586090Y-51859199D01*
X86586091Y-51859200D01*
X86635526Y-51944823D01*
X88605879Y-53915176D01*
X88639364Y-53976499D01*
X88642198Y-54002857D01*
X88642198Y-56546002D01*
X88622513Y-56613041D01*
X88605879Y-56633683D01*
X88147982Y-57091581D01*
X88086659Y-57125066D01*
X88060301Y-57127900D01*
X88019725Y-57127900D01*
X87917084Y-57155403D01*
X87879711Y-57165417D01*
X87754188Y-57237888D01*
X87754182Y-57237893D01*
X87651693Y-57340382D01*
X87651688Y-57340388D01*
X87579217Y-57465911D01*
X87579216Y-57465915D01*
X87541700Y-57605925D01*
X87541700Y-57750875D01*
X87574366Y-57872784D01*
X87579217Y-57890888D01*
X87651688Y-58016411D01*
X87651690Y-58016413D01*
X87651691Y-58016415D01*
X87754185Y-58118909D01*
X87754186Y-58118910D01*
X87754188Y-58118911D01*
X87879711Y-58191382D01*
X87879712Y-58191382D01*
X87879715Y-58191384D01*
X88019725Y-58228900D01*
X88019728Y-58228900D01*
X88164672Y-58228900D01*
X88164675Y-58228900D01*
X88304685Y-58191384D01*
X88430215Y-58118909D01*
X88532709Y-58016415D01*
X88605184Y-57890885D01*
X88642700Y-57750875D01*
X88642700Y-57710299D01*
X88648434Y-57690768D01*
X88649284Y-57670432D01*
X88658988Y-57654827D01*
X88662385Y-57643260D01*
X88670619Y-57636125D01*
X88679019Y-57622618D01*
X88807517Y-57494120D01*
X88868840Y-57460635D01*
X88938532Y-57465619D01*
X88994465Y-57507491D01*
X89018882Y-57572955D01*
X89019198Y-57581801D01*
X89019198Y-57679780D01*
X89019197Y-57679780D01*
X89025741Y-57704197D01*
X89025741Y-57704200D01*
X89025742Y-57704200D01*
X89025742Y-57704201D01*
X89043208Y-57769385D01*
X89044789Y-57775285D01*
X89083772Y-57842805D01*
X89089484Y-57852697D01*
X89106101Y-57914704D01*
X89106101Y-57964722D01*
X89143617Y-58104732D01*
X89143618Y-58104735D01*
X89216089Y-58230258D01*
X89216091Y-58230260D01*
X89216092Y-58230262D01*
X89318586Y-58332756D01*
X89318587Y-58332757D01*
X89318589Y-58332758D01*
X89444112Y-58405229D01*
X89444113Y-58405229D01*
X89444116Y-58405231D01*
X89584126Y-58442747D01*
X89584129Y-58442747D01*
X89729073Y-58442747D01*
X89729076Y-58442747D01*
X89869086Y-58405231D01*
X89994616Y-58332756D01*
X90097110Y-58230262D01*
X90169585Y-58104732D01*
X90207101Y-57964722D01*
X90207101Y-57819772D01*
X90169585Y-57679762D01*
X90164198Y-57670432D01*
X90097112Y-57554235D01*
X90097107Y-57554229D01*
X90069256Y-57526378D01*
X90035771Y-57465055D01*
X90040755Y-57395363D01*
X90082627Y-57339430D01*
X90124837Y-57318925D01*
X90259183Y-57282927D01*
X90384713Y-57210452D01*
X90487207Y-57107958D01*
X90559682Y-56982428D01*
X90597198Y-56842418D01*
X90597198Y-56789763D01*
X90613809Y-56727766D01*
X90654910Y-56656579D01*
X90680500Y-56561076D01*
X90680500Y-51020786D01*
X90700185Y-50953747D01*
X90716819Y-50933105D01*
X90745509Y-50904415D01*
X90817984Y-50778885D01*
X90855500Y-50638875D01*
X90855500Y-50493925D01*
X90817984Y-50353915D01*
X90745509Y-50228385D01*
X90643015Y-50125891D01*
X90643013Y-50125890D01*
X90643011Y-50125888D01*
X90517488Y-50053417D01*
X90517489Y-50053417D01*
X90506006Y-50050340D01*
X90377475Y-50015900D01*
X90232525Y-50015900D01*
X90103993Y-50050340D01*
X90092511Y-50053417D01*
X89966988Y-50125888D01*
X89966982Y-50125893D01*
X89864493Y-50228382D01*
X89864488Y-50228388D01*
X89792017Y-50353911D01*
X89792016Y-50353915D01*
X89754500Y-50493925D01*
X89754500Y-50638875D01*
X89779537Y-50732313D01*
X89792017Y-50778888D01*
X89864488Y-50904411D01*
X89864493Y-50904417D01*
X89893181Y-50933105D01*
X89926666Y-50994428D01*
X89929500Y-51020786D01*
X89929500Y-51591278D01*
X89909815Y-51658317D01*
X89857011Y-51704072D01*
X89787853Y-51714016D01*
X89724297Y-51684991D01*
X89698113Y-51653279D01*
X89659364Y-51586165D01*
X89622584Y-51522460D01*
X89520090Y-51419966D01*
X89520088Y-51419965D01*
X89520086Y-51419963D01*
X89394563Y-51347492D01*
X89394564Y-51347492D01*
X89346077Y-51334500D01*
X89254550Y-51309975D01*
X89254547Y-51309975D01*
X89213974Y-51309975D01*
X89146935Y-51290290D01*
X89126293Y-51273656D01*
X88997819Y-51145182D01*
X88964334Y-51083859D01*
X88961500Y-51057501D01*
X88961500Y-48972883D01*
X88981185Y-48905844D01*
X88982398Y-48903993D01*
X89011964Y-48859743D01*
X89011964Y-48859742D01*
X89011966Y-48859740D01*
X89026500Y-48786674D01*
X89026500Y-48226600D01*
X89046185Y-48159561D01*
X89098989Y-48113806D01*
X89150500Y-48102600D01*
X89202000Y-48102600D01*
X89269039Y-48122285D01*
X89314794Y-48175089D01*
X89326000Y-48226600D01*
X89326000Y-49262000D01*
X89373821Y-49262000D01*
X89373828Y-49261999D01*
X89397741Y-49259428D01*
X89424259Y-49259428D01*
X89448171Y-49261999D01*
X89448179Y-49262000D01*
X89496000Y-49262000D01*
X89876000Y-49262000D01*
X89923828Y-49262000D01*
X89923844Y-49261999D01*
X89983372Y-49255598D01*
X89983379Y-49255596D01*
X90118086Y-49205354D01*
X90118093Y-49205350D01*
X90233187Y-49119190D01*
X90233190Y-49119187D01*
X90319350Y-49004093D01*
X90319354Y-49004086D01*
X90369596Y-48869379D01*
X90369598Y-48869372D01*
X90375999Y-48809844D01*
X90376000Y-48809827D01*
X90376000Y-48017000D01*
X89876000Y-48017000D01*
X89876000Y-49262000D01*
X89496000Y-49262000D01*
X89496000Y-48222362D01*
X89515685Y-48155323D01*
X89532319Y-48134681D01*
X89564400Y-48102600D01*
X89564400Y-47637000D01*
X89876000Y-47637000D01*
X90376000Y-47637000D01*
X90376000Y-46844172D01*
X90375999Y-46844155D01*
X90369598Y-46784627D01*
X90369596Y-46784620D01*
X90319354Y-46649913D01*
X90319350Y-46649906D01*
X90233190Y-46534812D01*
X90233187Y-46534809D01*
X90118093Y-46448649D01*
X90118086Y-46448645D01*
X89983379Y-46398403D01*
X89983372Y-46398401D01*
X89923844Y-46392000D01*
X89876000Y-46392000D01*
X89876000Y-47637000D01*
X89564400Y-47637000D01*
X89564400Y-47518400D01*
X89532319Y-47486319D01*
X89498834Y-47424996D01*
X89496000Y-47398638D01*
X89496000Y-46392000D01*
X89448167Y-46392000D01*
X89424253Y-46394571D01*
X89397747Y-46394571D01*
X89373832Y-46392000D01*
X89326000Y-46392000D01*
X89326000Y-47394400D01*
X89306315Y-47461439D01*
X89253511Y-47507194D01*
X89202000Y-47518400D01*
X89150500Y-47518400D01*
X89083461Y-47498715D01*
X89037706Y-47445911D01*
X89026500Y-47394400D01*
X89026500Y-46867323D01*
X89026499Y-46867321D01*
X89011967Y-46794264D01*
X89011966Y-46794263D01*
X89011966Y-46794260D01*
X88983606Y-46751815D01*
X88966897Y-46726807D01*
X88946020Y-46660130D01*
X88946000Y-46657918D01*
X88946000Y-46392000D01*
X88898155Y-46392000D01*
X88838627Y-46398401D01*
X88838620Y-46398403D01*
X88703913Y-46448645D01*
X88703906Y-46448649D01*
X88588814Y-46534808D01*
X88588809Y-46534813D01*
X88546141Y-46591811D01*
X88490207Y-46633682D01*
X88446874Y-46641500D01*
X88371325Y-46641500D01*
X88335188Y-46648687D01*
X88286812Y-46648687D01*
X88250675Y-46641500D01*
X88250674Y-46641500D01*
X87821326Y-46641500D01*
X87821325Y-46641500D01*
X87785188Y-46648687D01*
X87736812Y-46648687D01*
X87700675Y-46641500D01*
X87700674Y-46641500D01*
X87271326Y-46641500D01*
X87271320Y-46641500D01*
X87256242Y-46644499D01*
X87186651Y-46638269D01*
X87131475Y-46595404D01*
X87108233Y-46529513D01*
X87124304Y-46461517D01*
X87144371Y-46435204D01*
X90272948Y-43306628D01*
X90334271Y-43273143D01*
X90360629Y-43270309D01*
X90401202Y-43270309D01*
X90401205Y-43270309D01*
X90541215Y-43232793D01*
X90666745Y-43160318D01*
X90769239Y-43057824D01*
X90841714Y-42932294D01*
X90879230Y-42792284D01*
X90879230Y-42647334D01*
X90841714Y-42507324D01*
X90769239Y-42381794D01*
X90731433Y-42343988D01*
X90697948Y-42282665D01*
X90702932Y-42212973D01*
X90731432Y-42168627D01*
X90769239Y-42130821D01*
X90841714Y-42005291D01*
X90879230Y-41865281D01*
X90879230Y-41720331D01*
X90841714Y-41580321D01*
X90784982Y-41482059D01*
X90769241Y-41454794D01*
X90769236Y-41454788D01*
X90731433Y-41416985D01*
X90697948Y-41355662D01*
X90702932Y-41285970D01*
X90731432Y-41241624D01*
X90769239Y-41203818D01*
X90841714Y-41078288D01*
X90879230Y-40938278D01*
X90879230Y-40793328D01*
X90841714Y-40653318D01*
X90822843Y-40620633D01*
X90769241Y-40527791D01*
X90769236Y-40527785D01*
X90731433Y-40489982D01*
X90697948Y-40428659D01*
X90702932Y-40358967D01*
X90731432Y-40314621D01*
X90769239Y-40276815D01*
X90841714Y-40151285D01*
X90879230Y-40011275D01*
X90879230Y-39866325D01*
X90841714Y-39726315D01*
X90837263Y-39718606D01*
X90769241Y-39600788D01*
X90769236Y-39600782D01*
X90666747Y-39498293D01*
X90666741Y-39498288D01*
X90541218Y-39425817D01*
X90541219Y-39425817D01*
X90529736Y-39422740D01*
X90401205Y-39388300D01*
X90256255Y-39388300D01*
X90127723Y-39422740D01*
X90116241Y-39425817D01*
X89990718Y-39498288D01*
X89990712Y-39498293D01*
X89888223Y-39600782D01*
X89888218Y-39600788D01*
X89815747Y-39726311D01*
X89813669Y-39734065D01*
X89778230Y-39866325D01*
X89778230Y-39866327D01*
X89778230Y-39906901D01*
X89758545Y-39973940D01*
X89741911Y-39994582D01*
X88675581Y-41060912D01*
X88614258Y-41094397D01*
X88544566Y-41089413D01*
X88488633Y-41047541D01*
X88464216Y-40982077D01*
X88463900Y-40973231D01*
X88463900Y-40865327D01*
X88463900Y-40865325D01*
X88426384Y-40725315D01*
X88405402Y-40688974D01*
X88353911Y-40599788D01*
X88353906Y-40599782D01*
X88251417Y-40497293D01*
X88251411Y-40497288D01*
X88125888Y-40424817D01*
X88125889Y-40424817D01*
X88114406Y-40421740D01*
X87985875Y-40387300D01*
X87840925Y-40387300D01*
X87840923Y-40387300D01*
X87808992Y-40395856D01*
X87739142Y-40394193D01*
X87681280Y-40355029D01*
X87653777Y-40290801D01*
X87652900Y-40276081D01*
X87652900Y-39988973D01*
X87647933Y-39951247D01*
X87644194Y-39922844D01*
X87610119Y-39795677D01*
X87599291Y-39769535D01*
X87584599Y-39734065D01*
X87584591Y-39734049D01*
X87518773Y-39620050D01*
X87518769Y-39620043D01*
X87478165Y-39567127D01*
X87478160Y-39567121D01*
X87385078Y-39474039D01*
X87385071Y-39474033D01*
X87332165Y-39433437D01*
X87332163Y-39433435D01*
X87332157Y-39433431D01*
X87332152Y-39433428D01*
X87332149Y-39433426D01*
X87218150Y-39367608D01*
X87218134Y-39367600D01*
X87156526Y-39342082D01*
X87156524Y-39342081D01*
X87156523Y-39342081D01*
X87029356Y-39308006D01*
X87029355Y-39308005D01*
X87029352Y-39308005D01*
X86963227Y-39299300D01*
X86963226Y-39299300D01*
X86521175Y-39299300D01*
X86454136Y-39279615D01*
X86408381Y-39226811D01*
X86397254Y-39179725D01*
X86396277Y-39152369D01*
X86363722Y-39124160D01*
X86365194Y-39122460D01*
X86327547Y-39079016D01*
X86317600Y-39009858D01*
X86346623Y-38946301D01*
X86405400Y-38908524D01*
X86440339Y-38903500D01*
X92407505Y-38903500D01*
X92474544Y-38923185D01*
X92520299Y-38975989D01*
X92530243Y-39045147D01*
X92501218Y-39108703D01*
X92495186Y-39115181D01*
X92407025Y-39203341D01*
X92407024Y-39203342D01*
X92292058Y-39375403D01*
X92212870Y-39566579D01*
X92212868Y-39566587D01*
X92172500Y-39769530D01*
X92172500Y-39976469D01*
X92212868Y-40179412D01*
X92212870Y-40179420D01*
X92268871Y-40314619D01*
X92292059Y-40370598D01*
X92330854Y-40428659D01*
X92407024Y-40542657D01*
X92553342Y-40688975D01*
X92553345Y-40688977D01*
X92725402Y-40803941D01*
X92916580Y-40883130D01*
X93119530Y-40923499D01*
X93119534Y-40923500D01*
X93119535Y-40923500D01*
X93326466Y-40923500D01*
X93326467Y-40923499D01*
X93529420Y-40883130D01*
X93720598Y-40803941D01*
X93892655Y-40688977D01*
X93928318Y-40653314D01*
X93980819Y-40600814D01*
X94042142Y-40567329D01*
X94111834Y-40572313D01*
X94167767Y-40614185D01*
X94192184Y-40679649D01*
X94192500Y-40688495D01*
X94192500Y-41597505D01*
X94172815Y-41664544D01*
X94120011Y-41710299D01*
X94050853Y-41720243D01*
X93987297Y-41691218D01*
X93980819Y-41685186D01*
X93892657Y-41597024D01*
X93760192Y-41508515D01*
X93720598Y-41482059D01*
X93720593Y-41482057D01*
X93529420Y-41402870D01*
X93529412Y-41402868D01*
X93326469Y-41362500D01*
X93326465Y-41362500D01*
X93119535Y-41362500D01*
X93119530Y-41362500D01*
X92916587Y-41402868D01*
X92916579Y-41402870D01*
X92725403Y-41482058D01*
X92553342Y-41597024D01*
X92407024Y-41743342D01*
X92292058Y-41915403D01*
X92212870Y-42106579D01*
X92212868Y-42106587D01*
X92172500Y-42309530D01*
X92172500Y-42516469D01*
X92212868Y-42719412D01*
X92212870Y-42719420D01*
X92292058Y-42910596D01*
X92407024Y-43082657D01*
X92553342Y-43228975D01*
X92553345Y-43228977D01*
X92725402Y-43343941D01*
X92916580Y-43423130D01*
X93119530Y-43463499D01*
X93119534Y-43463500D01*
X93119535Y-43463500D01*
X93326466Y-43463500D01*
X93326467Y-43463499D01*
X93529420Y-43423130D01*
X93720598Y-43343941D01*
X93892655Y-43228977D01*
X93931968Y-43189664D01*
X93980819Y-43140814D01*
X94042142Y-43107329D01*
X94111834Y-43112313D01*
X94167767Y-43154185D01*
X94192184Y-43219649D01*
X94192500Y-43228495D01*
X94192500Y-44137505D01*
X94172815Y-44204544D01*
X94120011Y-44250299D01*
X94050853Y-44260243D01*
X93987297Y-44231218D01*
X93980819Y-44225186D01*
X93892657Y-44137024D01*
X93806626Y-44079541D01*
X93720598Y-44022059D01*
X93529420Y-43942870D01*
X93529412Y-43942868D01*
X93326469Y-43902500D01*
X93326465Y-43902500D01*
X93119535Y-43902500D01*
X93119530Y-43902500D01*
X92916587Y-43942868D01*
X92916579Y-43942870D01*
X92725403Y-44022058D01*
X92553342Y-44137024D01*
X92407024Y-44283342D01*
X92292058Y-44455403D01*
X92212870Y-44646579D01*
X92212868Y-44646587D01*
X92172500Y-44849530D01*
X92172500Y-45056469D01*
X92212868Y-45259412D01*
X92212870Y-45259420D01*
X92289284Y-45443900D01*
X92292059Y-45450598D01*
X92326461Y-45502084D01*
X92407024Y-45622657D01*
X92553342Y-45768975D01*
X92553345Y-45768977D01*
X92725402Y-45883941D01*
X92916580Y-45963130D01*
X93119530Y-46003499D01*
X93119534Y-46003500D01*
X93119535Y-46003500D01*
X93326466Y-46003500D01*
X93326467Y-46003499D01*
X93529420Y-45963130D01*
X93720598Y-45883941D01*
X93892655Y-45768977D01*
X93931524Y-45730108D01*
X93980819Y-45680814D01*
X94042142Y-45647329D01*
X94111834Y-45652313D01*
X94167767Y-45694185D01*
X94192184Y-45759649D01*
X94192500Y-45768495D01*
X94192500Y-46677505D01*
X94172815Y-46744544D01*
X94120011Y-46790299D01*
X94050853Y-46800243D01*
X93987297Y-46771218D01*
X93980819Y-46765186D01*
X93892657Y-46677024D01*
X93796993Y-46613104D01*
X93720598Y-46562059D01*
X93654818Y-46534812D01*
X93529420Y-46482870D01*
X93529412Y-46482868D01*
X93326469Y-46442500D01*
X93326465Y-46442500D01*
X93119535Y-46442500D01*
X93119530Y-46442500D01*
X92916587Y-46482868D01*
X92916579Y-46482870D01*
X92719774Y-46564390D01*
X92718891Y-46562259D01*
X92660532Y-46574401D01*
X92595292Y-46549391D01*
X92553930Y-46493080D01*
X92546500Y-46450802D01*
X92546500Y-46403509D01*
X92546500Y-46403508D01*
X92536880Y-46367607D01*
X92512392Y-46276214D01*
X92446500Y-46162086D01*
X91355314Y-45070900D01*
X91298250Y-45037954D01*
X91241187Y-45005008D01*
X91177539Y-44987954D01*
X91113892Y-44970900D01*
X91113891Y-44970900D01*
X90710632Y-44970900D01*
X90643593Y-44951215D01*
X90641741Y-44950002D01*
X90559333Y-44894938D01*
X90559324Y-44894933D01*
X90440944Y-44845899D01*
X90440938Y-44845897D01*
X90315271Y-44820900D01*
X90315269Y-44820900D01*
X90187131Y-44820900D01*
X90187129Y-44820900D01*
X90061461Y-44845897D01*
X90061455Y-44845899D01*
X89943075Y-44894933D01*
X89943066Y-44894938D01*
X89836531Y-44966123D01*
X89836527Y-44966126D01*
X89745926Y-45056727D01*
X89745923Y-45056731D01*
X89674738Y-45163266D01*
X89674733Y-45163275D01*
X89625699Y-45281655D01*
X89625697Y-45281661D01*
X89600700Y-45407328D01*
X89600700Y-45407331D01*
X89600700Y-45535469D01*
X89600700Y-45535471D01*
X89600699Y-45535471D01*
X89625697Y-45661138D01*
X89625699Y-45661144D01*
X89674733Y-45779524D01*
X89674738Y-45779533D01*
X89745923Y-45886068D01*
X89745926Y-45886072D01*
X89836527Y-45976673D01*
X89836531Y-45976676D01*
X89943066Y-46047861D01*
X89943072Y-46047864D01*
X89943073Y-46047865D01*
X90061456Y-46096901D01*
X90061460Y-46096901D01*
X90061461Y-46096902D01*
X90187128Y-46121900D01*
X90187131Y-46121900D01*
X90315271Y-46121900D01*
X90399815Y-46105082D01*
X90440944Y-46096901D01*
X90559327Y-46047865D01*
X90625724Y-46003500D01*
X90641741Y-45992798D01*
X90708418Y-45971920D01*
X90710632Y-45971900D01*
X90789324Y-45971900D01*
X90856363Y-45991585D01*
X90877005Y-46008219D01*
X91509181Y-46640395D01*
X91542666Y-46701718D01*
X91545500Y-46728076D01*
X91545500Y-55896187D01*
X91545500Y-56027971D01*
X91549779Y-56043941D01*
X91579608Y-56155266D01*
X91584362Y-56163500D01*
X91645500Y-56269393D01*
X91645502Y-56269395D01*
X91734505Y-56358398D01*
X91767990Y-56419721D01*
X91763006Y-56489413D01*
X91734505Y-56533760D01*
X91628702Y-56639562D01*
X91628700Y-56639565D01*
X91562808Y-56753691D01*
X91528700Y-56880987D01*
X91528700Y-60759647D01*
X91509015Y-60826686D01*
X91456211Y-60872441D01*
X91387053Y-60882385D01*
X91357249Y-60874209D01*
X91350452Y-60871393D01*
X91329944Y-60862899D01*
X91329942Y-60862898D01*
X91329938Y-60862897D01*
X91204271Y-60837900D01*
X91204269Y-60837900D01*
X91076131Y-60837900D01*
X91076129Y-60837900D01*
X90950461Y-60862897D01*
X90950455Y-60862899D01*
X90832075Y-60911933D01*
X90832066Y-60911938D01*
X90725531Y-60983123D01*
X90725527Y-60983126D01*
X90634926Y-61073727D01*
X90634923Y-61073731D01*
X90603102Y-61121355D01*
X90549489Y-61166160D01*
X90480164Y-61174867D01*
X90417137Y-61144712D01*
X90380418Y-61085269D01*
X90376000Y-61052464D01*
X90376000Y-60557000D01*
X89876000Y-60557000D01*
X89876000Y-61802000D01*
X89880359Y-61806359D01*
X89913844Y-61867682D01*
X89908860Y-61937374D01*
X89907532Y-61939440D01*
X89907532Y-62679548D01*
X90607531Y-62679548D01*
X90607531Y-62631240D01*
X90607530Y-62631225D01*
X90597387Y-62531940D01*
X90544079Y-62371066D01*
X90544074Y-62371055D01*
X90455107Y-62226819D01*
X90455104Y-62226815D01*
X90335264Y-62106975D01*
X90335260Y-62106972D01*
X90191024Y-62018005D01*
X90191013Y-62018000D01*
X90099660Y-61987729D01*
X90042215Y-61947956D01*
X90015392Y-61883441D01*
X90027707Y-61814665D01*
X90075250Y-61763465D01*
X90095333Y-61753840D01*
X90118088Y-61745353D01*
X90118093Y-61745350D01*
X90233187Y-61659190D01*
X90233188Y-61659189D01*
X90285984Y-61588663D01*
X90341917Y-61546791D01*
X90411609Y-61541807D01*
X90472932Y-61575292D01*
X90506417Y-61636615D01*
X90506868Y-61638779D01*
X90514698Y-61678141D01*
X90514699Y-61678144D01*
X90563733Y-61796524D01*
X90563738Y-61796533D01*
X90634923Y-61903068D01*
X90634926Y-61903072D01*
X90725527Y-61993673D01*
X90725531Y-61993676D01*
X90832066Y-62064861D01*
X90832072Y-62064864D01*
X90832073Y-62064865D01*
X90950456Y-62113901D01*
X90950460Y-62113901D01*
X90950461Y-62113902D01*
X91076128Y-62138900D01*
X91076131Y-62138900D01*
X91204271Y-62138900D01*
X91288815Y-62122082D01*
X91329944Y-62113901D01*
X91357246Y-62102591D01*
X91426715Y-62095122D01*
X91489195Y-62126396D01*
X91524848Y-62186484D01*
X91528700Y-62217152D01*
X91528700Y-69225091D01*
X91562808Y-69352387D01*
X91595754Y-69409450D01*
X91628700Y-69466514D01*
X91628702Y-69466516D01*
X92165322Y-70003136D01*
X92198807Y-70064459D01*
X92199258Y-70115008D01*
X92172500Y-70249530D01*
X92172500Y-70456469D01*
X92212868Y-70659412D01*
X92212870Y-70659420D01*
X92292058Y-70850596D01*
X92407024Y-71022657D01*
X92553342Y-71168975D01*
X92553345Y-71168977D01*
X92725402Y-71283941D01*
X92916580Y-71363130D01*
X93119530Y-71403499D01*
X93119534Y-71403500D01*
X93119535Y-71403500D01*
X93326466Y-71403500D01*
X93326467Y-71403499D01*
X93529420Y-71363130D01*
X93720598Y-71283941D01*
X93892655Y-71168977D01*
X93901983Y-71159649D01*
X93980819Y-71080814D01*
X94042142Y-71047329D01*
X94111834Y-71052313D01*
X94167767Y-71094185D01*
X94192184Y-71159649D01*
X94192500Y-71168495D01*
X94192500Y-72077505D01*
X94172815Y-72144544D01*
X94120011Y-72190299D01*
X94050853Y-72200243D01*
X93987297Y-72171218D01*
X93980819Y-72165186D01*
X93892657Y-72077024D01*
X93806626Y-72019541D01*
X93720598Y-71962059D01*
X93529420Y-71882870D01*
X93529412Y-71882868D01*
X93326469Y-71842500D01*
X93326465Y-71842500D01*
X93119535Y-71842500D01*
X93119530Y-71842500D01*
X92916587Y-71882868D01*
X92916579Y-71882870D01*
X92725403Y-71962058D01*
X92553342Y-72077024D01*
X92407024Y-72223342D01*
X92292058Y-72395403D01*
X92212870Y-72586579D01*
X92212868Y-72586587D01*
X92172500Y-72789530D01*
X92172500Y-72996469D01*
X92212868Y-73199412D01*
X92212870Y-73199420D01*
X92292058Y-73390596D01*
X92407024Y-73562657D01*
X92495186Y-73650819D01*
X92528671Y-73712142D01*
X92523687Y-73781834D01*
X92481815Y-73837767D01*
X92416351Y-73862184D01*
X92407505Y-73862500D01*
X78798495Y-73862500D01*
X78731456Y-73842815D01*
X78685701Y-73790011D01*
X78675757Y-73720853D01*
X78704782Y-73657297D01*
X78710814Y-73650819D01*
X78798974Y-73562658D01*
X78798975Y-73562657D01*
X78798977Y-73562655D01*
X78913941Y-73390598D01*
X78993130Y-73199420D01*
X79033500Y-72996465D01*
X79033500Y-72789535D01*
X78993130Y-72586580D01*
X78913941Y-72395402D01*
X78798977Y-72223345D01*
X78798975Y-72223342D01*
X78652657Y-72077024D01*
X78566626Y-72019541D01*
X78480598Y-71962059D01*
X78289420Y-71882870D01*
X78289412Y-71882868D01*
X78086469Y-71842500D01*
X78086465Y-71842500D01*
X77879535Y-71842500D01*
X77879530Y-71842500D01*
X77676587Y-71882868D01*
X77676579Y-71882870D01*
X77485403Y-71962058D01*
X77313342Y-72077024D01*
X77313341Y-72077025D01*
X77225181Y-72165186D01*
X77163858Y-72198671D01*
X77094166Y-72193687D01*
X77038233Y-72151815D01*
X77013816Y-72086351D01*
X77013500Y-72077505D01*
X77013500Y-71168495D01*
X77033185Y-71101456D01*
X77085989Y-71055701D01*
X77155147Y-71045757D01*
X77218703Y-71074782D01*
X77225181Y-71080814D01*
X77313342Y-71168975D01*
X77313345Y-71168977D01*
X77485402Y-71283941D01*
X77676580Y-71363130D01*
X77879530Y-71403499D01*
X77879534Y-71403500D01*
X77879535Y-71403500D01*
X78086466Y-71403500D01*
X78086467Y-71403499D01*
X78289420Y-71363130D01*
X78480598Y-71283941D01*
X78652655Y-71168977D01*
X78798977Y-71022655D01*
X78913941Y-70850598D01*
X78993130Y-70659420D01*
X79033500Y-70456465D01*
X79033500Y-70249535D01*
X78993130Y-70046580D01*
X78913941Y-69855402D01*
X78798977Y-69683345D01*
X78798975Y-69683342D01*
X78652657Y-69537024D01*
X78547130Y-69466514D01*
X78480598Y-69422059D01*
X78289420Y-69342870D01*
X78289412Y-69342868D01*
X78086469Y-69302500D01*
X78086465Y-69302500D01*
X77879535Y-69302500D01*
X77879530Y-69302500D01*
X77676587Y-69342868D01*
X77676579Y-69342870D01*
X77485403Y-69422058D01*
X77313342Y-69537024D01*
X77313341Y-69537025D01*
X77225181Y-69625186D01*
X77163858Y-69658671D01*
X77094166Y-69653687D01*
X77038233Y-69611815D01*
X77013816Y-69546351D01*
X77013500Y-69537505D01*
X77013500Y-68628495D01*
X77033185Y-68561456D01*
X77085989Y-68515701D01*
X77155147Y-68505757D01*
X77218703Y-68534782D01*
X77225181Y-68540814D01*
X77313342Y-68628975D01*
X77313345Y-68628977D01*
X77485402Y-68743941D01*
X77676580Y-68823130D01*
X77879530Y-68863499D01*
X77879534Y-68863500D01*
X77879535Y-68863500D01*
X78086466Y-68863500D01*
X78086467Y-68863499D01*
X78289420Y-68823130D01*
X78480598Y-68743941D01*
X78652655Y-68628977D01*
X78798977Y-68482655D01*
X78913941Y-68310598D01*
X78993130Y-68119420D01*
X79033500Y-67916465D01*
X79033500Y-67709535D01*
X78993130Y-67506580D01*
X78913941Y-67315402D01*
X78798977Y-67143345D01*
X78798975Y-67143342D01*
X78652657Y-66997024D01*
X78514655Y-66904815D01*
X78480598Y-66882059D01*
X78480593Y-66882057D01*
X78289420Y-66802870D01*
X78289412Y-66802868D01*
X78086469Y-66762500D01*
X78086465Y-66762500D01*
X77879535Y-66762500D01*
X77879530Y-66762500D01*
X77676587Y-66802868D01*
X77676579Y-66802870D01*
X77485403Y-66882058D01*
X77313342Y-66997024D01*
X77313341Y-66997025D01*
X77225181Y-67085186D01*
X77163858Y-67118671D01*
X77094166Y-67113687D01*
X77038233Y-67071815D01*
X77013816Y-67006351D01*
X77013500Y-66997505D01*
X77013500Y-66088495D01*
X77033185Y-66021456D01*
X77085989Y-65975701D01*
X77155147Y-65965757D01*
X77218703Y-65994782D01*
X77225181Y-66000814D01*
X77313342Y-66088975D01*
X77313345Y-66088977D01*
X77485402Y-66203941D01*
X77676580Y-66283130D01*
X77879530Y-66323499D01*
X77879534Y-66323500D01*
X77879535Y-66323500D01*
X78086466Y-66323500D01*
X78086467Y-66323499D01*
X78289420Y-66283130D01*
X78480598Y-66203941D01*
X78652655Y-66088977D01*
X78798977Y-65942655D01*
X78913941Y-65770598D01*
X78993130Y-65579420D01*
X79033500Y-65376465D01*
X79033500Y-65169535D01*
X78993130Y-64966580D01*
X78913941Y-64775402D01*
X78798977Y-64603345D01*
X78798975Y-64603342D01*
X78652657Y-64457024D01*
X78514655Y-64364815D01*
X78480598Y-64342059D01*
X78480593Y-64342057D01*
X78289420Y-64262870D01*
X78289412Y-64262868D01*
X78086469Y-64222500D01*
X78086465Y-64222500D01*
X77879535Y-64222500D01*
X77879530Y-64222500D01*
X77676587Y-64262868D01*
X77676579Y-64262870D01*
X77485403Y-64342058D01*
X77313342Y-64457024D01*
X77313341Y-64457025D01*
X77225181Y-64545186D01*
X77163858Y-64578671D01*
X77094166Y-64573687D01*
X77038233Y-64531815D01*
X77013816Y-64466351D01*
X77013500Y-64457505D01*
X77013500Y-63548495D01*
X77033185Y-63481456D01*
X77085989Y-63435701D01*
X77155147Y-63425757D01*
X77218703Y-63454782D01*
X77225181Y-63460814D01*
X77313342Y-63548975D01*
X77313345Y-63548977D01*
X77485402Y-63663941D01*
X77676580Y-63743130D01*
X77860894Y-63779792D01*
X77879530Y-63783499D01*
X77879534Y-63783500D01*
X77879535Y-63783500D01*
X78086466Y-63783500D01*
X78086467Y-63783499D01*
X78289420Y-63743130D01*
X78480598Y-63663941D01*
X78652655Y-63548977D01*
X78798977Y-63402655D01*
X78913941Y-63230598D01*
X78993130Y-63039420D01*
X79033500Y-62836465D01*
X79033500Y-62629535D01*
X78993130Y-62426580D01*
X78913941Y-62235402D01*
X78798977Y-62063345D01*
X78798975Y-62063342D01*
X78652657Y-61917024D01*
X78499464Y-61814665D01*
X78480598Y-61802059D01*
X78480593Y-61802057D01*
X78289420Y-61722870D01*
X78289412Y-61722868D01*
X78086469Y-61682500D01*
X78086465Y-61682500D01*
X77879535Y-61682500D01*
X77879530Y-61682500D01*
X77676587Y-61722868D01*
X77676579Y-61722870D01*
X77485403Y-61802058D01*
X77313342Y-61917024D01*
X77313341Y-61917025D01*
X77225181Y-62005186D01*
X77163858Y-62038671D01*
X77094166Y-62033687D01*
X77038233Y-61991815D01*
X77013816Y-61926351D01*
X77013500Y-61917505D01*
X77013500Y-61008495D01*
X77033185Y-60941456D01*
X77085989Y-60895701D01*
X77155147Y-60885757D01*
X77218703Y-60914782D01*
X77225181Y-60920814D01*
X77313342Y-61008975D01*
X77313345Y-61008977D01*
X77485402Y-61123941D01*
X77676580Y-61203130D01*
X77792215Y-61226131D01*
X77879530Y-61243499D01*
X77879534Y-61243500D01*
X77879535Y-61243500D01*
X78086466Y-61243500D01*
X78086467Y-61243499D01*
X78289420Y-61203130D01*
X78480598Y-61123941D01*
X78652655Y-61008977D01*
X78798977Y-60862655D01*
X78913941Y-60690598D01*
X78993130Y-60499420D01*
X79033500Y-60296465D01*
X79033500Y-60089535D01*
X78993130Y-59886580D01*
X78913941Y-59695402D01*
X78798977Y-59523345D01*
X78798975Y-59523342D01*
X78652657Y-59377024D01*
X78514655Y-59284815D01*
X78480598Y-59262059D01*
X78480593Y-59262057D01*
X78289420Y-59182870D01*
X78289412Y-59182868D01*
X78086469Y-59142500D01*
X78086465Y-59142500D01*
X77879535Y-59142500D01*
X77879530Y-59142500D01*
X77676587Y-59182868D01*
X77676579Y-59182870D01*
X77485403Y-59262058D01*
X77313342Y-59377024D01*
X77313341Y-59377025D01*
X77225181Y-59465186D01*
X77163858Y-59498671D01*
X77094166Y-59493687D01*
X77038233Y-59451815D01*
X77013816Y-59386351D01*
X77013500Y-59377505D01*
X77013500Y-58468495D01*
X77033185Y-58401456D01*
X77085989Y-58355701D01*
X77155147Y-58345757D01*
X77218703Y-58374782D01*
X77225181Y-58380814D01*
X77313342Y-58468975D01*
X77313345Y-58468977D01*
X77485402Y-58583941D01*
X77676580Y-58663130D01*
X77879530Y-58703499D01*
X77879534Y-58703500D01*
X77879535Y-58703500D01*
X78086466Y-58703500D01*
X78086467Y-58703499D01*
X78289420Y-58663130D01*
X78480598Y-58583941D01*
X78652655Y-58468977D01*
X78661983Y-58459649D01*
X78684176Y-58437457D01*
X78745499Y-58403972D01*
X78771857Y-58401138D01*
X81213914Y-58401138D01*
X81280953Y-58420823D01*
X81301595Y-58437457D01*
X81813356Y-58949218D01*
X81846841Y-59010541D01*
X81849675Y-59036899D01*
X81849675Y-59077474D01*
X81879093Y-59187266D01*
X81877430Y-59257116D01*
X81875500Y-59262691D01*
X81852404Y-59324616D01*
X81852401Y-59324627D01*
X81846000Y-59384155D01*
X81846000Y-60177000D01*
X82412000Y-60177000D01*
X82479039Y-60196685D01*
X82524794Y-60249489D01*
X82536000Y-60301000D01*
X82536000Y-60367000D01*
X82543081Y-60374081D01*
X82576566Y-60435404D01*
X82579400Y-60461762D01*
X82579400Y-60650200D01*
X82589982Y-60650200D01*
X82590716Y-60661516D01*
X82609181Y-60679981D01*
X82642666Y-60741304D01*
X82645500Y-60767662D01*
X82645500Y-61326678D01*
X82660032Y-61399735D01*
X82660034Y-61399740D01*
X82705102Y-61467191D01*
X82725980Y-61533867D01*
X82726000Y-61536080D01*
X82726000Y-61802000D01*
X82773828Y-61802000D01*
X82773844Y-61801999D01*
X82833372Y-61795598D01*
X82833379Y-61795596D01*
X82968086Y-61745354D01*
X82968093Y-61745350D01*
X83083185Y-61659191D01*
X83083190Y-61659186D01*
X83125859Y-61602189D01*
X83181793Y-61560318D01*
X83225126Y-61552500D01*
X83300674Y-61552500D01*
X83336809Y-61545312D01*
X83385191Y-61545312D01*
X83421326Y-61552500D01*
X83850674Y-61552500D01*
X83886809Y-61545312D01*
X83935191Y-61545312D01*
X83971326Y-61552500D01*
X84400674Y-61552500D01*
X84436809Y-61545312D01*
X84485191Y-61545312D01*
X84521326Y-61552500D01*
X84596874Y-61552500D01*
X84663913Y-61572185D01*
X84696141Y-61602189D01*
X84738809Y-61659186D01*
X84738814Y-61659191D01*
X84853906Y-61745350D01*
X84853913Y-61745354D01*
X84988620Y-61795596D01*
X84988627Y-61795598D01*
X85048155Y-61801999D01*
X85048172Y-61802000D01*
X85096000Y-61802000D01*
X85096000Y-61536080D01*
X85115685Y-61469041D01*
X85116858Y-61467249D01*
X85161966Y-61399740D01*
X85176500Y-61326674D01*
X85176500Y-60774200D01*
X85196185Y-60707161D01*
X85248989Y-60661406D01*
X85300500Y-60650200D01*
X85352000Y-60650200D01*
X85419039Y-60669885D01*
X85464794Y-60722689D01*
X85476000Y-60774200D01*
X85476000Y-61802000D01*
X85523821Y-61802000D01*
X85523828Y-61801999D01*
X85547741Y-61799428D01*
X85574259Y-61799428D01*
X85598171Y-61801999D01*
X85598179Y-61802000D01*
X85646000Y-61802000D01*
X85646000Y-60774200D01*
X85665685Y-60707161D01*
X85718489Y-60661406D01*
X85770000Y-60650200D01*
X85821500Y-60650200D01*
X85888539Y-60669885D01*
X85934294Y-60722689D01*
X85945500Y-60774200D01*
X85945500Y-61326678D01*
X85960032Y-61399735D01*
X85960034Y-61399740D01*
X86005102Y-61467191D01*
X86025980Y-61533867D01*
X86026000Y-61536080D01*
X86026000Y-61802000D01*
X86073828Y-61802000D01*
X86073844Y-61801999D01*
X86133372Y-61795598D01*
X86133379Y-61795596D01*
X86268086Y-61745354D01*
X86268093Y-61745350D01*
X86383185Y-61659191D01*
X86383190Y-61659186D01*
X86425859Y-61602189D01*
X86481793Y-61560318D01*
X86525126Y-61552500D01*
X86600674Y-61552500D01*
X86636809Y-61545312D01*
X86685191Y-61545312D01*
X86721326Y-61552500D01*
X86796874Y-61552500D01*
X86863913Y-61572185D01*
X86896141Y-61602189D01*
X86938809Y-61659186D01*
X86938814Y-61659191D01*
X87053906Y-61745350D01*
X87053913Y-61745354D01*
X87188620Y-61795596D01*
X87188627Y-61795598D01*
X87248155Y-61801999D01*
X87248172Y-61802000D01*
X87296000Y-61802000D01*
X87296000Y-61536080D01*
X87315685Y-61469041D01*
X87316858Y-61467249D01*
X87361966Y-61399740D01*
X87376500Y-61326674D01*
X87376500Y-60774200D01*
X87396185Y-60707161D01*
X87448989Y-60661406D01*
X87500500Y-60650200D01*
X87552000Y-60650200D01*
X87619039Y-60669885D01*
X87664794Y-60722689D01*
X87676000Y-60774200D01*
X87676000Y-61802000D01*
X87723821Y-61802000D01*
X87723828Y-61801999D01*
X87747741Y-61799428D01*
X87774259Y-61799428D01*
X87798171Y-61801999D01*
X87798179Y-61802000D01*
X87846000Y-61802000D01*
X87846000Y-60774200D01*
X87865685Y-60707161D01*
X87918489Y-60661406D01*
X87970000Y-60650200D01*
X88102000Y-60650200D01*
X88169039Y-60669885D01*
X88214794Y-60722689D01*
X88226000Y-60774200D01*
X88226000Y-61802000D01*
X88273821Y-61802000D01*
X88273828Y-61801999D01*
X88297741Y-61799428D01*
X88324259Y-61799428D01*
X88348171Y-61801999D01*
X88348179Y-61802000D01*
X88396000Y-61802000D01*
X88396000Y-60774200D01*
X88415685Y-60707161D01*
X88468489Y-60661406D01*
X88520000Y-60650200D01*
X88652000Y-60650200D01*
X88719039Y-60669885D01*
X88764794Y-60722689D01*
X88776000Y-60774200D01*
X88776000Y-61802000D01*
X88823821Y-61802000D01*
X88823828Y-61801999D01*
X88847741Y-61799428D01*
X88874259Y-61799428D01*
X88898171Y-61801999D01*
X88898179Y-61802000D01*
X88946000Y-61802000D01*
X88946000Y-60774200D01*
X88965685Y-60707161D01*
X89018489Y-60661406D01*
X89070000Y-60650200D01*
X89202000Y-60650200D01*
X89269039Y-60669885D01*
X89314794Y-60722689D01*
X89326000Y-60774200D01*
X89326000Y-61827087D01*
X89329308Y-61833146D01*
X89324324Y-61902838D01*
X89282452Y-61958771D01*
X89247147Y-61977210D01*
X89124048Y-62018001D01*
X89124039Y-62018005D01*
X88979803Y-62106972D01*
X88979799Y-62106975D01*
X88859956Y-62226818D01*
X88824181Y-62284818D01*
X88772233Y-62331541D01*
X88703270Y-62342762D01*
X88644334Y-62318986D01*
X88562762Y-62257922D01*
X88562759Y-62257921D01*
X88562758Y-62257920D01*
X88434646Y-62210136D01*
X88434644Y-62210135D01*
X88434642Y-62210135D01*
X88378025Y-62204048D01*
X87837050Y-62204048D01*
X87837041Y-62204049D01*
X87780417Y-62210135D01*
X87652305Y-62257920D01*
X87542845Y-62339861D01*
X87460905Y-62449319D01*
X87413119Y-62577437D01*
X87407032Y-62634046D01*
X87407032Y-63225029D01*
X87407033Y-63225038D01*
X87413119Y-63281662D01*
X87458249Y-63402655D01*
X87460904Y-63409774D01*
X87542845Y-63519235D01*
X87542846Y-63519235D01*
X87542846Y-63519236D01*
X87557342Y-63530087D01*
X87599213Y-63586020D01*
X87607032Y-63629355D01*
X87607032Y-63779792D01*
X87587347Y-63846831D01*
X87570713Y-63867473D01*
X87407439Y-64030747D01*
X87346116Y-64064232D01*
X87319758Y-64067066D01*
X87205432Y-64067066D01*
X87138393Y-64047381D01*
X87136541Y-64046168D01*
X87054133Y-63991104D01*
X87054124Y-63991099D01*
X86935744Y-63942065D01*
X86935738Y-63942063D01*
X86810071Y-63917066D01*
X86810069Y-63917066D01*
X86681931Y-63917066D01*
X86681929Y-63917066D01*
X86556261Y-63942063D01*
X86556255Y-63942065D01*
X86437875Y-63991099D01*
X86437866Y-63991104D01*
X86355459Y-64046168D01*
X86288782Y-64067046D01*
X86286568Y-64067066D01*
X83632242Y-64067066D01*
X83565203Y-64047381D01*
X83544561Y-64030747D01*
X81125575Y-61611761D01*
X81092090Y-61550438D01*
X81091639Y-61548271D01*
X81078576Y-61482601D01*
X81072301Y-61451056D01*
X81034374Y-61359492D01*
X81030378Y-61349844D01*
X81846000Y-61349844D01*
X81852401Y-61409372D01*
X81852403Y-61409379D01*
X81902645Y-61544086D01*
X81902649Y-61544093D01*
X81988809Y-61659187D01*
X81988812Y-61659190D01*
X82103906Y-61745350D01*
X82103913Y-61745354D01*
X82238620Y-61795596D01*
X82238627Y-61795598D01*
X82298155Y-61801999D01*
X82298172Y-61802000D01*
X82346000Y-61802000D01*
X82346000Y-60720177D01*
X82335417Y-60557000D01*
X81846000Y-60557000D01*
X81846000Y-61349844D01*
X81030378Y-61349844D01*
X81023266Y-61332675D01*
X81023261Y-61332666D01*
X80952076Y-61226131D01*
X80952073Y-61226127D01*
X80861472Y-61135526D01*
X80861468Y-61135523D01*
X80754933Y-61064338D01*
X80754924Y-61064333D01*
X80636544Y-61015299D01*
X80636538Y-61015297D01*
X80510871Y-60990300D01*
X80510869Y-60990300D01*
X80382731Y-60990300D01*
X80382729Y-60990300D01*
X80257061Y-61015297D01*
X80257055Y-61015299D01*
X80138675Y-61064333D01*
X80138666Y-61064338D01*
X80032131Y-61135523D01*
X80032127Y-61135526D01*
X79941526Y-61226127D01*
X79941523Y-61226131D01*
X79870338Y-61332666D01*
X79870333Y-61332675D01*
X79821299Y-61451055D01*
X79821297Y-61451061D01*
X79796300Y-61576728D01*
X79796300Y-61576731D01*
X79796300Y-61704869D01*
X79796300Y-61704871D01*
X79796299Y-61704871D01*
X79821297Y-61830538D01*
X79821299Y-61830544D01*
X79870333Y-61948924D01*
X79870338Y-61948933D01*
X79941523Y-62055468D01*
X79941526Y-62055472D01*
X80032127Y-62146073D01*
X80032131Y-62146076D01*
X80138666Y-62217261D01*
X80138672Y-62217264D01*
X80138673Y-62217265D01*
X80257056Y-62266301D01*
X80321255Y-62279071D01*
X80354271Y-62285639D01*
X80416182Y-62318024D01*
X80417761Y-62319575D01*
X83066252Y-64968066D01*
X83180380Y-65033958D01*
X83307673Y-65068066D01*
X83307674Y-65068066D01*
X86286568Y-65068066D01*
X86353607Y-65087751D01*
X86355459Y-65088964D01*
X86437866Y-65144027D01*
X86437872Y-65144030D01*
X86437873Y-65144031D01*
X86556256Y-65193067D01*
X86556260Y-65193067D01*
X86556261Y-65193068D01*
X86681928Y-65218066D01*
X86681931Y-65218066D01*
X86810071Y-65218066D01*
X86894615Y-65201248D01*
X86935744Y-65193067D01*
X87054127Y-65144031D01*
X87136541Y-65088964D01*
X87203218Y-65068086D01*
X87205432Y-65068066D01*
X87644324Y-65068066D01*
X87644326Y-65068066D01*
X87771620Y-65033958D01*
X87885748Y-64968066D01*
X88508032Y-64345782D01*
X88573924Y-64231654D01*
X88608032Y-64104360D01*
X88608032Y-63972575D01*
X88608032Y-63661079D01*
X88627717Y-63594040D01*
X88680521Y-63548285D01*
X88749679Y-63538341D01*
X88813235Y-63567366D01*
X88837571Y-63595983D01*
X88859958Y-63632279D01*
X88979799Y-63752120D01*
X88979803Y-63752123D01*
X89124039Y-63841090D01*
X89124050Y-63841095D01*
X89284925Y-63894403D01*
X89384215Y-63904547D01*
X89907532Y-63904547D01*
X89930840Y-63904547D01*
X89930854Y-63904546D01*
X90030139Y-63894403D01*
X90191013Y-63841095D01*
X90191024Y-63841090D01*
X90335260Y-63752123D01*
X90335264Y-63752120D01*
X90455104Y-63632280D01*
X90455107Y-63632276D01*
X90544074Y-63488040D01*
X90544079Y-63488029D01*
X90597387Y-63327154D01*
X90607531Y-63227870D01*
X90607532Y-63227857D01*
X90607532Y-63179548D01*
X89907532Y-63179548D01*
X89907532Y-63904547D01*
X89384215Y-63904547D01*
X89407532Y-63904546D01*
X89407532Y-61926000D01*
X89427217Y-61858961D01*
X89480021Y-61813206D01*
X89486121Y-61811878D01*
X89496000Y-61802000D01*
X89496000Y-60769962D01*
X89515685Y-60702923D01*
X89532319Y-60682281D01*
X89564400Y-60650200D01*
X89564400Y-60177000D01*
X89876000Y-60177000D01*
X90376000Y-60177000D01*
X90376000Y-59384172D01*
X90375999Y-59384155D01*
X90369598Y-59324627D01*
X90369596Y-59324620D01*
X90319354Y-59189913D01*
X90319350Y-59189906D01*
X90233190Y-59074812D01*
X90233187Y-59074809D01*
X90118093Y-58988649D01*
X90118086Y-58988645D01*
X89983379Y-58938403D01*
X89983372Y-58938401D01*
X89923844Y-58932000D01*
X89876000Y-58932000D01*
X89876000Y-60177000D01*
X89564400Y-60177000D01*
X89564400Y-60091400D01*
X89532319Y-60059319D01*
X89498834Y-59997996D01*
X89496000Y-59971638D01*
X89496000Y-58932000D01*
X89448167Y-58932000D01*
X89424253Y-58934571D01*
X89397747Y-58934571D01*
X89373832Y-58932000D01*
X89326000Y-58932000D01*
X89326000Y-59967400D01*
X89306315Y-60034439D01*
X89253511Y-60080194D01*
X89202000Y-60091400D01*
X89070000Y-60091400D01*
X89002961Y-60071715D01*
X88957206Y-60018911D01*
X88946000Y-59967400D01*
X88946000Y-58932000D01*
X88898167Y-58932000D01*
X88874253Y-58934571D01*
X88847747Y-58934571D01*
X88823832Y-58932000D01*
X88776000Y-58932000D01*
X88776000Y-59967400D01*
X88756315Y-60034439D01*
X88703511Y-60080194D01*
X88652000Y-60091400D01*
X88520000Y-60091400D01*
X88452961Y-60071715D01*
X88407206Y-60018911D01*
X88396000Y-59967400D01*
X88396000Y-58932000D01*
X88348167Y-58932000D01*
X88324253Y-58934571D01*
X88297747Y-58934571D01*
X88273832Y-58932000D01*
X88226000Y-58932000D01*
X88226000Y-59967400D01*
X88206315Y-60034439D01*
X88153511Y-60080194D01*
X88102000Y-60091400D01*
X87970000Y-60091400D01*
X87902961Y-60071715D01*
X87857206Y-60018911D01*
X87846000Y-59967400D01*
X87846000Y-58932000D01*
X87798167Y-58932000D01*
X87774253Y-58934571D01*
X87747747Y-58934571D01*
X87723832Y-58932000D01*
X87676000Y-58932000D01*
X87676000Y-59967400D01*
X87656315Y-60034439D01*
X87603511Y-60080194D01*
X87552000Y-60091400D01*
X87500500Y-60091400D01*
X87433461Y-60071715D01*
X87387706Y-60018911D01*
X87376500Y-59967400D01*
X87376500Y-59407323D01*
X87361966Y-59334259D01*
X87332397Y-59290005D01*
X87311520Y-59223328D01*
X87311500Y-59221116D01*
X87311500Y-58105119D01*
X87311500Y-58105118D01*
X87311397Y-58104732D01*
X87285911Y-58009616D01*
X87236475Y-57923991D01*
X87210124Y-57897640D01*
X87176639Y-57836317D01*
X87173805Y-57809959D01*
X87173805Y-57769385D01*
X87173805Y-57769383D01*
X87136289Y-57629373D01*
X87122752Y-57605927D01*
X87063816Y-57503846D01*
X87063811Y-57503840D01*
X86961322Y-57401351D01*
X86961316Y-57401346D01*
X86835793Y-57328875D01*
X86835794Y-57328875D01*
X86804325Y-57320443D01*
X86695780Y-57291358D01*
X86550830Y-57291358D01*
X86442285Y-57320443D01*
X86410816Y-57328875D01*
X86358199Y-57359254D01*
X86290299Y-57375727D01*
X86224272Y-57352874D01*
X86181636Y-57299315D01*
X86179465Y-57294073D01*
X86179463Y-57294070D01*
X86179461Y-57294066D01*
X86108276Y-57187531D01*
X86108273Y-57187527D01*
X86017672Y-57096926D01*
X86017668Y-57096923D01*
X85911133Y-57025738D01*
X85911124Y-57025733D01*
X85792744Y-56976699D01*
X85792738Y-56976697D01*
X85667071Y-56951700D01*
X85667069Y-56951700D01*
X85538931Y-56951700D01*
X85538929Y-56951700D01*
X85413261Y-56976697D01*
X85413255Y-56976699D01*
X85294875Y-57025733D01*
X85294866Y-57025738D01*
X85188331Y-57096923D01*
X85188327Y-57096926D01*
X85097726Y-57187527D01*
X85097723Y-57187531D01*
X85026538Y-57294066D01*
X85026533Y-57294075D01*
X84977499Y-57412455D01*
X84977497Y-57412461D01*
X84952500Y-57538128D01*
X84952500Y-57538131D01*
X84952500Y-57666269D01*
X84952500Y-57666271D01*
X84952499Y-57666271D01*
X84977497Y-57791938D01*
X84977499Y-57791944D01*
X85026533Y-57910324D01*
X85026538Y-57910333D01*
X85097723Y-58016868D01*
X85097726Y-58016872D01*
X85188327Y-58107473D01*
X85188331Y-58107476D01*
X85294866Y-58178661D01*
X85294872Y-58178664D01*
X85294873Y-58178665D01*
X85413256Y-58227701D01*
X85501647Y-58245283D01*
X85563554Y-58277666D01*
X85565134Y-58279218D01*
X85909181Y-58623265D01*
X85942666Y-58684588D01*
X85945500Y-58710946D01*
X85945500Y-59967400D01*
X85925815Y-60034439D01*
X85873011Y-60080194D01*
X85821500Y-60091400D01*
X85770000Y-60091400D01*
X85702961Y-60071715D01*
X85657206Y-60018911D01*
X85646000Y-59967400D01*
X85646000Y-58932000D01*
X85598167Y-58932000D01*
X85574253Y-58934571D01*
X85547747Y-58934571D01*
X85523832Y-58932000D01*
X85476000Y-58932000D01*
X85476000Y-59967400D01*
X85456315Y-60034439D01*
X85403511Y-60080194D01*
X85352000Y-60091400D01*
X85300500Y-60091400D01*
X85233461Y-60071715D01*
X85187706Y-60018911D01*
X85176500Y-59967400D01*
X85176500Y-59407323D01*
X85161966Y-59334259D01*
X85132397Y-59290005D01*
X85111520Y-59223328D01*
X85111500Y-59221116D01*
X85111500Y-58911272D01*
X85111500Y-58911270D01*
X85085910Y-58815767D01*
X85036475Y-58730143D01*
X84966562Y-58660230D01*
X83701695Y-57395363D01*
X82408019Y-56101686D01*
X82374534Y-56040363D01*
X82371700Y-56014005D01*
X82371700Y-54830786D01*
X82391385Y-54763747D01*
X82408019Y-54743105D01*
X82436709Y-54714415D01*
X82509184Y-54588885D01*
X82546700Y-54448875D01*
X82546700Y-54303925D01*
X82509184Y-54163915D01*
X82479834Y-54113080D01*
X82436711Y-54038388D01*
X82436706Y-54038382D01*
X82334217Y-53935893D01*
X82334211Y-53935888D01*
X82208688Y-53863417D01*
X82208689Y-53863417D01*
X82197206Y-53860340D01*
X82068675Y-53825900D01*
X81923725Y-53825900D01*
X81795193Y-53860340D01*
X81783711Y-53863417D01*
X81658188Y-53935888D01*
X81658182Y-53935893D01*
X81555693Y-54038382D01*
X81555688Y-54038388D01*
X81483217Y-54163911D01*
X81483216Y-54163915D01*
X81445700Y-54303925D01*
X81445700Y-54448875D01*
X81483216Y-54588885D01*
X81483217Y-54588888D01*
X81555688Y-54714411D01*
X81555693Y-54714417D01*
X81584381Y-54743105D01*
X81617866Y-54804428D01*
X81620700Y-54830786D01*
X81620700Y-55347354D01*
X81601015Y-55414393D01*
X81548211Y-55460148D01*
X81479053Y-55470092D01*
X81434700Y-55454741D01*
X81384982Y-55426036D01*
X81384983Y-55426036D01*
X81373500Y-55422959D01*
X81244969Y-55388519D01*
X81100019Y-55388519D01*
X80971487Y-55422959D01*
X80960005Y-55426036D01*
X80834482Y-55498507D01*
X80834476Y-55498512D01*
X80731987Y-55601001D01*
X80731982Y-55601007D01*
X80659511Y-55726530D01*
X80659510Y-55726534D01*
X80621994Y-55866544D01*
X80621994Y-56011494D01*
X80659510Y-56151504D01*
X80659511Y-56151507D01*
X80731982Y-56277030D01*
X80731987Y-56277036D01*
X80740733Y-56285782D01*
X80774218Y-56347105D01*
X80769234Y-56416797D01*
X80760439Y-56435463D01*
X80700418Y-56539421D01*
X80700417Y-56539425D01*
X80662901Y-56679435D01*
X80662901Y-56824385D01*
X80668787Y-56846351D01*
X80700417Y-56964396D01*
X80702562Y-56969573D01*
X80710028Y-57039042D01*
X80678751Y-57101521D01*
X80675683Y-57104701D01*
X80644763Y-57135621D01*
X80633343Y-57155402D01*
X80572287Y-57261153D01*
X80534771Y-57401163D01*
X80534771Y-57401165D01*
X80534771Y-57526138D01*
X80515086Y-57593177D01*
X80462282Y-57638932D01*
X80410771Y-57650138D01*
X79155275Y-57650138D01*
X79088236Y-57630453D01*
X79042481Y-57577649D01*
X79033658Y-57550329D01*
X79006233Y-57412455D01*
X78993130Y-57346580D01*
X78913941Y-57155402D01*
X78798977Y-56983345D01*
X78798975Y-56983342D01*
X78652657Y-56837024D01*
X78489133Y-56727762D01*
X78480598Y-56722059D01*
X78289420Y-56642870D01*
X78289412Y-56642868D01*
X78086469Y-56602500D01*
X78086465Y-56602500D01*
X77879535Y-56602500D01*
X77879530Y-56602500D01*
X77676587Y-56642868D01*
X77676579Y-56642870D01*
X77485403Y-56722058D01*
X77313342Y-56837024D01*
X77313341Y-56837025D01*
X77225181Y-56925186D01*
X77163858Y-56958671D01*
X77094166Y-56953687D01*
X77038233Y-56911815D01*
X77013816Y-56846351D01*
X77013500Y-56837505D01*
X77013500Y-55928495D01*
X77033185Y-55861456D01*
X77085989Y-55815701D01*
X77155147Y-55805757D01*
X77218703Y-55834782D01*
X77225181Y-55840814D01*
X77313342Y-55928975D01*
X77313345Y-55928977D01*
X77485402Y-56043941D01*
X77676580Y-56123130D01*
X77819227Y-56151504D01*
X77879530Y-56163499D01*
X77879534Y-56163500D01*
X77879535Y-56163500D01*
X78086466Y-56163500D01*
X78086467Y-56163499D01*
X78289420Y-56123130D01*
X78480598Y-56043941D01*
X78652655Y-55928977D01*
X78798977Y-55782655D01*
X78913941Y-55610598D01*
X78993130Y-55419420D01*
X79033500Y-55216465D01*
X79033500Y-55009535D01*
X78993130Y-54806580D01*
X78913941Y-54615402D01*
X78798977Y-54443345D01*
X78798975Y-54443342D01*
X78652657Y-54297024D01*
X78499069Y-54194401D01*
X78480598Y-54182059D01*
X78289420Y-54102870D01*
X78289412Y-54102868D01*
X78086469Y-54062500D01*
X78086465Y-54062500D01*
X77879535Y-54062500D01*
X77879530Y-54062500D01*
X77676587Y-54102868D01*
X77676579Y-54102870D01*
X77485403Y-54182058D01*
X77313342Y-54297024D01*
X77313341Y-54297025D01*
X77225181Y-54385186D01*
X77163858Y-54418671D01*
X77094166Y-54413687D01*
X77038233Y-54371815D01*
X77013816Y-54306351D01*
X77013500Y-54297505D01*
X77013500Y-53388495D01*
X77033185Y-53321456D01*
X77085989Y-53275701D01*
X77155147Y-53265757D01*
X77218703Y-53294782D01*
X77225181Y-53300814D01*
X77313342Y-53388975D01*
X77313345Y-53388977D01*
X77485402Y-53503941D01*
X77676580Y-53583130D01*
X77837793Y-53615197D01*
X77879530Y-53623499D01*
X77879534Y-53623500D01*
X77879535Y-53623500D01*
X78086466Y-53623500D01*
X78086467Y-53623499D01*
X78289420Y-53583130D01*
X78480598Y-53503941D01*
X78652655Y-53388977D01*
X78798977Y-53242655D01*
X78913941Y-53070598D01*
X78932809Y-53025047D01*
X78976650Y-52970644D01*
X79042944Y-52948579D01*
X79047370Y-52948500D01*
X80263933Y-52948500D01*
X80330972Y-52968185D01*
X80351614Y-52984819D01*
X80858271Y-53491475D01*
X80932422Y-53534286D01*
X80943892Y-53540909D01*
X80943896Y-53540911D01*
X81039398Y-53566500D01*
X81039401Y-53566500D01*
X82706685Y-53566500D01*
X82706686Y-53566500D01*
X82754436Y-53553705D01*
X82802188Y-53540910D01*
X82887812Y-53491475D01*
X82957725Y-53421562D01*
X82957724Y-53421562D01*
X83016293Y-53362993D01*
X84013390Y-52365896D01*
X84074713Y-52332411D01*
X84101071Y-52329577D01*
X85215491Y-52329577D01*
X85282530Y-52349262D01*
X85303172Y-52365896D01*
X85331862Y-52394586D01*
X85331863Y-52394587D01*
X85331865Y-52394588D01*
X85457388Y-52467059D01*
X85457389Y-52467059D01*
X85457392Y-52467061D01*
X85597402Y-52504577D01*
X85597405Y-52504577D01*
X85742349Y-52504577D01*
X85742352Y-52504577D01*
X85882362Y-52467061D01*
X86007892Y-52394586D01*
X86110386Y-52292092D01*
X86182861Y-52166562D01*
X86220377Y-52026552D01*
X86220377Y-51881602D01*
X86182861Y-51741592D01*
X86150182Y-51684991D01*
X86110388Y-51616065D01*
X86110387Y-51616063D01*
X86110386Y-51616062D01*
X86007892Y-51513568D01*
X86007890Y-51513567D01*
X86007888Y-51513565D01*
X85882365Y-51441094D01*
X85882366Y-51441094D01*
X85870883Y-51438017D01*
X85742352Y-51403577D01*
X85597402Y-51403577D01*
X85468870Y-51438017D01*
X85457388Y-51441094D01*
X85331862Y-51513567D01*
X85303169Y-51542260D01*
X85241845Y-51575744D01*
X85215489Y-51578577D01*
X83844737Y-51578578D01*
X83844735Y-51578578D01*
X83816421Y-51586164D01*
X83816422Y-51586165D01*
X83749232Y-51604168D01*
X83728635Y-51616061D01*
X83728631Y-51616063D01*
X83688518Y-51639221D01*
X83620618Y-51655691D01*
X83554592Y-51632838D01*
X83538840Y-51619513D01*
X83442220Y-51522893D01*
X83442214Y-51522888D01*
X83316691Y-51450417D01*
X83316692Y-51450417D01*
X83294576Y-51444491D01*
X83176678Y-51412900D01*
X83031728Y-51412900D01*
X82913830Y-51444491D01*
X82891714Y-51450417D01*
X82802701Y-51501809D01*
X82734800Y-51518282D01*
X82678701Y-51501809D01*
X82589688Y-51450417D01*
X82589689Y-51450417D01*
X82567573Y-51444491D01*
X82449675Y-51412900D01*
X82304725Y-51412900D01*
X82199717Y-51441037D01*
X82164714Y-51450416D01*
X82126038Y-51472746D01*
X82058138Y-51489217D01*
X81992111Y-51466365D01*
X81976358Y-51453039D01*
X81967812Y-51444493D01*
X81967806Y-51444488D01*
X81842283Y-51372017D01*
X81842284Y-51372017D01*
X81830801Y-51368940D01*
X81702270Y-51334500D01*
X81557320Y-51334500D01*
X81473092Y-51357068D01*
X81403244Y-51355406D01*
X81353319Y-51324975D01*
X80103525Y-50075181D01*
X80070040Y-50013858D01*
X80075024Y-49944166D01*
X80116896Y-49888233D01*
X80182360Y-49863816D01*
X80191206Y-49863500D01*
X81397676Y-49863500D01*
X81397677Y-49863499D01*
X81470740Y-49848966D01*
X81553601Y-49793601D01*
X81608966Y-49710740D01*
X81623500Y-49637674D01*
X81623500Y-48942952D01*
X81643185Y-48875913D01*
X81695989Y-48830158D01*
X81765147Y-48820214D01*
X81828703Y-48849239D01*
X81863682Y-48899619D01*
X81902645Y-49004086D01*
X81902649Y-49004093D01*
X81988809Y-49119187D01*
X81988812Y-49119190D01*
X82103906Y-49205350D01*
X82103913Y-49205354D01*
X82238620Y-49255596D01*
X82238627Y-49255598D01*
X82298155Y-49261999D01*
X82298172Y-49262000D01*
X82346000Y-49262000D01*
X82346000Y-48172724D01*
X82335548Y-48017000D01*
X81846000Y-48017000D01*
X81835181Y-48027819D01*
X81773858Y-48061304D01*
X81704166Y-48056320D01*
X81648233Y-48014448D01*
X81623816Y-47948984D01*
X81623500Y-47940138D01*
X81623500Y-47888323D01*
X81623499Y-47888321D01*
X81608967Y-47815264D01*
X81608966Y-47815260D01*
X81598382Y-47799420D01*
X81553601Y-47732399D01*
X81470740Y-47677034D01*
X81470739Y-47677033D01*
X81470735Y-47677032D01*
X81397677Y-47662500D01*
X81397674Y-47662500D01*
X79920500Y-47662500D01*
X79853461Y-47642815D01*
X79807706Y-47590011D01*
X79796500Y-47538500D01*
X79796500Y-46744499D01*
X79816185Y-46677460D01*
X79832819Y-46656818D01*
X79908418Y-46581219D01*
X79969741Y-46547734D01*
X79996099Y-46544900D01*
X80036672Y-46544900D01*
X80036675Y-46544900D01*
X80176685Y-46507384D01*
X80302215Y-46434909D01*
X80404709Y-46332415D01*
X80477184Y-46206885D01*
X80514700Y-46066875D01*
X80514700Y-45921925D01*
X80477184Y-45781915D01*
X80475805Y-45779527D01*
X80404711Y-45656388D01*
X80404706Y-45656382D01*
X80302217Y-45553893D01*
X80302211Y-45553888D01*
X80176688Y-45481417D01*
X80176689Y-45481417D01*
X80165206Y-45478340D01*
X80036675Y-45443900D01*
X79891725Y-45443900D01*
X79763193Y-45478340D01*
X79751711Y-45481417D01*
X79626188Y-45553888D01*
X79626182Y-45553893D01*
X79523693Y-45656382D01*
X79523688Y-45656388D01*
X79451217Y-45781911D01*
X79451216Y-45781915D01*
X79413700Y-45921925D01*
X79413700Y-45921927D01*
X79413700Y-45962500D01*
X79394015Y-46029539D01*
X79377381Y-46050181D01*
X79190438Y-46237125D01*
X79120526Y-46307036D01*
X79071091Y-46392659D01*
X79071091Y-46392660D01*
X79071090Y-46392662D01*
X79045500Y-46488165D01*
X79045500Y-46488167D01*
X79045500Y-46783519D01*
X79025815Y-46850558D01*
X78973011Y-46896313D01*
X78903853Y-46906257D01*
X78840297Y-46877232D01*
X78818398Y-46852410D01*
X78798977Y-46823345D01*
X78798974Y-46823341D01*
X78652657Y-46677024D01*
X78556993Y-46613104D01*
X78480598Y-46562059D01*
X78414818Y-46534812D01*
X78289420Y-46482870D01*
X78289412Y-46482868D01*
X78086469Y-46442500D01*
X78086465Y-46442500D01*
X77879535Y-46442500D01*
X77879530Y-46442500D01*
X77676587Y-46482868D01*
X77676579Y-46482870D01*
X77485403Y-46562058D01*
X77313342Y-46677024D01*
X77313341Y-46677025D01*
X77225181Y-46765186D01*
X77163858Y-46798671D01*
X77094166Y-46793687D01*
X77038233Y-46751815D01*
X77013816Y-46686351D01*
X77013500Y-46677505D01*
X77013500Y-45768495D01*
X77033185Y-45701456D01*
X77085989Y-45655701D01*
X77155147Y-45645757D01*
X77218703Y-45674782D01*
X77225181Y-45680814D01*
X77313342Y-45768975D01*
X77313345Y-45768977D01*
X77485402Y-45883941D01*
X77676580Y-45963130D01*
X77879530Y-46003499D01*
X77879534Y-46003500D01*
X77879535Y-46003500D01*
X78086466Y-46003500D01*
X78086467Y-46003499D01*
X78289420Y-45963130D01*
X78480598Y-45883941D01*
X78652655Y-45768977D01*
X78798977Y-45622655D01*
X78913941Y-45450598D01*
X78993130Y-45259420D01*
X79033500Y-45056465D01*
X79033500Y-44849535D01*
X78993130Y-44646580D01*
X78913941Y-44455402D01*
X78798977Y-44283345D01*
X78798975Y-44283342D01*
X78652657Y-44137024D01*
X78566626Y-44079541D01*
X78480598Y-44022059D01*
X78289420Y-43942870D01*
X78289412Y-43942868D01*
X78086469Y-43902500D01*
X78086465Y-43902500D01*
X77879535Y-43902500D01*
X77879530Y-43902500D01*
X77676587Y-43942868D01*
X77676579Y-43942870D01*
X77485403Y-44022058D01*
X77313342Y-44137024D01*
X77313341Y-44137025D01*
X77225181Y-44225186D01*
X77163858Y-44258671D01*
X77094166Y-44253687D01*
X77038233Y-44211815D01*
X77013816Y-44146351D01*
X77013500Y-44137505D01*
X77013500Y-43228495D01*
X77033185Y-43161456D01*
X77085989Y-43115701D01*
X77155147Y-43105757D01*
X77218703Y-43134782D01*
X77225181Y-43140814D01*
X77313342Y-43228975D01*
X77313345Y-43228977D01*
X77485402Y-43343941D01*
X77676580Y-43423130D01*
X77879530Y-43463499D01*
X77879534Y-43463500D01*
X77879535Y-43463500D01*
X78086466Y-43463500D01*
X78086467Y-43463499D01*
X78289420Y-43423130D01*
X78480598Y-43343941D01*
X78652655Y-43228977D01*
X78798977Y-43082655D01*
X78913941Y-42910598D01*
X78993130Y-42719420D01*
X79033500Y-42516465D01*
X79033500Y-42309535D01*
X78993130Y-42106580D01*
X78913941Y-41915402D01*
X78798977Y-41743345D01*
X78798975Y-41743342D01*
X78652657Y-41597024D01*
X78520192Y-41508515D01*
X78480598Y-41482059D01*
X78480593Y-41482057D01*
X78310399Y-41411560D01*
X78255996Y-41367719D01*
X78233931Y-41301425D01*
X78251210Y-41233725D01*
X78302348Y-41186115D01*
X78357852Y-41172999D01*
X78582971Y-41172999D01*
X78582987Y-41172998D01*
X78685697Y-41162505D01*
X78852119Y-41107358D01*
X78852124Y-41107356D01*
X79001345Y-41015315D01*
X79125315Y-40891345D01*
X79217356Y-40742124D01*
X79217358Y-40742119D01*
X79272505Y-40575697D01*
X79272506Y-40575690D01*
X79282999Y-40472986D01*
X79283000Y-40472973D01*
X79283000Y-40123000D01*
X78298686Y-40123000D01*
X78303080Y-40118606D01*
X78355741Y-40027394D01*
X78366038Y-39988966D01*
X84592400Y-39988966D01*
X84592400Y-40620633D01*
X84609607Y-40751328D01*
X84643685Y-40878506D01*
X84651433Y-40897211D01*
X84651434Y-40897212D01*
X85243847Y-40304800D01*
X85243847Y-40304799D01*
X84651434Y-39712387D01*
X84643684Y-39731099D01*
X84643682Y-39731104D01*
X84609608Y-39858269D01*
X84592400Y-39988966D01*
X78366038Y-39988966D01*
X78383000Y-39925661D01*
X78383000Y-39820339D01*
X78355741Y-39718606D01*
X78303080Y-39627394D01*
X78298686Y-39623000D01*
X79282999Y-39623000D01*
X79282999Y-39273028D01*
X79282998Y-39273013D01*
X79272505Y-39170302D01*
X79238110Y-39066504D01*
X79235708Y-38996676D01*
X79271440Y-38936634D01*
X79333960Y-38905441D01*
X79355816Y-38903500D01*
X85127318Y-38903500D01*
X85194357Y-38923185D01*
G37*
%TD.AperFunction*%
%TA.AperFunction,Conductor*%
G36*
X88125715Y-43105577D02*
G01*
X88181648Y-43147449D01*
X88202156Y-43189664D01*
X88224646Y-43273598D01*
X88297117Y-43399120D01*
X88297122Y-43399126D01*
X88316737Y-43418741D01*
X88350222Y-43480064D01*
X88345238Y-43549756D01*
X88316737Y-43594103D01*
X87196800Y-44714040D01*
X87135477Y-44747525D01*
X87077028Y-44746134D01*
X87050774Y-44739099D01*
X87050769Y-44739099D01*
X86905819Y-44739099D01*
X86777287Y-44773539D01*
X86765805Y-44776616D01*
X86640282Y-44849087D01*
X86640276Y-44849092D01*
X86537787Y-44951581D01*
X86537782Y-44951587D01*
X86465311Y-45077110D01*
X86465310Y-45077114D01*
X86427794Y-45217124D01*
X86427794Y-45362074D01*
X86465310Y-45502084D01*
X86465311Y-45502087D01*
X86537782Y-45627610D01*
X86537787Y-45627616D01*
X86626155Y-45715984D01*
X86659640Y-45777307D01*
X86654656Y-45846999D01*
X86626155Y-45891346D01*
X86161821Y-46355681D01*
X86100498Y-46389166D01*
X86074140Y-46392000D01*
X86026000Y-46392000D01*
X86026000Y-46538932D01*
X86022734Y-46550053D01*
X86021775Y-46571025D01*
X86010500Y-46613104D01*
X86010500Y-46681116D01*
X85990815Y-46748155D01*
X85989603Y-46750005D01*
X85960033Y-46794260D01*
X85957617Y-46806408D01*
X85925231Y-46868319D01*
X85864515Y-46902893D01*
X85794746Y-46899152D01*
X85738074Y-46858285D01*
X85714383Y-46806408D01*
X85711966Y-46794260D01*
X85682397Y-46750005D01*
X85674675Y-46725343D01*
X85663295Y-46702139D01*
X85664405Y-46692544D01*
X85661520Y-46683328D01*
X85661500Y-46681116D01*
X85661500Y-45518641D01*
X85681185Y-45451602D01*
X85697814Y-45430965D01*
X87994702Y-43134076D01*
X88056023Y-43100593D01*
X88125715Y-43105577D01*
G37*
%TD.AperFunction*%
%TD*%
M02*
