%TF.GenerationSoftware,KiCad,Pcbnew,10.0.5*%
%TF.CreationDate,2026-08-24T13:01:00-07:00*%
%TF.ProjectId,VideoULA,56696465-6f55-44c4-912e-6b696361645f,01*%
%TF.SameCoordinates,Original*%
%TF.FileFunction,Soldermask,Bot*%
%TF.FilePolarity,Negative*%
%FSLAX46Y46*%
G04 Gerber Fmt 4.6, Leading zero omitted, Abs format (unit mm)*
G04 Created by KiCad (PCBNEW 10.0.5) date 2026-08-24 13:01:00*
%MOMM*%
%LPD*%
G01*
G04 APERTURE LIST*
G04 Aperture macros list*
%AMRoundRect*
0 Rectangle with rounded corners*
0 $1 Rounding radius*
0 $2 $3 $4 $5 $6 $7 $8 $9 X,Y pos of 4 corners*
0 Add a 4 corners polygon primitive as box body*
4,1,4,$2,$3,$4,$5,$6,$7,$8,$9,$2,$3,0*
0 Add four circle primitives for the rounded corners*
1,1,$1+$1,$2,$3*
1,1,$1+$1,$4,$5*
1,1,$1+$1,$6,$7*
1,1,$1+$1,$8,$9*
0 Add four rect primitives between the rounded corners*
20,1,$1+$1,$2,$3,$4,$5,0*
20,1,$1+$1,$4,$5,$6,$7,0*
20,1,$1+$1,$6,$7,$8,$9,0*
20,1,$1+$1,$8,$9,$2,$3,0*%
%AMFreePoly0*
4,1,23,0.500000,-0.750000,0.000000,-0.750000,0.000000,-0.745722,-0.065263,-0.745722,-0.191342,-0.711940,-0.304381,-0.646677,-0.396677,-0.554381,-0.461940,-0.441342,-0.495722,-0.315263,-0.495722,-0.250000,-0.500000,-0.250000,-0.500000,0.250000,-0.495722,0.250000,-0.495722,0.315263,-0.461940,0.441342,-0.396677,0.554381,-0.304381,0.646677,-0.191342,0.711940,-0.065263,0.745722,0.000000,0.745722,
0.000000,0.750000,0.500000,0.750000,0.500000,-0.750000,0.500000,-0.750000,$1*%
%AMFreePoly1*
4,1,23,0.000000,0.745722,0.065263,0.745722,0.191342,0.711940,0.304381,0.646677,0.396677,0.554381,0.461940,0.441342,0.495722,0.315263,0.495722,0.250000,0.500000,0.250000,0.500000,-0.250000,0.495722,-0.250000,0.495722,-0.315263,0.461940,-0.441342,0.396677,-0.554381,0.304381,-0.646677,0.191342,-0.711940,0.065263,-0.745722,0.000000,-0.745722,0.000000,-0.750000,-0.500000,-0.750000,
-0.500000,0.750000,0.000000,0.750000,0.000000,0.745722,0.000000,0.745722,$1*%
G04 Aperture macros list end*
%ADD10RoundRect,0.250000X-0.550000X-0.550000X0.550000X-0.550000X0.550000X0.550000X-0.550000X0.550000X0*%
%ADD11C,1.600000*%
%ADD12R,1.700000X1.700000*%
%ADD13R,0.380000X1.870000*%
%ADD14FreePoly0,0.000000*%
%ADD15FreePoly1,0.000000*%
%ADD16RoundRect,0.225000X-0.225000X-0.250000X0.225000X-0.250000X0.225000X0.250000X-0.225000X0.250000X0*%
G04 APERTURE END LIST*
%TO.C,JP1*%
G36*
X86097400Y-39554800D02*
G01*
X86397400Y-39554800D01*
X86397400Y-41054800D01*
X86097400Y-41054800D01*
X86097400Y-39554800D01*
G37*
%TD*%
D10*
%TO.C,IC6*%
X77983000Y-39873000D03*
D11*
X77983000Y-42413000D03*
X77983000Y-44953000D03*
X77983000Y-47493000D03*
X77983000Y-50033000D03*
X77983000Y-52573000D03*
X77983000Y-55113000D03*
X77983000Y-57653000D03*
X77983000Y-60193000D03*
X77983000Y-62733000D03*
X77983000Y-65273000D03*
X77983000Y-67813000D03*
X77983000Y-70353000D03*
X77983000Y-72893000D03*
X93223000Y-72893000D03*
X93223000Y-70353000D03*
X93223000Y-67813000D03*
X93223000Y-65273000D03*
X93223000Y-62733000D03*
X93223000Y-60193000D03*
X93223000Y-57653000D03*
X93223000Y-55113000D03*
X93223000Y-52573000D03*
X93223000Y-50033000D03*
X93223000Y-47493000D03*
X93223000Y-44953000D03*
X93223000Y-42413000D03*
X93223000Y-39873000D03*
%TD*%
D12*
%TO.C,J2*%
X80523000Y-48763000D03*
%TD*%
D13*
%TO.C,U2*%
X85836000Y-60367000D03*
X85286000Y-60367000D03*
X84736000Y-60367000D03*
X84186000Y-60367000D03*
X83636000Y-60367000D03*
X83086000Y-60367000D03*
X82536000Y-60367000D03*
X82536000Y-47827000D03*
X83086000Y-47827000D03*
X83636000Y-47827000D03*
X84186000Y-47827000D03*
X84736000Y-47827000D03*
X85286000Y-47827000D03*
X85836000Y-47827000D03*
X86386000Y-47827000D03*
X86936000Y-47827000D03*
X87486000Y-47827000D03*
X88036000Y-47827000D03*
X88586000Y-47827000D03*
X89136000Y-47827000D03*
X89686000Y-47827000D03*
X89686000Y-60367000D03*
X89136000Y-60367000D03*
X88586000Y-60367000D03*
X88036000Y-60367000D03*
X87486000Y-60367000D03*
X86936000Y-60367000D03*
X86386000Y-60367000D03*
%TD*%
D14*
%TO.C,JP1*%
X85597400Y-40304800D03*
D15*
X86897400Y-40304800D03*
%TD*%
D16*
%TO.C,C2*%
X88107532Y-62929548D03*
X89657532Y-62929548D03*
%TD*%
M02*
