M48
; DRILL file KiCad 10.0.5 date 2026-08-24T13:00:57
; FORMAT={-:-/ absolute / metric / decimal}
; #@! TF.CreationDate,2026-08-24T13:00:57-07:00
; #@! TF.GenerationSoftware,Kicad,Pcbnew,10.0.5
; #@! TF.FileFunction,Plated,1,2,PTH
FMAT,2
METRIC
; #@! TA.AperFunction,Plated,PTH,ViaDrill
T1C0.300
; #@! TA.AperFunction,Plated,PTH,ViaDrill
T2C0.400
; #@! TA.AperFunction,Plated,PTH,ComponentDrill
T3C0.800
; #@! TA.AperFunction,Plated,PTH,ComponentDrill
T4C1.000
%
G90
G05
T1
X79.964Y-45.994
X81.085Y-57.474
X81.172Y-55.939
X81.213Y-56.752
X81.63Y-51.885
X81.996Y-54.376
X82.377Y-51.963
X82.4Y-59.005
X83.104Y-51.963
X85.67Y-51.954
X86.623Y-57.842
X86.978Y-45.29
X87.913Y-40.938
X88.092Y-57.678
X88.412Y-51.871
X88.738Y-43.061
X89.182Y-51.86
X89.657Y-57.892
X90.047Y-56.77
X90.305Y-50.566
X90.329Y-39.939
X90.329Y-40.866
X90.329Y-41.793
X90.329Y-42.72
T2
X78.745Y-64.003
X80.447Y-61.641
X80.928Y-47.036
X81.234Y-54.884
X81.944Y-59.736
X82.377Y-43.662
X83.468Y-55.037
X85.119Y-53.132
X85.149Y-42.66
X85.603Y-57.602
X86.746Y-64.568
X87.786Y-56.307
X88.03Y-43.49
X88.219Y-46.248
X89.743Y-64.028
X89.87Y-44.47
X89.935Y-58.936
X90.251Y-45.471
X91.14Y-61.488
X92.53Y-56.446
T3
X77.983Y-39.873
X77.983Y-42.413
X77.983Y-44.953
X77.983Y-47.493
X77.983Y-50.033
X77.983Y-52.573
X77.983Y-55.113
X77.983Y-57.653
X77.983Y-60.193
X77.983Y-62.733
X77.983Y-65.273
X77.983Y-67.813
X77.983Y-70.353
X77.983Y-72.893
X93.223Y-39.873
X93.223Y-42.413
X93.223Y-44.953
X93.223Y-47.493
X93.223Y-50.033
X93.223Y-52.573
X93.223Y-55.113
X93.223Y-57.653
X93.223Y-60.193
X93.223Y-62.733
X93.223Y-65.273
X93.223Y-67.813
X93.223Y-70.353
X93.223Y-72.893
T4
X80.523Y-48.763
M30
